<svg xmlns="http://www.w3.org/2000/svg" xml:space="preserve" viewBox="0 0 600 400" id="balance-life">
  <path fill="#6A8C53" d="M381.449 372.264h102.749s5.911-11.285 14.939-21.173 9.888-14.939 6.234-17.196-17.304 3.439-25.257 8.276c-7.953 4.836-18.916 16.337-18.916 16.337s39.82-39.229 29.18-47.935-40.788 9.351-52.073 18.379c-11.285 9.028-22.087 19.185-22.087 19.185s24.183-20.421 14.348-27.461c-9.834-7.04-36.274 24.075-42.078 34.877-5.803 10.799-7.039 16.711-7.039 16.711z"></path>
  <path fill="#282727" d="M475.922 316.805s-20.636 16.122-31.061 29.664c-10.425 13.542-17.734 25.795-17.734 25.795h-2.365s11.5-22.678 27.514-36.972c16.015-14.295 23.646-18.487 23.646-18.487zM390.907 372.264s6.879-16.444 14.295-25.365 15.907-16.498 15.907-16.498-13.65 12.951-19.561 24.666-8.141 17.196-8.141 17.196h-2.5v.001zM466.437 372.264s7.658-11.231 14.509-17.841c6.852-6.61 12.494-11.285 12.494-11.285s-12.736 12.414-16.605 17.331c-3.869 4.917-8.303 11.796-8.303 11.796l-2.095-.001z"></path>
  <path fill="#1E1D1D" d="M438.791 236.631s11.155-4.747 11.88-3.578c.726 1.169-7.376 5.441-7.376 5.441s4.917.846 3.789 2.58c-1.129 1.733-5.723 1.316-5.723 1.316s1.773 1.183 1.249 2.191c-.524 1.008-2.982 1.812-2.982 1.812s-3.467 1.855-7.376.848c-3.91-1.008-5.804-3.507-4.877-5.038.927-1.531 4.877-4.312 7.134-4.554 2.258-.243 4.282-1.018 4.282-1.018z"></path>
  <path fill="#FFE9D7" d="m420.282 227.33 2.015 4.03s4.071-.605 4.353 1.37c.282 1.975-1.008 3.506-.726 4.675s1.088 2.015 1.088 2.015l15.678-12.817s.726 2.499-1.169 4.837c-1.894 2.338-4.635 3.668-4.635 3.668s3.95 2.499 2.66 3.95-4.393.121-4.393.121 3.063 2.741 1.451 4.071-6.731.484-6.731.484 1.572 1.975 3.466 2.459 8.988 0 11.205.242c2.217.242 4.877 2.418 4.877 2.418s-3.063-1.37-4.071-1.29c-1.008.081-2.781.524-2.781.524l3.95 1.33h-4.514s3.103.967 4.957 2.096c1.854 1.128 2.217 1.652 2.217 1.652s-3.668-1.532-6.408-1.532-9.875 3.184-15.114 3.023c-5.24-.161-8.383-4.635-8.424-9.068-.04-4.433 1.652-4.756.927-7.9-.726-3.144.484-6.287.484-6.287l-.362-4.071z"></path>
  <circle cx="423.285" cy="233.88" r=".544" fill="#1E1D1D"></circle>
  <path fill="#1E1D1D" d="m427.013 239.421-3.184 2.499 2.558-3.373zM110.556 113.196s-6.476-10.248-7.738-9.699c-1.261.549 2.973 8.67 2.973 8.67s-4.526-2.1-4.583-.033 3.96 4.337 3.96 4.337-2.132-.035-2.274 1.092c-.142 1.127 1.422 3.186 1.422 3.186s1.797 3.498 5.585 4.892c3.789 1.394 6.768.416 6.876-1.371s-1.559-6.321-3.278-7.803c-1.718-1.482-2.943-3.271-2.943-3.271z"></path>
  <path fill="#FFE9D7" d="m131.07 116.07-3.95 2.169s-3.005-2.812-4.36-1.348-1.165 3.457-2.062 4.258c-.897.801-2.041 1.039-2.041 1.039l-5.608-19.458s-2.018 1.643-1.789 4.643 1.727 5.653 1.727 5.653-4.67-.191-4.434 1.736 3.545 2.598 3.545 2.598-4.078.513-3.508 2.523c.57 2.011 5.262 4.225 5.262 4.225s-2.416.731-4.249.051c-1.833-.679-7.393-5.111-9.354-6.173s-5.387-.784-5.387-.784 3.299.615 4.082 1.254 1.99 2.012 1.99 2.012l-4.005-1.152 3.713 2.567s-3.103-.969-5.27-1.095-2.763.099-2.763.099 3.888.826 6.142 2.384c2.254 1.559 6.312 8.234 10.713 11.081 4.402 2.847 9.532.955 12.086-2.669 2.554-3.624 1.345-4.852 3.73-7.025 2.384-2.173 3.178-5.447 3.178-5.447l2.612-3.141z"></path>
  <circle cx="124.883" cy="119.749" r=".544" fill="#1E1D1D"></circle>
  <path fill="#1E1D1D" d="m118.658 122.189 1.198 3.866-.186-4.23z"></path>
  <path fill="#6A8C53" d="M151.07 356.915s8.706-3.654 9.512-12.253c.806-8.598-17.25-38.262-17.25-38.262l-3.224 1.29 1.451-5.804s-26.44-18.54-32.082-16.605c-5.643 1.935-12.091 13.542-10.157 21.925 1.935 8.383 28.697 46.323 37.725 48.956 9.028 2.633 14.025.753 14.025.753zM124.308 364.76s3.386-2.579 3.063-6.287c-.322-3.708-20.152-22.893-22.893-23.538s-8.061 1.756-6.932 5.553c1.128 3.797 19.507 24.111 21.119 25.078 1.613.968 5.643-.806 5.643-.806z"></path>
  <path fill="#1E1D1D" d="M154.939 373.936a.31.31 0 0 1-.306-.265c-.032-.222-3.322-22.414-12.224-40.697-8.896-18.267-22.203-30.095-22.336-30.213a.309.309 0 1 1 .409-.463c.134.117 13.531 12.023 22.483 30.406 8.946 18.371 12.248 40.656 12.28 40.879a.31.31 0 0 1-.262.35c-.015.003-.029.003-.044.003z"></path>
  <path fill="#1E1D1D" d="m146.55 342.133-.039-.002-15.954-2.052a.31.31 0 0 1-.267-.346.304.304 0 0 1 .346-.267l15.954 2.052a.31.31 0 0 1-.04.615zM143.709 335.313a.31.31 0 0 1-.28-.44l4.782-10.172a.314.314 0 0 1 .411-.149.31.31 0 0 1 .149.411l-4.782 10.172a.312.312 0 0 1-.28.178zM131.58 315.348l-.03-.002-13.882-1.331a.309.309 0 0 1-.278-.337.3.3 0 0 1 .337-.278l13.882 1.331a.309.309 0 0 1-.029.617zM136.175 321.782a.308.308 0 0 1-.294-.404l3.127-9.645a.308.308 0 0 1 .389-.199.308.308 0 0 1 .199.389l-3.127 9.645a.309.309 0 0 1-.294.214zM122.343 304.804a.308.308 0 0 1-.308-.339l.595-6.073a.31.31 0 0 1 .615.059l-.595 6.073a.308.308 0 0 1-.307.28zM129.064 373.936a.312.312 0 0 1-.285-.188c-.042-.101-4.32-10.117-9.791-16.936-5.494-6.848-15.53-18.414-15.63-18.53a.309.309 0 1 1 .467-.405c.101.117 10.144 11.691 15.646 18.55 5.524 6.886 9.834 16.98 9.877 17.081a.31.31 0 0 1-.164.406.358.358 0 0 1-.12.022z"></path>
  <path fill="#1E1D1D" d="M118.748 356.33a.31.31 0 0 1-.308-.343l.482-4.4c.019-.168.176-.28.341-.274a.31.31 0 0 1 .274.341l-.482 4.4a.31.31 0 0 1-.307.276zM109.396 352.454a.31.31 0 0 1-.307-.268.31.31 0 0 1 .266-.348l5.547-.746a.316.316 0 0 1 .348.266.31.31 0 0 1-.266.348l-5.547.746-.041.002zM110.258 346.153a.307.307 0 0 1-.304-.356l.629-4.02a.304.304 0 0 1 .352-.258.307.307 0 0 1 .257.352l-.629 4.02a.309.309 0 0 1-.305.262z"></path>
  <path fill="#C46600" d="M398.761 70.614s-.055-.031-.15-.088c-.572-.34-2.916-1.474-3.236-2.639-.887-3.224 2.136-10.56 12.656-12.696s18.822 3.507 21.482 6.328 2.741 5.28 2.459 6.408c-.282 1.129-2.123 1.881-2.123 1.881l-31.088.806z"></path>
  <path fill="#BA3587" d="M399.002 69.808c.818-1.2 10.21-2.794 18.486-2.311 8.276.484 11.446.828 12.038 1.112.591.285.534 1.429.534 1.429s-1.394 1.381-8.917 2.026c-7.523.645-21.496.537-21.496.537s-1.451-1.611-.645-2.793z"></path>
  <path fill="#C60000" d="M398.357 75.451c1.147-.882 28.535-1.666 29.879-1.075 1.343.591 1.021 3.878.322 4.089-.698.21-29.663.925-29.663.925s-1.935-2.864-.538-3.939z"></path>
  <path fill="#6A8C53" d="M399.647 72.603c1.946-.38 2.15-2.365 3.762-2.311s3.762 1.825 5.804 1.155c2.042-.671 5.428-2.767 7.147-2.659 1.72.108 3.869 2.199 6.395 1.906 2.526-.294 6.126-1.744 7.094-.885.967.86.591 2.579 2.257 2.794s1.881-.591 2.257.752c.376 1.343-.322 2.257-1.988 2.472-1.666.215-3.225.371-3.225.371h-31.256s-5.017-.264-5.286-1.231.668-2.589 3.505-2.477c2.835.113 1.33.543 3.534.113z"></path>
  <path fill="#1E1D1D" d="m404.241 74.17-1.37-2.696s.94.421 1.075 1.016c.134.596.295 1.68.295 1.68zM413.512 73.328l1.826-2.714s.215.322-.215 1.129c-.429.806-1.611 1.585-1.611 1.585zM424.071 73.14l2.902-2.096s-.242.904-.752 1.446c-.511.543-2.15.65-2.15.65z"></path>
  <path fill="#C46600" d="M396.745 79.535c1.069-.166 31.598-1.666 32.942-.914 1.344.752 1.182 4.783 0 7.577-1.182 2.794-2.902 3.869-2.902 3.869l-24.451.537s-4.837-1.505-5.589-4.568c-.753-3.062-.932-6.356 0-6.501z"></path>
  <path fill="#FFE9D7" d="M405.853 57.932s-1.491.766-1.491 1.27 1.33-.484 1.491-.846c.162-.364 0-.424 0-.424zM407.262 59.986s-1.107 1.259-.922 1.728 1.06-.937 1.077-1.334-.155-.394-.155-.394zM409.821 59.441s-1.107 1.259-.922 1.728 1.06-.938 1.077-1.334c.017-.396-.155-.394-.155-.394zM412.038 56.922s-1.107 1.259-.922 1.728 1.06-.937 1.077-1.334c.017-.396-.155-.394-.155-.394zM412.129 61.05s-.458 1.613-.089 1.956c.368.344.554-1.302.399-1.668-.156-.364-.31-.288-.31-.288zM409.411 56.81s-1.325 1.027-1.232 1.522c.093.495 1.218-.72 1.31-1.106.092-.386-.078-.416-.078-.416zM413.784 59.698s.156 1.669.624 1.856.045-1.414-.231-1.699c-.277-.284-.393-.157-.393-.157zM414.812 57.166s.156 1.669.624 1.856.045-1.415-.231-1.699c-.277-.285-.393-.157-.393-.157zM416.773 61.237s.525 1.592 1.023 1.67c.498.078-.271-1.389-.605-1.604s-.418-.066-.418-.066zM418.103 59.686s.855 1.442 1.358 1.411c.503-.031-.564-1.298-.936-1.437-.371-.138-.422.026-.422.026zM419.057 58.249s1.275 1.089 1.741.897c.466-.191-.953-1.047-1.349-1.058-.397-.012-.392.161-.392.161z"></path>
  <path fill="#1E1D1D" d="m173.339 25.956-9.649 1.423.353 2.395c-6.05 4.436-9.512 11.982-8.341 19.921 1.171 7.939 6.663 14.164 13.736 16.665l.353 2.395 9.649-1.423c11.426-1.685 19.322-12.313 17.637-23.739-1.684-11.426-12.313-19.322-23.738-17.637z"></path>
  <circle cx="166.74" cy="48.065" r="20.912" fill="#38305E"></circle>
  <path fill="#A35824" d="M149.035 83.082s-2.284-3.977-2.929-5.266c-.645-1.29-1.903-1.932-1.903-1.932l16.59-32.036s4.551 5.916 6.485 9.355c1.935 3.439 5.858 14.886 5.858 14.886l-24.101 14.993z"></path>
  <path fill="#1E1D1D" d="M246.097 80.577s-4.282-8.296-.332-9.506c3.95-1.209 6.61 3.386 7.497.806.887-2.579-2.741-8.437 1.773-8.894s6.207 8.491 8.544 6.234c2.338-2.257-.403-10.963 5.159-11.205s8.545 4.782 11.446 3.479c2.902-1.303 8.303-14.522 13.139-12.507 4.837 2.015 6.852 2.418 8.303 1.29 1.451-1.128 3.305-.484 2.983 2.418s-4.057 5.804-4.057 5.804l-14.785 18.902-39.67 3.179zM301.196 65.469s.914 5.199 2.929 5.602c2.015.403 6.368-4.998 9.592-3.869s-1.773 6.046-1.451 6.449 3.852-1.451 4.868.806c1.016 2.257-1.291 4.477-1.291 4.477h-18.168l1.37-14.258 2.151.793z"></path>
  <path fill="#DE9641" d="m250.253 153.265 74.267-4.299.403-23.081-5.24-46.35-8.92-1.397-41.756-1.236-10.156.913-10.64 49.44z"></path>
  <path fill="#A35824" d="M269.007 76.902h14.724l1.988-12.252s-4.836-1.182-4.245-5.481 5.858-2.526 6.556-1.72c.699.806 1.558 5.32 1.558 5.32s1.343-1.397 2.203-2.902c.86-1.505 1.182-3.923 1.182-3.923s1.612 1.935 3.762 1.881 3.815-.806 3.815-.806v4.622s4.138-1.935 4.084-.054-4.084 4.299-4.084 4.299l.484 11.554 9.727.699s3.224 15.799-6.126 22.57c-9.351 6.771-19.615 4.622-25.311 1.827-5.696-2.794-11.017-11.608-11.5-17.841-.482-6.235 1.183-7.793 1.183-7.793z"></path>
  <path fill="#1E1D1D" d="M284.404 60.041s.699-.242 1.626.443 1.102 2.499 1.102 2.499l-2.728-2.942z"></path>
  <path fill="#A35824" d="M258.851 77.815s-6.234 1.075-16.337 3.654c-10.103 2.58-48.58 24.05-50.3 23.74s-11.715-22.558-11.715-22.558l-25.15 14.295s13.435 34.93 20.743 41.271c7.308 6.341 18.594 1.397 24.29-.86 5.696-2.257 47.398-16.874 47.398-16.874l.43 6.771s9.781-8.193 11.285-22.045c1.505-13.852-.644-27.394-.644-27.394zM319.683 79.535s7.577 1.612 15.154 7.255 26.278 21.442 27.407 20.636c1.129-.806 9.995-9.834 9.995-9.834l16.605 18.862s-15.477 20.896-24.021 24.877-15.638-2.952-21.119-6.015-18.379-12.736-18.379-12.736l-.403 3.305s-6.852-4.192-7.658-17.653c-.805-13.462 2.419-28.697 2.419-28.697z"></path>
  <path fill="#1E1D1D" d="m237.248 196.578 39.337 8.276 7.845-20.421 14.08 12.145 39.659-17.734-13.649-29.878-74.267 4.299z"></path>
  <path fill="#DE9641" d="m372.24 97.591 8.786-8.867 17.331 17.009-9.512 10.721zM155.35 96.946l-6.315-13.864 24.102-14.993 7.363 14.563z"></path>
  <path fill="#A35824" d="M298.51 196.578s24.397 25.365 27.084 34.823c2.687 9.458-10.64 69.216-10.963 73.407-.322 4.192 1.827 7.738 1.827 7.738l41.11-5.132s2.445-3.654 0-5.992-7.362-1.585-7.362-1.585-4.286-.967-3.923-5.522c.363-4.554 16.39-55.714 14.456-66.462-1.935-10.748-22.57-49.01-22.57-49.01l-39.659 17.735z"></path>
  <path fill="#1E1D1D" d="m335.442 301.389 14.765-1.552s3.11 1.411 3.251 3.789c.141 2.378-1.418 4.479-1.418 4.479l-.781.098s1.574-3.206.647-5.08-2.459-2.378-2.459-2.378l-4.993.584s1.326 1.229 1.144 3.527c-.181 2.297-1.55 4.247-1.55 4.247l-.749.094s1.271-2.668.969-4.441-1.693-3.345-1.693-3.345l-7.133-.022zM327.045 292.448s.887 1.961.161 3.332c-.726 1.37-3.144 2.15-3.144 2.15s2.096-1.182 2.553-2.848c.457-1.666.43-2.634.43-2.634z"></path>
  <path fill="#A35824" d="M276.585 204.854s-35.414 91.195-35.736 96.354c-.322 5.159.269 7.416 1.827 8.491s3.386 1.075 3.386 1.075l5.374-.322s3.547.537 4.03 3.762c.484 3.224-2.472 6.341-2.472 6.341l-45.839 6.126s-3.386-3.144-1.935-8.786c1.451-5.643 32.028-121.315 32.028-121.315l39.337 8.274z"></path>
  <path fill="#1E1D1D" d="m226.178 313.541 19.883-2.768s2.727.591 3.292 3.816c.564 3.224-1.412 6.64-1.412 6.64l-1.903.254s1.905-3.711 1.582-6.008c-.322-2.297-2.418-3.426-2.418-3.426l-5.723.887s1.842 1.653 1.243 4.313c-.598 2.66-2.3 5.253-2.3 5.253l-1.859.248s2.996-5.541 2.553-7.194c-.443-1.652-1.532-2.378-1.532-2.378l-11.406.363zM215.618 305.399s.967 2.418 2.821 2.338c1.854-.081 2.862-4.03 2.862-4.03s-1.37 2.862-2.841 2.821c-1.472-.04-2.842-1.129-2.842-1.129z"></path>
  <path fill="#A35824" d="M381.026 88.724s6.368-5.401 10.398-7.497 6.426-1.838 6.426-1.838l31.836 6.809s4.702-1.021 6.556.027c1.854 1.048 3.224 5.804 3.224 5.804l-6.368 1.129-.484 2.902s-14.06.887-19.242 1.935-10.744 3.627-12.034 4.595c-1.29.967-2.983 3.144-2.983 3.144l-17.329-17.01z"></path>
  <path fill="#1E1D1D" d="M397.85 91.465s4.623-2.459 15.523-2.741c10.899-.282 14.849.322 16.864 1.37 2.015 1.048 2.862 3.063 2.862 3.063l-.175 1.052s-.873-2.302-5.387-3.43-19.787-.586-22.569-.233c-2.782.355-7.118.919-7.118.919z"></path>
  <path fill="#A1BDCE" d="m155.35 46.163 10.452-3.063s3.869-.322 5.32 2.58-1.129 5.401-1.129 5.401l-10.076 3.789-4.567-8.707z"></path>
  <path fill="#D36101" d="m183.168 329.223 188.231-23.85.81 6.399-188.23 23.849z"></path>
  <circle cx="274.801" cy="348.616" r="24.333" fill="#DE9641"></circle>
  <circle cx="274.801" cy="348.616" r="16.932" fill="#F8F2ED"></circle>
  <path fill="#1E1D1D" d="m139.998 34.228-9.649 1.423.353 2.395c-6.051 4.436-9.512 11.982-8.341 19.921s6.663 14.164 13.736 16.665l.353 2.395 9.649-1.423c11.426-1.685 19.322-12.313 17.637-23.739-1.684-11.425-12.312-19.322-23.738-17.637z"></path>
  <circle cx="133.401" cy="56.337" r="20.912" fill="#38305E"></circle>
  <circle cx="133.29" cy="55.232" r="7.884" fill="#D36101"></circle>
  <path fill="#1E1D1D" d="M132.604 61.246a7.884 7.884 0 0 1 2.132-13.759 7.879 7.879 0 0 0-7.752 3.021 7.884 7.884 0 0 0 8.903 12.169 7.826 7.826 0 0 1-3.283-1.431zM295.205 61.129s.537-.994 1.451-.967 1.478.699 1.478.699-.94-.497-1.706-.296c-.766.202-1.223.564-1.223.564zM296.408 68.048s.685.282 1.491.383c.806.101 1.491-.101 1.491-.101s-.967.524-1.713.363c-.746-.161-1.269-.645-1.269-.645z"></path>
  <path fill="#282727" d="M223.856 372.984h101.889v1.287H223.856z"></path>
</svg>
