<svg xmlns="http://www.w3.org/2000/svg" xml:space="preserve" viewBox="0 0 600 400" id="preparing-healthy-meal">
  <path fill="#435A2C" d="M551.257 349.24s5.933-1.772 7.011-4.931c1.079-3.159-2.928-4.006-2.234-7.165.693-3.159 12.25-5.239 14.716-11.018 2.466-5.778-6.01-4.777-6.703-8.398s10.555-13.591 8.321-17.967-12.636.863-16.488 4.561-6.01 8.937-9.092 6.857c-3.082-2.08-4.083-3.467-7.165-1.541-3.082 1.926-31.82 39.602-31.82 39.602h43.454z"></path>
  <path fill="#6A8C53" d="M499.541 287.802s4.872 2.831 7.132-.867 4.315-24.655 10.889-29.689c6.575-5.034 9.04-3.904 10.273-1.746 1.233 2.157.514 5.547 5.137 4.52 4.623-1.027 19.827-13.458 23.73-8.629 3.904 4.828-6.883 22.6-5.445 26.093 1.438 3.493 5.206 3.082 6.301 7.294 1.095 4.212-3.63 10.581-12.26 15.409-8.629 4.828-14.69 9.04-13.56 12.43 1.13 3.39 8.116 3.801 8.116 10.17s-32.052 26.453-32.052 26.453h-27.737l-6.934-36.674 26.41-24.764z"></path>
  <path fill="#1E1D1D" d="M491.777 349.536a.294.294 0 0 1-.27-.417c.105-.232 10.602-23.385 20.763-41.334 10.169-17.96 35.119-47.962 35.369-48.262a.296.296 0 0 1 .454.378c-.251.301-25.167 30.261-35.309 48.175-10.148 17.925-20.634 41.055-20.739 41.286a.293.293 0 0 1-.268.174z"></path>
  <path fill="#1E1D1D" d="M497.978 336.35a.295.295 0 0 1-.283-.212l-4.763-16.041a.295.295 0 1 1 .566-.168l4.763 16.041a.295.295 0 0 1-.283.38zM505.999 320.309a.295.295 0 0 1-.074-.581l17.932-4.622a.296.296 0 0 1 .148.572l-17.932 4.622a.318.318 0 0 1-.074.009zM520.532 295.687a.297.297 0 0 1-.294-.262l-2.764-24.175a.298.298 0 0 1 .26-.328c.166-.008.309.098.328.26l2.764 24.175a.298.298 0 0 1-.26.328l-.034.002zM526.752 286.985a.296.296 0 0 1-.058-.586l19.574-3.894a.293.293 0 0 1 .348.232.297.297 0 0 1-.232.348l-19.574 3.894a.286.286 0 0 1-.058.006zM525.472 349.536a.297.297 0 0 1-.218-.496l39.14-42.685c.111-.119.298-.128.418-.018s.128.297.018.418l-39.14 42.685a.298.298 0 0 1-.218.096z"></path>
  <path fill="#1E1D1D" d="M548.49 324.433a.294.294 0 0 1-.295-.286.297.297 0 0 1 .286-.305l15.403-.468c.135-.008.3.123.305.286a.297.297 0 0 1-.286.305l-15.403.468h-.01zM542.106 331.396a.295.295 0 0 1-.295-.288l-.402-15.196a.296.296 0 0 1 .288-.303c.198.008.298.125.303.288l.402 15.196a.296.296 0 0 1-.288.303h-.008zM532.625 341.735a.295.295 0 0 1-.013-.59l18.632-.881c.156.008.301.118.309.281s-.118.302-.281.309l-18.632.881h-.015zM526.428 348.494a.295.295 0 0 1-.282-.209l-2.497-8.152a.294.294 0 1 1 .564-.172l2.497 8.152a.294.294 0 0 1-.282.381z"></path>
  <ellipse cx="310.888" cy="258.574" fill="#A1BDCE" rx="16.334" ry="19.108"></ellipse>
  <ellipse cx="310.888" cy="260.766" fill="#598CB2" rx="13.476" ry="15.764"></ellipse>
  <path fill="#598CB2" d="m309.106 239.58-.701-24.632s1.002-2.812 3.852-2.388c2.851.424 2.966 2.851 2.966 2.851l-2.551 24.17-3.566-.001z"></path>
  <path fill="#1E1D1D" d="M312.382 215.578c-.305 0-.615-.063-.927-.188-2.78-1.121-1.722-10.655-1.592-11.738l.781.094c-.461 3.861-.571 10.239 1.104 10.914.45.182.869.175 1.285-.021 1.374-.648 2.153-3.06 2.16-3.084l.751.237c-.035.112-.889 2.763-2.573 3.559a2.311 2.311 0 0 1-.989.227z"></path>
  <path fill="#38305E" d="M377.15 158.78c-11.021 0-19.955 8.934-19.955 19.955v2.234h39.91v-2.234c0-11.021-8.934-19.955-19.955-19.955zM236.498 158.78c-11.021 0-19.955 8.934-19.955 19.955v2.234h39.91v-2.234c0-11.021-8.935-19.955-19.955-19.955z"></path>
  <path fill="#1E1D1D" d="M377.15 159.962c-.651 0-1.18-.528-1.181-1.179l-.203-108.944a1.182 1.182 0 0 1 1.179-1.184h.002c.651 0 1.18.528 1.181 1.179l.203 108.944a1.182 1.182 0 0 1-1.179 1.184h-.002zM236.497 159.962h-.012a1.182 1.182 0 0 1-1.17-1.193l1.063-108.944c.006-.652.572-1.189 1.193-1.17a1.182 1.182 0 0 1 1.17 1.193l-1.063 108.944a1.18 1.18 0 0 1-1.181 1.17z"></path>
  <ellipse cx="377.15" cy="180.97" fill="#D36101" rx="19.955" ry="4.777"></ellipse>
  <path fill="#DE9641" d="M370.693 176.448s-.305 5.831 6.456 5.869c6.761.039 6.03-5.903 6.03-5.903s-2.428-.222-6.03-.222a83.543 83.543 0 0 0-6.456.256z"></path>
  <ellipse cx="236.498" cy="180.97" fill="#D36101" rx="19.955" ry="4.777"></ellipse>
  <path fill="#DE9641" d="M230.041 176.448s-.305 5.831 6.456 5.869c6.761.039 6.03-5.903 6.03-5.903s-2.232-.222-5.905-.222c-3.527.001-6.581.256-6.581.256z"></path>
  <path fill="#1E1D1D" d="M99.84 349.24h459.533v2.106H99.84z"></path>
  <path fill="#DE9641" d="M209.271 208.039s15.409 1.746 23.936 11.711 31.435 40.27 31.435 40.27v-16.129l23.833-2.157s6.831 41.862-1.644 55.731c-8.475 13.868-22.344 8.629-28.816 4.006-6.472-4.623-22.344-17.567-22.344-17.567l-29.586-71.345 3.186-4.52z"></path>
  <path fill="#027333" d="m141.521 349.24-3.236-68.264 12.328-59.634 9.759-3.647 37.702-7.705 11.197-1.952 14.896 42.838s11.095 5.034 13.355 18.594-6.266 21.984-6.266 21.984l11.095 57.785h-100.83v.001z"></path>
  <path fill="#DE9641" d="m57.232 218.723 20.494-17.721s28.199 27.891 31.435 28.97 41.451-8.629 41.451-8.629 2.157 26.658 0 39.14-12.328 20.494-12.328 20.494l-1.079-16.642s-23.268 5.856-29.124 6.318-14.177-4.006-19.108-9.554c-4.929-5.548-31.741-42.376-31.741-42.376zM167.949 216.026v-6.703s-6.241.539-6.626-4.006c-.385-4.546 4.7-3.467 5.702-2.542 1.002.925 1.618 2.157 1.618 2.157s1.618-1.387 2.658-2.697c1.04-1.31.886-2.697.886-2.697s1.965 2.273 4.623 2.62 5.047-.424 5.047-.424l3.082 10.979 13.137-2.722 16.231 49.002-51.262 8.732s-.308-19.21-.514-27.634c-.205-8.424-2.157-22.395-2.157-22.395l7.575-1.67z"></path>
  <path fill="#D36101" d="M282.363 209.958v-4.303s-13.817.74-23.679 6.287-19.724 15.718-23.217 20.751c-3.493 5.034-11.506 14.177-11.506 14.177s-7.628-1.258-16.95 1.438c-9.323 2.697-14.177 7.584-14.254 8.916s7.088 10.269 16.95 10.5 15.332-8.244 19.185-16.565c3.852-8.321 8.398-18.036 16.026-24.235s14.205-10.565 14.205-10.565l13.917-6.402 9.323.001z"></path>
  <path fill="#1E1D1D" d="m148.263 261.368-11.056 2.966.112 1.734z"></path>
  <path fill="#DDA783" d="M57.232 218.723s-12.225-16.129-16.848-19.21c-4.623-3.082-13.047-7.602-13.047-7.602l5.65-14.382s5.291 0 10.684 1.49 8.013 3.339 8.013 3.339-1.387-8.835-.514-10.838 4.212-2.671 4.212-2.671 2.363 7.91 5.393 13.047c3.03 5.136 16.95 19.108 16.95 19.108l-20.493 17.719z"></path>
  <path fill="#1E1D1D" d="M50.259 197.265s-2.196-5.432-1.772-9.092c.424-3.66 3.197-5.817 3.197-5.817s-2.543 3.814-2.427 6.587c.116 2.775 1.002 8.322 1.002 8.322zM29.199 187.174l11.057 4.531-11.324-3.852zM31.329 181.75l11.572 4.151-11.397-4.595zM167.949 213.74l-6.754-.205s.976-16.95 8.681-19.21 10.984 3.859 11.981 7.409c.997 3.551-3.454 8.616-3.454 8.616l-10.454 3.39z"></path>
  <path fill="#02421C" d="m179.685 299.365 31.024-6.061s1.746 13.868.822 16.129c-.925 2.26-25.477 9.657-27.84 8.937-2.362-.719-4.006-19.005-4.006-19.005z"></path>
  <path fill="#DDA783" d="m264.642 243.891-.822-12.122s-8.116-7.294-8.321-9.862 7.602-10.17 12.019-11.3 7.088-.719 8.527.719c1.438 1.438 10.376 10.558 10.889 13.754.514 3.196 1.541 16.653 1.541 16.653l-23.833 2.158z"></path>
  <path fill="#1E1D1D" d="m280.476 225.503-10.671 12.443s-1.387.116-1.926-1.695 3.236-7.628 3.236-7.628-4.045 2.852-5.124 3.102c-1.079.25-2.17.044-2.17.044l10.53-6.689s-5.124 7.896-5.393 9.437c-.27 1.541.308 2.196.539 2.234.231.039 10.979-11.248 10.979-11.248zM265.439 216.36s-3.929 3.75-5.47 4.957c-1.541 1.207-3.152 3.121-3.152 3.121l.387.503 8.235-8.581zM269.984 220.65s-2.645 2.573-4.854 4.291c-2.209 1.717-4.345 3.931-4.345 3.931l.581.576 8.618-8.798z"></path>
  <path fill="#FFE9D7" d="M195.57 257.439s3.236-4.353 10.671-6.78c7.435-2.427 15.217-2.311 15.602-2.042s-7.05 5.74-14.523 7.589c-7.474 1.849-11.673 2.196-11.75 1.233z"></path>
  <path fill="#FC9365" d="m266.961 208.49-11.179-7.912s-2.465 1.618-2.042 4.199c.424 2.581 4.618 7.35 4.618 7.35l8.603-3.637z"></path>
  <path fill="#FFE9D7" d="M191.448 226.581c-.264.857-.502 1.716-.654 2.589-.171.866-.279 1.745-.247 2.606.041.854.187 1.709.623 2.379l.372.459c.156.142.303.296.466.43.327.267.667.518 1.042.722.728.444 1.557.725 2.394 1.137.832.388 1.673 1.1 2.004 2.019.693 1.753.659 3.687.061 5.38.144-.884.18-1.776.07-2.646-.091-.865-.299-1.73-.682-2.482-.699-1.572-2.63-1.781-4.241-2.728a7.6 7.6 0 0 1-1.147-.819c-.18-.152-.341-.324-.512-.486-.159-.186-.31-.393-.457-.594-.504-.87-.64-1.853-.595-2.774.091-1.855.683-3.598 1.503-5.192zM194.222 218.517c-.097.87-.153 1.738-.11 2.599.02.859.115 1.715.345 2.523.236.802.573 1.57 1.111 2.166a17.36 17.36 0 0 0 1.831 1.785c.641.572 1.34 1.1 1.976 1.761.639.645 1.142 1.535 1.296 2.432.355 1.766.331 3.535.126 5.276-.06-.874-.112-1.743-.236-2.602-.097-.859-.238-1.715-.477-2.524-.389-1.65-1.863-2.594-3.201-3.748-.663-.585-1.31-1.205-1.88-1.897-.599-.737-.965-1.619-1.132-2.509-.341-1.783-.155-3.586.351-5.262zM205.727 219.493c-.181 1.404-.147 2.825.186 4.136.181.65.436 1.273.815 1.807.376.539.848 1.085 1.308 1.597.456.528.95 1.025 1.412 1.603.452.572.857 1.321.882 2.097.081 1.456-.059 2.865-.289 4.271-.075-1.413-.146-2.84-.321-4.199-.167-1.292-1.341-2.164-2.272-3.249-.471-.55-.928-1.075-1.34-1.71a5.777 5.777 0 0 1-.793-2.086c-.257-1.455-.065-2.93.412-4.267z"></path>
  <path fill="#DDA783" d="M167.914 209.323v6.703l16.989-3.313-3.082-10.979s-2.388.771-5.046.424-4.623-2.62-4.623-2.62.154 1.387-.886 2.697-2.658 2.697-2.658 2.697-.616-1.233-1.618-2.157c-1.002-.925-6.087-2.003-5.702 2.542.385 4.545 6.626 4.006 6.626 4.006z"></path>
  <path fill="#1E1D1D" d="M172.186 205.111s.796.642 1.952.616c1.156-.026 1.746-.976 1.746-.976s-.578 1.156-1.541 1.4-2.157-1.04-2.157-1.04zM177.559 204.584s.796.642 1.952.616c1.156-.026 1.746-.976 1.746-.976s-.578 1.156-1.541 1.4-2.157-1.04-2.157-1.04zM163.499 204.816s.828-1.079 2.1-.539c1.271.539.944 2.523.944 2.523l-3.044-1.984zM231.255 291.455s-1.818 1.798-3.606 2.055c-1.787.257-3.277 0-3.277 0s2.774 1.746 4.88.976c2.106-.771 2.003-3.031 2.003-3.031z"></path>
  <path fill="#38305E" d="M389.664 209.958s-10.684.649-17.464 4.964-25.477 42.303-25.477 42.303l17.053 13.788 21.779-13.788s1.644-27.92 2.466-34.906c.821-6.986 1.643-12.361 1.643-12.361z"></path>
  <path fill="#FFE9D7" d="m360.9 349.24 1.856-44.975 22.799-47.041s1.442-23.794 1.954-29.35c.512-5.556 2.155-17.916 2.155-17.916l9.503-.532-4.623 59.223 52.392-3.082 7.448-57.734h4.931l-.616 66.158 20.443 36.572.925 38.678-119.167-.001z"></path>
  <path fill="#A1BDCE" d="M389.202 310.254s-4.212-6.318-5.445-9.169-2.139-5.707-2.139-5.707l5.601-3.987 79.517-15.192 2.466 1.079.894 17.103-62.609 22.576-17.181-2.62-1.104-4.083z"></path>
  <path fill="#38305E" d="m493.729 269.779-26.992 9.502V276.2s-1.233-.616-3.005-1.233c-1.772-.616-5.034-.976-5.034-.976l.616-66.158s13.047 2.106 17.669 11.197c4.624 9.092 16.746 50.749 16.746 50.749zM413.446 209.066l15.062-.205 4.867-.154 13.56 51.313v5.547l-52.392 3.082s.308-27.9 1.079-37.989c.77-10.089 3.544-21.235 3.544-21.235l14.28-.359z"></path>
  <path fill="#1E1D1D" d="M407.314 199.729s-5.202-4.062-4.072-10.277c1.13-6.215 4.417-6.523 5.29-5.958s1.746 3.801 2.979 2.311c1.233-1.49-3.544-11.711 1.233-17.772s12.482-6.061 15.358-1.746-.668 10.632-1.027 13.149c-.36 2.517 2.157.616 3.236 2.311 1.079 1.695-.308 4.109 1.644 4.315 1.952.205 7.602-4.931 10.119-2.774s2.671 6.421-.308 8.013-9.862 3.287-8.732 4.366 9.297 1.644 6.626 6.472-10.735 2.209-12.841 1.849c-2.106-.36-3.829 1.031-3.829 1.031l-15.676-5.29z"></path>
  <path fill="#027333" d="m433.375 208.707 21.008-.873s.822 29.997 1.027 36.572c.205 6.575 1.541 16.437 1.541 16.437l-14.074.925-.719-4.006-9.554.308s-.822-24.45 0-35.133c.823-10.686.771-14.23.771-14.23z"></path>
  <path fill="#1E1D1D" d="M440.72 210.915s-.308 28.251 0 35.339c.308 7.088 1.438 11.506 1.438 11.506l-1.575.488s-1.738-23.962-1.198-31.435 1.335-15.898 1.335-15.898z"></path>
  <path fill="#A35824" d="M412.367 239.988s4.726-.514 5.856.925c1.13 1.438 5.441 20.483 4.315 23.32s-48.488 36.983-52.289 38.832-17.464 2.26-23.525-3.904-8.835-18.286-6.472-25.169 6.472-16.767 6.472-16.767l17.053 13.788 21.779-13.788 10.992-6.861s3.339-6.369 5.907-9.092c2.568-2.722 7.551-8.321 7.551-8.321s1.541 1.284 2.106 3.185c.563 1.9.255 3.852.255 3.852z"></path>
  <path fill="#1E1D1D" d="m404.136 246.46 9.092-4.661s-.501.732-2.966 2.331c-2.466 1.598-6.126 2.33-6.126 2.33z"></path>
  <path fill="#DE9641" d="m394.544 223.345 12.182 21.786 3.726-1.91-11.054-21.648z"></path>
  <path fill="#A35824" d="M464.759 292.482s1.207-3.917 1.554-6.343c.347-2.427.424-6.857.424-6.857l26.992-9.502s8.372 22.138 7.756 30.305-3.236 12.482-20.032 21.881c-16.796 9.4-61.175 15.409-68.109 18.183-6.934 2.774-20.88 5.933-20.88 5.933s-1.233-2.388 0-4.315c1.233-1.926 9.092-5.393 9.092-5.393s-8.758-10.966-11.223-15.384c-2.466-4.417-3.287-7.448-3.082-8.372.205-.925 1.952-2.363 1.952-2.363l1.798 2.311s13.509-.719 14.023-.77 1.181-1.695.771-2.466c-.411-.77-8.27-6.087-8.45-9.117-.18-3.031 1.824-4.674 1.824-4.674s8.783 5.933 11.095 6.934c2.311 1.002 9.246 5.458 9.246 5.458l45.249-15.449z"></path>
  <path fill="#598CB2" d="M387.22 291.391s6.091 1.065 28.127-1.631c22.035-2.697 43.146-7.474 46.613-9.361 3.467-1.888 4.777-4.199 4.777-4.199s-2.675-1.214-4.593-1.657c-1.918-.443-3.446-.552-3.446-.552s-22.446.462-34.26 2.363c-11.814 1.9-22.364 4.22-22.364 4.22l-14.854 10.817z"></path>
  <path fill="#DE9641" d="m421.767 265.154 11.102 22.029-3.733.619-10.519-19.903z"></path>
  <path fill="#A35824" d="m409.56 209.176-2.157-8.218s-.084-1.78.081-2.567.278-1.234.278-1.234 1.141.966 3.062.213c1.921-.752 1.895-3.295 2.537-3.295s1.9 4.7 3.287 4.366 3.236-3.364 5.162-3.236c1.926.128 3.354 2.269 2.717 3.87-.637 1.6-3.154 2.037-3.154 2.037l3.249 7.859-15.062.205z"></path>
  <path fill="#1E1D1D" d="M420.32 199.244s.308-1.04.751-1.695 1.425-.809 1.425-.809l-2.176 2.504z"></path>
  <ellipse cx="410.326" cy="201.624" fill="#1E1D1D" rx=".416" ry=".848" transform="rotate(-15.399 410.334 201.598)"></ellipse>
  <ellipse cx="413.831" cy="200.546" fill="#1E1D1D" rx=".416" ry=".848" transform="rotate(-15.399 413.826 200.563)"></ellipse>
  <circle cx="166.234" cy="333.317" r="9.246" fill="#D36101"></circle>
  <path fill="#598CB2" d="M117.842 349.24s-4.417-2.003-6.266-3.955-2.671-4.52-2.671-4.52h70.78s-1.952 3.39-3.596 4.931-5.034 3.544-5.034 3.544h-53.213z"></path>
  <path fill="#C60000" d="M133.046 340.765v-21.111l13.443-14.327v35.438z"></path>
  <ellipse cx="139.708" cy="311.786" fill="#D14A4A" rx="10.964" ry="3.761" transform="rotate(-56.536 139.712 311.797)"></ellipse>
  <circle cx="144.295" cy="305.298" r="1.258" fill="#C60000"></circle>
  <circle cx="136.822" cy="315.262" r=".809" fill="#C60000"></circle>
  <circle cx="140.26" cy="311.227" r="1.551" fill="#C60000"></circle>
  <circle cx="140.883" cy="307.411" r=".624" fill="#C60000"></circle>
  <circle cx="139.306" cy="316.476" r=".597" fill="#C60000"></circle>
  <circle cx="135.57" cy="319.096" r=".443" fill="#C60000"></circle>
  <path fill="#FFE9D7" d="M115.479 340.765s-13.663-3.287-14.485-3.852-2.157-5.856-.411-8.064c1.746-2.209 3.904-2.311 5.136-1.952s27.326 10.119 27.326 10.119v3.75h-17.566v-.001z"></path>
  <path fill="#FC691F" d="M133.046 331.776S117.5 321.657 116.387 321.4c-1.113-.257-4.144 1.798-4.76 3.339-.616 1.541 0 4.302 0 4.302l21.419 7.974v-5.239z"></path>
  <path fill="#435A2C" d="m87.28 323.046-2.311.512 14.871 7.135z"></path>
  <path fill="#435A2C" d="m81.784 328.129.617 2.825 17.439-.261z"></path>
  <path fill="#435A2C" d="m91.749 333.752 1.541 1.414 6.55-4.473zM94.009 319.096l.514 2.972 17.104 2.671zM93.495 311.227l-.77 1.551 18.902 11.961zM98.17 308.303l13.457 16.436-10.221-16.18z"></path>
  <path fill="#BA3587" d="M124.557 326.318s-.757-2.753 1.015-4.939 2.273-2.726 2.273-2.726l-.462-8.629 1.926 7.628.27-4.161 1.156 5.605 2.311.946v11.735l-8.489-5.459z"></path>
  <path fill="#FFE9D7" d="M162.555 291.301s.154 8.781-2.543 14.561-6.703 14.159-8.706 16.056c-2.003 1.897-5.896 3.214-8.27 6.212-2.374 2.998-1.438 8.167-.899 9.477s2.157 3.159 2.157 3.159h11.634s4.315-1.776 4.931-7.013-3.544-8.011-3.929-11.016 3.852-9.554 6.78-12.328a681.146 681.146 0 0 0 6.01-5.778l-10.016 7.782s3.236-8.475 5.778-10.787c2.543-2.311 7.859-5.085 7.859-5.085s-4.161 1.156-6.472 2.234c-2.311 1.079-5.008 5.265-5.008 5.265s2.312-9.426.694-12.739z"></path>
  <path fill="#FC9365" d="M155.852 323.815s1.438 3.082 1.079 7.961c-.36 4.88-4.212 8.372-4.212 8.372s2.578-3.521 3.287-8.372-.154-7.961-.154-7.961zM155.133 320.9s-.976 1.477-2.414 2.915c-1.438 1.438-5.342 3.339-7.037 6.78s-.205 8.527-.205 8.527.154-8.218 2.568-10.376c2.414-2.157 4.931-4.058 5.958-5.136 1.027-1.079 1.13-2.71 1.13-2.71zM152.257 328.438s-1.541 1.901-1.849 6.164-.405 5.547-.405 5.547l2.254-11.711z"></path>
  <path fill="#1E1D1D" d="M167.101 326.28s.719 1.9 2.08 2.928c1.361 1.027 3.596.437 3.596.437s-2.337-.103-3.403-.912c-1.066-.809-2.273-2.453-2.273-2.453z"></path>
  <path fill="#6A8C53" d="M173.843 314.184s.385 1.464 0 4.777-4.469 9.477-4.469 9.477 3.185-7.859 3.403-9.862 1.066-4.392 1.066-4.392zM177.849 317.189l-8.475 11.544s4.546-4.726 6.106-7.153c1.56-2.427 2.369-4.391 2.369-4.391zM179.236 321.696c-1.079.231-9.862 7.037-9.862 7.037s4.546-2.106 6.703-3.878 3.159-3.159 3.159-3.159z"></path>
  <path fill="#FC9365" d="M338.497 317.014c4.238-.077 10.941.462 12.328 5.008s0 5.547 0 5.547 2.08.693 2.157 3.621c.077 2.928 0 14.151 0 14.151h-28.893s-1.04-13.727-.462-14.729 1.541-1.348 1.541-1.348-2.581-2.658-2.042-5.201 5.201-5.971 9.246-6.51c4.044-.539 6.125-.539 6.125-.539z"></path>
  <path fill="#FFE9D7" d="M335.1 317.014c4.238-.077 10.941.462 12.327 5.008 1.387 4.546 0 5.547 0 5.547s2.08.693 2.157 3.621c.077 2.928 0 14.151 0 14.151h-28.893s-1.04-13.727-.462-14.729 1.541-1.348 1.541-1.348-2.581-2.658-2.042-5.201 5.201-5.971 9.246-6.51c4.046-.539 6.126-.539 6.126-.539z"></path>
  <path fill="#FC9365" d="M323.128 314.338c4.238-.077 10.941.462 12.328 5.008s0 5.547 0 5.547 2.08.693 2.157 3.621c.077 2.928 0 14.151 0 14.151H308.72s-1.04-13.727-.462-14.729 1.541-1.348 1.541-1.348-2.581-2.658-2.042-5.201 5.201-5.971 9.246-6.51c4.044-.539 6.125-.539 6.125-.539z"></path>
  <path fill="#FFE9D7" d="M319.731 314.338c4.238-.077 10.941.462 12.327 5.008 1.387 4.546 0 5.547 0 5.547s2.08.693 2.157 3.621c.077 2.928 0 14.151 0 14.151h-28.893s-1.04-13.727-.462-14.729 1.541-1.348 1.541-1.348-2.581-2.658-2.042-5.201 5.201-5.971 9.246-6.51c4.046-.539 6.126-.539 6.126-.539z"></path>
  <path fill="#598CB2" d="M300.906 342.665h56.039s-.308.488-1.502 1.066-2.658 3.775-4.238 4.469c-1.579.693-3.583 1.04-3.583 1.04h-41.169s-1.695-.719-2.62-2.568-2.363-2.928-2.671-3.287c-.307-.36-.256-.72-.256-.72z"></path>
  <path fill="#A1BDCE" d="m227.198 307.411 69.342-.315s.077 24.886-3.236 31.05-11.865 6.78-20.109 7.088c-8.244.308-32.206 0-36.289-1.541-4.084-1.541-7.936-9.862-8.398-14.639-.463-4.777-1.31-21.643-1.31-21.643z"></path>
  <path fill="#1E1D1D" d="M243.737 349.24s-.616-1.079-.462-2.363c.154-1.284 1.28-2.144 1.28-2.144l3.445.205s-.975 1.117-.873 2.453c.103 1.336.873 1.849.873 1.849h-4.263zM275.545 349.24h3.852s.732-.655.963-1.849c.231-1.194-1.424-2.489-1.424-2.489l-3.934.257s1.005 1.115 1.082 2.116c.077 1.002-.539 1.965-.539 1.965zM227.198 307.411s-9.014-.547-11.981 1.649c-2.966 2.196-1.502 6.125-1.04 6.433s13.473.418 13.473.418l-.164-3.004-10.111.121s-.732-1.271.925-1.926 9.029-1.156 9.029-1.156l-.131-2.535zM296.54 307.095s8.129-.116 9.978 2.735c1.849 2.851 0 5.047 0 5.047l-10.136.656.086-2.89s6.66-.424 7.046-.578c.385-.154-.069-.963-1.652-1.194-1.584-.231-5.349-.424-5.349-.424l.027-3.352z"></path>
  <path fill="#F8F2ED" d="M291.84 319.885s1.233 12.867-4.161 17.567c-5.393 4.7-15.101 4.392-15.101 4.392s11.788 1.618 16.334-2.466c4.546-4.083 2.928-19.493 2.928-19.493z"></path>
</svg>
