<svg xmlns="http://www.w3.org/2000/svg" xml:space="preserve" viewBox="0 0 600 400" id="vegetarian-food-shopping">
  <g fill="#DE9641">
    <path d="M88.901 61.131s-.698 8.268-2.899 9.932c-2.201 1.664-5.261 2.094-5.261 2.094s4.402.537 6.228 3.329c1.825 2.792 2.094 9.1 2.094 9.1s1.246-8.719 2.899-10.429c1.168-1.208 4.912-1.799 4.912-1.799s-4.053-1.409-6.255-3.959c-1.267-1.469-1.718-8.268-1.718-8.268zM306.139 23.563s-.698 8.268-2.899 9.932c-2.201 1.664-5.261 2.094-5.261 2.094s4.402.537 6.228 3.329c1.825 2.792 2.094 9.1 2.094 9.1s1.246-8.719 2.899-10.429c1.168-1.208 4.912-1.798 4.912-1.798s-4.053-1.409-6.255-3.959c-1.267-1.469-1.718-8.269-1.718-8.269zM117.824 34.856s-.349 4.134-1.45 4.966-2.631 1.047-2.631 1.047 2.201.268 3.114 1.664 1.047 4.55 1.047 4.55.623-4.36 1.45-5.214c.584-.604 2.456-.899 2.456-.899s-2.027-.705-3.127-1.98c-.634-.734-.859-4.134-.859-4.134zM316.15 72.68s-.349 4.134-1.45 4.966-2.631 1.047-2.631 1.047 2.201.268 3.114 1.664c.913 1.396 1.047 4.55 1.047 4.55s.623-4.359 1.45-5.214c.584-.604 2.456-.899 2.456-.899s-2.027-.705-3.127-1.98c-.634-.734-.859-4.134-.859-4.134zM73.694 117.865s-.349 4.134-1.45 4.966-2.631 1.047-2.631 1.047 2.201.268 3.114 1.664 1.047 4.55 1.047 4.55.623-4.359 1.45-5.214c.584-.604 2.456-.899 2.456-.899s-2.027-.705-3.127-1.98c-.634-.734-.859-4.134-.859-4.134z"></path>
  </g>
  <path fill="#DE9641" d="M528.386 373.001h19.435s5.583-28.562 1.933-31.998c-3.651-3.436-20.938-2.47-22.119 1.396-1.181 3.866.751 30.602.751 30.602z"></path>
  <path fill="#435A2C" d="M519.259 288.927s3.758 21.797 7.087 31.89c3.329 10.093 10.626 18.203 10.626 18.203s-6.331-19.814-7.512-30.766-1.344-20.509-1.344-20.509l-8.857 1.182zM539.122 276.149l-6.978 3.114s-.215 22.441.859 32.427 3.969 27.33 3.969 27.33l2.15-62.871z"></path>
  <path fill="#435A2C" d="M548.358 293.597s-5.369 9.717-7.194 18.737c-1.825 9.02-4.192 26.686-4.192 26.686l16.862-39.248-5.476-6.175zM549.754 323.609l-12.782 15.411 14.929-7.706z"></path>
  <path fill="#D14A4A" d="m527.252 348.358 23.74-1.127-.046 2.216-23.595 4.268-.071-2.82zM527.485 357.3l22.675.961-.198 1.546-22.318.915zM527.828 364.186l21.962-3.114-.507 3.443-21.385.877zM528.052 367.962l20.106 3.24-.337 1.799h-19.435z"></path>
  <path fill="#1E1D1D" d="M536.972 339.225a.206.206 0 0 1-.184-.114c-.071-.142-7.128-14.37-10.317-25.108-3.196-10.76-2.166-21.209-2.155-21.313.012-.113.099-.199.226-.184a.207.207 0 0 1 .184.226c-.011.104-1.032 10.475 2.139 21.153 2.7 9.089 8.185 20.698 9.821 24.079-.365-4.895-1.835-25.314-1.74-35.51.106-11.575.47-18.623.474-18.693.007-.113.109-.194.216-.195a.206.206 0 0 1 .195.216c-.004.07-.368 7.111-.474 18.675-.106 11.561 1.801 36.297 1.82 36.546a.207.207 0 0 1-.205.222z"></path>
  <path fill="#1E1D1D" d="M536.972 339.225a.205.205 0 0 1-.201-.254c.033-.131 3.248-13.125 5.053-19.285 1.808-6.168 7.716-19.857 7.775-19.996a.206.206 0 0 1 .378.164c-.06.137-5.958 13.803-7.758 19.948-1.578 5.381-4.234 15.991-4.896 18.652l11.437-9.634a.206.206 0 0 1 .265.315l-11.923 10.042a.192.192 0 0 1-.13.048z"></path>
  <path fill="#E0A368" d="m290.766 376.437 102.865-1.584 7.379-79.098a5.387 5.387 0 0 0-5.533-5.884l-103.714 3.283a5.386 5.386 0 0 0-5.208 5.675l4.211 77.608z"></path>
  <ellipse cx="342.95" cy="333.111" fill="#D36101" rx="23.408" ry="19.166"></ellipse>
  <path fill="#282727" d="M349.956 317.139s-2.765-.295-4.563.886c-1.799 1.181-2.899 1.986-5.369 1.799-2.47-.188-4.053-1.235-5.557-1.208-1.503.027-2.201.268-2.201.268s3.221 0 4.376.671c1.154.671 2.496 1.423 4.47 1.476 1.973.054 4.228-2.416 5.543-2.953 1.315-.536 3.301-.939 3.301-.939z"></path>
  <path fill="#435A2C" d="m346.077 303.825 2.054 1.53s-3.503 3.382-4.631 6.563c-1.127 3.181-1.81 7.864-1.81 7.864l-1.129.067s-.081-5.917 1.691-9.702 3.825-6.322 3.825-6.322z"></path>
  <path fill="#435A2C" d="M316.321 303.61s1.503 2.389 3.355 4.08c1.852 1.691 4.859 2.765 4.859 2.765l-.805 1.382s1.503 1.008 3.194 1.356a306.8 306.8 0 0 0 4.751.913l-.725.993s2.684 1.02 4.993.886 5.111-1.801 5.111-1.801-2.776-4.99-4.091-6.762-2.174-2.362-2.174-2.362l-1.315.349s-2.899-2.094-3.892-2.523c-.993-.43-1.718-.537-1.718-.537l-.51 1.288s-2.899-.805-5.235-.913c-2.335-.107-5.798.886-5.798.886z"></path>
  <path fill="#1E1D1D" d="M341.055 314.389a.212.212 0 0 1-.084-.018l-22.372-9.929c-.104-.046-.15-.168-.104-.272s.167-.15.272-.104l22.372 9.929c.104.046.15.168.104.272a.204.204 0 0 1-.188.122z"></path>
  <path fill="#1E1D1D" d="M329.47 309.247a.206.206 0 0 1-.204-.179l-.506-3.929a.207.207 0 0 1 .178-.231.208.208 0 0 1 .231.178l.506 3.929a.207.207 0 0 1-.178.231l-.027.001zM323.005 308.03a.206.206 0 0 1-.042-.408l2.536-.527a.209.209 0 0 1 .244.16.208.208 0 0 1-.16.244l-2.536.527a.206.206 0 0 1-.042.004zM327.649 311.359a.206.206 0 0 1-.199-.154.207.207 0 0 1 .147-.252l4.126-1.089a.208.208 0 0 1 .252.147.207.207 0 0 1-.147.252l-4.126 1.089a.249.249 0 0 1-.053.007zM335.767 312.043a.207.207 0 0 1-.199-.151l-.897-3.234a.206.206 0 0 1 .144-.253.211.211 0 0 1 .253.144l.897 3.234a.206.206 0 0 1-.198.26z"></path>
  <path fill="#282727" d="m290.766 376.437 103.618-9.654-.753 8.07z"></path>
  <path fill="#02421C" d="m135.327 143.648 34.374-45.701 49.58-11.637 25.212 2.255 39.942 31.327-7.413 23.864z"></path>
  <path fill="#435A2C" d="M262.472 94.642s-3.973-6.077-5.154-11.016.644-10.817 3.382-11.797c2.738-.981 8.644 1.315 8.644 1.315s-1.396.872 0 1.463c1.396.591 2.738.297 2.738.297l2.309 2.119s-3.856 5.691-1.123 7.731c2.734 2.04 5.472.752 5.472.752l-1.718 14.898-5.718 5.523-8.832-11.285z"></path>
  <path fill="#6A8C53" d="M272.219 102.457s1.662-14.448 8.507-21.176c6.845-6.728 11.113-4.07 12.321-1.816s1.118 8.375 1.118 8.375-1.923.805-1.44 2.255 1.441 1.976 1.441 1.976-.314 3.822-.878 8.332-5.369 12.025-5.369 12.025l-11.301 16.644-8.773-3.731 4.374-22.884z"></path>
  <path fill="#435A2C" d="M294.741 112.428s5.635-7.81 11.675-9.152c6.04-1.342 8.214.532 8.134 3.058-.081 2.526.725 3.706 2.416 4.444 1.691.739-.564 4.236-.886 6.474s1.208 3.083-.242 6.727-13.69 13.63-13.69 13.63l-19.167-.403 11.76-24.778z"></path>
  <path fill="#FC691F" d="M237.4 86.954s-2.04 18.281-1.235 23.636 1.571 8.858 1.571 8.858l6.751-.765 5.375-20.737-6.943-10.563-5.519-.429z"></path>
  <path fill="#1E1D1D" d="M280.136 110.248a.206.206 0 0 1-.198-.262l9.458-32.972a.204.204 0 0 1 .255-.141.206.206 0 0 1 .141.254l-9.298 32.413 12.602-8.821a.206.206 0 1 1 .236.337l-13.078 9.155a.213.213 0 0 1-.118.037z"></path>
  <path fill="#1E1D1D" d="M287.735 83.756a.207.207 0 0 1-.174-.096l-3.3-5.206a.206.206 0 1 1 .348-.22l3.3 5.206a.206.206 0 0 1-.174.316zM286.49 88.094a.207.207 0 0 1-.131-.365l7.268-6.004a.205.205 0 0 1 .289.028.207.207 0 0 1-.027.29l-7.268 6.004a.206.206 0 0 1-.131.047zM284.435 95.261a.205.205 0 0 1-.187-.121l-5.376-11.861a.206.206 0 1 1 .375-.169l5.376 11.861a.206.206 0 0 1-.188.29zM283.34 99.079a.206.206 0 0 1-.116-.376l10.419-7.121a.205.205 0 1 1 .231.34l-10.419 7.121a.203.203 0 0 1-.115.036zM281.411 105.803a.205.205 0 0 1-.179-.105l-7.181-12.795a.205.205 0 0 1 .079-.28.205.205 0 0 1 .28.078l7.181 12.795a.205.205 0 0 1-.079.28.197.197 0 0 1-.101.027zM277.594 113.639a.206.206 0 0 1-.185-.115l-5.375-10.976a.205.205 0 0 1 .094-.275.208.208 0 0 1 .276.094l5.375 10.976a.205.205 0 0 1-.185.296z"></path>
  <path fill="#D36101" d="M241.91 127.352s-4.52-3.594-4.152-8.668c.367-5.073 4.152-7.167 4.152-7.167l14.657 9.193v7.316l-14.657-.674z"></path>
  <path fill="#6A8C53" d="M202.893 97.947s3.341-.201 3.986 1.329.162 2.416 2.739 2.416 3.624-.04 5.073 1.369c1.45 1.409 2.214 3.553 2.214 3.553l.725 4.782 1.248 5.355-5.946 1.933-9.678-9.449-.361-11.288z"></path>
  <path fill="#D36101" d="M161.948 86.74s-.743-5.637 1.948-10.254 10.046-6.657 10.046-6.657 7.946 7.785 9.825 10.899c1.879 3.114.913 9.234-1.45 10.576-2.362 1.341-20.369-4.564-20.369-4.564z"></path>
  <path fill="#F47D3B" d="M180.959 88.627s-9.433-23.336-9.594-27.12c-.161-3.785 1.45-5.476 6.765-6.765 5.315-1.288 11.677-1.369 14.012.403 2.335 1.772 17.475 75.205 17.475 75.205H194.8l-13.841-41.723z"></path>
  <path fill="#1E1D1D" d="M192.445 109.534a.206.206 0 0 1-.091-.39l11.032-5.432-12.024-3.035a.205.205 0 0 1-.154-.177.204.204 0 0 1 .112-.206l10.329-5.206-16.935-3.559a.205.205 0 0 1-.084-.364l6.209-4.832-6.705-.248a.206.206 0 0 1-.063-.399l13.614-4.935-20.936-3.003a.206.206 0 0 1-.042-.397l18.705-6.838-21.477-.48a.205.205 0 0 1-.195-.159.204.204 0 0 1 .105-.229l18.886-9.82-21.349 1.886c-.126.005-.214-.074-.223-.187a.206.206 0 0 1 .187-.223l22.383-1.978a.194.194 0 0 1 .216.148.205.205 0 0 1-.103.24l-19.095 9.929 21.765.486a.205.205 0 0 1 .066.399l-18.961 6.932 20.941 3.003c.094.014.166.089.176.183s-.046.182-.135.214l-13.395 4.855 6.214.23a.206.206 0 0 1 .119.368l-6.305 4.906 17.076 3.588c.085.018.15.088.162.175a.206.206 0 0 1-.112.21l-10.362 5.222 12.032 3.037a.206.206 0 0 1 .04.384l-11.535 5.679a.168.168 0 0 1-.088.023z"></path>
  <path fill="#6A8C53" d="m243.92 91.96 4.839-3.394c-.769-1.529-1.022-3.234-.979-4.101.081-1.611 2.094-4.268 4.993-8.294s-.403-3.625-.483-6.524c-.081-2.899 4.993-7.57 4.671-10.388-.322-2.819-2.416-2.013-2.819-2.658-.403-.644 3.865-8.375 3.463-11.516-.403-3.141-3.221-1.208-5.154-4.188-1.933-2.98 1.369-11.113-2.094-11.274-3.463-.161-5.154 9.744-6.845 11.889-1.691 2.145-2.255-1.098-5.637-1.098-3.382 0 .242 15.14.242 15.14s-3.543-2.98-4.671-.644c-1.127 2.335 2.577 9.422 5.396 13.288 2.819 3.865 3.748 11.596 3.748 11.596v5.074s-13.17-1.128-16.542-4.107c-3.372-2.98-5.943-7.221-8.09-7.865-2.148-.644-3.597 3.879-3.597 3.879s-5.53-9.677-9.422-8.228c-3.892 1.45-.081 4.564-1.45 7.248s-10.227-7.087-13.449-9.127c-3.221-2.04-5.261 1.074-3.651 4.778 1.611 3.704 1.288 2.953 2.778 8.751 1.489 5.798 9.033 8.404 9.033 8.404s-.107 3.193 2.899 5.079c3.007 1.886 12.992-.383 14.42 0 1.427.383 1.257 1.872 4.491 1.872 3.233 0 10.94-6.335 15.02-6.872 3.318-.437 7.417.973 8.89 3.28z"></path>
  <path fill="#FFE9D7" d="M271.922 101.281c-5.154-6.684-14.979-6.362-18.381-7.248-2.307-.6-4.293-3.568-4.782-5.467-1.813 1.255-2.976 2.111-4.839 3.394 1.146.847 2.031 3.057 2.071 4.282.107 3.282-5.583 12.502-2.899 18.932 2.684 6.429 12.039 10.11 12.039 10.11l4.775.186 12.846-9.81c.001-.002 4.324-7.694-.83-14.379z"></path>
  <circle cx="266.231" cy="132.894" r="10.774" fill="#D36101" transform="rotate(-80.781 266.234 132.89)"></circle>
  <path fill="#CE8A41" d="m114.188 143.648 6.603 22.388 51.54 6.711 18.039-29.018-6.227-.081z"></path>
  <path fill="#5C7F3F" d="m214.691 143.756 5.315-.107 13.207 33.93-9.261 24.267-35.836-.966-4.617-15.999s-10.738-1.396-11.167-12.133c-.429-10.737 7.409-13.851 7.409-13.851l4.402-15.247 6.228.081 24.32.025z"></path>
  <path fill="#435A2C" d="M130.266 107.042s.216-1.512.404-1.888.483-.671.483-.671-2.416-1.047-2.309-2.631 1.315-1.852 1.45-2.631c.134-.778-3.543-5.825-2.067-7.033s2.845.51 4 .215c1.154-.295 1.691-2.899 3.087-2.765 1.396.134 1.369 2.872 3.248 1.879 1.879-.993 1.745-2.228 3.704-2.282 1.96-.054 3.033 2.228 3.033 2.228l16.24 35.568-4.778 2.389-21.69-9.664-4.805-12.714z"></path>
  <path fill="#CE8A41" d="M233.213 177.579s-10.308-3.758-13.207-13.422 0-20.509 0-20.509h62.492l-5.798 22.119-41.339 5.798-2.148 6.014z"></path>
  <path fill="#5C7F3F" d="M282.498 143.648h15.945l-4.832 20.053-16.911 2.067zM103.289 163.835l17.502 2.201-6.603-22.388H98.565z"></path>
  <path fill="#CE8A41" d="m64.205 153.419-18.039 4.295s.644 2.523 3.275 4.134c2.631 1.611 4.241 1.235 4.241 1.235s.966 2.362 3.597 2.953c2.631.59 20.401-2.899 20.401-2.899s3.436 1.235 7.731.913c4.295-.322 8.536-2.094 8.536-2.094l9.342 1.879-4.724-20.186s-14.335-.376-15.569 0-24.052 4.456-24.052 4.456.054 2.067 1.906 3.57c1.852 1.503 3.355 1.744 3.355 1.744z"></path>
  <path fill="#282727" d="m79.157 154.842-14.952-1.423s2.98 1.342 7.476 1.584 7.476-.161 7.476-.161zM53.749 162.895l20.978-1.892s.282.584 1.127 1.107c.846.523 1.825 1.027 1.825 1.027s-1.362-.141-2.027-.523a7.2 7.2 0 0 1-1.228-.926l-20.675 1.207z"></path>
  <path fill="#4904A3" d="M138.911 143.648s-7.812-2.3-18.12-10.532-15.301-16.768-15.704-22.889c-.403-6.12 2.255-9.905 8.295-10.227s12.321 2.174 19.086 9.18 15.346 14.576 17.78 15.945 5.172 2.456 5.172 2.456l1.584 16.066-18.093.001z"></path>
  <path fill="#CE8A41" d="m332.91 153.335 18.039 4.295s-.644 2.523-3.275 4.134c-2.631 1.611-4.241 1.235-4.241 1.235s-.966 2.362-3.597 2.953c-2.631.591-20.401-2.899-20.401-2.899s-3.436 1.235-7.731.913c-4.295-.322-8.536-2.094-8.536-2.094l-9.556 1.829 4.832-20.052s14.441-.46 15.676-.084 24.052 4.456 24.052 4.456-.054 2.067-1.906 3.57c-1.853 1.502-3.356 1.744-3.356 1.744z"></path>
  <path fill="#282727" d="m317.958 154.758 14.952-1.423s-2.98 1.342-7.476 1.584c-4.497.241-7.476-.161-7.476-.161zM343.365 162.811l-20.978-1.893s-.282.584-1.127 1.107c-.846.523-1.825 1.027-1.825 1.027s1.362-.141 2.027-.523a7.259 7.259 0 0 0 1.228-.926l20.675 1.208zM188.115 200.879 172.314 217.2l22.995 30.387 6.765-4.51.69 1.611 30.449-21.045-9.261-21.797z"></path>
  <path fill="#F8F2ED" d="m193.377 227.401 8.697 15.676-1.35.901z"></path>
  <path fill="#CE8A41" d="m233.213 223.643 38.494 89.282-25.77 13.046-43.173-81.283zM172.314 217.2s-30.907 34.199-33.806 38.225c-2.899 4.027-3.06 7.731-2.416 13.851.644 6.12 13.69 73.605 13.69 73.605l28.669-5.798s-13.529-60.72-11.597-64.103c1.933-3.382 28.454-25.394 28.454-25.394L172.314 217.2z"></path>
  <path fill="#FFE9D7" d="m180.948 350.05-2.496-12.966-28.669 5.798 1.852 14.496zM245.937 325.971l11.006 22.119 23.837-15.354-9.073-19.811z"></path>
  <path fill="#5C7F3F" d="m180.948 350.05 3.785 18.281-54.681 4.027s-.161-3.624 4.59-4.832c4.751-1.208 9.664-1.45 12.885-5.315s3.13-12.481 3.13-12.481 1.944-1.931 3.957 0 1.368 3.945 2.778 4.267c1.41.321 23.556-3.947 23.556-3.947z"></path>
  <path fill="#FFE9D7" d="m130.052 375.471 55.701-1.074-1.02-6.067-54.681 4.027z"></path>
  <path fill="#5C7F3F" d="M245.937 367.605s10.469-1.852 11.597-7.489c1.127-5.637-5.516-21.925-5.516-21.925s2.214-2.396 4.711-1.268c2.497 1.127 3.382 4.188 5.637 4.268 2.255.081 18.415-8.456 18.415-8.456l7.436 16.67-27.381 18.925-14.899-.725z"></path>
  <path fill="#FFE9D7" d="m293.128 357.459-4.912-8.053-27.381 18.925-14.898-.725s-2.255 1.611-2.496 3.382c-.242 1.772.403 3.866.403 3.866h17.958l31.326-17.395z"></path>
  <path fill="#435A2C" d="m98.323 89.974-2.335 2.255s.201 2.537 3.261 5.476 7.431 5.423 7.431 5.423l.507-.62-8.864-12.534z"></path>
  <path fill="#435A2C" d="m105.088 110.228 2.389-2.228 4.161 2.013-1.342-4.617 4.805.188-2.631-3.007 3.787-2.512s-2.545-.292-4.733.164-3.718 1.584-4.564 2.51-1.383 2.24-1.583 3.304c-.2 1.063-.349 3.53-.289 4.185z"></path>
  <path fill="#FC691F" d="M104.739 143.648s-1.288-3.007-.913-5.154c.376-2.148 1.664-4.241 1.664-4.241s2.577-.966 10.04.215 9.984 2.151 9.984 2.151l17.826 7.03-38.601-.001z"></path>
  <path fill="#BA3587" d="M239.969 130.35s1.887-4.257 7.954-5.465c6.067-1.208 8.536-.68 10.254-2.071 1.718-1.392 9.288-16.693 10.04-16.478.752.215-.913 6.228-.913 6.228s3.168-5.047 3.758-5.047-2.094 5.1-2.094 5.1 3.973-4.617 4.724-3.114c.752 1.503-3.919 7.302-3.919 7.302s6.013-4.805 6.12-2.913-11.972 9.409-12.885 12.576c-.913 3.168.591 8.322.376 11.382s-2.416 5.798-2.416 5.798l-24.804.107 3.805-13.405z"></path>
  <path fill="#435A2C" d="m88.525 134.897.913 2.47 14.388 1.127z"></path>
  <path fill="#435A2C" d="m88.74 140.695 1.879 1.182 13.207-3.383zM95.344 142.306l1.449 1.175 7.033-4.987z"></path>
  <path fill="#1E1D1D" d="M107.504 143.854a.205.205 0 0 1-.203-.244l1.852-9.765c.02-.103.103-.183.219-.167a.205.205 0 0 1 .19.198l.282 8.56 2.65-8.408a.206.206 0 0 1 .376-.038l5.132 9.216 3.812-7.625a.206.206 0 0 1 .39.088l.161 7.974a.207.207 0 0 1-.202.21.2.2 0 0 1-.21-.202l-.144-7.14-3.614 7.228a.207.207 0 0 1-.179.114.209.209 0 0 1-.185-.106l-5.09-9.14-2.869 9.102a.208.208 0 0 1-.224.142.207.207 0 0 1-.178-.197l-.26-7.906-1.505 7.937a.204.204 0 0 1-.201.169zM143.769 108.903a.203.203 0 0 1-.086-.019c-.135-.062-3.338-1.548-5.437-3.915-1.15-1.298-1.717-2.584-2.218-3.719-.418-.949-.814-1.845-1.485-2.588-1.48-1.639-2.688-2.796-2.7-2.808a.206.206 0 1 1 .285-.297c.012.012 1.23 1.178 2.721 2.829.715.792 1.124 1.718 1.556 2.698.512 1.162 1.043 2.363 2.15 3.612 2.04 2.302 5.268 3.8 5.3 3.815a.206.206 0 0 1-.086.392z"></path>
  <path fill="#1E1D1D" d="M135.327 99.58a.206.206 0 0 1-.203-.237l.765-4.904a.206.206 0 1 1 .407.063l-.765 4.904a.206.206 0 0 1-.204.174zM136.746 102.524a.232.232 0 0 1-.058-.008l-4.76-1.405a.206.206 0 1 1 .116-.395l4.76 1.405a.207.207 0 0 1 .14.256.207.207 0 0 1-.198.147zM134.24 107.911a.206.206 0 0 1-.206-.206c0-.111.088-.201.197-.205.208-.021 3.789-.633 6.152-1.042a.203.203 0 0 1 .238.168.206.206 0 0 1-.167.238c-1.823.314-6.077 1.047-6.214 1.047zM141.958 107.911a.206.206 0 0 1-.206-.197l-.551-13.234a.206.206 0 0 1 .197-.214h.009c.11 0 .201.086.206.197l.551 13.234a.206.206 0 0 1-.197.214h-.009z"></path>
  <path fill="#1E1D1D" d="M141.625 99.908a.206.206 0 0 1-.176-.099l-2.258-3.729a.205.205 0 1 1 .352-.213l2.258 3.729a.206.206 0 0 1-.069.283.21.21 0 0 1-.107.029z"></path>
  <path fill="#FFE9D7" d="M157.065 123.498s-8.893-3.472-11.953-9.217-1.825-11.597-1.825-13.959-1.029-2.684-.246-5.315c.783-2.631 2.501-6.013 1.964-8.858s-12.509-16.321-12.402-17.824 3.49.322 3.49.322-2.649-4.241-1.727-5.047c.922-.805 3.875 4.241 3.875 4.241s-.215-6.228 1.127-5.637 6.657 16.643 10.899 20.455c4.241 3.812 6.657 3.651 8.16 4.295s13.368-2.899 20.723.698 12.348 10.174 13.234 16.536-1.45 10.227-1.45 10.227l-12.501 12.857-21.368-3.774z"></path>
  <path fill="#FC691F" d="M197.201 143.197s-16.897-18.956-18.025-21.775c-1.127-2.819 3.624-6.604 6.765-7.489 3.141-.886 5.314-.644 6.643 1.127 1.329 1.772 11.235 17.119 11.235 17.119l-6.618 11.018z"></path>
  <path fill="#435A2C" d="m180.022 98.35 3.058 16.93-.28-17.333z"></path>
  <path fill="#435A2C" d="m174.506 101.531 2.214-1.128 6.36 14.877zM170.75 110.59l12.33 4.69-12.601-2.113z"></path>
  <path fill="#FC9365" d="m138.24 67.842 4.335 8.644s-1.074-4.308-2.168-5.959c-1.093-1.652-2.167-2.685-2.167-2.685zM157.004 94.242s-5.892-5.476-8.348-8.939-3.785-7.248-3.785-7.248 3.463 6.322 6.362 9.342c2.898 3.02 5.771 6.845 5.771 6.845zM155.983 89.008s8.415 4.671 12.12 7.449c3.704 2.778 5.154 4.456 5.154 4.456s-7.288-3.973-10.389-6.671-6.885-5.234-6.885-5.234zM149.662 89.008s6.08 11.395 11.878 17.153 16.589 15.65 16.589 15.65-12.16-8.654-17.516-14.628c-5.354-5.975-10.951-18.175-10.951-18.175zM145.474 104.591s5.235 7.65 8.939 10.912c3.704 3.261 6.765 4.349 6.765 4.349s-5.516-1.57-8.858-4.993c-3.343-3.423-6.846-10.268-6.846-10.268z"></path>
  <path fill="#435A2C" d="M166.399 78.794s2.389-.349 3.919-2.174c1.53-1.825 1.369-3.866 1.369-3.866l-1.476 2.792s-.268-1.53-.617-3.06-.268-4.644-.268-4.644-1.369.725-1.503 2.201 1.423 5.261 1.423 5.261-2.523-2.362-3.543-4.161-1.047-4.483-1.047-4.483l-1.503 1.02s-.537 2.201 1.718 4.805c2.255 2.604 4.241 4.053 4.241 4.053l-2.713 2.256zM183.015 31.388s-1.611 7.516-2.148 13.637c-.537 6.12 0 9.175 0 9.175s1.664-10.195 2.738-13.523c1.074-3.329 3.168-9.288 3.168-9.288h-3.758v-.001z"></path>
  <path fill="#435A2C" d="m174.103 27.469 3.114-1.02s1.02 8.375 1.396 14.12c.376 5.745 2.255 13.631 2.255 13.631s-3.114-8.638-4.241-14.812c-1.128-6.175-2.524-11.919-2.524-11.919z"></path>
  <path fill="#435A2C" d="m169.701 36.112 3.006-.322s1.825 6.281 3.49 10.308c1.664 4.027 4.671 8.101 4.671 8.101s-6.281-6.544-8.375-11.107c-2.094-4.564-2.792-6.98-2.792-6.98zM172.009 49.319l-.317 3.382s1.123-.322 3.592.322c2.47.644 5.583 1.175 5.583 1.175s-4.51-2.088-6.067-3.323c-1.556-1.233-2.791-1.556-2.791-1.556zM203.819 127.272s.708-1.64-1.055-3.182-4.179-3.152-4.501-5.085-1.45-3.946-1.53-5.154c-.081-1.208 3.624 1.81 4.912 1.428 1.288-.381.564-8.214 4.349-7.438s2.658 5.01 4.268 5.591c1.611.58 4.429-1.788 6.04 0s4.993 15.13 4.993 15.13l-1.289 12.268-12.241-2.577-3.946-10.981z"></path>
  <path fill="#1E1D1D" d="M214.691 137.492a.207.207 0 0 1-.192-.131l-7.812-20.035a.206.206 0 0 1 .384-.149l7.812 20.035a.205.205 0 0 1-.192.28z"></path>
  <path fill="#1E1D1D" d="M210.186 125.941a.207.207 0 0 1-.193-.278l2.183-5.843a.205.205 0 0 1 .265-.121c.106.04.16.158.121.265l-2.183 5.843a.205.205 0 0 1-.193.134zM209.138 123.252a.211.211 0 0 1-.103-.027l-6.245-3.598a.207.207 0 0 1-.076-.281.207.207 0 0 1 .281-.076l6.245 3.598a.205.205 0 0 1-.102.384zM212.932 132.984a.206.206 0 0 1-.181-.302l1.96-3.706a.208.208 0 0 1 .278-.086c.1.053.138.178.085.278l-1.96 3.706a.205.205 0 0 1-.182.11zM212.369 131.537a.246.246 0 0 1-.059-.008l-4.604-1.373c-.109-.033-.171-.147-.138-.256s.15-.168.256-.139l4.604 1.373a.205.205 0 0 1-.059.403z"></path>
  <path fill="#435A2C" d="M217.63 124.885s1.168-2.376-.483-3.825c-1.651-1.45-2.053-2.698-1.127-4.027s1.288-2.456.322-4.792c-.966-2.335-1.248-3.543.161-4.912s-.322-6.966 1.973-6.805c2.295.161 3.503 6.845 4.953 5.677s-.282-4.47.685-5.919c.966-1.45 1.691-1.49 2.215-2.899.523-1.409.443-2.899 2.577-3.302s2.054-.242 3.584-1.49 2.496 1.329 1.933 4.107c-.564 2.778-.765 3.463.564 4.912 1.329 1.45 2.134 1.772 1.57 4.027s-3.543 5.033-3.141 6.684c.403 1.651 2.295 1.248 2.134 3.382-.161 2.134-1.288 3.141-1.288 3.141s.644 1.101-.242 2.403c-.888 1.302-16.39 3.638-16.39 3.638z"></path>
  <path fill="#1E1D1D" d="M217.63 125.09a.206.206 0 0 1-.156-.34c.048-.056 4.854-5.647 7.177-10.609 2.328-4.973 4.052-11.233 4.069-11.295a.206.206 0 0 1 .397.109c-.017.063-1.75 6.356-4.093 11.361-2.347 5.014-7.189 10.648-7.238 10.704a.208.208 0 0 1-.156.07z"></path>
  <path fill="#1E1D1D" d="M227.113 108.782a.207.207 0 0 1-.199-.151l-1.47-5.301a.205.205 0 0 1 .144-.253.207.207 0 0 1 .253.143l1.47 5.301a.205.205 0 0 1-.198.261zM225.79 112.258a.206.206 0 0 1-.083-.394l5.705-2.549a.206.206 0 1 1 .167.376l-5.705 2.549a.193.193 0 0 1-.084.018zM224.629 114.865a.207.207 0 0 1-.193-.133l-1.355-3.6a.207.207 0 0 1 .121-.265.204.204 0 0 1 .265.12l1.355 3.6a.207.207 0 0 1-.193.278zM220.34 121.664a.207.207 0 0 1-.205-.189l-.979-12.224a.205.205 0 0 1 .189-.221c.117-.004.212.075.221.189l.979 12.224a.205.205 0 0 1-.189.221h-.016zM222.62 118.376a.205.205 0 0 1-.02-.41l5.6-.56a.204.204 0 0 1 .225.184.206.206 0 0 1-.185.225l-5.6.56-.02.001z"></path>
  <path fill="#D36101" d="M237.159 143.756s6.04-3.567 3.785-10.978c-2.255-7.41-9.503-11.283-15.945-11.32-6.443-.037-8.858 3.829-9.1 7.614-.242 3.785.483 10.147.483 10.147l2.335 4.537h18.442z"></path>
  <path fill="#282727" d="M236.737 129.354s-2.477 0-4.692-1.288c-2.215-1.289-2.577-3.181-2.577-3.181s.255 2.067 2.215 3.543c1.959 1.476 5.054.926 5.054.926z"></path>
  <path fill="#435A2C" d="m236.568 119.892.832 1.315s-1.53 1.262-2.684 2.55-2.671 4.308-2.671 4.308l-.419-.266s1.372-3.989 2.311-5.224c.94-1.234 2.631-2.683 2.631-2.683z"></path>
  <path fill="#FC691F" d="M301.825 143.648s2.416-1.852 1.409-6.04-1.995-5.022-3.906-5.161c-1.911-.139-11.958 3.792-11.958 3.792s-2.134.671-3.584 2.389-1.288 5.02-1.288 5.02h19.327z"></path>
  <path fill="#6A8C53" d="M228.005 118.684s2.496.315 3.49 2.775c.993 2.46.32 5.81.32 5.81s-1.126-1.257-2.172-3.082c-1.047-1.826-1.638-5.503-1.638-5.503zM242.823 124.885s-2.523-1.044-4.698-.576c-2.174.469-5.432 2.539-5.432 2.539s1.421.319 4.044-.326c2.623-.644 6.086-1.637 6.086-1.637z"></path>
  <path fill="#282727" d="m265.318 116.536-4.886 7.772s3.704-4.498 4.671-5.84c.966-1.342 1.127-3.221 1.127-3.221l-.912 1.289zM253.95 143.756s3.221-3.933 4.147-7.476 1.208-6.663 2.335-8.928c1.127-2.266 4.872-6.212 4.872-6.212s-4.59 3.726-5.396 6.212c-.805 2.486-1.973 7.237-3.221 10.418s-2.737 5.986-2.737 5.986zM246.219 143.648s3.262-3.06 6.241-6.362c2.98-3.302 6.04-8.899 6.04-8.899s-4.631 6.604-7.127 9.14-5.154 6.121-5.154 6.121zM257.815 126.737s-2.215 1.454-5.456 3.908c-3.241 2.454-7.59 8.897-8.597 10.427s-1.852 2.684-1.852 2.684 1.893-5.436 4.872-8.509c2.98-3.074 4.099-4.455 6.563-5.792 2.465-1.338 4.47-2.718 4.47-2.718zM260.191 122.813s-2.335 2.514-4.751 3.481-4.912 1.288-7.892 3.664-6.099 6.06-6.099 6.06 2.878-5.214 6.099-7.147c3.221-1.933 6.808-2.493 8.939-3.543 2.131-1.051 3.704-2.515 3.704-2.515z"></path>
  <path fill="#435A2C" d="M245.937 93.558s-2.094-4.349-4.59-5.597-8.939-1.691-10.066-2.537.121-1.812-.966-2.738-7.973-1.772-9.462-4.389c-1.49-2.617.523-5.597.523-5.597s-4.751-4.644-4.322-8.724 1.557-4.778 1.557-4.778-2.792-7.838.322-8.912c3.114-1.074 7.202 7.677 7.202 7.677s2.408-.483 3.911 2.04c1.503 2.523 1.181 4.402 1.181 4.402s2.523-3.329 4.751-1.02 1.208 8.338 2.497 8.491c1.288.153 2.845-2.746 4.027-.384 1.181 2.362 1.02 13.637 2.094 15.033 1.074 1.396 3.49 4.918 3.597 5.546.106.628.338 2.85-2.256 1.487z"></path>
  <path fill="#1E1D1D" d="M246.796 86.516a.207.207 0 0 1-.206-.195c-.004-.091-.457-9.149-.537-13.052-.096-4.681-.126-10.681.485-15.572.636-5.083.643-17.247.643-17.369a.206.206 0 1 1 .412 0c0 .123-.007 12.313-.646 17.42-.608 4.865-.576 10.846-.482 15.513.08 3.898.532 12.949.537 13.04a.206.206 0 0 1-.195.216l-.011-.001z"></path>
  <path fill="#1E1D1D" d="M246.325 75.731a.206.206 0 0 1-.143-.354l3.538-3.432a.206.206 0 1 1 .286.296l-3.538 3.432a.209.209 0 0 1-.143.058zM246.206 66.383a.204.204 0 0 1-.115-.035l-6.953-4.671a.207.207 0 0 1-.056-.286.207.207 0 0 1 .286-.056l6.953 4.671a.207.207 0 0 1 .056.286.205.205 0 0 1-.171.091zM246.325 63.113a.206.206 0 0 1-.09-.391l4.524-2.206a.206.206 0 0 1 .18.37l-4.524 2.206a.195.195 0 0 1-.09.021zM246.839 57.043a.204.204 0 0 1-.159-.076l-6.298-7.733a.205.205 0 1 1 .318-.259l6.298 7.733a.205.205 0 0 1-.159.335zM247.123 52.861a.202.202 0 0 1-.155-.071.205.205 0 0 1 .02-.29l5.578-4.838a.204.204 0 0 1 .29.021.205.205 0 0 1-.02.29l-5.578 4.838a.211.211 0 0 1-.135.05zM242.92 86.355a.205.205 0 0 1-.128-.044c-.047-.038-4.871-3.856-10.928-9.514-6.088-5.687-9.842-16.484-9.879-16.592a.205.205 0 1 1 .389-.133c.037.107 3.759 10.809 9.772 16.425 6.043 5.646 10.854 9.454 10.902 9.491a.205.205 0 0 1-.128.367z"></path>
  <path fill="#1E1D1D" d="M226.74 70.034a.204.204 0 0 1-.196-.268l1.883-5.986a.203.203 0 0 1 .258-.134c.109.034.169.15.134.258l-1.883 5.986a.206.206 0 0 1-.196.144zM225.381 67.598a.213.213 0 0 1-.055-.007l-4.409-1.214a.207.207 0 0 1-.144-.253.205.205 0 0 1 .253-.144l4.409 1.214c.109.03.174.144.144.253a.205.205 0 0 1-.198.151zM230.336 75.109a.206.206 0 0 1-.194-.275l2.214-6.149a.206.206 0 0 1 .388.139l-2.214 6.149a.206.206 0 0 1-.194.136zM233.378 78.123h-.014l-5.697-.372a.205.205 0 0 1-.191-.219c.007-.113.08-.205.219-.192l5.697.372a.206.206 0 0 1-.014.411zM237.13 81.486a.204.204 0 0 1-.195-.271l1.72-5.117a.204.204 0 0 1 .261-.129.204.204 0 0 1 .129.26l-1.72 5.117a.205.205 0 0 1-.195.14zM236.76 89.212c-.633 0-1.578-.01-2.988-.039-1.075-.023-2.682-.014-4.546-.003-4.946.029-11.723.066-16.729-.4-6.626-.617-12.133-3.54-15.928-8.455-3.485-4.515-6.538-6.987-6.569-7.012a.206.206 0 0 1-.032-.289.206.206 0 0 1 .289-.031c.031.025 3.121 2.524 6.638 7.081 3.722 4.822 9.13 7.691 15.64 8.296 4.985.463 11.752.426 16.688.398 1.867-.011 3.477-.019 4.557.003 3.69.077 4.159.016 4.176.014a.205.205 0 0 1 .235.168.204.204 0 0 1-.161.236c-.023.006-.205.033-1.27.033z"></path>
  <path fill="#1E1D1D" d="M226.74 89.182a.205.205 0 0 1-.131-.047l-7.459-6.129a.206.206 0 0 1 .262-.319l7.459 6.129a.206.206 0 0 1-.131.366zM212.516 88.771a.206.206 0 0 1-.174-.096l-4.992-7.9a.206.206 0 1 1 .348-.22l4.992 7.9a.206.206 0 0 1-.174.316zM202.531 90.784a.206.206 0 0 1-.115-.376l4.581-3.111a.206.206 0 0 1 .231.341l-4.581 3.111a.215.215 0 0 1-.116.035zM218.878 92.474a.206.206 0 0 1-.146-.351l3.302-3.303a.206.206 0 1 1 .291.291l-3.302 3.303a.204.204 0 0 1-.145.06zM199.407 83.053a.24.24 0 0 1-.046-.005l-6.823-1.567a.206.206 0 0 1-.155-.247.208.208 0 0 1 .247-.154l6.823 1.567a.206.206 0 0 1-.046.406z"></path>
  <path fill="#FC9365" d="M251.574 95.007s2.98 2.738 5.798 4.912c2.819 2.174 5.234 4.912 5.959 7.087.725 2.174.966 4.053.966 4.053s.403-4.295-1.611-7.275c-2.012-2.978-11.112-8.777-11.112-8.777zM250.819 96.86s6.311 6.926 8.002 9.905c1.691 2.98 2.577 7.57 2.577 7.57s-3.06-6.845-6.04-10.55c-2.979-3.704-4.539-6.925-4.539-6.925zM247.152 96.86s1.544 6.924 3.668 11.717c2.124 4.792 7.133 8.675 7.133 8.675s-5.211-2.728-8.09-8.017c-2.879-5.289-2.711-12.375-2.711-12.375z"></path>
  <path fill="#FC9365" d="M245.615 98.873s-1.45 4.67 0 9.703c1.45 5.034 6.745 8.675 6.745 8.675s-6.02-3.158-7.389-7.748c-1.37-4.59.644-10.63.644-10.63z"></path>
  <path fill="#DE9641" d="M270.982 143.756s-3.033-1.449-3.651-2.631.215-2.496.215-2.496-3.451-.993-3.215-3.382c.236-2.389 6.633-6.684 8.937-10.496 2.304-3.812 4.022-12.885 6.17-14.335s4.349 0 4.349 0 1.933-2.094 4.241-.966c2.309 1.127 2.04 2.738 3.597 2.953 1.557.215 2.523-.913 4.027.752 1.503 1.664 1.449 5.583 1.449 5.583s3.758 1.119 3.436 4.076-2.47 5.695-7.409 8.863-7.57 6.335-8.429 7.892c-.859 1.557-2.201 4.08-2.201 4.08l-11.516.107z"></path>
  <path fill="#282727" d="M295.705 121.14s-1.396 2.268-5.154 6.026-3.973 3.651-6.335 6.389c-2.362 2.738-4.08 5.959-4.08 5.959s5.261-7.14 7.436-8.268c2.174-1.127 4.322-2.964 5.718-4.811 1.395-1.846 2.415-5.295 2.415-5.295zM279.814 136.562s-1.503 2.094-3.114 3.758c-1.611 1.664-2.47 2.094-2.47 2.094s1.879-.054 3.329-1.396c1.449-1.343 2.255-4.456 2.255-4.456zM283.786 110.416s-1.074 1.342-2.684 3.221c-1.611 1.879-2.577 5.925-3.275 7.821s-2.309 3.883-2.309 3.883 2.309-1.181 3.382-4.51c1.074-3.329 1.611-5.315 2.684-6.496 1.075-1.181 2.202-3.919 2.202-3.919zM274.23 128.025s-3.168 3.49-4.51 5.261c-1.342 1.772-2.147 3.114-2.147 4.08s-.027 1.262-.027 1.262-.027-1.369 1.584-3.382c1.61-2.013 5.1-7.221 5.1-7.221z"></path>
  <path fill="#435A2C" d="m292.725 103.624 3.181-1.168s1.772 1.829.886 4.599c-.886 2.77-4.751 5.372-4.751 5.372l-.751-.105s2.442-4.287 2.281-5.99c-.161-1.701-.846-2.708-.846-2.708z"></path>
  <path fill="#1E1D1D" d="M273.735 95.213a.206.206 0 0 1-.177-.101l-13.574-22.914a.206.206 0 1 1 .353-.21l13.574 22.914a.206.206 0 0 1-.176.311z"></path>
  <path fill="#1E1D1D" d="M264.552 79.711a.193.193 0 0 1-.053-.007l-7.324-1.96a.206.206 0 0 1-.146-.252.212.212 0 0 1 .252-.146l7.058 1.889-.214-7.645a.206.206 0 0 1 .2-.211h.006c.111 0 .203.088.206.2l.221 7.921a.204.204 0 0 1-.206.211zM269.919 88.771a.204.204 0 0 1-.08-.016l-12.691-5.371a.205.205 0 1 1 .161-.379L270 88.376a.206.206 0 0 1-.081.395zM272.428 93.008a.205.205 0 0 1-.203-.24l1.306-7.734a.203.203 0 0 1 .237-.169.205.205 0 0 1 .168.237l-1.306 7.734a.204.204 0 0 1-.202.172zM273.357 96.673a.208.208 0 0 1-.06-.009l-12.006-3.665a.206.206 0 1 1 .12-.394l12.006 3.665a.206.206 0 0 1-.06.403zM300.537 123.019a.206.206 0 0 1-.142-.355l14.499-13.697a.206.206 0 1 1 .283.299l-14.499 13.697a.205.205 0 0 1-.141.056z"></path>
  <path fill="#1E1D1D" d="M309.981 114.098a.206.206 0 0 1-.201-.251l2.421-10.69a.2.2 0 0 1 .247-.155c.11.025.18.135.155.246l-2.421 10.69a.207.207 0 0 1-.201.16zM316.103 118.89l-.022-.001-10.058-1.074c-.113-.012-.195-.113-.183-.226s.109-.196.227-.183l10.058 1.074a.206.206 0 0 1-.022.41zM302.601 121.346a.206.206 0 0 1-.206-.206v-16.227a.206.206 0 1 1 .412 0v16.227a.206.206 0 0 1-.206.206zM314.165 126.642h-.004l-14.836-.317a.206.206 0 0 1 .004-.411h.004l14.836.317a.206.206 0 0 1-.004.411zM306.747 133.891a.302.302 0 0 1-.03-.002l-13.618-2.009a.206.206 0 1 1 .059-.408l13.618 2.009a.206.206 0 0 1-.029.41z"></path>
  <path fill="#435A2C" d="m317.588 128.186 1.149 1.933-15.461 7.673zM322.844 134.589v1.973l-19.568 1.23zM321.113 140.951l-1.45 2.174-16.387-5.333z"></path>
  <path fill="#FFE9D7" d="M156.151 358.347a1.504 1.504 0 0 1-1.929.894l-5.646-2.069a1.503 1.503 0 1 1 1.035-2.823l5.646 2.069a1.503 1.503 0 0 1 .894 1.929zM261.873 346.337a1.502 1.502 0 0 1-1.175 1.771l-5.894 1.192a1.502 1.502 0 1 1-.596-2.946l5.894-1.192a1.503 1.503 0 0 1 1.771 1.175zM263.564 352.981a1.502 1.502 0 0 1-1.175 1.771l-5.894 1.192a1.502 1.502 0 1 1-.596-2.946l5.894-1.192a1.502 1.502 0 0 1 1.771 1.175zM262.799 360.51a1.502 1.502 0 0 1-1.175 1.771l-5.894 1.192a1.502 1.502 0 1 1-.596-2.946l5.894-1.192a1.504 1.504 0 0 1 1.771 1.175zM154.017 364.171a1.503 1.503 0 0 1-1.929.894l-5.646-2.069a1.503 1.503 0 1 1 1.035-2.823l5.646 2.069a1.504 1.504 0 0 1 .894 1.929zM148.782 368.117a1.503 1.503 0 0 1-1.929.894l-5.646-2.069a1.503 1.503 0 1 1 1.035-2.823l5.646 2.069c.78.286 1.18 1.149.894 1.929z"></path>
  <path fill="#282727" d="M224.113 143.648s-.926-4.469-4.953-5.879-6.281 0-8.174-.805c-1.892-.805-2.416-3.033-2.416-3.033s-1.933-5.624-4.107-6.389c-2.174-.765-3.839 1.02-3.839 1.02l2.139 7.436 6.677 7.758 14.673-.108z"></path>
  <path fill="#CE8A41" d="m197.081 143.756 1.879-8.751s-2.416-1.45-1.879-2.255c.537-.805 2.792-.859 2.792-.859l.752-3.329s1.423 2.631 2.604 2.953 2.013-.617 2.013-.617 1.127-2.684 3.006-.913c1.879 1.772 1.181 3.382.322 3.946s-2.792.564-2.792.564l3.662 9.261h5.25s-1.127 11.409-7.57 14.791c-6.442 3.382-13.529 1.933-15.945-1.208-2.416-3.141-.805-13.61-.805-13.61l6.711.027z"></path>
  <path fill="#282727" d="M205.269 133.152s.55-1.02 1.235-1.463c.684-.443 1.53 0 1.53 0l-2.765 1.463z"></path>
  <path fill="#D36101" d="M154.453 143.648s-.268-.725-.161-1.342c.107-.617.617-1.423.617-1.423s-3.087-1.154-2.899-3.275c.188-2.121 1.986-4.349 1.986-6.899s-1.127-3.382-.43-4.563c.698-1.181 3.436-1.852 3.436-1.852s-.376-3.302 4.322-3.57c4.698-.268 10.228 3.248 15.811 3.463 5.583.215 7.637-.51 9.147.336 1.51.846 1.047 3.503 1.047 3.503s2.396.926 1.631 3.302-1.45 2.537-1.45 2.537 2.174 1.369 1.973 3.463c-.201 2.094-1.933 3.423-1.933 3.423s.443.684.403 1.611c-.04.926-.403 1.288-.403 1.288h-33.097v-.002z"></path>
  <path fill="#435A2C" d="M146.682 129.515s.443 1.892 2.436 2.899c1.993 1.007 4.443.636 4.443.636l.253-.871s-2.743-.57-3.729-1.738c-.986-1.168-1.389-2.859-1.389-2.859l-2.014 1.933z"></path>
  <path fill="#282727" d="M154.91 140.883s1.101.644 3.409.94c2.309.295 7.409-1.315 10.201-1.799 2.792-.483 5.288-.295 5.288-.295s-5.396.51-6.953 1.154-5.61 1.799-7.811 1.799-4.134-1.799-4.134-1.799zM187.552 140.749s-1.349 1.208-3.08 1.107-3.322-.926-4.691-1.369c-1.369-.443-2.537-.503-2.537-.503s2.255.595 3.604 1.203c1.349.609 2.577 1.313 3.825 1.273 1.248-.04 2.879-1.711 2.879-1.711zM157.004 124.294s1.315-.537 3.597.134 5.449 1.691 7.275 2.094c1.825.403 3.436.51 3.436.51s-1.986-.027-5.208-.564c-3.221-.537-5.745-1.745-6.818-1.906a44.584 44.584 0 0 0-2.282-.268zM177.915 127.327s3.168-.859 5.396-.805 4.02 1.503 4.02 1.503-2.168-.832-3.778-.993c-1.612-.161-5.638.295-5.638.295z"></path>
  <ellipse cx="201.484" cy="132.204" fill="#282727" rx=".262" ry=".575"></ellipse>
  <path fill="#FFE9D7" d="M159.173 370.212s1.361-10.539 7.441-13.922c6.08-3.382 14.559-5.159 14.559-5.159l.57 2.753s-10.619 2.083-14.122 4.7-5.395 11.402-5.395 11.402l-3.053.226zM281.437 334.209s-7.153 5.345-9.73 12.807c-2.577 7.463-.479 14.131-.479 14.131l2.259-1.562s-1.619-8.167 1.549-13.428c3.168-5.261 7.494-9.499 7.494-9.499l-1.093-2.449z"></path>
  <path fill="#FC691F" d="M427.674 106.872s.962-10.629 1.713-11.596c.752-.966 7.301-.966 7.409 1.611.107 2.577-3.266 13.119-3.266 13.119l-5.856-3.134z"></path>
  <path fill="#435A2C" d="M430.353 85.988h1.503l1.152 8.733zM435.99 82.659l1.128.752-4.11 11.31zM439.649 87.169l-6.641 7.552 7.707-6.428z"></path>
  <path fill="#02421C" d="m413.817 127.313-12.295.484-.16-11.694h12.455z"></path>
  <path fill="#FC691F" d="M403.307 96.872s.914-1.113.907-4.012-9.348-13.1-9.993-15.355c-.644-2.255 1.503-1.611 2.738-.859s6.926 10.362 6.926 10.362-4.729-13.1-4.458-14.12c.271-1.02 1.291-.859 1.666 0s2.899 12.026 2.899 12.026-.738-9.288.222-10.952c.96-1.664 1.698-1.396 1.732-.644.033.752.356 16.965 1.912 18.737 1.557 1.772 5.195 3.107 5.195 3.107l.764 9.241h-8.644l-1.866-7.531z"></path>
  <path fill="#435A2C" d="M411.421 127.313s-14.923-16.441-16.759-22.561-2.038-10.308 1.566-11.194 9.565 5.718 9.565 5.718-.7 2.577.803 2.631 2.443-.51 2.443-.51l5.02 7.006.997 18.733-3.635.177z"></path>
  <path fill="#1E1D1D" d="M414.932 125.008a.202.202 0 0 1-.171-.092l-17.972-27.003a.205.205 0 0 1 .057-.285.205.205 0 0 1 .285.057l17.972 27.003a.205.205 0 0 1-.057.285.203.203 0 0 1-.114.035z"></path>
  <path fill="#1E1D1D" d="M402.49 106.313h-.015a.207.207 0 0 1-.19-.221l.429-5.678c.009-.113.105-.204.22-.19a.207.207 0 0 1 .19.221l-.429 5.678a.207.207 0 0 1-.205.19zM399.127 101.262a.21.21 0 0 1-.043-.005l-2.899-.626a.205.205 0 1 1 .086-.402l2.899.626a.205.205 0 0 1-.043.407zM404.964 110.031a.193.193 0 0 1-.058-.008l-5.534-1.611a.206.206 0 0 1 .116-.395l5.534 1.611a.207.207 0 0 1 .14.255.207.207 0 0 1-.198.148zM409.385 116.675a.195.195 0 0 1-.047-.006l-5.823-1.369a.206.206 0 0 1 .095-.4l5.823 1.369a.206.206 0 0 1-.048.406z"></path>
  <path fill="#E0A368" d="m385.336 164.828-3.194-28.052 1.597-1.718-2.993-.912 2.792-2.481-.967-2.942 57.124-2.791.537 2.791 3.328 1.504-4.187 2.157 1.449 1.762-.532 26.772-4.89 9.145-42.494-2.658-7.087.483z"></path>
  <path fill="#DE9641" d="M440.822 187.166v27.672l59.432-14.979s-5.315-50.574-9.986-58.627-10.04-9.181-12.08-9.503c-2.04-.322-5.261.654-5.261.654l-32.105 54.783z"></path>
  <path fill="#282727" d="M481.732 130.481c.63-.482 1.369-1.369.403-2.416s-2.335-2.094-2.013-2.617c.322-.523 6.04 2.215 7.127 0s-.201-3.785-2.698-4.147c-2.496-.362-4.349-.846-3.865-2.054.483-1.208 3.723-2.778 3.17-4.51-.553-1.731-2.888-1.329-4.539 0s-2.657 2.577-3.302 1.45c-.644-1.127 1.933-3.584.604-6s-3.297-3.543-4.487-2.013.26 3.141-1.955 4.711-3.038 2.778-3.029 4.671a3.262 3.262 0 0 0 1.485 2.738l6.732 8.348c-.001.001 4.474 3.289 6.367 1.839z"></path>
  <path fill="#A35824" d="m467.934 134.146.483-8.16s-1.396-1.288-1.262-1.745c.134-.456 1.476-.805 1.476-.805v-3.141s1.584-.161 2.04.483c.456.644.564 2.282 1.289 2.55.725.268 2.067-2.55 3.678-1.235 1.611 1.315 1.181 3.087.564 3.597s-1.798.671-1.798.671l2.711 6.442-9.181 1.343z"></path>
  <path fill="#282727" d="M473.504 124.697s.188-.819.523-1.127 1.141-.282 1.141-.282l-1.664 1.409z"></path>
  <path fill="#A35824" d="M457.519 177.794s4.295 6.442 13.1 5.047c8.805-1.396 15.892-7.838 15.999-14.71.107-6.872-3.007-22.549-3.007-22.549s1.872-5.129-2.792-10.093c-4.664-4.965-10.63-3.221-15.677 0s-28.347 30.172-30.494 30.709c-2.148.537-14.066.215-14.066.215l-.429 20.316s25.985.989 28.347 0c2.362-.99 9.019-8.935 9.019-8.935z"></path>
  <path fill="#DE9641" d="m405.469 185.847 14.683.881.43-20.316-15.113-.393z"></path>
  <path fill="#A35824" d="M385.336 164.828s-3.543.564-3.946 2.255c-.403 1.691 4.912 16.348 6.443 17.556 1.53 1.208 17.636 1.208 17.636 1.208v-19.828l-3.302-.386-12.563-8.617s-1.45 2.013-.322 4.51c1.127 2.496 3.624 5.879 3.624 5.879l-7.087.483-.483-3.06z"></path>
  <path fill="#282727" d="M457.519 177.794s17.69-18.603 20.348-21.824c2.657-3.221 3.704-4.912 3.704-4.912s-2.577 5.637-6.201 10.308-16.177 18.26-16.177 18.26-.435-.347-.901-.885c-.465-.539-.773-.947-.773-.947zM431.964 243.99l47.674 14.173 3.06-4.188 19.005-1.45s.483-33.018 0-39.782c-.483-6.765-1.45-12.885-1.45-12.885l-59.432 14.979-8.857 29.153z"></path>
  <path fill="#A35824" d="m450.325 341.433 20.213-15.677s-16.455-26.522-16.24-29.743 25.341-37.85 25.341-37.85l-47.674-14.173s-11.811 40.534-12.563 47.728c-.752 7.194 3.973 15.677 8.59 21.475 4.616 5.798 22.333 28.24 22.333 28.24z"></path>
  <path fill="#A35824" d="m478.35 334.668 23.568-.644-.214-81.498-19.006 1.45-14.213 19.847z"></path>
  <path fill="#DE9641" d="M501.918 355.606v-21.582l-23.568.644v1.181l11.167 17.61-1.826 2.147z"></path>
  <path fill="#F8F2ED" d="M500.254 217.2s-.752 7.838-5.369 17.717c-4.617 9.878-12.187 19.059-12.187 19.059l2.503-.191s8.18-9.473 11.509-18.197 3.544-18.388 3.544-18.388z"></path>
  <path fill="#282727" d="m468.485 273.823 1.014 6.254c-.009-.054 15.703-26.292 15.703-26.292l-2.503.191-14.214 19.847zM467.317 370.988l35.434-3.221-.833-12.161h-14.227z"></path>
  <path fill="#FFE9D7" d="M465.706 372.357v1.61l37.447-1.61-.402-4.59-35.434 3.221z"></path>
  <path fill="#DE9641" d="m450.325 341.433 9.744 12.804 21.104-13.935-2.823-4.453-7.812-10.093z"></path>
  <path fill="#282727" d="M449.48 368.411s.523-2.496 4.952-3.463c4.429-.966 6.604-2.658 6.362-5.798-.242-3.141-3.621-8.719-3.621-8.719s3.782-4.891 6.118-4.489c2.335.403 2.738 2.335 4.429 1.45 1.691-.886 12.888-7.982 12.888-7.982l6.057 9.551-23.454 20.014-13.731-.564z"></path>
  <path fill="#FFE9D7" d="m448.312 373.001 1.168-4.59 13.73.563 23.454-20.013 2.853 4.498-1.826 2.147-21.985 16.751-1.53 1.61z"></path>
  <path fill="#282727" d="M416.298 138.816h-13.283a3.103 3.103 0 0 1-3.103-3.103v-.227a3.103 3.103 0 0 1 3.103-3.103h13.283a3.103 3.103 0 0 1 3.103 3.103v.227a3.103 3.103 0 0 1-3.103 3.103z"></path>
  <path fill="#435A2C" d="M384.621 128.623s-1.258-1.484-.251-2.692 3.382-2.295 1.691-3.342c-1.691-1.047-3.745 3.416-5.637 3.017-1.892-.4-1.892-3.176-1.892-3.176s-3.1.804-3.262-.726c-.161-1.53 1.329-2.416 1.329-2.416s-2.537-1.651-1.852-2.819 2.295.644 3.261-.483c.966-1.127-8.093-4.469-7.046-5.798 1.047-1.329 2.255-1.168 2.134-1.892-.121-.725-4.872-3.866-2.939-5.275 1.933-1.409 3.785 1.973 5.073 1.45s.846-1.973 2.174-1.57c1.329.403 3.06 7.57 4.51 7.369s-.765-4.308 1.53-4.47c2.295-.161 2.013 1.409 2.899-.242.886-1.651 3.342-3.745 3.1-1.53s-1.449 4.51-.886 4.631c.564.121 1.57-.886 1.731.443.161 1.329-1.651 5.839-.846 6.765s2.819-2.013 3.503-2.658c.685-.644 3.704.081 3.704.081l2.776 14.611-14.804.722z"></path>
  <path fill="#1E1D1D" d="M393.512 128.394a.205.205 0 0 1-.188-.122c-.02-.045-2.042-4.527-5.362-8.203-3.338-3.695-13.814-13.419-13.919-13.517a.206.206 0 1 1 .28-.302c.105.098 10.595 9.834 13.945 13.542 3.365 3.726 5.413 8.265 5.433 8.31a.207.207 0 0 1-.105.272.17.17 0 0 1-.084.02z"></path>
  <path fill="#1E1D1D" d="M391.025 123.954a.207.207 0 0 1-.198-.263l1.64-5.669a.201.201 0 0 1 .255-.141.207.207 0 0 1 .141.255l-1.64 5.669a.206.206 0 0 1-.198.149zM379.86 120.017a.207.207 0 0 1-.206-.196.204.204 0 0 1 .196-.215l7.793-.38c.103-.011.21.082.215.195a.204.204 0 0 1-.196.215l-7.793.38-.009.001zM384.373 116.308a.205.205 0 0 1-.196-.269l1.849-5.794a.21.21 0 0 1 .259-.133c.109.035.168.15.133.259l-1.849 5.794a.206.206 0 0 1-.196.143zM379.063 111.192l-.031-.002-4.558-.678a.204.204 0 0 1-.173-.234.2.2 0 0 1 .234-.173l4.558.678c.113.016.19.121.173.234a.205.205 0 0 1-.203.175z"></path>
  <path fill="#C60000" d="m396.41 128.047-1.748-13.337 9.81 3.198 1.321 9.68z"></path>
  <ellipse cx="399.423" cy="114.727" fill="#D14A4A" rx="4.55" ry="7.519" transform="rotate(-22.059 399.421 114.75)"></ellipse>
  <circle cx="399.792" cy="110.49" r=".664" fill="#C60000"></circle>
  <circle cx="397.295" cy="112.704" r="1.067" fill="#C60000"></circle>
  <circle cx="401.926" cy="115.1" r=".564" fill="#C60000"></circle>
  <circle cx="398.543" cy="117.717" r="1.248" fill="#C60000"></circle>
  <circle cx="401.402" cy="119.388" r=".423" fill="#C60000"></circle>
  <path fill="#6A8C53" d="M424.447 100.806s-.161-9.825-6.174-9.878c-6.013-.054-7.708 12.6-7.708 12.6l3.493 4.875 2.711 3.235 8.858-3.423-.322-4.027s-1.503.161-1.772-1.288c-.267-1.45.914-2.094.914-2.094z"></path>
  <path fill="#1E1D1D" d="M416.77 111.843h-.013a.206.206 0 0 1-.192-.218l1.074-17.006c.007-.113.105-.206.218-.193a.206.206 0 0 1 .192.218l-1.074 17.006a.205.205 0 0 1-.205.193z"></path>
  <path fill="#1E1D1D" d="M417.536 99.72a.206.206 0 0 1-.131-.364l2.831-2.359a.206.206 0 0 1 .29.026.206.206 0 0 1-.027.29l-2.831 2.359a.203.203 0 0 1-.132.048zM417.307 103.34a.206.206 0 0 1-.141-.055l-3.866-3.62a.206.206 0 1 1 .281-.301l3.866 3.62a.206.206 0 0 1-.14.356zM417.075 107.02a.206.206 0 0 1-.138-.358l3.292-3.002a.205.205 0 1 1 .276.304l-3.292 3.002a.202.202 0 0 1-.138.054z"></path>
  <path fill="#FFE9D7" d="M413.442 127.215s-1.879-2.357-2.309-3.699c-.43-1.342-.322-3.221-.322-3.221s-1.127-.027-1.154-1.329c-.027-1.302 3.031-7.733 4.508-8.571 1.478-.838 3.932-1.16 3.932-1.16s1.894-2.318 3.397-2.42c1.503-.103 2.899.595 2.899.595s2.631-.966 4.671-.322c2.04.644 9.234 6.207 10.254 9.922s-.652 8.973-.652 8.973l-25.224 1.232z"></path>
  <path fill="#435A2C" d="M425.154 126.642s-1.136-6.106-.706-7.677c.429-1.57 3.006-3.557 3.006-3.557s-.698-1.718 1.074-3.329 3.543-1.094 3.543-1.094 1.879-2.718 3.651-3.631c1.772-.913 2.002.51 3.927-.953 1.925-1.463 4.18-2.241 3.912-.295s-3.743 3.34-3.912 5.193-1.887 3.92-3.497 3.8c-1.611-.121-2.362-.04-3.597 1.369-1.235 1.409-1.396 2.778-3.007 2.496s-3.275.313-3.704 1.949c-.43 1.636-.69 5.729-.69 5.729z"></path>
  <path fill="#6A8C53" d="M409.039 107.141c-1.127-1.02-3.114-1.879-2.792.376.322 2.255 1.629 2.121 1.378 3.637-.251 1.517-1.615 1.859.876 2.966s4.134-1.183 4.349.59c.215 1.773.457 2.701 2.081 2.586s1.516-.545 2.375.207 1.611 2.193 2.845 1.928c1.235-.264 4.263 1.947 4.263 1.947l.944-3.661s-1.664-2.47-3.06-3.651-1.425-.526-2.577-1.825c-1.152-1.3.107-2.501-1.879-2.968-1.986-.468-2.899.767-3.785-.87-.884-1.638-5.018-1.262-5.018-1.262z"></path>
  <path fill="#1E1D1D" d="M425.154 126.848a.205.205 0 0 1-.205-.192c-.015-.215-.355-5.283.219-6.759.455-1.168 1.217-1.889 3.253-3.816.579-.547 1.261-1.193 2.071-1.975 3.61-3.49 8.472-5.499 8.521-5.518a.203.203 0 0 1 .268.113.206.206 0 0 1-.113.269c-.048.02-4.839 2-8.39 5.433-.81.784-1.494 1.431-2.074 1.978-1.988 1.88-2.732 2.584-3.152 3.666-.541 1.39-.196 6.529-.193 6.581a.205.205 0 0 1-.191.219l-.014.001z"></path>
  <path fill="#1E1D1D" d="M424.653 120.903a.204.204 0 0 1-.148-.063 74.794 74.794 0 0 0-4.273-4.014c-1.666-1.444-3.369-2.316-5.172-3.24-.791-.405-1.609-.823-2.457-1.306-2.794-1.592-4.14-3.303-4.196-3.375a.206.206 0 1 1 .325-.253c.014.017 1.358 1.722 4.075 3.27.839.479 1.653.895 2.44 1.298 1.826.935 3.551 1.818 5.255 3.295 2.396 2.076 4.28 4.02 4.299 4.039a.206.206 0 0 1-.148.349z"></path>
  <path fill="#FC9365" d="M433.091 126.254s-.403-1.329.564-2.819c.966-1.49 2.174-2.013 3.543-3.624s1.248-2.617 1.248-2.617-.04 2.819-1.812 4.792-2.376 2.009-2.416 2.816c-.04.807-.081 1.452-.081 1.452h-1.046zM419.079 126.939s-.304-.685-2.004-2.497c-1.7-1.812-2.908-1.134-3.794-3.063-.886-1.93-1.127-3.178-1.127-3.178s-.081 2.699.725 4.369c.805 1.671 3.181 2.355 4.429 3.16s1.771 1.209 1.771 1.209zM421.388 113.421s-.135-1.958.805-3.461 2.201-2.55 2.201-2.55-1.611 2.36-2.067 3.891c-.457 1.531-.939 2.12-.939 2.12z"></path>
  <path fill="#FFE9D7" d="M465.676 352.821a1.502 1.502 0 0 1-1.175 1.771l-5.894 1.192a1.502 1.502 0 1 1-.596-2.946l5.894-1.192a1.502 1.502 0 0 1 1.771 1.175zM467.287 358.243a1.502 1.502 0 0 1-1.175 1.771l-5.894 1.192a1.502 1.502 0 1 1-.596-2.946l5.894-1.192a1.503 1.503 0 0 1 1.771 1.175zM463.639 365.823a1.504 1.504 0 0 1-1.828 1.085l-5.826-1.488a1.504 1.504 0 0 1 .743-2.913l5.826 1.488a1.503 1.503 0 0 1 1.085 1.828z"></path>
  <ellipse cx="470.276" cy="123.287" fill="#282727" rx=".262" ry=".575"></ellipse>
  <path fill="#FFE9D7" d="M480.98 339.997s-8.16 5.248-8.858 9.221c-.698 3.973.988 11.309.988 11.309l2.158-1.841s-1.32-7.941-.515-9.725c.805-1.783 7.425-7.075 7.425-7.075l-1.198-1.889zM502.051 357.537s-9.259-1.018-14.681 2.525-8.314 9.858-8.314 9.858l2.788-.253s2.519-6.211 7.405-8.203c4.885-1.992 12.953-1.728 12.953-1.728l-.151-2.199z"></path>
</svg>
