<svg xmlns="http://www.w3.org/2000/svg" xml:space="preserve" viewBox="0 0 600 400" id="woman-doing-work-from-home">
  <path fill="#435A2C" d="M204.174 151.066s-.791-9.066-1.09-16.677c-.298-7.611-3.134-18.374-3.134-18.374l-5.074-1.175 2.686-1.878s-.895-9.912-3.582-19.91c-2.686-9.998-6.566-15.52-6.566-15.52s-3.88 19.312-5.372 34.353 1.847 45.404 1.847 45.404l20.285-6.223zM207.829 150.462s-.268-29.652 1.97-43.978 8.058-34.919 8.058-34.919l9.252 33.062-3.283 2.305 4.029 2.061s1.343 6.445 1.791 12.116 0 12.299 0 12.299-3.283 14.834-10.147 18.055c-6.864 3.221-11.67-1.001-11.67-1.001zM164.882 194.392s-9.849-27.023-8.506-51.795 2.686-44.918 2.686-44.918l13.281 24.324-2.388 5.783 5.969 1.977s2.137 6.417 3.456 11.192l4.509 16.335-4.509 42.013-14.498-4.911z"></path>
  <path fill="#1E1D1D" d="M177.119 186.213a.192.192 0 0 1-.187-.153l-18.056-88.343a.19.19 0 0 1 .149-.225.196.196 0 0 1 .225.149l18.057 88.343a.19.19 0 0 1-.149.225c-.014.002-.027.004-.039.004z"></path>
  <path fill="#1E1D1D" d="M164.272 123.36a.19.19 0 0 1-.126-.048l-5.209-4.598a.191.191 0 0 1-.017-.269.19.19 0 0 1 .269-.017l5.209 4.598a.191.191 0 0 1-.126.334zM165.503 129.383a.192.192 0 0 1-.181-.253l2.588-7.487a.191.191 0 0 1 .361.125l-2.588 7.487a.19.19 0 0 1-.18.128zM167.782 140.536a.194.194 0 0 1-.127-.048l-8.72-7.746a.19.19 0 0 1-.016-.269.19.19 0 0 1 .269-.016l8.72 7.746a.19.19 0 0 1-.126.333zM169.448 148.683a.19.19 0 0 1-.178-.257l3.779-10.222a.188.188 0 0 1 .245-.112.19.19 0 0 1 .112.245l-3.779 10.222a.193.193 0 0 1-.179.124zM171.337 158.755a.189.189 0 0 1-.108-.034l-13.024-8.954a.19.19 0 1 1 .216-.314l13.024 8.954a.19.19 0 0 1-.108.348zM172.571 163.962a.191.191 0 0 1-.173-.272l4.548-9.684a.194.194 0 0 1 .254-.092.192.192 0 0 1 .092.254l-4.548 9.684a.191.191 0 0 1-.173.11zM174.845 175.087a.188.188 0 0 1-.079-.017l-15.037-6.803a.191.191 0 0 1-.095-.253.188.188 0 0 1 .253-.095l15.037 6.803a.191.191 0 0 1-.079.365zM174.845 189.347a.19.19 0 0 1-.08-.018l-10.573-4.924a.19.19 0 0 1 .161-.345l10.573 4.924a.19.19 0 0 1-.081.363zM188.612 94.474a.192.192 0 0 1-.16-.086l-2.191-3.368a.19.19 0 1 1 .32-.208l2.191 3.368a.192.192 0 0 1-.056.264.198.198 0 0 1-.104.03zM189.089 101.154a.19.19 0 0 1-.161-.293l3.102-4.876a.19.19 0 0 1 .322.204l-3.102 4.876a.189.189 0 0 1-.161.089zM189.771 110.692a.192.192 0 0 1-.162-.089l-4.743-7.549a.191.191 0 0 1 .06-.263.193.193 0 0 1 .263.06l4.743 7.549a.191.191 0 0 1-.161.292zM190.099 115.28a.188.188 0 0 1-.118-.041.189.189 0 0 1-.032-.267l5.374-6.85a.189.189 0 0 1 .267-.032.189.189 0 0 1 .032.267l-5.374 6.85a.185.185 0 0 1-.149.073zM190.81 125.242a.19.19 0 0 1-.136-.057l-7.475-7.639a.191.191 0 0 1 .273-.267l7.475 7.639a.191.191 0 0 1-.137.324zM191.158 130.106a.182.182 0 0 1-.118-.042.19.19 0 0 1-.031-.267l6.902-8.684a.19.19 0 1 1 .298.236l-6.902 8.684a.185.185 0 0 1-.149.073zM191.904 140.536a.192.192 0 0 1-.133-.054l-8.014-7.746a.191.191 0 0 1 .266-.274l8.014 7.746a.191.191 0 0 1-.133.328zM192.31 146.219a.191.191 0 0 1-.146-.314l8.038-9.556a.192.192 0 0 1 .269-.023c.08.068.091.188.023.269l-8.038 9.556a.194.194 0 0 1-.146.068z"></path>
  <path fill="#1E1D1D" d="M192.917 154.711a.193.193 0 0 1-.128-.049l-7.193-6.502a.191.191 0 0 1 .257-.283l6.841 6.184-5.467-76.514a.19.19 0 0 1 .177-.203c.1-.028.196.071.203.177l5.501 76.987a.19.19 0 0 1-.107.185.212.212 0 0 1-.084.018zM216.763 152.865a.189.189 0 0 1-.187-.222c.588-3.506 1.087-80.305 1.092-81.08a.191.191 0 0 1 .191-.189h.001a.19.19 0 0 1 .189.192c-.02 3.167-.504 77.605-1.098 81.14a.19.19 0 0 1-.188.159z"></path>
  <path fill="#1E1D1D" d="M217.719 90.508a.194.194 0 0 1-.142-.063l-2.05-2.288a.192.192 0 0 1 .015-.27.192.192 0 0 1 .27.015l2.05 2.288a.192.192 0 0 1-.015.27.196.196 0 0 1-.128.048zM217.649 98.716a.19.19 0 0 1-.172-.273l3.093-6.517a.19.19 0 0 1 .254-.09.19.19 0 0 1 .09.254l-3.093 6.517a.188.188 0 0 1-.172.109zM217.542 110.206a.193.193 0 0 1-.168-.099l-4.957-9.052a.192.192 0 0 1 .076-.259.192.192 0 0 1 .259.076l4.957 9.052a.192.192 0 0 1-.167.282zM217.443 119.558a.19.19 0 0 1-.139-.321l7.18-7.702a.191.191 0 0 1 .279.261l-7.18 7.702a.192.192 0 0 1-.14.06zM217.386 124.433a.195.195 0 0 1-.122-.044l-6.791-5.67a.192.192 0 0 1-.025-.269.194.194 0 0 1 .269-.025l6.791 5.67a.192.192 0 0 1-.122.338zM217.277 132.79a.191.191 0 0 1-.129-.332l9.136-8.357a.191.191 0 0 1 .258.282l-9.136 8.357a.194.194 0 0 1-.129.05zM217.154 140.536a.193.193 0 0 1-.123-.045l-7.653-6.453a.191.191 0 0 1-.023-.269.193.193 0 0 1 .269-.023l7.653 6.453a.191.191 0 0 1-.123.337z"></path>
  <path fill="#435A2C" d="M117.747 235.085s-3.751-5.544-2.558-10.664c1.194-5.121 3.325-3.532 2.558-8.728-.767-5.197-4.199-6.689-1.961-12.957s2.985-7.014 3.581-12.983c.597-5.969 6.268-23.876 9.7-18.057 3.432 5.82-2.089 13.58 0 19.847 2.089 6.268 5.969 9.401 4.626 14.475s-6.715 9.622-6.417 14.138 4.487 10.709 4.487 10.709l12.226 18.877-1.94 26.413-14.624-2.661-9.678-38.409z"></path>
  <path fill="#1E1D1D" d="M126.679 260.624a.287.287 0 0 1-.283-.244c-.055-.367-5.516-36.891-4.628-49.904.886-12.997 3.262-27.048 3.286-27.188a.29.29 0 0 1 .33-.235.287.287 0 0 1 .235.33c-.024.141-2.396 14.164-3.28 27.131-.883 12.951 4.569 49.413 4.624 49.78a.286.286 0 0 1-.241.325.154.154 0 0 1-.043.005z"></path>
  <path fill="#DE9641" d="M149.578 367.036h-17.046c-6.501 0-11.772-5.27-11.772-11.772v-26.182h40.59v26.182c0 6.501-5.27 11.772-11.772 11.772z"></path>
  <path fill="#D36101" d="M161.35 329.082v6.392h-11.391v8.431h-11.565v8.059h-11.118v3.506h-6.516v-26.388z"></path>
  <path fill="#6A8C53" d="M120.76 329.082s-1.094-1.741-4.974-2.935-5.372 2.238-8.208-2.089c-2.835-4.328-.149-11.043-2.537-14.326s-10.595-2.089-15.37-6.715-1.94-11.64-5.969-15.52c-4.029-3.88-11.043-7.312-13.132-12.684-2.089-5.372 1.492-8.655 0-12.684s-5.372-10.148-3.581-14.55c1.791-4.402 2.537-3.805 2.686-7.536.149-3.731-1.194-13.729 2.388-13.878s3.134 10.744 5.671 14.475c2.537 3.731 7.163 6.715 7.461 9.401s-3.134 11.741-.448 14.451c2.686 2.71 12.834 3.507 14.923 9.003s3.283 13.106 5.223 14.449 5.969.298 8.058 4.328c2.089 4.029 2.089 9.103 4.775 11.789 2.686 2.686 6.268 1.492 8.058 4.626 1.791 3.134 7.909 20.395 7.909 20.395H120.76z"></path>
  <path fill="#5C7F3F" d="M158.313 329.082s-1.793-4.278 0-7.113c1.793-2.835 5.226-6.118 4.181-10.595s-6.225-5.671-4.978-12.983c1.247-7.312 6.858-9.998 5.172-15.221-1.686-5.223-6.014-4.424-7.357-11.016s2.835-15.845-.895-20.471c-3.731-4.626-7.014-5.82-10.297-12.834-3.283-7.014-8.655-22.191-12.087-17.96-3.432 4.231 2.985 19.751 2.537 24.377-.448 4.626-3.731 7.76-2.238 12.087 1.492 4.328 3.731 4.285 3.432 7.909l-.298 3.624-1.791 60.196h24.619z"></path>
  <path fill="#6A8C53" d="M146.676 329.082s-3.581-6.815-3.134-12.336c.448-5.521 3.543-9.849 1.548-15.967s-7.964-9.849-7.964-15.221 1.94-10.511-1.642-16.671-8.506-8.847-10.297-16.01c-1.791-7.163-2.587-12.684-4.427-15.37-1.84-2.686-10.346-5.278-15.868-13.085-5.521-7.807-8.208-11.239-10.894-7.956s5.208 15.809 6.111 20.141.455 13.687 2.992 17.739c2.537 4.053 5.82 4.948 8.357 12.111s.746 17.907 3.283 23.28c2.537 5.372 8.208 10.297 10.148 13.132s-.895 13.132.149 16.714c1.045 3.581 6.566 9.501 6.566 9.501h15.072v-.002z"></path>
  <path fill="#1E1D1D" d="M126.679 329.368a.286.286 0 0 1-.247-.142c-.095-.164-9.641-16.431-19.344-25.252-9.803-8.911-22.894-22.762-27.524-32.471-4.596-9.637-5.687-23.763-5.697-23.904a.286.286 0 0 1 .264-.306.29.29 0 0 1 .306.264c.01.14 1.094 14.161 5.644 23.7 4.594 9.634 17.627 23.417 27.392 32.293 9.769 8.881 19.358 25.223 19.455 25.387a.286.286 0 0 1-.249.431zM138.469 329.368a.286.286 0 0 1-.282-.24c-.054-.331-5.442-33.251-11.775-50.34-6.335-17.092-22.647-45.184-22.811-45.466a.286.286 0 1 1 .495-.287c.164.282 16.501 28.417 22.853 45.555 6.353 17.141 11.75 50.115 11.804 50.446a.285.285 0 0 1-.284.332zM149.653 329.368l-.015-.001a.285.285 0 0 1-.27-.3c.01-.198 1.039-19.988 0-37.673-1.038-17.668-9.15-43.471-9.232-43.73a.286.286 0 0 1 .545-.173c.082.259 8.216 26.131 9.257 43.868 1.041 17.718.011 37.539 0 37.737a.286.286 0 0 1-.285.272z"></path>
  <path fill="#D36101" d="m340.921 95.69-3.184-32.134h27.757l-3.383 32.134z"></path>
  <path fill="#1E1D1D" d="M335.598 109.85a.382.382 0 0 1-.326-.58c.014-.024 1.526-2.658-.043-8.507-.895-3.34-2.976-6.848-4.987-10.24-1.686-2.843-3.277-5.528-4.255-8.156-1.554-4.179-1.938-11.38.41-16.495 1.301-2.832 3.271-4.752 5.86-5.708 8.517-3.149 11.564 3.166 11.594 3.23a.381.381 0 0 1-.691.323c-.111-.235-2.795-5.733-10.639-2.838-2.39.883-4.218 2.67-5.431 5.311-2.263 4.926-1.889 11.874-.388 15.911.953 2.563 2.528 5.219 4.196 8.032 2.037 3.437 4.144 6.991 5.068 10.432 1.665 6.205.028 8.987-.043 9.103a.379.379 0 0 1-.325.182zM357.908 105.298a.382.382 0 0 1-.346-.22c-.016-.034-1.595-3.426-3.663-8.525-2.353-5.797-2.648-17.476-2.665-22.227-.005-1.403.031-2.804.067-4.158.123-4.675.239-9.092-1.695-9.191-2.586-.129-3.165 2.546-3.19 2.66a.379.379 0 0 1-.454.291.38.38 0 0 1-.291-.453c.255-1.184 1.423-3.395 3.974-3.259 2.676.137 2.563 4.477 2.418 9.973-.036 1.35-.072 2.745-.067 4.135.017 4.707.306 16.269 2.608 21.943 2.061 5.081 3.633 8.455 3.648 8.488a.381.381 0 0 1-.344.543z"></path>
  <path fill="#1E1D1D" d="M338.956 63.937a.383.383 0 0 1-.371-.471c.088-.361 2.2-8.88 6.835-11.331 1.464-.774 3.024-.86 4.638-.252 7.666 2.884 8.741 11.543 8.751 11.63a.382.382 0 0 1-.336.422c-.2.034-.397-.126-.422-.334-.009-.083-1.038-8.286-8.261-11.004-1.402-.527-2.751-.455-4.013.212-4.333 2.293-6.429 10.752-6.45 10.837a.382.382 0 0 1-.371.291z"></path>
  <path fill="#1E1D1D" d="M382.083 94.927a.375.375 0 0 1-.261-.104c-.053-.05-5.328-5.083-10.078-14.658-1.96-3.952-2.435-8.696-2.894-13.284-.657-6.562-1.225-12.229-6.035-13.453-1.876-.475-3.497-.228-4.821.741-3.511 2.565-3.953 9.34-3.957 9.407-.013.21-.2.387-.403.358a.381.381 0 0 1-.358-.403c.017-.293.466-7.198 4.267-9.978 1.517-1.109 3.354-1.402 5.46-.865 5.328 1.355 5.948 7.553 6.606 14.116.452 4.52.921 9.193 2.819 13.02 4.69 9.455 9.866 14.393 9.918 14.442a.381.381 0 0 1 .016.539.38.38 0 0 1-.279.122z"></path>
  <path fill="#435A2C" d="M338.205 106.184s-4.328-3.843-6.193-3.358-2.238 2.835 0 3.544 4.738-3.106 7.797-3.586c3.059-.48 3.134 2.68 2.052 3.674s-2.366.78-3.656-.274zM358.421 101.488s-5.543-1.663-7.031-.437-.836 3.514 1.493 3.215c2.329-.3 2.989-4.813 5.562-6.537s3.971 1.111 3.408 2.468c-.563 1.358-1.818 1.704-3.432 1.291zM381.61 91.742s-5.543-1.663-7.031-.437-.836 3.514 1.493 3.214 2.989-4.813 5.562-6.537 3.971 1.111 3.408 2.468c-.563 1.358-1.818 1.704-3.432 1.292zM377.408 85.794s-5.543-1.663-7.031-.437c-1.488 1.225-.836 3.514 1.493 3.215 2.329-.3 2.989-4.813 5.562-6.537s3.971 1.111 3.408 2.468c-.563 1.357-1.818 1.703-3.432 1.291zM374.257 79.95s-5.543-1.663-7.031-.437c-1.488 1.225-.836 3.514 1.493 3.214s2.989-4.813 5.562-6.537c2.572-1.724 3.971 1.111 3.408 2.468-.563 1.358-1.818 1.705-3.432 1.292zM372.192 74.346s-4.735-3.328-6.533-2.634c-1.798.693-1.903 3.071.402 3.521 2.304.451 4.355-3.623 7.341-4.447 2.985-.824 3.417 2.307 2.455 3.418-.963 1.111-2.264 1.043-3.665.142zM371.765 68.589s-4.735-3.328-6.534-2.634c-1.798.693-1.903 3.071.402 3.521 2.304.451 4.356-3.623 7.341-4.447 2.985-.823 3.417 2.307 2.455 3.418-.963 1.11-2.263 1.043-3.664.142zM370.956 60.919s-5.438-1.981-6.994-.843c-1.556 1.137-1.038 3.46 1.304 3.296 2.342-.165 3.263-4.632 5.93-6.204 2.668-1.572 3.9 1.338 3.26 2.661-.64 1.322-1.913 1.595-3.5 1.09zM367.77 54.382s-5.786-.131-6.895 1.446.127 3.61 2.293 2.703c2.165-.908 1.603-5.434 3.626-7.779 2.022-2.345 4.123.016 3.941 1.474s-1.299 2.126-2.965 2.156z"></path>
  <path fill="#435A2C" d="M362.097 51.162s-4.672 3.416-4.593 5.342 2.297 2.788 3.464.75-2.033-5.288-1.855-8.38c.179-3.091 3.282-2.496 4.025-1.228.744 1.268.262 2.478-1.041 3.516zM355.791 94.986s-5.543-1.663-7.031-.437c-1.488 1.225-.836 3.514 1.493 3.214s2.989-4.813 5.562-6.537 3.971 1.111 3.408 2.468c-.563 1.359-1.818 1.705-3.432 1.292zM354.53 88.47s-4.828-3.192-6.606-2.448c-1.778.744-1.815 3.123.501 3.509 2.316.385 4.251-3.745 7.212-4.653s3.481 2.21 2.551 3.347c-.931 1.136-2.232 1.106-3.658.245zM353.885 81.668s-4.828-3.192-6.606-2.448c-1.778.744-1.815 3.123.501 3.509 2.316.385 4.251-3.745 7.212-4.653s3.481 2.21 2.551 3.347-2.232 1.106-3.658.245zM353.525 75.47s-4.828-3.192-6.606-2.448c-1.778.744-1.815 3.123.501 3.509 2.316.385 4.251-3.745 7.212-4.653s3.481 2.21 2.551 3.347c-.931 1.137-2.232 1.106-3.658.245zM353.885 69.881s-4.828-3.192-6.606-2.448c-1.778.744-1.815 3.123.501 3.509 2.316.385 4.251-3.745 7.212-4.653s3.481 2.21 2.551 3.347c-.93 1.137-2.232 1.106-3.658.245zM353.525 63.807s-4.828-3.192-6.606-2.448c-1.778.744-1.815 3.123.501 3.509 2.316.385 4.251-3.745 7.212-4.653s3.481 2.209 2.551 3.347c-.931 1.136-2.232 1.106-3.658.245zM342.66 59.023s-2.112-5.388-3.994-5.803-3.282 1.51-1.609 3.158 5.632-.618 8.576.343 1.576 3.81.161 4.205-2.463-.378-3.134-1.903z"></path>
  <path fill="#435A2C" d="M345.459 55.318s.604-5.756-.877-6.99c-1.481-1.234-3.609-.169-2.881 2.064.727 2.232 5.285 2.043 7.456 4.25 2.172 2.207-.353 4.108-1.792 3.808-1.438-.301-2.012-1.47-1.906-3.132z"></path>
  <path fill="#435A2C" d="M349.553 54.38s5.069-2.793 5.235-4.714c.167-1.92-1.924-3.058-3.34-1.185-1.417 1.872 1.343 5.504.773 8.548s-3.573 2.057-4.149.705.056-2.491 1.481-3.354z"></path>
  <path fill="#435A2C" d="M352.669 56.658s5.784-.188 6.805-1.823c1.02-1.635-.326-3.598-2.438-2.572-2.112 1.025-1.302 5.514-3.192 7.967-1.89 2.453-4.118.211-4.017-1.255.101-1.467 1.181-2.195 2.842-2.317zM337.508 99.811s-5.383-2.125-6.969-1.03-1.13 3.431 1.216 3.329 3.385-4.543 6.094-6.043c2.709-1.5 3.863 1.442 3.187 2.747-.675 1.306-1.954 1.545-3.528.997zM335.239 94.847s-5.383-2.125-6.969-1.03-1.13 3.431 1.216 3.329 3.385-4.543 6.094-6.043c2.709-1.5 3.863 1.442 3.187 2.747-.675 1.305-1.955 1.544-3.528.997zM327.325 78.206s-4.9-3.079-6.661-2.294c-1.76.785-1.742 3.165.582 3.496s4.163-3.843 7.102-4.819 3.532 2.128 2.628 3.287c-.903 1.158-2.205 1.157-3.651.33zM328.014 90.3s2.784-5.074 4.703-5.245c1.92-.17 3.061 1.918 1.192 3.338-1.87 1.42-5.507-1.332-8.549-.756-3.042.577-2.05 3.577-.697 4.15 1.354.573 2.491-.06 3.351-1.487zM325.223 84.877s2.784-5.074 4.703-5.245c1.92-.17 3.061 1.918 1.192 3.338-1.87 1.42-5.507-1.332-8.549-.756-3.042.577-2.05 3.577-.697 4.15 1.353.573 2.491-.06 3.351-1.487zM323.455 72.912s4.424-3.732 6.276-3.199c1.852.532 2.166 2.891-.09 3.543-2.256.652-4.658-3.226-7.704-3.783-3.046-.557-3.201 2.599-2.144 3.621 1.056 1.02 2.345.839 3.662-.182zM324.559 66.541s5.269-2.395 6.908-1.381c1.639 1.014 1.302 3.37-1.046 3.386-2.348.017-3.611-4.366-6.392-5.727-2.781-1.361-3.785 1.636-3.045 2.905.741 1.269 2.031 1.443 3.575.817zM329.069 60.8s5.783.219 6.795 1.86c1.011 1.641-.345 3.596-2.452 2.559s-1.272-5.521-3.149-7.984-4.117-.233-4.023 1.234c.093 1.466 1.169 2.2 2.829 2.331z"></path>
  <path fill="#435A2C" d="M336.202 57.582s4.103 4.081 3.735 5.973c-.369 1.892-2.691 2.41-3.537.22-.846-2.19 2.807-4.921 3.097-8.004.29-3.083-2.869-2.962-3.794-1.82-.926 1.14-.633 2.409.499 3.631z"></path>
  <path fill="#1E1D1D" d="M339.627 65.89a.382.382 0 0 1-.366-.49l10.105-34.161a.381.381 0 0 1 .349-.273c.17.017.311.09.371.241l13.34 33.86a.382.382 0 0 1-.71.28l-12.934-32.829-9.791 33.098a.377.377 0 0 1-.364.274z"></path>
  <circle cx="349.733" cy="31.688" r="2.355" fill="#D36101"></circle>
  <path fill="#5C7F3F" d="M431.303 181.098s1.642-2.437 3.034-2.736c1.393-.298 6.268.746 7.66-.448 1.393-1.194-1.343-1.89-2.537-3.979s6.168-.995 8.257-2.835c2.089-1.84-3.333-1.741-3.88-3.88-.547-2.139 5.124-3.283 2.885-5.273-2.238-1.99-6.367 3.233-8.357 2.935s-1.144-2.636-3.88-2.189c-2.736.448-2.377 5.528-2.377 5.528l-7.67 4.59-4.528 8.286h11.393v.001z"></path>
  <path fill="#1E1D1D" d="M437.123 199.453h-37.208a2.486 2.486 0 1 1 0-4.974h37.208a2.487 2.487 0 0 1 0 4.974z"></path>
  <path fill="#435A2C" d="M402.9 157.072s-4.178-3.656-2.985-6.044c1.194-2.388 5.223 1.791 5.895-1.268.671-3.059-4.691-11.789-3.055-14.251 1.637-2.462 4.099.373 5.368-1.268 1.268-1.642.821-8.954 3.582-7.909 2.761 1.045-1.418 12.834 1.567 12.684 2.985-.149 5.596-4.924 7.163-2.238 1.567 2.686-1.268 6.729-3.283 7.99-2.015 1.262-3.955 6.037-1.119 5.365 2.835-.671 3.283-3.805 5.671-3.432 2.388.373 1.15 4.135 1.15 4.135l-6.331 19.07-12.801 3.059-.822-15.893z"></path>
  <path fill="#1E1D1D" d="M412.202 167.858a.19.19 0 0 1-.185-.146c-.022-.094-2.255-9.438-2.596-15.454-.34-6.009-.003-13.573 0-13.649.005-.105.091-.177.2-.182a.192.192 0 0 1 .182.2c-.004.075-.34 7.62 0 13.611.338 5.981 2.563 15.292 2.585 15.385a.19.19 0 0 1-.186.235zM425.185 181.289a.192.192 0 0 1-.191-.191c0-.083.054-.154.127-.18.206-.145 1.353-1.418 2.568-2.764 2.634-2.924 6.616-7.342 8.768-9.045 3.309-2.617 6.318-4.182 6.348-4.197.091-.048.208-.013.256.081s.012.209-.081.257c-.03.016-3.008 1.565-6.286 4.158-2.127 1.683-6.096 6.086-8.722 9-2.524 2.801-2.622 2.881-2.787 2.881zM437.123 297.844h-37.208a2.486 2.486 0 1 1 0-4.974h37.208a2.487 2.487 0 0 1 0 4.974zM497.212 259.865h-30.94a2.487 2.487 0 0 1 0-4.974h30.94a2.486 2.486 0 1 1 0 4.974zM379.227 364.736a.38.38 0 0 1-.377-.437l25.067-167.389a.38.38 0 0 1 .434-.32.38.38 0 0 1 .32.434l-25.067 167.389a.382.382 0 0 1-.377.323zM465.505 362.79a.38.38 0 0 1-.374-.311l-30.969-165.443a.382.382 0 0 1 .75-.14l30.969 165.443a.382.382 0 0 1-.376.451z"></path>
  <path fill="#1E1D1D" d="M452.954 295.738h-63.396a.38.38 0 1 1 0-.762h63.396a.38.38 0 1 1 0 .762z"></path>
  <path fill="#D36101" d="M404.293 194.479s-3.109-2.189-5.049-4.726-1.343-8.655-1.343-8.655h37.232s.448 3.582-.597 7.088c-1.045 3.507-6.641 6.292-6.641 6.292h-23.602v.001z"></path>
  <path fill="#5C7F3F" d="M402.676 181.098s1.418-2.015 0-3.283-4.924.373-8.357 0-3.432-4.178-2.462-5.074c.97-.895 4.477-1.791 3.955-3.507s-8.804-.298-11.341-2.015c-2.537-1.716-1.418-4.626 1.194-5.074 2.611-.448 3.507-.746 2.761-2.313s-7.859-2.313-9.6-5.521 2.139-5.447 5.795-3.805 6.715 5.223 7.387 2.985-1.716-5.298.597-5.895 3.955.522 4.328 3.507c.373 2.985-.149 9.401 1.94 10.073 2.089.671 2.388-3.059 4.029-4.104 1.642-1.045 4.178-.746 4.551 3.88s-2.611 7.238-.746 8.655c1.865 1.418 4.253-2.611 6.641-.522 2.388 2.089 3.176 12.013 3.176 12.013h-13.848z"></path>
  <path fill="#6A8C53" d="M439.909 152.297c.522-.448 8.879-2.164 9.401-5.298s-2.984-3.358-6.79-1.865c-3.805 1.492-4.701 2.611-6.417 1.492s2.462-5.82-2.015-5.895c-4.477-.075-5.671 10.521-8.879 10.744-3.208.224-2.388-2.537-6.044-1.343s-2.089 15.445-3.358 16.564-1.865-1.567-4.551-.448-1.642 5.671 0 8.879 4.253 5.969 4.253 5.969h4.402s8.058-1.045 6.417-3.731c-1.642-2.686-4.775-1.418-4.701-3.581.075-2.164 14.027.224 14.177-2.91.149-3.134-6.864-2.238-8.357-4.85-1.492-2.611 2.164-4.551 6.641-4.477 4.477.075 8.357.746 8.058-2.015-.298-2.761-4.477-3.059-4.85-4.626-.372-1.565 2.613-2.609 2.613-2.609z"></path>
  <path fill="#1E1D1D" d="M408.919 181.289a.189.189 0 0 1-.174-.114c-.039-.088-3.92-8.838-8.327-13.88-4.408-5.044-13.153-10.702-13.241-10.759s-.114-.175-.057-.264.176-.114.264-.057c.088.057 8.879 5.743 13.322 10.829 4.444 5.087 8.349 13.888 8.388 13.977a.19.19 0 0 1-.098.251.176.176 0 0 1-.077.017zM416.522 181.289l-.021-.001a.19.19 0 0 1-.168-.21c.013-.122 1.423-12.271 6.689-19.245 5.259-6.968 12.052-10.516 12.12-10.551a.19.19 0 1 1 .174.34c-.067.034-6.785 3.545-11.99 10.44-5.201 6.891-6.6 18.937-6.614 19.058a.191.191 0 0 1-.19.169z"></path>
  <path fill="#E0A368" d="M407.277 292.869s-2.089-4.775-2.587-9.252c-.497-4.477-.398-9.949-.398-9.949s-2.189-2.487-1.741-3.283 4.178.995 4.178.995 4.576.281 9.501 1.707c4.925 1.426 14.525 5.804 13.978 6.55s-1.492.796-1.492.796 2.686 8.506 2.487 10.247-1.194 2.189-1.194 2.189h-22.732z"></path>
  <path fill="#5C7F3F" d="M411.356 231.388v24.573s-1.691 1.194-2.885.746-.05-7.561-1.094-8.407c-1.045-.846-3.532-.448-3.681 1.293s-.149 10.446.398 11.391 7.66.945 7.66.945v10.114l8.671 2.508-.513-17.05s6.715-.298 7.859-1.84c1.144-1.542 1.393-19.4 0-20.345s-5.422-.995-5.77 1.194.647 11.789.249 12.535-3.83.696-3.83.696l-.497-18.355s-.597-3.216-3.457-3.109c-2.658.101-3.11 1.917-3.11 3.111z"></path>
  <path fill="#A1BDCE" d="M488.001 254.891h-12.518a6.326 6.326 0 0 1-6.326-6.326v-12.601h25.17v12.601a6.326 6.326 0 0 1-6.326 6.326z"></path>
  <path fill="#1E1D1D" d="M480.3 236.345a.38.38 0 0 1-.368-.481c.176-1.614 1.01-48.071 1.429-72.531a.388.388 0 0 1 .388-.375c.21.004.378.177.375.388 0 0-.311 18.156-.647 36.313-.168 9.078-.342 18.157-.486 24.966-.072 3.405-.137 6.243-.19 8.229-.094 3.491-.094 3.491-.501 3.491z"></path>
  <path fill="#5C7F3F" d="M479.691 170.099s4.477-1.99 6.765-4.278c2.288-2.288 2.189-7.959 6.964-6.864 4.775 1.094 5.173 6.665 1.791 10.645-3.383 3.979-12.834.099-15.52-1.393s-4.377-5.173-7.063-7.76c-2.686-2.587-6.268.298-6.566 4.178-.298 3.88 7.895 8.844 13.629 5.472zM479.691 183.548s4.477-1.99 6.765-4.278c2.288-2.288 2.189-7.959 6.964-6.864 4.775 1.094 5.173 6.665 1.791 10.645-3.383 3.979-12.834.1-15.52-1.393-2.686-1.492-4.377-5.173-7.063-7.76-2.686-2.587-6.268.298-6.566 4.178s7.895 8.844 13.629 5.472z"></path>
  <path fill="#5C7F3F" d="M479.112 199.258s5.741-2.552 8.675-5.486c2.934-2.934 2.807-10.206 8.93-8.803 6.124 1.403 6.634 8.548 2.296 13.651s-16.458.128-19.902-1.786c-3.445-1.914-5.613-6.634-9.058-9.951s-8.037.383-8.42 5.358c-.381 4.976 10.126 11.342 17.479 7.017z"></path>
  <path fill="#5C7F3F" d="M478.108 215.675s6.359-2.826 9.609-6.076 3.109-11.305 9.892-9.75c6.783 1.554 7.348 9.468 2.544 15.12-4.805 5.652-18.229.141-22.044-1.978-3.815-2.12-6.218-7.348-10.033-11.022s-8.902.424-9.326 5.935c-.425 5.51 11.213 12.561 19.358 7.771z"></path>
  <path fill="#5C7F3F" d="M477.204 231.976s8.332-3.703 12.591-7.962 4.074-14.813 12.961-12.776c8.888 2.037 9.628 12.406 3.333 19.813s-23.886.185-28.885-2.592c-4.999-2.777-8.147-9.629-13.147-14.443-4.999-4.814-11.665.555-12.221 7.777-.555 7.22 14.696 16.459 25.368 10.183z"></path>
  <path fill="#1E1D1D" d="M484.376 230.536c-2.052 0-3.534-.224-3.857-.277-.646.265-3.372-.069-7.446-.922-7.033-1.474-14.2-8.17-14.505-8.755a.189.189 0 0 1 .08-.254.191.191 0 0 1 .258.077c.315.574 7.451 7.134 14.245 8.558 6.377 1.336 7.196.962 7.226.943.044-.051.077-.045.145-.034.068.012 6.814 1.21 12.732-1.42 5.895-2.62 8.4-10.106 8.424-10.181a.19.19 0 1 1 .362.118c-.025.077-2.58 7.723-8.631 10.412-3.145 1.398-6.517 1.735-9.033 1.735zM483.445 214.589c-1.543 0-2.62-.095-2.645-.097-.118.016-3.783.349-10.119-2.027-6.38-2.392-7.816-6.704-7.875-6.885a.191.191 0 0 1 .364-.116c.013.043 1.449 4.321 7.645 6.644 6.255 2.346 9.946 2.007 9.982 2.004.099.005 6.287.547 10.276-1.008 3.957-1.544 6.158-6.903 6.18-6.958a.189.189 0 0 1 .248-.105.19.19 0 0 1 .105.248c-.091.226-2.286 5.566-6.395 7.169-2.396.937-5.558 1.131-7.766 1.131zM480.53 198.148c-.783 0-2.348-.294-5.472-1.502-5.4-2.088-8.784-5.281-8.817-5.313a.191.191 0 0 1 .264-.276c.033.031 3.366 3.174 8.691 5.233 4.995 1.932 5.772 1.423 5.802 1.401.041-.051.089-.055.15-.053.068.007 6.837.609 10.928-.852 4.031-1.439 5.161-5.597 5.171-5.639a.193.193 0 0 1 .233-.136.192.192 0 0 1 .136.232c-.012.044-1.188 4.394-5.413 5.902-3.935 1.406-10.257.941-11.016.879-.106.064-.301.124-.657.124zM484.067 183.253c-1.596 0-2.646-.34-2.724-.366-.027-.01-2.53-.867-6.155-1.601-3.709-.752-6.085-3.87-6.184-4.002a.191.191 0 0 1 .038-.267.193.193 0 0 1 .267.038c.023.031 2.39 3.135 5.954 3.858 3.651.74 6.176 1.605 6.202 1.614.031.011 3.352 1.08 7.212-.656 3.843-1.73 4.666-3.85 4.675-3.871a.188.188 0 0 1 .244-.113.19.19 0 0 1 .114.244c-.034.092-.87 2.284-4.876 4.087a11.603 11.603 0 0 1-4.767 1.035zM481.755 169.384a59.105 59.105 0 0 1-5.973-.983c-3.21-.702-5.864-3.875-5.975-4.01a.19.19 0 1 1 .293-.243c.027.032 2.683 3.206 5.764 3.88 3.135.686 5.871.974 5.898.976-.005-.002 2.722-.195 5.945-1.171 3.185-.965 5.154-3.648 5.174-3.675a.19.19 0 0 1 .266-.042.19.19 0 0 1 .042.266c-.083.115-2.065 2.814-5.372 3.817-3.267.988-6.035 1.183-6.062 1.185zM486.8 257.759h-40.514a.38.38 0 1 1 0-.762H486.8a.38.38 0 1 1 0 .762z"></path>
  <ellipse cx="461.92" cy="355.545" fill="#D36101" rx="71.555" ry="9.103"></ellipse>
  <ellipse cx="461.92" cy="355.545" fill="#DE9641" rx="40.963" ry="5.211"></ellipse>
  <path fill="#598CB2" d="M472.192 342.96s1.393.199 2.885-.846 1.443-2.089 3.134-2.686c1.691-.597 3.134-.895 3.134-.895l-1.393-1.791 1.393-1.194s-2.786-3.482-2.338-6.019c.448-2.537 1.89-6.865 1.89-6.865s-2.636-.05-3.681.448c-1.045.497-2.636 1.343-2.636 1.343s-4.079-1.293-6.466-.547c-2.388.746-5.024 1.84-5.024 1.84l-5.422-2.288s-.696 2.139 0 3.333 1.244 2.139 1.244 2.139-10.794-1.816-17.733.05c-6.939 1.865-12.61 5.596-15.744 8.357s-2.313 3.059-6.939 5.074-11.282 4.977-14.624 6.715c-3.342 1.738-2.91 7.461 1.119 9.178 4.029 1.716 17.758 2.388 20.37 1.94s3.358-1.119 3.358-1.119 5.165 3.289 8.655 2.089 2.537-2.91 1.343-3.955-2.91-2.388-2.91-2.388 8.73 0 12.908-.97c4.178-.97 4.85-1.567 8.581-1.045s10.67 3.358 12.908 3.134c2.238-.224 2.01-2.607-.075-4.104a18.424 18.424 0 0 0-4.253-2.238s4.104-.56 5.633.037c1.53.597 3.395 2.537 5.298 2.537s1.642-1.94-.075-3.47c-1.716-1.53-3.619-3.246-4.104-4.178-.486-.932-.436-1.616-.436-1.616z"></path>
  <path fill="#1E1D1D" d="M438.068 339.08s5.72 3.333 7.262 6.566.398 6.069-1.94 6.715c-2.338.647-3.034.398-5.322 1.144s-2.263 1.368-2.263 1.368-.821-1.318.721-1.965c1.542-.647 7.81-.846 8.158-3.383s0-4.129-2.039-5.77c-2.04-1.64-4.577-4.675-4.577-4.675zM416.256 350.173s-1.393.672-1.89 1.467c-.497.796-.647 1.343-.647 1.343s5.571-1.393 10.844-.423 7.287 2.015 7.586 3.432c.298 1.418-3.432 3.134-3.432 3.134s2.761-1.99 2.437-3.059c-.323-1.069-3.352-1.992-4.75-2.388-1.399-.396-5.845-.721-8.108-.622s-4.527.995-6.392.92c-1.865-.075-3.954-1.418-3.954-1.418s2.468.578 3.532.709c1.063.131 1.511-.037 1.511-.037s.093-1.212.914-1.959c.819-.745 2.349-1.099 2.349-1.099zM465.874 349.651s-.696-.1-1.418-.97c-.721-.87-.671-2.235-.671-2.235s-.499 1.464-.001 2.31c.499.845 2.09.895 2.09.895zM458.91 328.933s.149.149-.199 1.219c-.348 1.069-1.268 1.865-1.766 2.835-.497.97-.647 2.313-.647 2.313s.579-1.816 1.322-2.537c.743-.721 1.835-2.892 1.29-3.83z"></path>
  <path fill="#A1BDCE" d="M430.189 333.831s2.445 1.084 3.079 2.315 1.604 1.38 1.679.41c.075-.97.037-1.903.821-1.492.783.41 1.716 1.975 1.977.446.261-1.528-2.158-4.545-2.158-4.545s-2.08.963-2.919 1.426c-.839.462-2.479 1.44-2.479 1.44zM438.311 329.879s1.318 1.678 2.101 3.003c.783 1.324.065 2.817 1.077 3.171s1.515-2.29 2.243-1.975 2.201 3.542 3.544 2.703-.469-4.085-1.242-5.671-1.941-2.686-1.941-2.686-2.217.352-3.149.622c-.931.27-2.633.833-2.633.833zM447.758 328.156s.607 5.03 1.502 5.452c.895.423.348-1.194 1.194-1.219s1.069 2.885 2.487 2.164-.326-6.297-.326-6.297-1.826-.086-2.509-.1c-.684-.014-2.348 0-2.348 0z"></path>
  <path fill="#1E1D1D" d="M472.455 332.637s-.165-1.129.693-1.832c.859-.702 2.161.063 2.161.063s-.267.806-.726 1.406c-.459.599-2.128.363-2.128.363zM467.573 332.859s.165-1.129-.693-1.832c-.859-.702-2.161.063-2.161.063s.267.806.726 1.406c.46.6 2.128.363 2.128.363zM469.381 335.922s.392-.243.895-.298c.504-.056 1.169.137 1.169.137s.025 1.076-.74 1.15c-.764.074-1.156-.579-1.324-.989z"></path>
  <path fill="#1E1D1D" d="M470.538 336.916s.429 1.486-.373 2.102c-.802.616-1.642 0-1.642 0s1.102.279 1.604-.308c.502-.586.411-1.794.411-1.794z"></path>
  <path fill="#1E1D1D" d="M470.677 336.916s-.429 1.486.373 2.102c.802.616 1.641 0 1.641 0s-1.102.279-1.604-.308c-.502-.586-.41-1.794-.41-1.794zM472.443 336.821a.19.19 0 0 1-.125-.335c.06-.051 1.478-1.26 3.077-1.862 1.584-.597 3.802-.982 3.896-.997.104-.023.202.051.22.156a.19.19 0 0 1-.156.22c-.022.004-2.276.396-3.826.979-1.537.578-2.948 1.782-2.962 1.794a.195.195 0 0 1-.124.045zM472.691 337.623a.19.19 0 0 1-.188-.16.192.192 0 0 1 .158-.219l5.606-.914a.186.186 0 0 1 .219.158.192.192 0 0 1-.158.219l-5.606.914c-.011.002-.021.002-.031.002zM480.014 339.265l-.027-.001-6.902-.971a.191.191 0 0 1-.162-.216c.014-.105.114-.171.216-.162l6.902.971a.19.19 0 0 1-.027.379zM469.213 337.107a.172.172 0 0 1-.039-.004l-6.939-1.443a.191.191 0 0 1-.148-.226.193.193 0 0 1 .226-.148l6.939 1.443a.191.191 0 0 1-.039.378zM462.684 337.922a.19.19 0 0 1-.007-.381l5.913-.206a.197.197 0 0 1 .197.184.19.19 0 0 1-.184.197l-5.913.206h-.006zM462.442 340.533a.19.19 0 0 1-.061-.372l6.155-2.071c.1-.032.209.02.242.12a.19.19 0 0 1-.12.242l-6.155 2.071a.186.186 0 0 1-.061.01z"></path>
  <path fill="#DE9641" d="m196.07 318.244-11.789 48.792h3.731l22.384-48.335z"></path>
  <path fill="#D36101" d="m212.81 318.244-11.788 48.792h3.73l22.384-48.335z"></path>
  <path fill="#DE9641" d="m338.108 314.497 12.694 52.539h-3.731l-23.713-51.205z"></path>
  <path fill="#D36101" d="m321.719 315.952 12.342 51.084h-3.73l-23.468-50.677z"></path>
  <path fill="#E5A320" d="M175.146 195.023s-4.444-28.5 9.682-38.448c14.127-9.949 136.295-17.907 157.784-5.372s21.29 33.228 21.688 37.804c.398 4.576 0 10.925 0 10.925l-10.262 72.246-167.822 5.142-11.07-82.297z"></path>
  <path fill="#1E1D1D" d="m244.943 124.69 5.132-.433h19.635l4.892-.201s-3.656-22.198-8.804-23.839c-5.148-1.642-11.491-1.418-13.729.149-2.239 1.566-7.126 24.324-7.126 24.324z"></path>
  <path fill="#DE9641" d="M172.293 280.732c1.365-1.406 34.621-8.755 88.94-10.943 54.319-2.189 98.291-.597 103.465 6.964 5.173 7.561-4.377 30.84-12.137 35.019-7.76 4.178-77.002 7.163-112.418 6.964-35.417-.199-44.37.597-50.936-1.99s-23.48-29.249-16.914-36.014z"></path>
  <path fill="#D36101" d="M157.371 195.772c-6.168 2.587-8.357 6.765-7.561 18.703.796 11.938 16.376 57.559 22.086 61.084 5.709 3.525 6.157 4.317 14.32 1.761s11.546-8.128 10.352-21.061c-1.194-12.933-6.765-55.314-16.514-59.691-9.75-4.378-22.683-.796-22.683-.796zM371.662 198.557c-4.911-.818-8.556.796-13.729 8.158s-18.504 44.967-18.106 52.727 4.347 10.548 14.211 12.736c9.864 2.187 13.844 1.391 23.195-13.332 9.352-14.724 18.703-40.192 15.918-46.957-2.786-6.766-15.52-12.337-21.489-13.332z"></path>
  <path fill="#DE9641" d="M179.345 278.689s-14.911-28.499-15.657-45.809.149-22.981 4.178-24.175c4.029-1.194 7.909 6.566 9.7 15.52 1.791 8.954 11.631 51.913 11.631 51.913l1.339-.749s-8.796-49.123-12.599-59.619-6.489-12.287-13.204-10.496-6.268 9.401-6.417 18.206c-.149 8.804 6.118 28.652 9.401 37.605 3.283 8.954 9.384 17.362 9.384 17.362l2.244.242zM349.15 270.872s-.569-18.073 4.207-35.146c4.775-17.073 11.341-27.22 18.504-26.822s7.561 4.974 6.964 10.744c-.597 5.77-11.397 42.381-14.751 46.758-3.355 4.377-4.748 6.682-4.748 6.682h1.89s7.461-9.069 14.027-26.081 9.849-30.242 6.168-35.963-11.839-7.114-16.515-4.129c-4.676 2.985-11.242 14.127-13.729 23.578s-4.875 26.065-4.676 31.338 1.02 8.446 1.02 8.446l1.639.595z"></path>
  <path fill="#1E1D1D" d="M169.309 367.036h192.404v3.631H169.309z"></path>
  <path fill="#CE8A41" d="m249.68 127.786 2.127-19.064s1.604-.186 2.686-1.604 1.268-2.873 1.268-2.873.298 3.47 4.067 4.402c3.768.933 8.319.634 8.319.634l1.903 18.243-20.37.262z"></path>
  <path fill="#FFE9D7" d="m221.887 177.367-15.072-10.744s4.477-21.787 19.847-31.487 38.501-10.844 50.588-8.605c12.087 2.238 27.607 8.158 33.875 14.127s8.655 9.551 8.655 9.551l-18.952 22.086-5.074-4.029-73.867 9.101z"></path>
  <path fill="#1E1D1D" d="M333.509 205.386c-5.074-2.573-37.862-1.594-37.862-1.594l-46.729 19.734-36.133-16.158-9.552-10.303-20.808 10.67.831 11.867s-1.87 3.429 0 7.309 58.776 33.427 58.776 33.427l18.305-23.827 13.48 28.154 31.487-16.863 11.192 3.581s12.684-15.967 13.281-16.564c.597-.597 6.118-3.731 9.107-9.551 2.99-5.819-.301-17.309-5.375-19.882z"></path>
  <path fill="#CE8A41" d="m206.815 166.623-3.432 11.938s-17.982 13.505-21.787 20.967c-3.805 7.461-1.865 13.878-.373 16.713 1.492 2.835 4.029 6.193 4.029 6.193s4.501-1.418 7.846-3.507c3.346-2.089 4.763-3.656 4.763-3.656s-2.462-5.671-1.492-9.252 2.015-4.253 2.015-4.253 3.059.298 5.969 1.641 5.894 3.955 7.685 4.029c1.791.075 3.805-1.716 3.805-1.716s-2.388-1.194-2.164-3.805c.224-2.611 11.192-13.878 11.192-13.878l-2.985-10.67-15.071-10.744zM319.78 150.208l7.511 7.561s12.635 7.76 16.415 14.326 3.459 13.53 2.774 17.41c-.685 3.88-4.465 10.545-4.465 10.545l-32.084-17.833-9.103-9.924 18.952-22.085z"></path>
  <path fill="#1E1D1D" d="M311.274 173.039s3.358-4.626 12.087-4.924c8.73-.298 12.087 2.537 12.087 2.537l-1.716 3.656-13.953 3.059-7.088-2.238-1.417-2.09z"></path>
  <path fill="#38305E" d="m311.274 173.039 2.537 14.55 20.519-2.164 1.119-14.773s-2.985 3.88-12.087 4.104c-9.103.223-12.088-1.717-12.088-1.717z"></path>
  <path fill="#38305E" d="M335.026 176.238s6.243.233 7.362 2.882 0 22.201-1.716 25.296-5.223 3.319-5.223 3.319-5.018-2.257-4.934-2.882c.084-.625 4.511-28.615 4.511-28.615z"></path>
  <path fill="#CE8A41" d="M338.807 185.649s-1.418 14.177-2.761 16.937c-1.343 2.761-19.474 4.405-22.011 2.799s-3.656-7.873-4.328-13.768c-.672-5.894-.946-9.679-.622-10.324s3.466-.932 3.466-.932l.383 2.198s3.264 2.193 9.383 1.596c6.118-.597 12.396-3.794 12.396-3.794s3.123.884 3.646 1.854c.522.972.622 1.791.448 3.434z"></path>
  <path fill="#A1BDCE" d="M232.109 170.652s62.452-5.074 63.795-4.029-.634 47.487-.634 47.487-12.125 7.254-14.208 7.437c-11.81 1.033-49.672 3.221-51.116 2.827-1.642-.448-9.7-50.163-8.208-51.644 1.492-1.481 6.337-1.681 10.371-2.078z"></path>
  <path fill="#1E1D1D" d="M190.358 220.405s-2.719-3.008-3.763-5.507c-1.045-2.5-1.194-4.402-1.194-4.402s.149 3.208.933 5.708c.783 2.5 2.962 4.685 2.962 4.685l1.062-.484zM194.364 218.101s-2.472-2.009-3.069-4.136c-.597-2.126-.76-4.145-.76-4.145s.461 3.138 1.73 4.817c1.268 1.679 2.853 2.935 2.853 2.935l-.754.529zM198.383 201.766l2.711-3.059-1.755 3.195z"></path>
  <path fill="#F8F2ED" d="m260.338 236.511-1.394-2.437 5.398-2.91-14.265-7.705 14.862 6.526 40.515-21.205z"></path>
  <path fill="#CE8A41" d="M258.944 234.074s-12.21 5.521-23.179 8.73c-10.968 3.208-19.877 3.656-19.877 3.656l-2.507-5.82s-1.791-2.164-6.342-.373-4.253 6.193-4.253 6.193l9.72 27.036 51.682-3.822 9.63-5.008-14.874-30.592z"></path>
  <path fill="#1E1D1D" d="m221.554 263.919-5.666-17.46-.974-2.261.593 4.873s-2.835-1.268-5.633-.485-4.604 4.784-4.604 4.784l.149.415s3.037-3.706 5.052-4.154c2.015-.448 5.559.709 5.559.709l2.835 8.32s-4.402-1.642-7.051.373c-2.649 2.015-2.835 4.653-2.835 4.653l.29.807s1.489-4.378 4.143-5.013c2.655-.634 5.975.634 5.975.634l2.167 3.805z"></path>
  <path fill="#CE8A41" d="m316.497 251.384 2.736.895 1.592-2.686s4.228-3.631 7.561-1.144 2.338 5.969 2.338 5.969l-7.366 14.82-59.171.435 41.118-21.871 11.192 3.582z"></path>
  <path fill="#1E1D1D" d="m312.07 264.267 7.163-11.988 1.592-2.686-1.144 3.631s3.233-1.841 6.168.05c2.935 1.89 2.885 5.148 2.885 5.148l-.307.618s-1.633-4.646-3.722-5.256-6.317 1.877-6.317 1.877l-1.641 2.964s3.432-.626 5.671.966c2.238 1.592 3.214 5.074 3.214 5.074l-.432.869s-1.191-4.451-3.827-5.147-6.019.298-6.019.298l-3.284 3.582z"></path>
  <path fill="#38305E" d="M251.736 109.361s-3.734-1.646-5.45-1.236-2.462 8.879-1.306 9.476c1.157.597 5.837 0 5.837 0l.919-8.24zM268.147 109.282s3.283-1.567 4.701-.858 1.455 8.058 1.119 8.767-4.952.409-4.952.409l-.868-8.318z"></path>
  <path fill="#A1BDCE" d="M249.68 108.598c-.037-.323 1.716-6.553 3.47-7.71 1.753-1.157 11.229-.522 12.871.373 1.642.895 3.911 7.337 3.911 7.337l-1.11.394s-3.063-6.612-3.809-7.022-10.483-.672-11.229-.224-2.966 7.246-2.966 7.246l-1.138-.394z"></path>
  <path fill="#1E1D1D" d="M319.482 120.735s-1.343 3.059-.746 5.745 2.537 4.925 2.611 7.387c.075 2.462-1.382 4.85-1.382 4.85s1.008-4.626.001-6.268c-1.007-1.641-2.648-5.148-2.648-7.387 0-2.238 2.164-4.327 2.164-4.327zM325.526 127.096s-1.343 3.059-.746 5.745 2.537 4.924 2.611 7.387c.075 2.462-1.382 4.85-1.382 4.85s1.008-4.626.001-6.268-2.648-5.148-2.648-7.387 2.164-4.327 2.164-4.327zM314.519 131.358s-1.343 3.059-.746 5.745 2.537 4.924 2.611 7.387c.075 2.462-1.382 4.85-1.382 4.85s1.008-4.626.001-6.268-2.648-5.148-2.648-7.387c0-2.238 2.164-4.327 2.164-4.327zM273.818 264.665l-9.63 5.008h2.517z"></path>
  <circle cx="261.861" cy="195.778" r="8.189" fill="#F8F2ED"></circle>
  <path fill="#1E1D1D" d="m307.101 316.874 15.672 3.439-1.054-4.361zM212.699 318.706l12.278 4.658 2.159-4.663zM261.656 113.498s.721 1.094 2.189.945c1.467-.149 1.915-1.293 1.915-1.293s-.945.759-2.052.783c-1.107.025-2.052-.435-2.052-.435zM254.043 113.498s.721 1.094 2.189.945c1.467-.149 1.915-1.293 1.915-1.293s-.945.759-2.052.783c-1.107.025-2.052-.435-2.052-.435zM258.147 121.357s1.295-.249 2.216-.149c.92.099 1.293.149 1.293.149h-3.509z"></path>
</svg>
