<svg xmlns="http://www.w3.org/2000/svg" xml:space="preserve" viewBox="0 0 600 400" id="couple-doing-boxing-practice">
  <path fill="#6A8C53" d="M394.727 356.576s-7.183-3.019-7.808-10.098 14.159-31.44 14.159-31.44l2.603 1.041-1.145-4.789s21.758-15.2 26.339-13.638c4.581 1.562 9.994 11.139 8.329 18.01s-23.632 38.103-31.024 40.289c-7.289 2.186-11.453.625-11.453.625zM416.797 363.031s-2.811-2.082-2.499-5.205c.312-3.123 16.553-18.843 18.843-19.364 2.29-.521 6.663 1.457 5.726 4.581-.937 3.123-16.032 19.78-17.386 20.613s-4.684-.625-4.684-.625zM282.499 356.159s-7.704 4.581-9.578 4.373c-1.874-.208-18.323-17.49-17.49-19.156.833-1.666 1.874-3.54 1.874-3.54h-4.789s-14.783-14.679-15.2-17.386c-.416-2.707 8.537-12.597 11.452-11.972 2.811.625 20.821 14.471 28.109 23.424 7.287 8.953 8.849 16.137 8.849 18.01.001 1.875-3.227 6.247-3.227 6.247z"></path>
  <path fill="#1E1D1D" d="M391.603 370.526s-.104 0 0 0c-.208 0-.312-.104-.208-.312 0-.208 2.707-18.531 10.098-33.627 7.392-15.096 18.427-24.882 18.531-24.986.104-.104.312-.104.312 0 .104.104.104.312 0 .312-.104.104-11.035 9.786-18.323 24.882-7.288 14.991-9.994 33.314-10.098 33.522-.103.209-.207.209-.312.209z"></path>
  <path fill="#1E1D1D" d="M398.475 344.395a.224.224 0 0 1-.208-.208c0-.104.104-.312.208-.312l13.117-1.666c.104 0 .312.104.312.208s-.104.312-.208.312l-13.221 1.666zM400.765 338.774c-.104 0-.208-.104-.208-.104l-3.956-8.329c-.104-.104 0-.312.104-.312.104-.104.312 0 .312.104l3.956 8.329c.104.103 0 .312-.208.312.104 0 .104 0 0 0zM410.759 322.429a.224.224 0 0 1-.208-.208c0-.104.104-.312.208-.312l11.452-1.145c.104 0 .312.104.312.208s-.104.312-.208.312l-11.556 1.145zM407.011 327.634a.224.224 0 0 1-.208-.208l-2.603-7.912c0-.104 0-.312.208-.312.104 0 .312 0 .312.208l2.603 7.912c.001.208-.103.312-.312.312zM418.359 313.684a.224.224 0 0 1-.208-.208l-.521-4.997c0-.104.104-.312.208-.312s.312.104.312.208l.521 4.997c0 .208-.104.312-.312.312zM412.841 370.526c-.208-.104-.312-.208-.208-.312 0-.104 3.54-8.433 8.12-14.054 4.477-5.622 12.805-15.2 12.909-15.304.104-.104.208-.104.312 0 .104.104.104.208 0 .312-.104.104-8.329 9.578-12.805 15.2-4.477 5.622-8.016 13.846-8.016 13.95-.104.208-.208.208-.312.208z"></path>
  <path fill="#1E1D1D" d="M421.378 356.055a.224.224 0 0 1-.208-.208l-.416-3.644c0-.104.104-.312.208-.312s.312.104.312.208l.416 3.644c-.104.208-.208.312-.312.312zM429.082 352.932c-.104 0-.104 0 0 0l-4.581-.625c-.104 0-.208-.104-.208-.312s.104-.208.312-.208l4.581.625c.104 0 .208.104.208.312-.104.104-.208.208-.312.208zM428.353 347.727a.224.224 0 0 1-.208-.208l-.521-3.331c0-.104.104-.312.208-.312s.312.104.312.208l.521 3.331c-.104.104-.208.312-.312.312zM291.973 370.734c-.104 0-.208 0-.208-.104-.104-.104-9.057-15.096-16.969-24.986-8.016-9.89-28.629-25.506-28.838-25.61-.104-.104-.104-.208 0-.312.104-.104.208-.104.312 0 .208.208 20.821 15.824 28.838 25.714 8.016 9.89 16.969 24.986 17.074 25.09.104.104 0 .312-.104.312-.001-.104-.001-.104-.105-.104z"></path>
  <path fill="#1E1D1D" d="m275.836 346.79-12.076-.521c-.104 0-.208-.104-.208-.312s.104-.208.312-.208l12.076.521c.104 0 .208.104.208.312.001.104-.207.208-.312.208zM270.631 340.96a.224.224 0 0 1-.208-.208l-1.562-11.868c0-.104.104-.312.208-.312s.312.104.312.208l1.562 11.868c0 .104-.104.208-.312.312.104 0 0 0 0 0zM252.829 333.985c-.104 0-.208-.104-.208-.208s.104-.208.208-.208l10.202-.208c.104 0 .208.104.208.208a.224.224 0 0 1-.208.208l-10.202.208zM255.952 327.842c-.208 0-.312-.104-.208-.312l.625-6.038c0-.104.104-.208.312-.208.104 0 .208.104.208.312l-.625 6.038c0 .104-.104.208-.312.208zM250.226 323.158l-3.227-.104c-.104 0-.208-.104-.208-.312 0-.104.104-.208.208-.208l3.227.104c.104 0 .208.104.208.312.104.103-.104.208-.208.208z"></path>
  <path fill="#CE8A41" d="M496.752 148.987s-4.06.104-8.537 1.874c-4.477 1.874-6.455 3.748-6.559 5.83s2.29 3.331 7.392 2.707c5.101-.625 21.134-5.934 21.134-5.934s.937-1.249-1.77-2.707c-2.811-1.457-6.767-1.145-6.767-1.145l-4.893-.625z"></path>
  <path fill="#D36101" d="M424.397 162.312s-.104 2.915-3.54 7.6c-3.54 4.685-5.518 7.079-5.518 7.079s.312.937 1.145 1.666c.833.729 2.811.625 2.811.625l9.057-3.956 1.145-7.6-.416-2.707s-.729-1.457-1.77-2.082c-1.144-.521-2.914-.625-2.914-.625z"></path>
  <path fill="#CE8A41" d="M463.229 165.019s-9.161 11.868-12.076 12.181c-3.019.312-22.175-12.181-22.175-12.181s-1.041 6.663-4.581 10.098c-3.54 3.54-5.205 4.164-5.205 4.164l19.884 12.597s9.89 4.581 19.156-.521c9.266-5.205 8.537-23.008 7.287-24.673-1.249-1.561-2.29-1.665-2.29-1.665z"></path>
  <path fill="#FFE9D7" d="M512.263 141.283h3.436v2.394l-2.915.208z"></path>
  <path fill="#1E1D1D" d="M506.538 141.803s.729-2.186 3.748-1.77c3.019.416 3.54 2.603 3.54 3.956 0 1.457-.625 4.372-1.249 5.101-.625.833-1.978.937-1.978.937l-4.685-2.915.624-5.309z"></path>
  <path fill="#FFE9D7" d="m490.713 211.555 4.581 131.904-25.298 1.457-15.512-106.397s-.625-4.789-3.748-8.329c-3.019-3.54-4.477-4.685-8.641-4.789-4.268-.208-34.147-2.707-35.917-1.978s-56.322 49.659-56.322 49.659l-20.301-15.2s56.634-55.281 66.004-59.029c9.37-3.748 58.925-8.224 58.925-8.224l2.499-4.893 18.323 9.37 15.407 16.449z"></path>
  <path fill="#CE8A41" d="m501.645 149.611 2.499-3.748s-.833-1.457-.937-1.978c-.104-.625 2.082 0 2.082 0l1.249-2.082s1.666 0 2.082.833-.625 1.978-.625 2.811.729.833.729.833 1.458-1.458 2.707-.521c1.353.937.729 3.019 0 3.331l-.729.416-.833 3.748-8.224-3.643z"></path>
  <path fill="#1E1D1D" d="M524.34 156.586c1.145 0 3.748 12.181 6.767 11.348 3.019-.833 2.082-7.183 1.145-9.474-.937-2.29-3.644-5.309-3.227-5.622.416-.312 6.663 3.54 8.537.937 1.978-2.603-3.227-5.518-5.83-6.767s-3.644-.937-3.227-2.394c.416-1.457 5.101-3.227 4.477-5.205s-3.331-2.394-5.83-1.77c-2.603.625-3.852 1.041-6.038.937-2.186-.104-3.748 0-4.893.833-1.145.833-1.145 3.019-1.145 3.956-.104.937-2.499 7.496-1.145 7.6 1.353.104 3.019-4.789 4.268-4.06 1.145.729-1.145 5.309-.833 7.704.312 2.499-.104 5.518 2.499 5.622 2.289.207 3.226-3.645 4.475-3.645z"></path>
  <path fill="#CE8A41" d="M493.941 211.034s11.556 6.142 15.2 5.414c3.644-.833 6.246-.312 8.641-12.181 2.394-11.868 1.249-34.668 0-39.457-1.249-4.789-3.956-8.849-3.956-8.849l-2.499-1.457s-9.786.833-15.824 6.246c-6.038 5.518-5.726 15.72-5.309 16.865.416 1.145 2.603 2.499 2.603 2.499l1.144 30.92z"></path>
  <path fill="#1E1D1D" d="M513.825 155.962s-3.852-1.874-10.931 3.227c-7.079 4.997-9.578 10.827-10.098 13.222-.521 2.499 0 7.704 0 7.704l-10.931 3.956-19.884-9.994 2.811-4.268s-3.748-4.789.521-10.098c4.164-5.309 9.994-6.455 12.389-6.871 2.394-.416 4.581-.521 4.581-.521s4.164-3.436 10.411-3.956c6.246-.521 8.953 1.145 8.953 1.145s-5.83-.833-10.098 1.041c-4.268 1.77-9.994 4.997-8.433 6.767 1.562 1.77 11.348-.729 15.408-2.603 4.06-1.874 8.953-2.603 8.953-2.603s1.562 0 3.123.729c1.455.832 3.225 3.123 3.225 3.123z"></path>
  <path fill="#D36101" d="M504.976 189.588s1.353 4.477-1.562 11.244c-2.915 6.663-7.704 8.849-9.474 10.307-2.707 2.186-4.789-.833-4.789-.833s-.104-.416.521-.937c.625-.521 6.663-5.205 9.057-9.578 2.29-4.372 2.29-12.597 2.29-12.597s2.916.208 3.957 2.394z"></path>
  <path fill="#1E1D1D" d="M505.184 190.421s1.457.312 3.331 1.457c1.874 1.145 3.331 3.019 3.331 3.019s-2.811-2.082-4.268-2.811c-1.457-.832-2.394-1.665-2.394-1.665z"></path>
  <path fill="#CE8A41" d="m461.98 174.18-4.997 11.348 18.218 9.37 1.458-13.326z"></path>
  <path fill="#D36101" d="M404.409 148.778s-2.186-1.041-4.372-.521c-2.186.625-6.767 4.685-7.6 9.057-.729 4.372.833 11.035 3.123 12.285s10.307 2.915 13.222 3.852c2.811.937 6.455 3.644 6.455 3.644s5.205-2.603 7.6-6.246c2.394-3.644 1.458-8.537 1.458-8.537s-2.707-2.915-5.518-7.287c-2.915-4.372-7.704-5.622-9.682-6.142-1.875-.417-4.686-.105-4.686-.105z"></path>
  <path fill="#1E1D1D" d="M411.28 162.104s-5.934 5.934-10.098 4.06c-4.06-1.77-3.852-5.309-2.394-8.745 1.562-3.436 5.518-8.745 5.518-8.745s-4.581 3.852-6.559 8.329c-2.082 4.581-1.562 7.079.416 8.849s4.893 2.082 7.392 1.145c2.601-.729 5.725-4.893 5.725-4.893zM455.317 195.314c-.312 0-.625-.104-.729-.208-.208-.208-.104-.521.104-.937 1.77-2.394 7.392-1.666 7.6-1.562.104 0 .208.104.208.208s0 .208-.104.312c-1.666.73-5.413 2.187-7.079 2.187zm4.789-2.394c-1.77 0-3.956.312-4.893 1.562-.208.208-.104.312-.104.312.312.312 3.331-.625 6.246-1.77-.416 0-.833-.104-1.249-.104z"></path>
  <path fill="#1E1D1D" d="M464.791 200.832c-.729 0-1.457-.416-1.978-1.458-1.249-2.394-.625-6.351-.625-6.559 0-.104.104-.208.208-.208s.208 0 .208.104c.104.208 3.748 3.956 4.268 5.518.312.937-.312 2.082-1.249 2.499-.312 0-.624.104-.832.104zm-2.291-7.392c-.104 1.145-.312 3.956.625 5.726.833 1.457 1.77 1.249 2.186 1.041.729-.312 1.249-1.145 1.041-1.77-.416-1.249-2.915-3.956-3.852-4.997z"></path>
  <path fill="#CE8A41" d="m469.996 344.916 1.353 10.098 25.923-.624-1.978-10.932z"></path>
  <path fill="#FFE9D7" d="M507.995 382.603c-.521.416-24.049.208-25.402.208-1.353 0-3.852-4.372-3.852-4.372l29.254.416c0 .104.729 3.019 0 3.748z"></path>
  <path fill="#D36101" d="M478.741 378.542s-3.748-9.057-4.685-13.326c-.937-4.268-2.603-10.202-2.603-10.202l25.923-.625s3.331 16.657 4.373 17.49c1.041.833 5.414 2.603 5.83 3.227.416.521.416 3.852.416 3.852s-22.175.937-24.361.937-4.893-1.353-4.893-1.353z"></path>
  <path fill="#FFE9D7" d="M497.584 368.444h-7.496a.712.712 0 0 1-.729-.729c0-.416.312-.729.729-.729h7.496c.416 0 .729.312.729.729 0 .313-.312.729-.729.729zM496.96 364.592h-7.496a.712.712 0 0 1-.729-.729c0-.416.312-.729.729-.729h7.496c.416 0 .729.312.729.729a.713.713 0 0 1-.729.729zM495.71 360.948h-7.496a.712.712 0 0 1-.729-.729c0-.416.312-.729.729-.729h7.496c.416 0 .729.312.729.729a.711.711 0 0 1-.729.729z"></path>
  <path fill="#D36101" d="M486.341 179.386s-8.016-1.77-13.013 5.622c-4.997 7.392-3.644 15.408.416 18.947 4.06 3.54 7.079 4.06 8.12 4.268 1.145.104 3.019.416 3.748.625.833.208 3.436 1.353 3.436 1.353s8.224-2.915 10.931-8.224c2.707-5.414.833-14.783.833-14.783s-1.874-2.186-3.748-4.685-3.54-3.956-6.038-4.268c-2.499-.313-4.685 1.145-4.685 1.145z"></path>
  <path fill="#1E1D1D" d="M486.341 179.386s1.77.208 2.811 1.145 1.562 1.874 1.562 1.874-2.394-1.353-3.227-2.082c-.938-.625-1.146-.937-1.146-.937zM509.036 147.529s.312-.625 1.041-.625c.729-.104 1.145.312 1.145.312l-2.186.313zM461.98 174.18l-9.058 16.449 1.562-.208 2.499-4.893zM500.916 187.194s.729 4.789 0 7.912-1.978 4.997-1.978 4.997 3.331-4.164 3.123-7.183c-.104-3.124-1.145-5.726-1.145-5.726zM489.048 210.201s3.54-2.603 4.997-4.06c1.457-1.458 2.707-3.123 2.707-3.123s-1.145 3.123-3.54 5.205c-2.395 2.083-4.164 1.978-4.164 1.978zM424.397 162.312s-.208 3.852-.937 6.142c-.729 2.29-2.394 3.956-2.394 3.956s3.54-2.499 3.54-5.101l-.209-4.997z"></path>
  <path fill="#FFE9D7" d="M473.223 361.885s4.06 1.978 7.912 5.726c3.852 3.748 5.309 12.181 5.309 12.181l-2.186.104s-.833-6.142-3.852-9.37c-2.915-3.123-6.351-5.414-6.351-5.414l-.832-3.227z"></path>
  <path fill="#1E1D1D" d="m506.017 143.781 1.562-.104s-.208.208-.729.208-.833-.104-.833-.104z"></path>
  <path fill="#CE8A41" d="m349.857 272.978-6.767 7.6-21.134-14.888 7.6-8.016z"></path>
  <path fill="#FFE9D7" d="M297.387 283.285c.208.625 19.884 13.534 21.03 14.263 1.145.729 5.622-1.457 5.622-1.457l-24.673-15.928c-.001-.002-2.292 2.08-1.979 3.122z"></path>
  <path fill="#D36101" d="M323.934 296.09s8.12-5.518 11.348-8.537c3.123-3.019 7.808-6.975 7.808-6.975l-21.238-14.887s-11.972 11.972-13.43 12.076c-1.353.104-5.934-.833-6.663-.625-.625.208-2.499 3.019-2.499 3.019s17.906 13.117 19.676 14.263c1.979 1.249 4.998 1.666 4.998 1.666z"></path>
  <path fill="#FFE9D7" d="m313.836 277.142 6.246 4.164c.312.208.833.104 1.041-.208.208-.312.104-.833-.208-1.041l-6.246-4.164c-.312-.208-.833-.104-1.041.208-.209.312-.105.833.208 1.041zM316.542 274.331l6.246 4.164c.312.208.833.104 1.041-.208.208-.312.104-.833-.208-1.041l-6.246-4.164c-.312-.208-.833-.104-1.041.208-.312.313-.208.833.208 1.041zM319.561 272.041l6.246 4.164c.312.208.833.104 1.041-.208.208-.312.104-.833-.208-1.041l-6.246-4.164c-.312-.208-.833-.104-1.041.208-.208.312-.104.729.208 1.041zM337.78 285.263s-4.581-.625-9.786.416c-5.205.937-11.139 7.287-11.139 7.287l1.77 1.249s4.164-4.685 8.329-5.622 8.329-1.041 8.329-1.041l2.497-2.289z"></path>
  <path fill="#CE8A41" d="M496.335 150.548s-4.06.104-8.537 1.874-6.455 3.748-6.559 5.83c-.104 2.082 2.29 3.331 7.392 2.707 5.101-.625 21.134-5.934 21.134-5.934s.937-1.249-1.77-2.707-6.767-1.145-6.767-1.145l-4.893-.625z"></path>
  <path fill="#D36101" d="M423.877 163.874s-.104 2.915-3.54 7.6c-3.54 4.685-5.518 7.079-5.518 7.079s.312.937 1.145 1.666c.833.729 2.811.625 2.811.625l9.057-3.956 1.145-7.6-.416-2.707s-.729-1.457-1.77-2.082c-1.04-.521-2.914-.625-2.914-.625z"></path>
  <path fill="#CE8A41" d="M462.813 166.685s-9.161 11.868-12.076 12.181c-3.019.312-22.175-12.181-22.175-12.181s-1.041 6.663-4.581 10.098c-3.54 3.436-5.205 4.164-5.205 4.164l19.884 12.597s9.89 4.581 19.156-.521c9.266-5.205 8.537-23.008 7.287-24.673-1.249-1.665-2.29-1.665-2.29-1.665z"></path>
  <path fill="#FFE9D7" d="M511.847 142.844h3.436v2.395l-2.915.208z"></path>
  <path fill="#1E1D1D" d="M506.017 143.365s.729-2.186 3.748-1.77c3.019.416 3.54 2.603 3.54 3.956s-.625 4.372-1.249 5.101c-.625.729-1.978.937-1.978.937l-4.685-2.915.624-5.309z"></path>
  <path fill="#CE8A41" d="m501.228 151.277 2.499-3.748s-.833-1.457-.937-1.978c-.104-.625 2.082 0 2.082 0l1.249-2.082s1.666 0 2.082.833c.416.833-.625 1.978-.625 2.811s.729.833.729.833 1.457-1.457 2.707-.521c1.353.937.729 3.019 0 3.331-.729.312-.729.416-.729.416l-.833 3.748-8.224-3.643z"></path>
  <path fill="#1E1D1D" d="M523.819 158.148c1.145 0 3.748 12.181 6.767 11.348 3.019-.833 2.082-7.183 1.145-9.474-.937-2.29-3.644-5.309-3.227-5.622.416-.312 6.663 3.54 8.537.937s-3.227-5.518-5.83-6.767c-2.603-1.249-3.644-.937-3.227-2.394.416-1.457 5.101-3.227 4.477-5.205-.625-1.978-3.331-2.394-5.83-1.77-2.603.625-3.852 1.041-6.038.937-2.186-.104-3.748 0-4.893.833-1.145.833-1.145 3.019-1.145 3.956 0 .937-2.499 7.496-1.145 7.6 1.353.104 3.019-4.789 4.268-4.06 1.145.729-1.145 5.309-.833 7.704.312 2.394-.104 5.518 2.499 5.622 2.393.207 3.33-3.645 4.475-3.645z"></path>
  <path fill="#CE8A41" d="M493.42 212.7s11.556 6.142 15.2 5.414c3.644-.833 6.246-.312 8.641-12.181 2.394-11.868 1.249-34.668 0-39.457-1.249-4.789-3.956-8.849-3.956-8.849l-2.499-1.458s-9.786.833-15.824 6.246c-6.038 5.518-5.726 15.72-5.309 16.865.416 1.145 2.603 2.499 2.603 2.499l1.144 30.921z"></path>
  <path fill="#1E1D1D" d="M513.305 157.627s-3.852-1.874-10.931 3.227c-7.079 4.997-9.578 10.827-10.098 13.222-.521 2.499 0 7.704 0 7.704l-10.931 3.956-19.884-9.994 2.811-4.268s-3.748-4.789.521-10.098c4.164-5.309 9.994-6.455 12.389-6.871 2.394-.416 4.581-.521 4.581-.521s4.164-3.436 10.411-3.956c6.246-.521 8.953 1.145 8.953 1.145s-5.83-.833-10.098 1.041c-4.268 1.77-9.994 4.997-8.433 6.767 1.562 1.77 11.348-.729 15.408-2.603 4.06-1.874 8.953-2.603 8.953-2.603s1.562 0 3.123.729 3.225 3.123 3.225 3.123z"></path>
  <path fill="#D36101" d="M504.56 191.15s1.353 4.477-1.562 11.244c-2.915 6.663-7.704 8.849-9.474 10.307-2.707 2.186-4.789-.833-4.789-.833s-.104-.416.521-.937c.625-.521 6.663-5.205 9.057-9.578 2.394-4.372 2.29-12.597 2.29-12.597s2.915.208 3.957 2.394z"></path>
  <path fill="#1E1D1D" d="M504.768 192.087s1.458.312 3.331 1.458c1.874 1.145 3.331 3.019 3.331 3.019s-2.811-2.082-4.268-2.811c-1.457-.937-2.394-1.666-2.394-1.666z"></path>
  <path fill="#CE8A41" d="m461.459 175.742-4.997 11.348 18.323 9.369 1.353-13.325z"></path>
  <path fill="#D36101" d="M403.992 150.34s-2.186-1.041-4.372-.521c-2.186.625-6.767 4.685-7.6 9.057-.833 4.372.833 11.035 3.123 12.285 2.29 1.249 10.307 2.915 13.222 3.852 2.811.937 6.455 3.644 6.455 3.644s5.205-2.603 7.6-6.246c2.394-3.644 1.457-8.537 1.457-8.537s-2.707-2.915-5.518-7.287c-2.915-4.372-7.704-5.622-9.682-6.142-1.978-.417-4.685-.105-4.685-.105z"></path>
  <path fill="#1E1D1D" d="M410.863 163.77s-5.934 5.934-10.098 4.06-3.852-5.309-2.394-8.745c1.458-3.436 5.518-8.745 5.518-8.745s-4.581 3.852-6.559 8.329c-2.082 4.581-1.562 7.079.416 8.849 1.978 1.77 4.893 2.082 7.392 1.145 2.602-.833 5.725-4.893 5.725-4.893zM454.901 196.876c-.312 0-.625-.104-.729-.208-.208-.208-.104-.521.104-.937 1.77-2.394 7.392-1.666 7.6-1.562.104 0 .208.104.208.208s0 .208-.104.312c-1.77.729-5.414 2.187-7.079 2.187zm4.788-2.291c-1.77 0-3.956.312-4.893 1.562-.208.208-.104.312-.104.312.312.312 3.331-.625 6.246-1.77-.416-.104-.832-.104-1.249-.104z"></path>
  <path fill="#1E1D1D" d="M464.27 202.393c-.729 0-1.458-.416-1.978-1.457-1.249-2.394-.625-6.351-.625-6.559 0-.104.104-.208.208-.208s.208 0 .208.104c.104.208 3.748 3.956 4.268 5.518.312.937-.416 2.082-1.249 2.499-.207-.001-.52.103-.832.103zm-2.186-7.391c-.104 1.145-.312 3.956.625 5.726.833 1.458 1.77 1.249 2.186 1.041.729-.312 1.249-1.145 1.041-1.77-.417-1.249-2.915-3.956-3.852-4.997z"></path>
  <path fill="#CE8A41" d="m469.58 346.478 1.353 10.098 25.923-.625-1.978-10.827z"></path>
  <path fill="#FFE9D7" d="M507.475 384.164c-.521.416-24.049.208-25.402.208-1.353 0-3.852-4.372-3.852-4.372l29.254.416c0 .105.832 3.124 0 3.748z"></path>
  <path fill="#D36101" d="M478.22 380.104s-3.748-9.057-4.685-13.326-2.603-10.202-2.603-10.202l25.923-.625s3.331 16.657 4.372 17.49c1.041.833 5.414 2.603 5.83 3.227.416.521.416 3.852.416 3.852s-22.175.937-24.361.937c-2.081 0-4.892-1.353-4.892-1.353z"></path>
  <path fill="#FFE9D7" d="M497.168 370.006h-7.496a.712.712 0 0 1-.729-.729c0-.416.312-.729.729-.729h7.496c.416 0 .729.312.729.729a.713.713 0 0 1-.729.729zM496.543 366.154h-7.496a.712.712 0 0 1-.729-.729c0-.416.312-.729.729-.729h7.496c.416 0 .729.312.729.729a.712.712 0 0 1-.729.729zM495.294 362.51h-7.496a.712.712 0 0 1-.729-.729c0-.416.312-.729.729-.729h7.496c.416 0 .729.312.729.729a.712.712 0 0 1-.729.729z"></path>
  <path fill="#D36101" d="M485.82 180.947s-8.016-1.77-13.013 5.622c-4.997 7.392-3.644 15.408.416 18.947 4.06 3.54 7.079 4.06 8.12 4.268 1.145.104 3.019.416 3.748.625s3.436 1.353 3.436 1.353 8.224-2.915 10.931-8.224c2.707-5.414.833-14.783.833-14.783s-1.874-2.186-3.748-4.685c-1.874-2.499-3.54-3.956-6.038-4.268-2.394-.312-4.685 1.145-4.685 1.145z"></path>
  <path fill="#1E1D1D" d="M485.82 180.947s1.77.208 2.811 1.145 1.562 1.874 1.562 1.874-2.394-1.353-3.227-2.082c-.833-.624-1.146-.937-1.146-.937zM508.62 149.091s.312-.625 1.041-.625 1.145.312 1.145.312l-2.186.313zM461.459 175.742l-9.057 16.449 1.666-.104 2.394-4.997zM500.395 188.755s.729 4.789 0 7.912-1.978 4.997-1.978 4.997 3.331-4.164 3.123-7.183c-.104-3.123-1.145-5.726-1.145-5.726zM488.631 211.763s3.54-2.603 4.997-4.06 2.707-3.123 2.707-3.123-1.145 3.123-3.54 5.205c-2.394 2.082-4.164 1.978-4.164 1.978zM423.877 163.874s-.208 3.852-.937 6.142c-.729 2.29-2.394 3.956-2.394 3.956s3.54-2.499 3.54-5.101c-.001-2.499-.209-4.997-.209-4.997z"></path>
  <path fill="#FFE9D7" d="M472.807 363.447s4.06 1.978 7.912 5.726c3.852 3.748 5.309 12.181 5.309 12.181l-2.186.104s-.833-6.142-3.852-9.37-6.351-5.414-6.351-5.414l-.832-3.227z"></path>
  <path fill="#1E1D1D" d="m505.601 145.343 1.562-.104s-.208.208-.729.208c-.625 0-.833-.104-.833-.104z"></path>
  <path fill="#598CB2" d="M321.331 85.898h-2.394c-2.186 0-4.06-1.77-4.06-4.06v-5.726c0-2.186 1.77-4.06 4.06-4.06h2.394c2.186 0 4.06 1.77 4.06 4.06v5.726c0 2.186-1.874 4.06-4.06 4.06zm-2.29-11.036c-.729 0-1.353.625-1.353 1.353v5.726c0 .729.625 1.353 1.353 1.353h2.394c.729 0 1.353-.625 1.353-1.353v-5.83c0-.729-.625-1.353-1.353-1.353h-2.394v.104zM319.978 68.2l-2.186.729c-2.082.729-4.372-.416-5.101-2.499l-1.874-5.414c-.729-2.082.416-4.372 2.499-5.101l2.186-.729c2.082-.729 4.373.416 5.101 2.499l1.874 5.414c.728 2.081-.417 4.372-2.499 5.101zm-5.83-9.682c-.729.208-1.041 1.041-.833 1.666l1.874 5.414c.208.729 1.041 1.041 1.666.833l2.186-.729c.729-.208 1.041-1.041.833-1.666L318 58.622c-.208-.729-1.041-1.041-1.666-.833l-2.186.729zM314.252 52.688l-2.29.208a3.988 3.988 0 0 1-4.373-3.644l-.625-5.622a3.986 3.986 0 0 1 3.644-4.372l2.29-.208a3.986 3.986 0 0 1 4.372 3.644l.625 5.622c.209 2.185-1.457 4.163-3.643 4.372zm-3.436-10.723c-.729.104-1.249.729-1.145 1.458l.625 5.622c.104.729.729 1.249 1.458 1.145l2.29-.208c.729-.104 1.249-.729 1.145-1.457l-.625-5.622c-.104-.729-.729-1.249-1.457-1.145l-2.291.207zM312.794 36.135l-2.29-.104c-2.186-.104-3.956-1.978-3.852-4.164l.208-5.726c.104-2.186 1.978-3.956 4.164-3.852l2.29.104c2.186.104 3.956 1.978 3.852 4.164l-.208 5.726c-.103 2.29-1.977 3.956-4.164 3.852zm-1.978-11.036c-.729 0-1.353.521-1.353 1.249l-.208 5.726c0 .729.521 1.353 1.249 1.353l2.29.104c.729 0 1.353-.521 1.353-1.249l.208-5.726c0-.729-.521-1.353-1.249-1.353l-2.29-.104z"></path>
  <path fill="#D36101" d="M341.632 342.417c.833-.312 1.249-1.666 4.997-1.562 3.748.104 12.909-.937 21.03-11.035s8.329-20.509 7.392-21.238-12.909 1.457-23.528 9.994c-10.619 8.537-19.78 22.799-19.78 22.799s3.955 2.916 9.889 1.042z"></path>
  <path fill="#38305E" d="m375.05 308.583-4.789-3.956s-15.2-6.351-29.879 1.978c-14.575 8.329-14.679 31.232-14.679 31.232s2.082 1.874 3.227 2.499c1.145.521 2.811 1.145 2.811 1.145s2.499-1.353 4.06-3.54c1.666-2.186 7.079-4.685 8.745-6.455 1.77-1.77 3.227-4.268 6.663-6.559 3.331-2.29 5.518-1.562 8.953-4.789 3.331-3.227 3.019-4.581 6.142-7.079 3.125-2.707 5.936-2.394 8.746-4.476z"></path>
  <path fill="#D36101" d="M325.704 337.837s-30.712-31.128-31.44-64.338c-.729-33.21 20.509-81.203 22.175-86.825 1.666-5.622 2.707-10.411 2.707-10.411l47.577 2.499s-4.893 18.739-11.452 34.772c-6.559 16.032-11.66 34.251-7.392 50.7s11.139 27.484 14.367 31.857c3.227 4.372 7.912 8.745 7.912 8.745s-.312.416-2.499.521c-2.186.104-3.227-.312-3.227-.312s-2.29-.937-4.372 1.562-1.041 4.268-4.477 6.455c-3.436 2.29-3.227.104-8.224 3.019s-7.912 9.994-8.849 11.556-6.871 2.499-8.641 3.956.104 4.789-.625 5.518c-.834.83-3.54.726-3.54.726z"></path>
  <path fill="#38305E" d="M318.937 92.04s.416 2.811-3.748 4.477c-4.06 1.77-7.392 3.436-9.161 9.266-1.77 5.83.833 15.824 6.455 26.131s9.37 16.865 8.849 27.901-2.082 16.345-2.082 16.345 1.874 5.414 17.49 9.578c15.616 4.06 30.087-7.079 30.087-7.079s4.373-19.156 1.353-32.169c-3.019-13.013-13.638-37.062-21.238-42.476-7.6-5.414-21.758-9.057-23.008-9.994-1.249-.937-2.082-2.603-2.082-2.603l-2.915.623z"></path>
  <path fill="#1E1D1D" d="M310.816 101.93s8.329-5.309 8.537-5.309 0 1.249 0 1.249.625-1.457 1.041-1.457c.416 0 1.041.521 1.041.521s-.312-1.666 0-1.874c.312-.208 9.37 4.685 9.37 4.685l-7.287-2.29s1.77 2.603 1.77 3.019-2.915-2.29-2.915-2.29-.521 5.309-.729 5.518c-.208.104-1.145-5.101-1.145-5.101s-4.268 5.309-4.685 5.101c-.416-.208 2.394-5.309 2.394-5.309l-7.392 3.537zM312.066 105.99s-1.249 1.458-1.666 2.29c-.416.833-.729 1.874-.729 1.874l2.395-4.164zM318.729 107.136s.625 1.457.833 2.499c.104 1.041-.208 2.915-.208 2.915l-.625-5.414zM326.224 103.596s3.331 5.414 3.748 5.518c.312.104-1.041-4.477-.937-4.477.104 0 3.436 3.227 3.436 3.227s-3.123-4.268-3.644-4.372c-.521-.104 0 2.811 0 2.811l-2.603-2.707zM365.264 322.949s-2.29 5.101-3.54 6.663-8.12 4.893-8.433 4.997c-.312.104 5.101-3.227 4.893-3.227-.312 0-4.581.104-4.477-.104.104-.208 5.414-.625 5.622-.937s-2.186-.625-2.186-.729c0-.104 2.394-.104 2.603-.208.208-.104 1.353-5.205 1.562-5.205s-.937 4.997-.625 4.997c.313.208 4.581-6.247 4.581-6.247zM321.748 324.615s-10.098-14.054-12.805-18.635c-2.707-4.581-4.372-10.098-4.372-10.098s9.578 14.887 13.117 19.676c3.539 4.789 4.06 9.057 4.06 9.057z"></path>
  <ellipse cx="341.84" cy="370.526" fill="#1E1D1D" rx="38.832" ry="3.54"></ellipse>
  <path fill="#A1BDCE" d="M320.29 92.977a1.645 1.645 0 0 1-1.666-1.666v-8.016c0-.937.729-1.666 1.666-1.666.937 0 1.666.729 1.666 1.666v8.016c0 .937-.729 1.666-1.666 1.666zM320.394 76.008c-.937.208-1.77-.312-2.082-1.249l-1.978-7.808c-.208-.937.312-1.77 1.249-2.082.937-.208 1.77.312 2.082 1.249l1.978 7.808c.209.936-.312 1.873-1.249 2.082zM315.189 59.246c-.937.208-1.77-.312-2.082-1.249l-1.978-7.808c-.208-.937.312-1.77 1.249-2.082.937-.208 1.77.312 2.082 1.249l1.978 7.808c.104.937-.416 1.874-1.249 2.082zM311.857 42.902a1.645 1.645 0 0 1-1.666-1.666V33.22c0-.937.729-1.666 1.666-1.666.937 0 1.666.729 1.666 1.666v8.016c0 .937-.729 1.666-1.666 1.666zM311.857 26.973a1.645 1.645 0 0 1-1.666-1.666v-8.016c0-.937.729-1.666 1.666-1.666.937 0 1.666.729 1.666 1.666v8.016c0 .833-.729 1.666-1.666 1.666z"></path>
  <path fill="#1E1D1D" d="M289.891 152.214s10.098-4.477 18.427 0c8.329 4.477 8.953 11.348 7.392 15.096-1.458 3.748-4.893 7.287-10.202 6.767-5.309-.521-7.496-3.956-7.496-3.956s-1.041.312-2.811.416c-1.77.104-3.852-.521-3.852-.521l-1.458-17.802z"></path>
  <path fill="#5C7F3F" d="m281.146 152.734 1.874.104-.729 18.01-1.77.208s.729 1.145 1.457 1.353c.625.208 8.016-1.145 8.537-1.457.521-.312 3.748-5.414 3.019-10.827-.729-5.518-4.164-8.641-4.685-8.849-.625-.208-6.246-.208-6.663 0-.311.209-1.04 1.458-1.04 1.458z"></path>
  <path fill="#DDA783" d="m225.345 148.882 57.779 3.956s1.77 6.663 1.041 11.452c-.729 4.789-1.77 6.559-1.77 6.559l-60.903 6.455s-7.287-11.035-8.016-17.906c-.832-6.664 11.869-10.516 11.869-10.516z"></path>
  <path fill="#F8F2ED" d="M306.027 164.082s-1.249 1.041-2.915 1.041-3.123-.416-4.268.625c-1.145 1.041-.833 4.164-.833 4.164s.312-3.54 1.666-4.06c1.353-.521 2.915 0 3.956-.416 1.249-.209 2.394-1.354 2.394-1.354z"></path>
  <path fill="#1E1D1D" d="M230.55 149.299s-4.685 10.723-5.205 15.824c-.521 5.101 1.041 11.764 1.041 11.764l-4.997.521s-7.6-11.348-8.016-17.906c-.416-6.559 11.868-10.619 11.868-10.619l5.309.416zM232.216 188.027s7.808-9.786 15.304-11.764c7.496-1.978 11.452 0 13.638 3.644s3.227 8.849 2.29 12.597c-1.041 3.852-6.351 6.975-8.016 6.871-1.77-.104-2.811-.833-2.811-.833s-1.874 2.186-3.227 2.915c-1.353.729-3.54 1.145-3.54 1.145l-13.638-14.575zM220.556 137.951s-4.893-2.082-4.06-5.518 5.518-5.309 7.912-3.331c2.29 1.978.833 6.455 0 7.287s-1.77 1.562-1.77 1.562 3.123 0 4.06 2.707c.937 2.603-.416 5.83-.416 5.83l-8.537-1.666-.833-4.789s1.457-1.457 2.29-1.77c.833-.208 1.354-.312 1.354-.312z"></path>
  <path fill="#5C7F3F" d="m238.983 209.264 1.041-1.249-10.931-15.096-1.666 1.145s-.521-1.562-.312-2.082c.312-.625 4.06-3.852 4.997-3.852 1.041 0 5.518-.416 9.786 4.997 4.268 5.414 3.852 9.89 3.748 10.827-.104.937-3.748 4.893-4.372 5.101-.522.209-2.291.209-2.291.209zM150.596 211.451s13.638-44.766 26.027-55.177c12.389-10.411 22.071-8.12 22.071-8.12l6.663 68.607-5.83 12.909-48.931-18.219z"></path>
  <path fill="#DDA783" d="m206.605 149.403 6.351-4.268s-1.874-3.019.625-4.789c2.499-1.77 4.789.833 4.893 1.666.104.833-.208 2.082-.208 2.082s1.562.104 3.123-.208c1.562-.312 2.603-.937 2.603-.937s-.521 1.666.416 2.499c.937.833 1.77 1.145 1.77 1.145l-1.249 3.331s2.186 1.041 1.874 1.77c-.312.729-3.644.625-3.644.625l-6.455 7.912-10.099-10.828z"></path>
  <path fill="#1E1D1D" d="M214.726 141.595s1.145.625 1.457 1.666c.312 1.041-.521 1.77-.521 1.77l-.936-3.436z"></path>
  <path fill="#DDA783" d="m229.092 192.816-4.997 3.227s-3.956-31.961-8.016-39.04c-4.06-7.079-11.452-9.474-17.386-8.953-5.934.521-11.66 4.372-16.761 16.553-5.101 12.076-10.411 32.169-6.455 37.791 3.956 5.622 11.035 8.745 15.304 7.912 4.268-.833 8.745-6.975 8.745-6.975s5.518 17.594 13.534 21.654c7.912 4.06 13.222-1.77 16.032-4.789s10.931-12.389 10.931-12.389-.729-6.975-3.644-10.202c-2.81-3.02-7.287-4.789-7.287-4.789z"></path>
  <path fill="#1E1D1D" d="m199.63 203.434-10.619-26.547 8.641 28.942z"></path>
  <path fill="#F8F2ED" d="M258.971 194.169s-2.29.729-3.644 1.77c-1.353 1.145-2.811 2.603-2.811 2.603s.521-2.082 2.186-3.227c1.562-1.042 4.269-1.146 4.269-1.146z"></path>
  <path fill="#1E1D1D" d="m135.813 258.924 29.254 5.518 3.956 4.997 42.059-17.49-11.452-22.383-48.93-18.219s-3.956 10.202-7.287 20.093c-3.332 9.994-7.6 27.484-7.6 27.484z"></path>
  <path fill="#F8F2ED" d="M159.028 246.014s1.874 9.161 2.707 11.452c.833 2.394 3.331 6.975 3.331 6.975l-1.457-.312s-2.499-3.54-3.436-8.537c-.832-4.997-1.145-9.578-1.145-9.578z"></path>
  <path fill="#DDA783" d="M219.619 342.209s14.471-45.599 13.117-53.719c-1.458-8.12-21.55-36.437-21.55-36.437l-42.059 17.49-3.956-4.997-29.254-5.518s-3.227 18.843-5.309 22.695-38.311 39.248-38.311 39.248l19.052 21.342s39.769-32.481 42.996-36.646c3.227-4.06 20.301-31.336 20.301-31.336s21.654 19.364 22.279 22.799c.625 3.436-5.205 40.393-5.205 40.393l27.899 4.686z"></path>
  <path fill="#FFE9D7" d="m74.702 336.9 17.49-16.033 19.051 21.342-13.534 11.244-6.871 1.041z"></path>
  <path fill="#1E1D1D" d="m67.414 343.458 7.287-6.663 2.499-2.29s14.054 17.386 15.824 17.178c1.666-.208 3.956-3.331 5.83-3.227 1.874.104 2.915 1.666 2.915 1.666s-4.372 4.997-5.414 9.578c-1.041 4.581-.625 6.767 1.457 8.12 2.082 1.457 2.707.833 3.748 1.353 1.041.521 2.082 2.186 2.082 2.186s-14.679-.521-15.2-.625c-.623 0-21.028-27.276-21.028-27.276z"></path>
  <path fill="#FFE9D7" d="m62.521 346.998 4.893-3.54 21.03 27.381 15.095.624 1.458 2.707-18.948.625zM191.614 337.524l-2.082 15.2 25.922.937 2.083-3.852 2.082-7.6z"></path>
  <path fill="#1E1D1D" d="m186.304 368.548 3.227-15.928.416-3.227s20.509 2.603 21.446 2.186c1.041-.416 2.394-3.123 3.644-4.477 1.249-1.353 3.331-.521 3.331-.521s-1.562 6.246-.312 9.994c1.249 3.748 4.477 6.871 6.975 7.912 2.499 1.041 4.789 1.874 6.142 3.227 1.353 1.353 1.562 2.707 1.562 2.707l-46.431-1.873z"></path>
  <path fill="#FFE9D7" d="m185.888 374.066.416-5.518 46.432 1.874v3.644zM219.515 356.264l-7.183 2.29c-.416.104-.937-.208-1.041-.833-.208-.625 0-1.145.416-1.249l7.183-2.29c.416-.104.937.208 1.041.833.104.624 0 1.144-.416 1.249zM222.221 360.74l-7.183 2.29c-.416.104-.937-.208-1.041-.833-.208-.625 0-1.145.416-1.249l7.183-2.29c.416-.104.937.208 1.041.833.105.52-.103 1.145-.416 1.249zM225.449 364.592l-7.183 2.29c-.416.104-.937-.208-1.041-.833-.208-.625 0-1.145.416-1.249l7.183-2.29c.416-.104.937.208 1.041.833.104.52-.104 1.145-.416 1.249zM98.126 358.033l-6.767-3.123c-.416-.208-.521-.729-.208-1.353.208-.521.729-.833 1.145-.625l6.767 3.123c.416.208.521.729.208 1.353-.208.521-.729.729-1.145.625zM96.877 362.822l-7.392-1.145c-.416-.104-.729-.625-.625-1.249.104-.625.521-1.041.937-.937l7.392 1.145c.416.104.729.625.625 1.249-.105.625-.521 1.041-.937.937zM97.918 367.299l-7.496.312c-.416 0-.833-.416-.833-1.041s.312-1.145.729-1.145l7.496-.312c.416 0 .833.416.833 1.041-.001.624-.313 1.145-.729 1.145z"></path>
  <path fill="#1E1D1D" d="m174.54 274.331-5.413-4.789 4.372 6.455z"></path>
  <path fill="#FFE9D7" d="M189.636 351.683s3.331-.312 10.619 4.997c7.287 5.309 9.266 12.805 9.266 12.805l-2.915-.104s-3.748-8.016-6.975-10.307c-3.227-2.29-10.411-4.997-10.411-4.997l.416-2.394z"></path>
  <path fill="#1E1D1D" d="m221.701 146.072 1.457 2.394s-.729-.312-1.145-.833c-.416-.729-.312-1.561-.312-1.561z"></path>
</svg>
