<svg xmlns="http://www.w3.org/2000/svg" xml:space="preserve" viewBox="0 0 600 400" id="first-day-at-gym">
  <path fill="#6A8C53" d="M30.094 354.214s-.429-5.366 3.649-6.762c4.078-1.395 8.371 0 8.371 0s-23.839-31.232-6.017-42.179c17.823-10.947 28.502-1.288 28.502-1.288s-9.21-18.084 3.793-24.712c13.003-6.627 23.521 1.207 23.521 1.207s23.182-50.121 72.767-42.823 51.946 59.244 51.946 59.244 18.299-34.291 47.76-29.461c29.461 4.83 30.186 22.706 30.186 22.706s5.059-56.997 57.574-50.557 44.09 63.108 44.09 63.108 11.001-29.407 41.911-22.216 17.601 37.242 17.601 37.242 13.233-21.895 34.307-16.743c21.074 5.152 15.063 26.187 15.063 26.187s6.01-14.596 14.167-10.303c8.157 4.293 9.015 9.874 9.015 9.874s6.869-25.758 31.339-16.743 0 41.643 0 41.643l-529.545 2.576z"></path>
  <path fill="#1E1D1D" d="M391.352 87.042s1.504-.574 2.846 0 1.878 2.345 3.542 1.326c1.664-1.02-1.181-5.152-.483-5.527.698-.376 5.581 5.903 8.371 4.615s1.395-4.508-1.127-6.869-3.703-4.239-1.717-6.386 11.108-1.717 11.967-6.654-2.361-7.137-5.957-6.708c-3.595.429-11.323 6.225-14.06 4.991s-2.415-8.05-.483-11.108c1.932-3.059 1.392-8.479-2.9-8.908-4.291-.429-7.404 4.4-8.37 8.318-.966 3.917-1.664 8.64-2.468 9.015-.805.376-2.737-.376-5.152-3.649s-6.654-3.81-8.21.161 1.395 9.337 4.722 12.289c3.327 2.951 5.434 5.555 5.434 5.555s7.445 7.861 10.235 8.612c2.792.75 3.81.927 3.81.927z"></path>
  <path fill="#A35824" d="M414.891 98.81s41.556 14.242 44.293 15.53 7.566 4.186 6.923 12.074c-.644 7.888-15.66 32.113-15.66 32.113L414.891 98.81zM377.294 78.708s-.912 6.332-1.127 6.547c-.215.215-3.273-.161-3.059.912.215 1.073 3.059 1.664 3.542 2.308s1.181 13.201 1.181 13.201l17.172-8.908-5.098-7.996s5.044-1.932 3.917-5.849-3.917-2.898-5.098-1.61-1.234 2.951-2.2 3.434-3.595-3.059-3.595-3.059-1.02-.013-2.67.228c-1.65.242-2.965.792-2.965.792z"></path>
  <path fill="#DE9641" d="M377.79 100.975s6.372-7.483 16.622-9.133 20.124 6.126 22.753 9.133c2.63 3.008 28.495 46.529 28.495 46.529l-76.737 36.706s-8.694-6.118-9.66-16.099 1.732-21.604 1.732-21.604l16.795-45.532z"></path>
  <path fill="#A35824" d="M384.05 133.23s4.942 11.162 16.963 11.055c12.021-.107 18.031-9.015 17.923-18.031-.107-9.015-9.659-26.724-18.889-30.266s-22.002 4.937-26.295 7.298-28.871 17.387-31.232 17.387-4.078-2.898-4.078-2.898l-19.533 14.918s11.591 16.528 18.353 19.533 13.738-.429 17.065-2.039c3.326-1.61 29.723-16.957 29.723-16.957z"></path>
  <path fill="#1E1D1D" d="m400.181 124.276-16.131 8.954.707 1.325z"></path>
  <path fill="#FFE9D7" d="M377.294 78.708s-.476-.651-.335-.973c.141-.322 4.749-2.053 6.882-2.214 2.133-.161 2.354 0 2.354 0l-.181 1.557-3.086.609-5.634 1.021z"></path>
  <path fill="#1E1D1D" d="M389.127 80.747s.295-1.127.993-1.878 1.046-.832 1.046-.832l-2.039 2.71z"></path>
  <path fill="#DE9641" d="m318.909 132.693-9.526-13.925 21.653-12.397 7.406 11.404z"></path>
  <path fill="#1E1D1D" d="m361.946 187.107 18.675 33.164 15.616-6.922 3.944 8.371 43.87-8.532-4.508-12.396s11.591-8.854 13.04-24.309-6.922-28.978-6.922-28.978l-76.737 36.706-6.978 2.896z"></path>
  <path fill="#F8F2ED" d="m396.237 213.349 24.846-11.216-23.282 14.536z"></path>
  <path fill="#A35824" d="M444.051 213.188s9.015 26.939 12.342 29.729c3.327 2.79 25.544-1.61 25.544-1.61l4.722 26.831s-43.467 8.264-50.98 7.835c-7.513-.429-12.235-6.976-14.596-10.518-2.361-3.542-20.902-43.735-20.902-43.735l43.87-8.532zM361.946 187.107s-27.797 12.021-34.988 17.816c-7.191 5.796-22.324 45.721-22.324 45.721l27.69 13.201s11.484-25.651 16.85-28.978 31.447-14.596 31.447-14.596l-18.675-33.164z"></path>
  <path fill="#FFE9D7" d="m481.937 241.307 20.955-5.178 5.635 27.931-21.868 4.079zM304.634 250.644l-8.291 19.212 28.334 9.418 7.647-15.429z"></path>
  <path fill="#DE9641" d="M515.852 231.862 499.368 237s5.698 19.655 4.732 21.587-5.635 2.334-6.279 3.622c-.644 1.288.775 3.703.775 3.703s12.668-1.289 18.544 3.783c5.876 5.071 8.613 11.752 10.706 13.201 2.093 1.449 5.715 1.61 5.715 1.61l-17.709-52.644zM326.324 275.952s-21.77-4.647-22.495-5.613c-.724-.966.805-4.83 0-6.842-.805-2.012-3.512-2.85-3.512-2.85s-5.343 10.014-9.931 12.348c-4.588 2.334-17.226 3.864-18.836 4.588s-3.059 2.898-3.059 2.898l51.758 11.672 6.075-16.201z"></path>
  <path fill="#598CB2" d="m257.358 280.583-25.185-6.45a4.212 4.212 0 0 1-3.035-5.125l1-3.906a4.211 4.211 0 0 1 5.125-3.035l25.185 6.45a4.212 4.212 0 0 1 3.035 5.125l-1 3.906a4.212 4.212 0 0 1-5.125 3.035z"></path>
  <path fill="#FFE9D7" d="m515.852 231.862 4.507-1.368 16.743 53.529-3.541.483zM268.492 280.481l-.885 2.415 51.516 13.121 1.127-3.864z"></path>
  <path fill="#A35824" d="M331.036 106.371s-5.608-13.389-7.124-13.818-3.609.912-3.609.912-2.361-3.917-3.434-4.293-8.586 1.878-11.645 7.727-.537 12.235.483 14.543 3.676 7.325 3.676 7.325l21.653-12.396z"></path>
  <path fill="#1E1D1D" d="m323.255 98.939-2.951-5.474.828-.441z"></path>
  <path fill="#A1BDCE" d="M353.467 69.424s-1.932-2.576-6.332-3.22c-4.4-.644-5.366-4.776-2.898-6.762 2.469-1.986 6.762.215 8.264 3.112 1.503 2.899.966 6.87.966 6.87zM352.147 80.17s-3.09-.906-7 1.212c-3.91 2.119-7.158-.612-6.369-3.681.788-3.068 5.544-3.876 8.483-2.455 2.938 1.422 4.886 4.924 4.886 4.924zM352.558 90.267s-3.012 1.137-4.857 5.184-6.082 3.823-7.301.899c-1.219-2.924 2.09-6.434 5.292-7.069 3.202-.636 6.866.986 6.866.986z"></path>
  <path fill="#1E1D1D" d="m228.133 346.324 19.052-211.549 8.552.77-19.052 211.549z"></path>
  <path fill="#598CB2" d="m247.162 134.79 10.705-11.166h8.774l-10.927 11.937zM257.464 110.396h32.239v13.228h-32.239z"></path>
  <path fill="#A1BDCE" d="M257.464 98h4.91v12.396h-4.91zM261.363 207.084c-3.628 0-14.827-.387-26.121-4.745-8.188-3.159-15.094-10.739-18.023-19.784-2.657-8.204-1.726-16.405 2.62-23.091 6.535-10.056 19.869-14.1 30.583-17.349 4.616-1.4 8.975-2.722 11.18-4.105 4.783-3.002 5.879-11.413 5.897-14.4l9.874.014c0 .659-.12 16.222-10.524 22.749-3.323 2.085-8.067 3.524-13.561 5.19-9.177 2.784-20.599 6.248-25.171 13.281-3.632 5.589-2.501 11.589-1.504 14.669 2.003 6.188 6.785 11.532 12.182 13.614 11.491 4.432 23.28 4.076 23.399 4.072l.367 9.868c-.089.003-.506.017-1.198.017z"></path>
  <path fill="#1E1D1D" d="m489.077 353.696-265.36-67.957a6.654 6.654 0 1 1 3.302-12.892l265.36 67.957a6.654 6.654 0 1 1-3.302 12.892z"></path>
  <circle cx="490.056" cy="347.078" r="3.663" fill="#598CB2"></circle>
  <circle cx="225.908" cy="279.274" r="3.663" fill="#598CB2"></circle>
  <path fill="#A1BDCE" d="M239.546 315.002s.612 10.959 9.064 17.962 18.353 9.23 18.353 9.23h-29.867l2.45-27.192z"></path>
  <path fill="#A1BDCE" d="M299.912 351.638h-76.363a4.722 4.722 0 1 1 0-9.444h76.362a4.722 4.722 0 0 1 4.722 4.722 4.72 4.72 0 0 1-4.721 4.722z"></path>
  <path fill="#598CB2" d="M283.491 351.638H223.55a4.722 4.722 0 1 1 0-9.444h59.941a4.722 4.722 0 1 1 0 9.444z"></path>
  <path fill="#FFE9D7" d="m300.9 273.618-8.173-4.053c-.465-.23-.575-.954-.247-1.616.328-.662.971-1.012 1.436-.782l8.173 4.053c.465.23.575.954.247 1.616-.328.662-.971 1.012-1.436.782zM295.265 277.847l-8.173-4.053c-.465-.23-.575-.954-.247-1.616.328-.662.971-1.012 1.436-.782l8.173 4.053c.465.23.575.954.247 1.616-.328.663-.971 1.013-1.436.782zM288.504 280.211l-8.173-4.053c-.465-.23-.575-.954-.247-1.616.328-.662.971-1.013 1.436-.782l8.173 4.053c.465.23.575.954.247 1.616-.329.662-.972 1.012-1.436.782zM512.082 257.877l-1.735 8.956c-.099.509-.767.808-1.493.667-.726-.141-1.234-.667-1.136-1.177l1.735-8.956c.099-.509.767-.808 1.493-.667.726.141 1.235.667 1.136 1.177zM518.034 260.736l-1.735 8.956c-.099.509-.767.808-1.493.667-.726-.141-1.234-.667-1.136-1.177l1.735-8.956c.099-.509.767-.808 1.493-.667.726.141 1.234.668 1.136 1.177zM523.103 265.088l-1.735 8.956c-.099.509-.767.808-1.493.667-.726-.141-1.234-.667-1.136-1.177l1.735-8.956c.099-.509.767-.808 1.493-.667.727.141 1.235.667 1.136 1.177zM325.267 278.77s-10.893-2.771-17.735-.852-12.884 8.461-12.884 8.461l3.471.783s3.376-5.071 10.781-6.359 15.345.693 15.345.693l1.022-2.726zM500.619 236.61s1.624 9.205 7.087 12.908 15.791 5.072 15.791 5.072l-1.093-3.249s-8.377-1.447-12.723-4.613-6.142-11.027-6.289-10.981c-.147.044-2.773.863-2.773.863z"></path>
  <path fill="#1E1D1D" d="M378.689 83.752s.644-1.361 1.395-1.62c.751-.258 1.221-.312 1.221-.312l-2.616 1.932z"></path>
  <path fill="#F8F2ED" d="M379.856 92.063s1.026-1.751 3.099-1.65 1.147 1.429.141 1.831c-1.006.403-4.588 1.711-3.24-.181z"></path>
  <path fill="#1E1D1D" d="m61.845 191.019 2.755 33.116 34.129-2.737.912-17.655 1.825 18.031 37.671-3.005-1.77-42.448-66.328 2.898zM109.676 70.873s2.576-4.105 1.932-6.56c-.644-2.455-4.387-.483-4.387-.483s-.563-1.046-2.697-1.449c-2.133-.402-3.139 0-3.139 0s-1.046-7.727-5.876-5.353c-4.83 2.375-2.053 6.56-.604 7.285 1.449.724 3.904.523 3.904.523s-1.087 1.368-1.087 2.938.725 2.7.725 2.7.643 3.82 4.587 4.947c3.946 1.127 6.642-4.548 6.642-4.548z"></path>
  <path fill="#DDA783" d="m109.676 70.873 2.978 20.285-16.689-1.717 3.247-11.913s-3.864-1.932-2.63-5.152 4.293-1.664 4.722-1.234c.429.429 1.288 2.629 1.288 2.629s.939-1.395 1.181-2.2c.241-.805.429-2.522.429-2.522s1.046 1.368 2.656 1.851c1.611.483 2.818-.027 2.818-.027z"></path>
  <path fill="#38305E" d="m39.324 121.424 31.715 57.795 66.327-2.898v-32.842l19.158-13.845s-9.981-24.739-15.884-29.998-11.377-6.44-16.099-7.298c-4.722-.859-51.087-5.903-56.561-5.581s-12.986 2.576-18.675 8.693c-5.688 6.119-9.981 25.974-9.981 25.974z"></path>
  <path fill="#DDA783" d="m70.878 135.269-31.554-13.845s-7.191 30.266-8.049 35.632c-.859 5.366-1.825 15.133 4.615 20.392s22.324 12.235 22.324 12.235l11.484-26.51s-3.864-1.717-4.4-4.508c-.538-2.789 5.58-23.396 5.58-23.396z"></path>
  <path fill="#1E1D1D" d="m74.822 120.216-5.328 14.445 1.384.608z"></path>
  <path fill="#D36101" d="m69.697 163.174 9.874 3.971-8.371 27.314-12.986-4.776z"></path>
  <path fill="#DDA783" d="m156.524 129.634 5.474 13.765 10.223-4.669 14.086 23.424s-20.607 16.26-25.114 17.065c-4.508.805-8.854 1.851-13.443-1.771-4.588-3.622-10.384-10.867-10.384-10.867v-23.102l19.158-13.845z"></path>
  <path fill="#1E1D1D" d="m136.803 129.916.564 13.563 1.141-.825z"></path>
  <path fill="#FFC794" d="M79.571 167.145s9.659 2.2 11.538 3.005c1.878.805.966 4.669.966 4.669s4.83 1.503 4.991 3.998c.161 2.495-.859 9.149-4.508 13.55-3.649 4.4-5.903 4.508-10.142 4.293s-11.216-2.2-11.216-2.2l8.371-27.315z"></path>
  <path fill="#1E1D1D" d="m86.474 173.101 5.601 1.718.147-.859z"></path>
  <path fill="#D36101" d="m172.221 138.73 10.061-5.339 14.168 20.445-10.143 8.318z"></path>
  <path fill="#DDA783" d="M213.514 119.733c.522-.678 1.771-3.783 1.368-4.91-.403-1.127-9.579-3.139-13.684-1.851-4.105 1.288-10.062 9.579-12.074 11.994-2.012 2.415-6.842 8.425-6.842 8.425l14.167 20.446 5.474-4.481s2.495.885 4.266-.242 9.82-12.155 10.384-14.811c.563-2.656-1.368-5.313-2.817-7.003s-4.991-5.715-4.991-5.715 3.139.241 4.749-1.852z"></path>
  <path fill="#FFE9D7" d="m66.048 346.245-.039 6.842h36.262v-8.854zM108.894 348.499v4.588h47.791v-5.635z"></path>
  <path fill="#1E1D1D" d="M212.629 131.969s-2.898-.402-3.26-.362-10.303 13.121-10.464 14.127c-.161 1.006 3.019 3.622 3.019 3.622s-3.381-1.248-4.226-2.536.08-2.817 1.207-4.427 9.096-11.43 9.74-11.833c.643-.402 3.984 1.409 3.984 1.409zM208.765 121.585l-6.762-1.791s4.709.262 5.293.382c.584.121 1.469 1.409 1.469 1.409z"></path>
  <path fill="#A1BDCE" d="M208.644 130.56s-1.127-4.83-5.957-6.118c-4.83-1.288-10.424 1.046-12.316 5.192-1.892 4.146-.845 10.867 2.294 12.919 3.139 2.053 4.96 2.009 4.96 2.009l11.019-14.002z"></path>
  <path fill="#F8F2ED" d="M205.25 128.642s-1.73-2.796-6.319-1.893c-4.642.914-5.406 4.415-5.406 4.415s3.649-4.078 6.654-3.971 5.071 1.449 5.071 1.449z"></path>
  <path fill="#598CB2" d="m203.934 124.884.867-1.428 2.556 1.55-1.011 1.563z"></path>
  <path fill="#1E1D1D" d="m204.534 123.896-.337-.842 1.053-2.4 3.515.931 1.245 1.416-1.647 2.226-1.188.059.182-.28-2.556-1.55z"></path>
  <path fill="#DDA783" d="m71.2 320.084-6.6-95.949 34.129-2.737 2.844 98.686zM101.466 221.774l6.279 98.31 33.324-2.254-1.932-99.061z"></path>
  <path fill="#F8F2ED" d="M91.324 201.14s2.495 1.02 6.976 1.1c4.481.08 10.33-2.012 10.33-2.012s-4.213 3.597-9.002 3.784-8.304-2.872-8.304-2.872z"></path>
  <path fill="#FFE9D7" d="m71.2 320.084 1.771 21.17 29.3-.724-.698-20.446zM107.745 320.084l1.368 20.687 32.761-3.139-.805-19.802z"></path>
  <path fill="#1E1D1D" d="M66.048 346.245s27.288.081 30.91 0c3.622-.08 5.313-2.012 5.313-2.012v-8.855s-1.288 2.898-8.13 3.622c-6.842.724-7.244-.161-7.405-.805-.161-.644.805-6.762-.966-8.049-1.771-1.288-9.498-.563-10.625.523-1.127 1.087-2.333 8.673-2.333 8.673s-4.67 3.28-5.877 4.649c-1.209 1.369-.887 2.254-.887 2.254zM108.894 337.464s23.643-.557 26.138-2.65 1.61-3.944 3.059-5.514 3.377-1.653 3.377-1.653 1.533 7.892 4.753 10.789c3.22 2.898 6.923 2.978 8.693 4.83 1.771 1.851 1.771 4.186 1.771 4.186l-47.791 1.046v-11.034zM98.307 73.027s.401-.355 1.64.447c1.238.801 1.238 1.687 1.238 1.687l-2.878-2.134z"></path>
  <path fill="#FFE9D7" d="M107.574 159.793h-3.308a2.478 2.478 0 0 1-2.478-2.478v-8.459a2.478 2.478 0 0 1 2.478-2.478h3.308a2.478 2.478 0 0 1 2.478 2.478v8.459a2.478 2.478 0 0 1-2.478 2.478z"></path>
  <path fill="#1E1D1D" d="M105.303 143.945a3.233 3.233 0 0 1-3.229-3.229 3.232 3.232 0 0 1 3.229-3.229 3.232 3.232 0 0 1 3.229 3.229 3.233 3.233 0 0 1-3.229 3.229zm0-5.635c-1.327 0-2.406 1.079-2.406 2.406s1.079 2.407 2.406 2.407c1.327 0 2.407-1.08 2.407-2.407s-1.081-2.406-2.407-2.406z"></path>
  <path fill="#1E1D1D" d="M105.625 146.789a.411.411 0 0 1-.411-.411v-2.844a.411.411 0 1 1 .822 0v2.844a.411.411 0 0 1-.411.411zM105.557 140.477a.85.85 0 0 1-.243-.035c-.886-.246-1.861-1.716-5.299-9.779-3.841-9.006-8.426-40.639-8.62-41.981a.412.412 0 0 1 .349-.466.423.423 0 0 1 .466.349c.047.328 4.763 32.868 8.562 41.775 1.91 4.48 3.97 9.09 4.763 9.31.018.004.049.014.145-.055.825-1.009 9.108-24.724 11.16-35.954 1.942-10.632 1.912-11.947 1.911-11.998a.416.416 0 0 1 .374-.434.406.406 0 0 1 .444.35c.013.103.073 1.319-1.919 12.229-1.962 10.739-10.475 35.743-11.488 36.473a1.025 1.025 0 0 1-.605.216z"></path>
  <path fill="#FFE9D7" d="m81.197 340.937-9.114-.391c-.518-.022-.913-.639-.881-1.378.032-.739.477-1.319.996-1.297l9.114.391c.518.022.913.639.881 1.378-.032.738-.478 1.319-.996 1.297zM82.646 336.81l-9.114-.391c-.518-.022-.913-.639-.881-1.378.032-.739.477-1.319.996-1.297l9.114.391c.518.022.913.639.881 1.378-.032.738-.478 1.319-.996 1.297zM145.077 336.385l-8.958 1.724c-.509.098-1.035-.411-1.175-1.137-.14-.726.16-1.394.669-1.492l8.958-1.724c.509-.098 1.035.411 1.175 1.137.14.726-.16 1.394-.669 1.492zM147.854 339.806l-8.958 1.724c-.509.098-1.035-.411-1.175-1.137-.14-.726.16-1.394.669-1.492l8.958-1.724c.509-.098 1.035.411 1.175 1.137.14.726-.16 1.394-.669 1.492zM152.764 342.422l-8.958 1.724c-.509.098-1.035-.411-1.175-1.137-.14-.726.16-1.394.669-1.492l8.958-1.724c.509-.098 1.035.411 1.175 1.137.14.726-.159 1.394-.669 1.492zM79.694 345.014l-9.114-.391c-.518-.022-.913-.639-.881-1.378.032-.739.477-1.319.996-1.297l9.114.391c.518.022.913.639.881 1.378-.032.739-.477 1.32-.996 1.297zM102.271 337.364s-6.279 2.039-9.015 3.891c-2.737 1.851-4.078 5.026-4.078 5.026h2.254s3.005-3.604 6.171-5.026 4.669-1.637 4.669-1.637l-.001-2.254zM108.894 338.437s8.241-1.234 15.057 1.181c6.815 2.415 10.3 8.326 10.3 8.326l-3.162.069s-4.938-5.605-8.426-6.517-13.769-.724-13.769-.724v-2.335z"></path>
  <ellipse cx="109.093" cy="76.045" fill="#1E1D1D" rx=".503" ry="1.308"></ellipse>
  <ellipse cx="105.481" cy="75.362" fill="#1E1D1D" rx=".503" ry="1.308"></ellipse>
</svg>
