<svg xmlns="http://www.w3.org/2000/svg" xml:space="preserve" viewBox="0 0 600 400" id="morning-run-with-dog">
  <path fill="#6A8C53" d="M365.999 337.169h61.296s4.702-7.389 8.733-13.099c4.03-5.71 12.763-11.755 10.916-15.954-1.847-4.198-23.511 6.91-23.511 6.91s26.534-26.054 19.984-33.107c-6.549-7.053-37.841 7.389-56.202 27.625s-21.216 27.625-21.216 27.625z"></path>
  <path fill="#282727" d="M381.953 337.169s6.603-11.779 12.259-17.885l5.656-6.106.281 1.848s-7.197 7.617-10.136 12.487-5.29 9.656-5.29 9.656h-2.77zM412.349 337.169s8.285-9.684 14.106-14.666c5.822-4.982 15.002-11.028 15.002-11.028s-12.371 9.069-17.521 15.058a498.52 498.52 0 0 0-8.901 10.636h-2.686z"></path>
  <path fill="#6A8C53" d="M230.868 336.441h107.03s6.158-11.755 15.562-22.055c9.404-10.3 10.3-15.562 6.493-17.913-3.807-2.351-18.025 3.583-26.31 8.621s-19.704 17.017-19.704 17.017 41.48-40.864 30.396-49.932c-11.084-9.068-42.487 9.74-54.243 19.145-11.755 9.404-23.007 19.984-23.007 19.984s25.19-21.272 14.946-28.605-37.785 25.078-43.831 36.33c-6.044 11.25-7.332 17.408-7.332 17.408z"></path>
  <path fill="#282727" d="M329.278 278.672s-21.496 16.793-32.355 30.9c-10.86 14.106-18.473 26.869-18.473 26.869h-2.463s11.979-23.623 28.661-38.513c16.681-14.89 24.63-19.256 24.63-19.256zM240.72 336.441s7.165-17.129 14.89-26.422c7.725-9.292 16.569-17.185 16.569-17.185s-14.218 13.491-20.376 25.694c-6.158 12.203-8.481 17.913-8.481 17.913h-2.602zM319.397 336.441s7.977-11.699 15.114-18.585c7.137-6.885 13.015-11.755 13.015-11.755s-13.267 12.931-17.297 18.053-8.649 12.287-8.649 12.287h-2.183z"></path>
  <g fill="#1E1D1D">
    <path d="m138.169 277.104 56.202.672-59.001.896zM166.485 242.195l32.425.672-34.04.895zM129.372 201.211l32.425.672-34.04.895z"></path>
  </g>
  <path fill="#DDA783" d="m401.379 149.29-15.202 20.544 4.676-9.253 5.002-8.111s-.65-8.669.12-9.434c.771-.765.866-5.299.866-5.299l4.538 11.553z"></path>
  <path fill="#D36101" d="m441.681 125.516-40.976 23.063-12.392-34.766s.105-1.592.86-3.019c.756-1.427 2.603-2.687 2.603-2.687s0-8.733.756-11.084 2.578-4.982 2.578-4.982l33.808 16.458 3.695 5.15 9.068 11.867z"></path>
  <path fill="#DDA783" d="m417.051 186.98-16.346-38.401 40.976-23.063 18.025 22.279z"></path>
  <path fill="#282727" d="M435.188 85.52s-.504-3.359-5.458-4.45c-4.954-1.092-11.42 3.107-14.862 2.225-3.443-.882-3.443-3.653 2.351-5.08s10.58-6.969 7.137-11.587-8.901-4.87-13.183-2.183c-4.282 2.687-5.962 4.45-9.404 3.779-3.443-.672-4.198-2.435-7.137-1.847s-3.275 5.962-3.275 5.962-4.198 1.176-4.366 3.191 3.756 3.303 3.756 3.303l13.583 6.668 30.858.019z"></path>
  <path fill="#DDA783" d="m396.227 92.041-2.967-6.885s-2.071.056-2.463-.616 1.623-1.791 1.623-1.791l-1.674-3.918s.946-.504 1.45-1.623c.504-1.12.28-2.967.28-2.967l4.366 4.87s-.637-3.897 2.344-3.687c2.981.21 2.12 3.317 1.784 3.862-.336.546-2.141 1.406-2.141 1.406l5.5 4.807-8.102 6.542z"></path>
  <path fill="#DDA783" d="m483.441 123.053-12.651-11.168-41.872-3.387 3.695 5.15s-2.799 10.188-16.01 10.188-18.361-9.292-21.048-17.017-1.722-15.781 2.687-19.284c4.409-3.504 14.526-2.771 20.572-2.939 6.046-.168 54.495 4.366 57.098 4.87 2.603.504 21.496 18.809 21.496 18.809l-13.967 14.778z"></path>
  <path fill="#D36101" d="m506.896 117.259-11.756 16.542-11.699-10.748 13.966-14.778z"></path>
  <path fill="#282727" d="m414.7 107.225 14.218 1.274 1.057 1.472z"></path>
  <path fill="#DDA783" d="M506.896 117.259s11.084 7.921 11.587 9.712c.504 1.791-3.638 17.185-4.366 17.745s-4.198-1.343-4.198-1.343-1.064 1.903-2.631 2.127c-1.567.224-12.147-11.699-12.147-11.699l11.755-16.542z"></path>
  <path fill="#282727" d="M459.706 147.795s13.267 4.982 19.648 14.554c6.382 9.572 10.748 32.747 10.748 32.747l-38.289 29.221-3.862-5.878 16.458-10.412-43.45-24.637 38.747-35.595z"></path>
  <path fill="#F8F2ED" d="M482.881 174.273s3.275 8.145.756 15.954c-2.519 7.809-19.228 17.801-19.228 17.801s19.069-8.732 21.16-16.206c2.09-7.474-2.688-17.549-2.688-17.549z"></path>
  <path fill="#282727" d="m509.918 143.373-4.758-3.247 4.101 4.148zM515.828 139.764l-4.482-3.864 4.737 2.953zM517.472 133.408l-3.757-3.414 3.911 2.746z"></path>
  <path fill="#DDA783" d="M451.813 224.317s20.849 34.762 23.439 35.77 49.108 24.182 49.108 24.182l11.755-20.656s-32.243-19.816-34.258-21.999c-2.015-2.183-11.755-46.518-11.755-46.518l-38.289 29.221z"></path>
  <path fill="#DDA783" d="m420.959 183.39-3.908 3.59s-44.447 37.729-46.238 43.999c-1.791 6.27-.224 13.659 2.463 20.824s19.704 42.991 19.704 42.991l24.183-12.091-12.091-36.498 42.879-27.765 16.458-10.412-43.45-24.638z"></path>
  <path fill="#FFE9D7" d="m536.116 263.614 19.201 11.139-14.555 17.689-16.401-8.172z"></path>
  <path fill="#D36101" d="M540.427 318.808s-1.567-3.471-.588-7.053 2.043-12.483.588-15.282c-1.456-2.799-6.946-7.659-6.946-7.659s.285-2.473 2.3-2.753 3.471 2.967 6.829.56c3.359-2.407 10.107-13.376 10.107-13.376l12.284 5.763-24.574 39.8z"></path>
  <path fill="#FFE9D7" d="m570.207 281.247-5.206-2.239-24.574 39.8s.392 1.511.784 2.575c.392 1.064 1.679 1.12 1.679 1.12l27.317-41.256zM392.98 294.793l8.845 17.913 22.391-10.971-7.053-19.033z"></path>
  <path fill="#D36101" d="M390.797 329.164s6.437-.056 8.9-5.43-1.873-19.13-1.873-19.13 2.489-2.701 4.896-.966 1.959 4.142 4.982 3.583c3.023-.56 15.806-7.396 15.806-7.396l4.57 9.412-29.5 20.992-7.781-1.065z"></path>
  <path fill="#FFE9D7" d="m432.613 315.026-4.534-5.79-29.5 20.992-7.781-1.064s-1.847.84-2.687 2.519c-.84 1.679-.896 3.527-.896 3.527l10.636.56 34.762-20.744z"></path>
  <path fill="#DDA783" d="m348.534 122.717-12.651 14.107 22.148 24.319 14.253-17.353z"></path>
  <path fill="#D36101" d="m348.534 122.717-8.313-7.389-11.839 14.023 7.501 7.473z"></path>
  <path fill="#DDA783" d="M324.743 106.931s-2.239-2.687-2.407-3.974.84-3.415.84-3.415l17.045 15.786-11.839 14.023-4.254-4.394s-1.567 0-3.974-2.239-4.254-4.254-3.974-5.598c.279-1.344 8.563-10.189 8.563-10.189z"></path>
  <path fill="#282727" d="M326.087 107.827s6.941 5.542 7.053 7.053-9.012 10.076-9.012 10.076l1.875-3.051-7.95-7.459 8.342 6.843 2.239-2.155-7.13-8.664 7.718 7.937s3.135-3.163 2.883-3.961c-.252-.797-6.018-6.619-6.018-6.619zM398.19 79.348s-.21-1.354.178-1.837 1.039-.577 1.039-.577l-1.217 2.414zM433.446 108.865v-4.383l-5.931-.347v4.238zM427.515 85.039v3.283l4.924.288v-3.201z"></path>
  <path fill="#FFE9D7" d="M406.593 311.734a1.567 1.567 0 0 1-1.686 1.439l-6.25-.495a1.567 1.567 0 1 1 .247-3.125l6.25.495a1.567 1.567 0 0 1 1.439 1.686zM545.095 291.738a1.567 1.567 0 0 1-.655 2.118l-5.545 2.926a1.567 1.567 0 1 1-1.463-2.773l5.545-2.926a1.567 1.567 0 0 1 2.118.655zM546.662 296.863a1.567 1.567 0 0 1-.655 2.118l-5.545 2.926a1.567 1.567 0 1 1-1.463-2.773l5.545-2.926a1.567 1.567 0 0 1 2.118.655zM546.662 302.46a1.567 1.567 0 0 1-.655 2.118l-5.545 2.926a1.567 1.567 0 1 1-1.463-2.773l5.545-2.926a1.57 1.57 0 0 1 2.118.655zM406.929 318.227a1.567 1.567 0 0 1-1.686 1.439l-6.25-.495a1.567 1.567 0 1 1 .247-3.125l6.25.495a1.567 1.567 0 0 1 1.439 1.686zM405.631 323.885a1.567 1.567 0 0 1-1.686 1.439l-6.25-.495a1.567 1.567 0 1 1 .247-3.125l6.25.495a1.567 1.567 0 0 1 1.439 1.686z"></path>
  <path fill="#282727" d="m416.924 103.512.922-15.759 25.147 1.471-.922 15.76z"></path>
  <path fill="#F8F2ED" d="m419.039 101.701.706-12.07 21.555 1.26-.706 12.071z"></path>
  <path fill="#689BEC" d="m425.613 89.977-5.239 11.806 3.99.233 5.327-11.8zM434.685 90.508l-5.534 11.788 1.032.227 5.383-12.015z"></path>
  <path fill="#282727" d="M404.073 85.274s-1.334.234-2.163.499c-.829.265-1.924.655-2.503.998-.579.343-1.165.763-1.165.763s.877-1.364 2.915-1.889c2.039-.525 2.658-.597 2.658-.597l.258.226z"></path>
  <path fill="#1E1D1D" d="M392.477 80.51s-.098-.602.49-.896c.588-.294 1.148 0 1.148 0s-.966-.005-1.218.383c-.252.387-.42.513-.42.513z"></path>
  <path fill="#FFE9D7" d="M423.772 300.368s-6.427 3.844-9.282 7.748-1.774 12.051-1.774 12.051l1.897-1.35s-.921-6.251 1.095-9.064c2.015-2.813 8.819-7.832 8.819-7.832l-.755-1.553zM553.633 273.675s-3.242 6.229-3.326 12.778 3.326 10.966 3.326 10.966l1.505-2.438s-2.773-4.246-2.417-10.292 2.955-10.056 2.955-10.056l-2.043-.958z"></path>
  <path fill="#C60000" d="M82.466 214.38s3.168-3.134 5.939-3.582 3.946.157 3.946.157l2.183 3.034-.644 3.051h-.962s-1.781-.211-3.376.608-3.639 2.718-3.639 2.718l-2.994 3.279-3.779-1.903s2.547-6.605 2.631-6.661c.084-.056.695-.701.695-.701z"></path>
  <path fill="#282727" d="M48.185 248.933s-2.142.868-3.318 1.75c-1.176.882-1.973 1.889-1.973 1.889s-3.653-1.595-4.912.378c-1.26 1.973 4.52 5.738 4.52 5.738s2.533 1.441 7.697.77c5.164-.672 9.488-8.229 9.488-8.229l-2.729-1.931-8.773-.365zM125.738 246.677s2.929.018 5.322 1.781 3.275 3.275 5.668 4.156c2.393.882 4.114.126 4.744 1.805s-4.392 4.437-4.392 4.437l-5.096-.7-9.236-8.775 2.99-2.704zM59.893 214.558s4.469-5.215 7.016-6.783c2.547-1.567 4.926-1.987 5.178-1.903s.118 3.512.118 3.512-4.065 4.997-5.8 6.285c-1.735 1.287-6.512-1.111-6.512-1.111zM96.29 213.046l-.82-.253c.044-.145 4.546-14.58 11.017-22.612 2.735-3.395 8.896-7.613 16.03-12.499 10.142-6.945 22.766-15.59 31.899-26.027 15.578-17.804 12.548-32.313 6.978-37.277-1.203-1.071-2.479-1.491-3.805-1.255-3.816.688-6.919 6.489-6.95 6.547l-.759-.401c.134-.254 3.334-6.229 7.557-6.991 1.593-.289 3.119.202 4.528 1.459 5.815 5.182 9.082 20.212-6.904 38.482-9.204 10.52-21.876 19.198-32.059 26.171-7.079 4.847-13.191 9.033-15.846 12.328-6.369 7.907-10.822 22.185-10.866 22.328z"></path>
  <path fill="#CE8A41" d="M246.113 82.62s53.72-1.051 59.43 3.233c5.71 4.284 4.926 12.457 4.814 16.152s-2.239 22.951-2.239 22.951l-17.188-3.399-2.272-2.991 1.323-9.173-7.74.884-36.128-27.657z"></path>
  <path fill="#5C7F3F" d="m257.514 180.318 52.227-33.251s-32.411-45.174-41.312-52.731c-8.901-7.557-18.421-10.385-18.421-10.385l-15.297 56.376 22.803 39.991z"></path>
  <path fill="#CE8A41" d="m233.107 93.609-3.89-10.188s-2.855.294-3.107-.63 2.057-2.561 2.057-2.561-3.695-9.404-.504-11.21c3.191-1.805 9.908 4.912 13.435 8.355s6.046 6.423 6.046 6.423l-14.037 9.811z"></path>
  <path fill="#282727" d="M233.331 77.627s.42-2.603 2.379-2.603 2.743 1.595 2.855 2.603c.112 1.008-1.343 2.631-1.343 2.631l4.896-1.873s-3.752-3.658-4.393-4.238-2.458-2.129-2.458-2.129-1.123.319-2.047 1.775c-.924 1.455.111 3.834.111 3.834zM230.146 85.854s1.002-2.265 2.178-2.405 2.183.616 3.163 0 .672-1.399.672-1.399 1.043.922.046 1.902c-.998.981-2.425.253-3.684.841s-2.375 1.061-2.375 1.061z"></path>
  <path fill="#CE8A41" d="M183.455 142.701s31.068 11.336 38.205 11.252 21.244-27.961 21.244-27.961 8.649 11 17.969 5.962c9.32-5.038 9.824-13.015 9.236-18.641s-4.282-19.648-12.343-25.106c-8.061-5.458-11.503-5.74-16.206-4.255-4.702 1.484-15.702 20.041-18.893 25.331-3.191 5.29-10.748 18.725-12.091 18.893s-21.579-4.282-21.579-4.282l-5.542 18.807z"></path>
  <path fill="#282727" d="M258.186 95.932s-.672 5.122-3.527 10.328-11.755 19.732-11.755 19.732l2.255 2.364s11.18-20.249 12.271-24.532c1.091-4.282.756-7.892.756-7.892z"></path>
  <path fill="#38305E" d="m175.058 120.618 13.939 3.275-5.542 18.808-12.847-4.618z"></path>
  <path fill="#CE8A41" d="M175.058 120.618s-3.359-1.511-4.45-2.561c-1.092-1.05-3.779-4.198-4.786-3.988-1.008.21-2.351 2.771-2.351 2.771l-3.149-1.218s-1.847 2.435-2.309 4.072-1.637 8.145-1.134 9.992c.504 1.847.882 2.393.882 2.393l12.847 6.004 4.45-17.465z"></path>
  <path fill="#38305E" d="m306.829 143.038 1.289-18.082-17.188-3.398zM257.514 180.318l-11.401 25.694 35.919 14.107 12.595-17.297 7.557 3.862 26.702-36.274-20.768-22.309z"></path>
  <path fill="#282727" d="m274.307 193.193 20.32 9.629-1.073 1.474z"></path>
  <path fill="#CE8A41" d="m204.615 292.834 24.518 12.259 52.899-84.974-35.919-14.107zM328.886 170.41l9.236 9.908 27.205-35.546 25.526 15.809s-28.101 56.291-34.035 61.329-11.643 6.158-17.129 5.262c-5.486-.896-37.505-20.488-37.505-20.488l26.702-36.274z"></path>
  <path fill="#5C7F3F" d="m204.615 292.834-10.244 16.961 24.014 14.611 10.748-19.313z"></path>
  <path fill="#282727" d="M170.524 311.307s1.511-.392 6.829-.56 12.427-.224 16.122-3.415c3.695-3.191 6.41-6.667 6.41-6.667s3.443.677 3.722 3.028c.28 2.351-2.127 6.326-1.288 7.613.84 1.287 10.188 7.389 13.043 8.229s5.022 1.278 5.022 1.278-3.622 7.23-4.126 8.966c-.504 1.735-1.12 3.415-1.12 3.415l-44.614-21.887z"></path>
  <path fill="#FFE9D7" d="m168.677 314.33 44.95 22.951 1.511-4.086-44.614-21.887s-1.679.168-2.351 1.008c-.672.838.504 2.014.504 2.014z"></path>
  <path fill="#5C7F3F" d="m365.327 144.772 12.511-17.773 23.679 16.29-10.664 17.292z"></path>
  <path fill="#282727" d="m382.793 116.588-7.667 14.266s16.315 6.894 17.155 10.169c.84 3.275-2.267 6.633-.84 8.816s4.414 2.632 4.414 2.632 6.082-8.599 11.372-8.68c5.29-.082 14.442-.002 16.793 0s4.366-2.013 4.366-2.013l-45.593-25.19z"></path>
  <path fill="#FFE9D7" d="m385.06 111.885-2.267 4.703 45.594 25.19 2.603-2.687z"></path>
  <path fill="#38305E" d="m223.42 118.947 12.844-21.667 13.579 8.049-12.844 21.667z"></path>
  <path fill="#F8F2ED" d="m225.959 118.124 11.009-18.573 10.4 6.165-11.009 18.573z"></path>
  <path fill="#282727" d="m249.362 115.329-4.198-2.093-3.481 5.872 3.84 2.586zM231.554 105.238l-4.689-2.839-3.417 5.588 4.435 3.445z"></path>
  <path fill="#FFE9D7" d="M39.983 228.404s-9.18-.224-9.964 1.567.336 8.845 5.486 10.748 7.613 0 7.613 0 .336 5.038 3.135 7.165 10.972 3.359 10.972 3.359l-1.903 3.135s-2.127-.336-4.03.896-2.295 2.295-3.527 2.855c-1.232.56-3.918-.448-5.262.56s-1.735 2.575.56 4.534c2.295 1.959 3.247 2.911 6.997 2.183 3.751-.728 12.595-2.743 16.793-2.295s13.435 5.598 30.676 4.534 23.231-5.878 23.231-5.878 3.695.728 6.493 1.008c2.799.28 4.758 0 4.758 0s1.903 2.127 4.926 2.351 6.829-3.191 6.661-4.422c-.168-1.232-6.717-1.008-8.901-3.023-2.183-2.015-2.239-4.254-3.862-5.542-1.623-1.287-5.934-2.127-5.934-2.127s1.665-6.214 2.085-9.698c.42-3.485-.21-7.305-.21-7.305s4.87 1.343 5.374-.672-1.176-3.941-1.176-3.941 2.183.499 2.981-1.307c.798-1.805-1.134-3.569-1.134-3.569s4.03.294 4.24-1.679-2.183-2.435-2.183-2.435 1.931-1.05 1.847-3.611-2.393-3.695-2.393-3.695-3.191 6.046-6.423 8.733c-3.233 2.687-5.794 3.988-5.794 3.988s-5.192-1.819-10.342-2.351-12.259.896-12.259.896-8.201-1.511-9.88-1.4c-1.679.112-3.415 1.567-3.415 1.567s1.962-2.911.477-3.191-4.116 1.735-5.236 1.287 1.399-6.269 1.231-10.076-2.351-5.094-2.351-5.094-5.486 1.176-10.132 4.03c-4.646 2.855-7.221 4.702-7.221 4.702s-6.158-2.071-12.483.504-7.557 5.542-8.341 7.445c-.78 1.905-.165 5.263-2.18 5.264z"></path>
  <path fill="#282727" d="M79.882 229.145s1.26-3.317 0-3.443-2.057.63-2.771.168-1.637-3.401-1.343-3.862c.294-.462 5.783-7.242 5.794-10.748.01-3.506-1.218-4.8-1.218-4.8s.504 2.449 0 4.59-6.675 10.37-6.759 11.252 1.26 4.786 2.687 4.996c1.427.21 2.645-.882 3.065-.336.419.546.545 2.183.545 2.183z"></path>
  <path fill="#FC9365" d="M73.717 221.956s-5.717-2.84-4.065-5.907c1.651-3.067 5.066 0 5.066 0s.112-2.843 1.847-2.703 1.338 2.132 1.338 2.132l-4.186 6.478z"></path>
  <path fill="#282727" d="M43.118 240.719s5.36-2.421 10.398-5.864 6.591-4.492 6.591-4.492l-1.05-.546s.378-.378 1.91.105 1.931 2.771 1.931 2.771-.861-1.26-1.301-1.616c-.441-.357-1.008-.546-1.008-.546l-5.458 4.282s-5.493 4.198-7.732 5.038c-2.238.84-4.281.868-4.281.868z"></path>
  <path fill="#D36101" d="M63.886 235.905s3.387 1.231 3.163 3.387c-.224 2.155-5.374 3.107-10.104 3.275s-11.091-2.242-11.091-2.242l10.041-6.109c0-.001 4.38-.019 7.991 1.689z"></path>
  <path fill="#C60000" d="M62.899 239.039s-1.504-.812-5.843-1.231c-4.338-.42-5.704-.83-5.704-.83l-1.316.801s2.765.757 5.536.757c2.772 0 7.327.503 7.327.503z"></path>
  <ellipse cx="53.582" cy="223.01" fill="#282727" rx="3.275" ry="2.708" transform="rotate(-72.23 53.584 223.008)"></ellipse>
  <ellipse cx="54.616" cy="221.283" fill="#F8F2ED" rx="1.224" ry="1.013" transform="rotate(-72.23 54.618 221.281)"></ellipse>
  <ellipse cx="92.858" cy="333.334" fill="#282727" rx="39.279" ry="3.107"></ellipse>
  <path fill="#FFE9D7" d="M196.722 313.14a1.567 1.567 0 0 1-2.141-.574l-3.135-5.43a1.567 1.567 0 1 1 2.715-1.567l3.135 5.43c.432.75.175 1.708-.574 2.141zM401.783 149.341a1.567 1.567 0 0 1-2.141-.574l-3.135-5.43a1.567 1.567 0 1 1 2.715-1.567l3.135 5.43c.433.75.176 1.708-.574 2.141zM406.865 146.407a1.567 1.567 0 0 1-2.141-.574l-3.135-5.43a1.567 1.567 0 1 1 2.715-1.567l3.135 5.43c.433.75.176 1.708-.574 2.141zM413.247 145.85a1.567 1.567 0 0 1-2.141-.574l-3.135-5.43a1.567 1.567 0 1 1 2.715-1.567l3.135 5.43a1.569 1.569 0 0 1-.574 2.141zM190.62 315.379a1.567 1.567 0 0 1-2.141-.574l-3.135-5.43a1.567 1.567 0 1 1 2.715-1.567l3.135 5.43c.433.75.176 1.708-.574 2.141zM185.246 316.975a1.567 1.567 0 0 1-2.141-.574l-3.135-5.43a1.567 1.567 0 1 1 2.715-1.567l3.135 5.43a1.567 1.567 0 0 1-.574 2.141z"></path>
  <path fill="#282727" d="M232.943 93.178s2.64-3.733 4.053-5.296c1.413-1.563 2.481-2.587 2.481-2.587s-2.955 2.928-4.187 3.941-2.606 3.264-2.606 3.264l.259.678z"></path>
  <path fill="#689BEC" d="m235.729 101.653 7.175 11.609-2.042 3.444-6.727-12.364zM239.249 119.428l-7.328-11.351-1.023 1.727 7.284 11.423z"></path>
  <path fill="#282727" d="m289.981 109.394.952-7.501-1.903 7.61z"></path>
  <path fill="#D36101" d="m58.202 250.177 3.417-2.937s7.221 1.847 18.977-7.977c11.755-9.824 12.595-22.671 12.511-25.19s-.756-3.118-.756-3.118l9.152 5.093s1.847 4.645-4.534 14.518c-6.382 9.873-14.862 16.366-22.335 18.367-7.473 2.002-16.432 1.244-16.432 1.244z"></path>
  <path fill="#1E1D1D" d="M229.028 77.018s-.147-.396.336-.88 1.511.104 1.511.104-.924-.085-1.322.241c-.399.325-.525.535-.525.535z"></path>
  <path fill="#FFE9D7" d="M194.763 323.198s5.905-2.823 12.706-2.823 12.262 1.755 12.262 1.755l-.917 1.881s-6.028-1.453-12.297-1.173-9.294 1.567-9.294 1.567l-2.46-1.207zM403.835 128.213s-3.297 4.972-11.694 4.916-16.308-3.592-16.308-3.592l1.079-2.007s9.575 3.696 14.333 3.304 10.089-4.002 10.089-4.002l2.501 1.381z"></path>
</svg>
