<svg xmlns="http://www.w3.org/2000/svg" xml:space="preserve" viewBox="0 0 600 400" id="take-a-break">
  <path fill="#FFE9D7" d="M346.978 359.378H154.231c-11.238 0-20.348-9.11-20.348-20.348V49.347c0-11.238 9.11-20.348 20.348-20.348h192.747c11.238 0 20.348 9.11 20.348 20.348v289.684c0 11.237-9.11 20.347-20.348 20.347z"></path>
  <path fill="#1E1D1D" d="M161.461 98.635s4.888-.184 13.374 2.398c8.485 2.583 11.783 5.028 11.783 5.028l.595-.864s-5.276-4.532-13.669-5.916c-8.394-1.384-12.083-.646-12.083-.646zM178.616 77.382s9.5 8.202 12.774 11.107c3.274 2.905 5.281 5.237 5.281 5.237l.701-.634s-4.792-4.926-10.16-9.446c-5.367-4.518-8.596-6.264-8.596-6.264zM191.437 174.82s2.352-4.012 6.087-8.024 4.707-4.748 4.707-4.748l-1.202-.451s-2.744 2.432-4.854 5.2c-2.11 2.765-4.738 8.023-4.738 8.023zM206.632 163.161s-2.19 5.571-2.605 9.548c-.415 3.978 0 7.851 0 7.851s.035-5.845.726-8.543c.692-2.698 2.8-8.737 2.8-8.737l-.921-.119zM312.742 164.08s4.824-2.449 10.312-4.294 13.143-2.306 13.143-2.306-10.146 1.683-13.466 3.09-10.353 4.581-10.353 4.581l.364-1.071zM308.264 177.27s11.192-3.372 18.894-3.142c7.701.231 13.143 1.798 13.143 1.798s-11.206-1.476-15.818-1.061-16.608 3.549-16.608 3.549l.389-1.144zM312.475 206.168s13.345 4.484 20.032 8.681 11.022 8.163 11.022 8.163-9.915-7.655-17.432-10.376a714.174 714.174 0 0 0-12.683-4.47l-.939-1.998zM341.973 276.37s5.245-3.046 10.191-4.879 9.961-2.248 9.961-2.248-10.376 3.044-14.354 5.223-6.032 3.172-6.032 3.172l.234-1.268zM339.798 285.044s3.754-1.447 8.873-2.001c5.119-.553 9.857 0 9.857 0s-7.402.233-11.345.877c-3.943.645-7.693 2.148-7.693 2.148l.308-1.024zM206.418 269.831l9.126-3.216-8.956 4.358zM207.158 274.804c-.002-.014 2.818-1.998 10.22-2.206 7.402-.208 10.826 1.591 10.826 1.591s-7.851-1.729-12.313-.968-8.574 2.649-8.574 2.649l-.159-1.066zM167.982 255.282s-2.786-.035-7.075 3.193-6.41 8.347-6.41 8.347 4.45-7.102 7.955-8.647 5.704-1.873 5.704-1.873l-.174-1.02zM166.584 247.06s-4.662-2.743-9.273-2.236c-4.612.507-5.488 1.43-9.638 3.643-4.151 2.214-7.471 1.937-7.471 1.937s6.041-.415 8.116-1.383 6.825-3.874 10.192-3.505c3.366.369 8.281 2.763 8.281 2.763l-.207-1.219zM166.032 243.779s-7.45-4.626-12.536-5.779-9.052.323-9.052.323 2.931-2.075 9.052-1.015 12.35 5.357 12.35 5.357l.186 1.114z"></path>
  <path fill="#A1BDCE" d="M246.288 72.07s-15.744-2.719-22.016-3.688c-6.272-.968-14.757-.83-14.757-.83l-1.411 19.666 39.319-6.059-1.135-9.089zM247.884 57.96s13.499-2.306 32.252-2.767 36.093 1.952 36.093 1.952l-.726 37.857s-30.449-3.746-44.376-6.79-21.058-6.961-21.058-6.961l-2.185-23.291z"></path>
  <path fill="#598CB2" d="M247.422 81.159s-1.66-9.825-1.291-15.359 1.752-7.84 1.752-7.84 2.536 6.499 3.274 12.035.737 11.321.737 11.321l-4.472-.157zM316.228 57.145s-2.675 11.687-2.121 23.268c.553 11.581 1.395 14.589 1.395 14.589l2.354.779s3.999-7.825 2.892-19.318-4.52-19.318-4.52-19.318zM206.168 87.966s-1.127-6.579.487-12.62 2.859-7.794 2.859-7.794 1.706 7.01 1.291 11.391-1.456 7.794-1.456 7.794l-3.181 1.229z"></path>
  <path fill="#1E1D1D" d="M232.735 81.722s-1.989-2.156-4.973-3.782-8.829-3.113-8.829-3.113 7.229 2.363 8.681 3.447c1.453 1.084 4.076 3.558 4.076 3.558l1.045-.11zM240.343 81.224s-.64-1.847-1.479-3.464c-.838-1.618-2.706-3.727-2.706-3.727s2.317 1.748 3.32 3.727a27.211 27.211 0 0 0 2.041 3.4l-1.176.064zM302.822 65.112s2.062-1.595 3.653-2.044c1.591-.45 2.94-.484 2.94-.484s-2.144.588-3.828 1.51c-1.683.922-3.168 2.222-3.168 2.222l.403-1.204zM299.367 73.997h8.854l-8.438.757zM260.674 67.915s-1.769-1.123-3.913-1.723c-2.144-.6-3.067-.461-3.067-.461s3.159 1.015 4.75 1.614c1.591.6 2.774 1.646 2.774 1.646l-.544-1.076zM258.882 77.318s2.248-1.02 4.496-1.418c2.248-.398 4.485-.368 4.485-.368l.413.573s-2.494-.102-5.071.417c-2.576.519-4.323.796-4.323.796z"></path>
  <path fill="#FFE9D7" d="M405.358 110.864h-3.782a5.28 5.28 0 0 1-5.28-5.28V90.691h14.342v14.892a5.28 5.28 0 0 1-5.28 5.281z"></path>
  <ellipse cx="403.467" cy="90.691" fill="#EAD6C7" rx="7.171" ry="1.222"></ellipse>
  <path fill="#689BEC" d="M397.265 100.778s1.43-1.071 2.859-.932c1.43.138 2.352 1.799 4.981 1.337 2.629-.461 2.583-.901 3.459-1.35s1.337-.541 1.337-.541.046 7.84-.277 8.947c-.323 1.107-2.49 1.891-3.044 1.937s-7.286-.231-7.286-.231-1.337-.323-1.66-1.706c-.323-1.384-.369-7.461-.369-7.461z"></path>
  <path fill="#38305E" d="m422.444 110.864 2.49-17.06s-1.752-.83-1.752-1.245 1.522-1.337 1.522-1.337l-4.519-16.233h14.066l-4.197 15.956s2.121.919 2.029 1.981c-.092 1.062-1.43 2.169-1.43 2.169l4.519 15.994-12.728-.225z"></path>
  <path fill="#FFE9D7" d="M450.622 74.988H399.87a1.88 1.88 0 0 1-1.784-2.472l12.125-36.5a1.879 1.879 0 0 1 1.784-1.287h26.836a1.88 1.88 0 0 1 1.789 1.302l11.791 36.5a1.88 1.88 0 0 1-1.789 2.457z"></path>
  <path fill="#1E1D1D" d="m434.25 74.988-.333 1.268-12.545 2.996-1.187-4.264z"></path>
  <path fill="#D36101" d="m375.913 110.544 90.204.83-.922 6.272h-2.399l-5.718 45.01-71.389 2.398-5.165-46.116-3.136-.923z"></path>
  <path fill="#D36101" d="m444.258 182.117 2.767-.461 2.67-18.752-4.889.164zM400.624 164.553l1.298 18.487h-2.582l-4.425-18.296z"></path>
  <path fill="#C60000" d="m386.335 120.229 69.728-2.214-2.352 21.998-64.886 1.107zM388.964 145.27h64.332l-2.075 14.25-60.874 2.076z"></path>
  <ellipse cx="420.577" cy="129.706" fill="#D36101" rx="2.975" ry="2.075"></ellipse>
  <ellipse cx="421.095" cy="153.225" fill="#D36101" rx="2.317" ry="2.075"></ellipse>
  <path fill="#1E1D1D" d="m394.915 164.744 5.989 3.799-.28-3.99zM444.806 163.068l4.516 2.458.373-2.622z"></path>
  <path fill="#CE8A41" d="M324.253 97.897s19.646 4.704 34.034 21.583 26.01 41.505 26.01 46.486-9.961 38.185-10.515 43.995c-.553 5.811.646 10.515 2.121 12.728 1.476 2.214 5.073 6.641 5.073 6.641l-14.112 7.471s-4.427-9.131-6.364-15.126c-1.937-5.995-3.32-10.699-6.226-11.898-2.905-1.199-6.595 4.335-9.823 3.966s-4.796-2.767-4.796-2.767 7.563-6.964 10.607-15.68 6.641-20.614 4.566-24.211c-2.075-3.597-22.367-27.255-25.041-29.469-2.675-2.214-7.541-4.599-7.541-4.599s-6.71-2.042-9.338-11.173c-2.629-9.131 11.345-27.947 11.345-27.947z"></path>
  <path fill="#1E1D1D" d="M260.39 81.875s-1.092-3.346 2.159-3.831c3.251-.484 4.566 1.725 5.811-.728 1.245-2.454-7.23-5.082-8.146-11.031s4.203-6.018 5.863-5.465 7.609 4.704 9.823 3.805c2.214-.899 3.251-7.748 6.157-7.471 2.905.277 3.044 7.817 7.194 6.572s12.036-7.54 13.627-2.49-4.704 10.65-3.39 13.072c1.314 2.423 5.88 3.041 7.955 3.009 2.075-.033 6.364 3.634 4.081 6.747-2.283 3.113-7.402 1.176-9.408 2.144-2.006.968-.32 5.121-.32 5.121s-15.59-.14-27.004-2.7c-11.413-2.561-14.402-6.754-14.402-6.754z"></path>
  <path fill="#CE8A41" d="M265.938 82.471s-12.532-1.724-26.454-1.219c-13.921.504-31.077 4.194-40.116 10.281s-24.165 31.175-24.903 38.922 0 15.495 2.398 19.553 3.367 4.542 3.367 4.542l.623-.346 5.188 4.496 1.418-1.072 2.559 1.902s.934-.346 1.556-1.349c.623-1.003.553-2.041.553-2.041l30.668-49.299 22.005 9.258s12.352-2.156 18.716-13.224c6.365-11.065 2.422-20.404 2.422-20.404z"></path>
  <path fill="#5C7F3F" d="m230.728 166.795 6.549-23.888s-5.442-7.471-3.274-15.587c2.168-8.117 18.769-14.85 22.09-19.83 3.32-4.981 9.846-25.018 9.846-25.018l8.163 1.799 40.952 10.584 9.2 3.044-8.301 28.961s9.5 9.961 7.379 20.384c-2.121 10.422-9.131 12.544-9.131 12.544l-9.869 29.073-73.604-22.066z"></path>
  <path fill="#CE8A41" d="m282.402 86.207-1.107-4.842s-1.868 1.66-3.632 0-.588-4.012.657-4.289c1.245-.277 1.626.899 3.355.726 1.729-.173 1.902-1.522 1.972-3.182.069-1.66-1.211-2.94.311-3.113s2.387 1.003 3.805.415.83-2.49 2.075-1.764c1.245.726 11.172 20.96 11.172 20.96l14.043 3.735s-6.917 22.067-12.797 25.941-12.244 5.742-21.721 1.937c-9.477-3.805-12.59-14.873-12.59-18.816s6.157-19.646 6.157-19.646l8.3 1.938z"></path>
  <path fill="#1E1D1D" d="M306.313 159.832s1.845.692 4.197.553c2.352-.138 3.689-.6 3.689-.6s-2.029 1.476-4.151 1.337c-2.121-.137-3.735-1.29-3.735-1.29zM237.277 142.907s.819 1.303 1.718 1.787 2.698.519 2.698.519-1.971.83-3.044.173-1.372-2.479-1.372-2.479z"></path>
  <path fill="#282727" d="m230.728 166.795-29.699 21.214 26.563 41.689s20.291-10.515 23.058-9.777c2.767.738 21.952 23.981 21.952 23.981l45.563-25.641-13.835-29.403-73.602-22.063z"></path>
  <path fill="#1E1D1D" d="m367.326 220.982 5.832 12.487-.914.483zM372.352 220.982l5.342 10.085-.784.415z"></path>
  <path fill="#CE8A41" d="M272.602 243.902s25.918 29.007 25.918 30.806-16.464 65.855-17.294 70.558c-.83 4.704-1.522 9.269-.277 12.867 1.245 3.597 2.49 4.427 2.49 4.427l40.399 8.44s3.92.184 5.119-3.874c1.199-4.058-2.767-6.18-2.767-6.18l-6.964-1.891s-3.182-4.981-2.167-9.362c1.014-4.381 25.364-66.408 25.087-75.262s-23.981-56.17-23.981-56.17l-45.563 25.641z"></path>
  <path fill="#1E1D1D" d="M289.976 338.591s-.484 3.32 1.038 3.874c1.522.553 3.32-.38 3.32-.38s-1.556 1.729-3.563 1.003c-2.005-.727-.795-4.497-.795-4.497zM304.157 354.951l15.069 4.104 2.335.634s2.449 4.151.927 6.952c-1.522 2.802-3.432 3.359-3.432 3.359l-.983-.205s3.24-2.082 3.724-4.606c.484-2.525-1.072-4.877-1.072-4.877l-7.153-1.937s1.757 2.352.65 5.396-4.064 4.371-4.064 4.371l-1.055-.22s3.701-2.11 4.116-4.843c.415-2.732-1.038-5.154-1.038-5.154l-8.024-2.974z"></path>
  <path fill="#CE8A41" d="m201.029 188.009-30.253 23.058s-7.748 8.009-7.379 15.165c.369 7.156 12.175 70.059 11.806 75.408-.369 5.35-4.151 9.592-4.151 9.592l-3.505.922s-3.505.553-2.951 3.966c.553 3.413 3.32 4.519 3.32 4.519l39.845-5.811s3.597-.461 3.966-5.257-9.223-63.456-8.854-65.67 24.719-14.204 24.719-14.204l-26.563-41.688z"></path>
  <path fill="#1E1D1D" d="M201.951 293.847s.6 2.26-.323 3.782c-.922 1.522-3.413.83-3.413.83s1.979.071 2.952-1.545c.973-1.617.784-3.067.784-3.067zM171.053 311.233l16.925-3.493-5.845 1.747s-2.144 2.266-.657 4.756 3.833 3.863 3.833 3.863l-1.166.17s-3.116-.747-3.981-3.617c-.865-2.871.588-4.911.588-4.911l-5.88 1.418s-2.525 2.248-1.729 4.566c.796 2.317 3.088 3.699 3.088 3.699l-1.099.16s-2.854-1.335-3.303-3.479c-.45-2.144 1.418-4.669 1.418-4.669l-2.192-.21zM278.251 79.064s.744-.346 1.383 0c.64.346.484 1.349.484 1.349l-1.867-1.349zM285.567 76.453s.865.553 1.695.398c.83-.156 1.089-1.418 1.089-1.418s.502 1.262-.605 1.764c-1.107.501-2.179-.744-2.179-.744zM290.547 75.052s.45.242 1.038.138c.588-.104.836-.884.836-.884l.103.189s.012.798-.749.937-1.228-.38-1.228-.38z"></path>
  <ellipse cx="292.605" cy="81.252" fill="#F8F2ED" rx="1.245" ry="1.894"></ellipse>
  <path fill="#1E1D1D" d="M180.069 141.846s.323 2.836 1.061 4.45 1.568 2.836 1.383 4.542c-.184 1.706-1.66 3.366-1.66 3.366l-.623.346-.647-.594s2.122-1.781 2.238-3.556c.115-1.775-.992-2.836-1.614-4.911-.622-2.075-.138-3.643-.138-3.643zM181.176 142.63s3.666 7.632 4.796 8.924c1.13 1.291 2.49 2.49 2.329 3.943-.161 1.453-.842 2.133-.842 2.133l-1.418 1.072s1.522-2.167 1.591-3.297c.069-1.13-2.951-3.966-3.828-5.995-.876-2.03-2.628-6.78-2.628-6.78z"></path>
  <path fill="#AD5505" d="M215.607 136.623s1.976.012 4.623 1.949c2.647 1.937 4.653 2.732 6.763 2.836s3.251-4.012 4.081-5.914 2.419-4.116 2.419-4.116l3.4 9.625s-2.603 6.77-6.615 7.669c-4.012.899-14.319-3.955-15.772-5.765-1.452-1.81 1.101-6.284 1.101-6.284z"></path>
  <path fill="#AD5505" d="M221.072 128.588s.582 2.824 0 5.072-2.277 2.663-3.73 2.456c-1.453-.208-2.461-1.402-2.585-2.112-.124-.71-.272-5.416-.272-5.416s.886-3.436 1.681-4.37c.796-.934 2.006-2.559 2.006-2.559l3.158 4.427-.258 2.502z"></path>
  <path fill="#FFE9D7" d="M219.683 142.907s-.484-1.383 2.928-.761c3.413.623 4.407 3.89 4.407 3.89l-1.229 2.238-6.682-3.361.576-2.006z"></path>
  <path fill="#1E1D1D" d="M216.307 128.791s-.192.079-.728-.405c-.536-.484 0-1.884 0-1.884s.623-.9 1.055-.917c.432-.017.64-.086.64-.086s.069-.415.83-.467 1.583.501 1.583.501l.112 2.162-2.663 1.349-.829-.253z"></path>
  <path fill="#C46600" d="M234.319 153.697s-3.406 1.109-5.343 1.477c-1.937.369-4.335 0-4.335 0s-2.951 6.549-12.451 8.024c-9.5 1.476-20.081-5.718-23.875-10.884-3.795-5.165-10.528-18.652-3.057-31.969s19.646-19.313 27.485-19.774c7.84-.461 11.714.553 16.971 4.058s7.31 7.794 6.549 12.428c-.761 4.635-4.289 5.603-4.842 6.226s-1.003 3.839-2.594 4.047c-1.591.208-2.283-.45-2.283-.45s-.553.588-1.418.104-1.176-1.176-1.176-1.176-1.798 2.502-3.643 3.147c-1.845.646-3.758.3-4.035 0-.277-.3.346.023 1.522-.83 1.176-.853 2.352-2.098 1.729-3.574s-1.683-2.098-1.683-2.098-1.822 3.62-2.928 5.004c-1.107 1.383-.277 7.056.369 8.439.646 1.384 1.291 2.952 1.337 4.335.046 1.383 0 2.998 0 2.998s3.459-1.096 7.194 1.043c3.735 2.139 4.75 2.692 6.226 2.277 1.476-.415 5.976-5.755 5.976-5.755s2.08.12 2.786 2.111c.704 1.993-4.481 10.792-4.481 10.792z"></path>
  <path fill="#1E1D1D" d="M209.353 122.627s3.044-.865 5.43-.761c2.387.104 3.055.588 3.055.588l-8.485.173zM214.645 111.732s10.618 4.635 11.103 8.094-1.799 5.984-1.799 5.984 2.11-4.462 1.003-6.433c-1.107-1.973-10.307-7.645-10.307-7.645zM229.183 120.195s-1.868 2.098-2.006 2.606c-.138.507-.161 1.891-.346 2.698-.184.807-.288 1.383-.288 1.383s.888-1.176 1.049-2.167c.161-.992.082-1.204.184-2.087.103-.884 1.407-2.433 1.407-2.433zM232.527 119.768s.3.45 0 1.164c-.3.715-1.453 1.211-1.453 1.211s.888-.715 1.141-1.188.312-1.187.312-1.187zM216.616 143.23l-4.496 1.043s1.729-1.17 2.663-1.256c.934-.087 1.833.213 1.833.213z"></path>
  <path fill="#C46600" d="M210.375 163.394s5.042 4.047 11.637 3.217 10.307-5.62 10.307-5.62l2-7.295-3.591 1.064s-.968 2.442-4.842 4.771-7.094 1.441-7.094 1.441l-8.417 2.422z"></path>
  <path fill="#FFE9D7" d="M203.024 135.978c-.817-.397-2.11-4.496-6.226-5.188s-5.672 5.742-4.393 8.474c1.28 2.732 3.182 3.497 4.877 3.737 1.695.24 5.742 1.37 6.848-.371 1.107-1.741 2.525-4.888-1.106-6.652zM214.368 162.746s1.902-4.84 4.911-6.431 5.025-.526 5.025-.526-1.292 2.123-2.837 3.304c-1.544 1.181-3.128 2.245-4.426 2.742-1.296.497-2.673.911-2.673.911z"></path>
  <path fill="#C46600" d="M235.36 110.651s2.335.113 4.476 2.188 2.49 2.629 1.545 3.274c-.945.646-5.077.671-5.077.671l-.944-6.133z"></path>
  <path fill="#1E1D1D" d="M236.274 113.498s1.12-.239 2.86.22 1.931.812 1.931.812-1.782-.331-2.796-.446c-1.015-.115-1.995-.586-1.995-.586z"></path>
</svg>
