<svg xmlns="http://www.w3.org/2000/svg" xmlns:xlink="http://www.w3.org/1999/xlink" xml:space="preserve" viewBox="0 0 600 400" id="woman-relaxing-in-bathtub">
  <path fill="#D36101" d="M223.196 39.342h174.082v167.935H223.196z"></path>
  <path fill="#F8F2ED" d="M315.18 127.596h74.234v74.234H315.18z"></path>
  <path fill="#689BEC" d="m315.18 167.274 50.126-39.678h24.108l-74.175 59.379zM389.473 162.85l-49.811 39.01h12.694l37.058-28.35z"></path>
  <path fill="#F8F2ED" d="M230.794 46.113h74.234v74.234h-74.234zM315.239 46.113h74.234v74.234h-74.234zM230.735 127.596h74.234v74.234h-74.234z"></path>
  <path fill="#689BEC" d="m266.49 46.113-35.696 29.166v13.495l50.641-42.661zM299.574 46.113l-68.78 59.784v14.45h13.204l60.971-54.79.059-19.444zM275.486 120.347l29.542-27.51-.059 5.079-24.114 22.431zM365.935 46.113 315.18 87.13l.059 19.462 74.234-60.479zM355.681 120.347l33.733-23.144.059 7.339-23.345 15.805zM315.239 118.279l74.234-61.331v6.965l-67.815 56.434h-6.419zM230.735 150.009l31.498-22.413h30.411l-61.909 45.914zM230.735 192.96l74.234-53.012v23.41l-55.591 38.502-18.643-.03z"></path>
  <path fill="#1E1D1D" d="M435.488 128.195a1.111 1.111 0 0 1-.846-1.834l27.182-31.924c.211-.248.521-.391.847-.391h3.483c.321 0 .626.138.837.38l27.086 30.956a1.11 1.11 0 0 1-.105 1.569 1.11 1.11 0 0 1-1.569-.105L465.65 96.271h-2.465l-26.849 31.532a1.11 1.11 0 0 1-.848.392z"></path>
  <circle cx="464.585" cy="175.664" r="58.529" fill="#38305E"></circle>
  <circle cx="464.585" cy="175.664" r="51.798" fill="#F8F2ED"></circle>
  <defs>
    <circle id="a" cx="473.193" cy="168.912" r="51.796"></circle>
  </defs>
  <clipPath id="b">
    <use xlink:href="#a" overflow="visible"></use>
  </clipPath>
  <path fill="#689BEC" d="M387.037 146.122h134.545v14.873H387.037z" clip-path="url(#b)" transform="rotate(-26.022 454.323 153.563)"></path>
  <defs>
    <circle id="c" cx="461.615" cy="179.278" r="51.796"></circle>
  </defs>
  <clipPath id="d">
    <use xlink:href="#c" overflow="visible"></use>
  </clipPath>
  <path fill="#689BEC" d="M403.678 180.941h134.545v5.709H403.678z" clip-path="url(#d)" transform="rotate(-26.022 470.964 183.8)"></path>
  <defs>
    <circle id="e" cx="455.657" cy="185.159" r="51.796"></circle>
  </defs>
  <clipPath id="f">
    <use xlink:href="#e" overflow="visible"></use>
  </clipPath>
  <path fill="#689BEC" d="M413.424 189.046h134.545v21.159H413.424z" clip-path="url(#f)" transform="rotate(-26.022 480.711 199.632)"></path>
  <circle cx="464.365" cy="96.622" r="3.664" fill="#38305E"></circle>
  <path fill="#38305E" d="M175.33 129.07c-10.378 0-18.791 11.36-18.791 25.373v2.841h37.582v-2.841c0-14.013-8.413-25.373-18.791-25.373z"></path>
  <ellipse cx="175.33" cy="157.284" fill="#D36101" rx="18.791" ry="6.074"></ellipse>
  <path fill="#DE9641" d="M169.251 151.536s-.287 7.414 6.08 7.463 5.678-7.506 5.678-7.506-2.405-.294-5.869-.282c-3.325.012-5.889.325-5.889.325z"></path>
  <path fill="#1E1D1D" d="M175.331 130.183h-.011a1.114 1.114 0 0 1-1.102-1.123l1.001-102.589a1.113 1.113 0 0 1 1.112-1.102h.011a1.114 1.114 0 0 1 1.102 1.123l-1.001 102.589a1.113 1.113 0 0 1-1.112 1.102z"></path>
  <circle cx="334.967" cy="180.126" r="5.671" fill="#D36101"></circle>
  <circle cx="334.967" cy="180.126" r="4.799" fill="#DE9641"></circle>
  <path fill="#2163A5" d="m291.212 226.818 1.179-11.266 32.866.09 2.01 6.194-2.445 15.818-18.447.663z"></path>
  <path fill="#38305E" d="M329.05 215.642h-40.094a1.521 1.521 0 1 1 0-3.044h40.094a1.523 1.523 0 0 1 0 3.044z"></path>
  <path fill="#FFE9D7" d="m292.608 212.597 3.966-4.111v-11.754s-5.708-2.467-7.691-6.481-1.451-15.381-1.451-15.381h19.009s.936 9.558-.387 14.752c-1.306 5.127-6.675 7.013-6.675 7.013l.097 11.899 3.821 4.063h-10.689z"></path>
  <ellipse cx="296.905" cy="174.87" fill="#EAD6C7" rx="9.537" ry="1.36"></ellipse>
  <path fill="#4904A3" d="M294.737 193.927c-2.225-1.451-4.45-3.628-5.079-5.853-.629-2.225-.339-5.466-.339-5.466s1.112-.967 3.047-.339c1.935.629 2.66 2.177 5.804 1.935s2.999-1.306 4.498-1.354 2.515 1.161 2.515 1.161.145 4.45-.629 5.901-3.289 3.542-5.466 4.407c-2.175.866-4.351-.392-4.351-.392z"></path>
  <path fill="#FFE9D7" d="m317.603 212.597 3.809-2.152-.162-15.187s-7.051-1.636-9.501-4.299-1.792-10.202-1.792-10.202h23.484s1.157 6.34-.478 9.785c-1.613 3.401-8.246 4.652-8.246 4.652l.231 15.251 4.103 2.152h-11.448z"></path>
  <ellipse cx="321.658" cy="180.758" fill="#EAD6C7" rx="11.782" ry=".902"></ellipse>
  <path fill="#DE9641" d="M318.979 193.398c-2.749-.962-5.498-2.406-6.274-3.882-.777-1.476-.418-3.625-.418-3.625s1.374-.642 3.765-.225c2.39.417 3.287 1.444 7.171 1.283 3.884-.16 3.705-.866 5.557-.898 1.853-.032 3.107.77 3.107.77s.179 2.951-.777 3.914c-.956.962-4.064 2.349-6.753 2.923-2.689.574-5.378-.26-5.378-.26z"></path>
  <path fill="#1E1D1D" d="M150.726 302.563h-31.308a2.484 2.484 0 1 1 0-4.968h31.308a2.484 2.484 0 1 1 0 4.968z"></path>
  <path fill="#1E1D1D" d="M114.034 373.568a1.113 1.113 0 0 1-1.102-1.274l10.641-72.377a1.113 1.113 0 0 1 2.201.323l-10.641 72.377a1.112 1.112 0 0 1-1.099.951zM156.402 373.568c-.55 0-1.028-.408-1.102-.968l-9.48-72.377a1.111 1.111 0 0 1 .959-1.247 1.111 1.111 0 0 1 1.248.959l9.48 72.377a1.111 1.111 0 0 1-1.105 1.256z"></path>
  <path fill="#435A2C" d="M127.672 297.594s-1.451-17.184-.58-23.859c.871-6.675 2.999-8.803 3.289-13.253.29-4.45.387-16.929.387-16.929s-1.403-.776-1.258-1.525 7.594-.944 7.739 0-.919 1.428-.919 1.428-.29 14.946-.145 17.122c.145 2.177 2.467 6.191 3.386 13.688.513 4.184-.145 23.327-.145 23.327h-11.754v.001z"></path>
  <path fill="#DE9641" d="M126.972 274.894s2.006 1.501 6.069 1.405c4.063-.097 6.53-2.031 6.53-2.031s.199 1.645.196 3.386 0 5.611 0 5.611-2.856 1.403-6.87 1.499c-4.015.097-6.082-1.596-6.082-1.596s-.001-5.305.048-6.354c.048-1.05.109-1.92.109-1.92z"></path>
  <path fill="#C46600" d="m131.485 241.492-.977-7.032s1.288-.998 3.356-.871c2.068.127 2.594.689 2.594.689l-.925 7.214h-4.048z"></path>
  <ellipse cx="445.646" cy="365.538" fill="#2163A5" rx="59.59" ry="9.093"></ellipse>
  <ellipse cx="445.646" cy="365.538" fill="#DE9641" rx="40.535" ry="6.186"></ellipse>
  <path fill="#D36101" d="m432.635 365.538-7.836-34.003h43.677l-6.675 34.003z"></path>
  <path fill="#6A8C53" d="m436.851 261.885 5.216 3.773s-6.675 30.182-3.483 41.21 7.062 24.668 7.062 24.668-14.317-17.848-13.592-35.986c.726-18.139 4.797-33.665 4.797-33.665zM461.076 244.327s-14.656 36.276-16.542 49.626 1.112 37.582 1.112 37.582.339-26.554 5.562-43.604c5.224-17.05 16.107-38.671 16.107-38.671l-6.239-4.933zM467.315 293.373l6.385 7.11s-12.189 6.965-16.687 15.091c-4.498 8.126-6.965 15.962-6.965 15.962h-1.451s-.871-10.012 4.789-19.734c5.658-9.723 13.929-18.429 13.929-18.429z"></path>
  <path fill="#1E1D1D" d="M461.801 365.817a.268.268 0 0 1-.062-.007l-30.781-7.009a.278.278 0 0 1 .017-.546l31.645-5.116-34.458-6.513a.278.278 0 0 1-.021-.542l37.019-9.963-38.982 1.628a.284.284 0 0 1-.29-.267.278.278 0 0 1 .267-.29l41.484-1.732a.293.293 0 0 1 .287.236.28.28 0 0 1-.203.311l-38.263 10.298 34.822 6.582a.28.28 0 0 1 .227.277.28.28 0 0 1-.234.271l-31.8 5.142 29.387 6.692c.15.034.244.183.209.332a.277.277 0 0 1-.27.216zM449.467 331.814a.278.278 0 0 1-.273-.331c.016-.083 1.63-8.368 4.077-14.56 2.46-6.222 13.706-17.467 14.183-17.943a.278.278 0 0 1 .392.394c-.116.116-11.641 11.639-14.059 17.753-2.428 6.143-4.032 14.379-4.048 14.461a.275.275 0 0 1-.272.226zM445.646 331.814a.277.277 0 0 1-.251-.159c-.09-.189-8.986-19.006-11.001-28.648-2.021-9.672 3.919-34.616 4.173-35.673a.272.272 0 0 1 .335-.205.277.277 0 0 1 .205.335c-.062.257-6.164 25.879-4.169 35.428 1.711 8.191 8.445 23.095 10.415 27.358-.05-5.387-.143-26.278 1.28-36.914 1.636-12.232 15.357-42.865 15.495-43.173a.278.278 0 0 1 .507.227c-.138.308-13.826 30.867-15.45 43.019-1.629 12.173-1.265 37.864-1.261 38.122a.278.278 0 0 1-.278.283zM76.885 372.455h309.171v1.088H76.885z"></path>
  <path fill="#A1BDCE" d="M366.793 372.455h3.555l-12.6-27.398-9.969 1.901zM220.082 372.455h-3.555l12.601-27.398 9.968 1.901z"></path>
  <path fill="#1E1D1D" d="M379.381 372.455h3.555l-12.6-27.398-9.968 1.901zM232.671 372.455h-3.555l12.6-27.398 9.969 1.901z"></path>
  <path fill="#D1E8F2" d="M162.304 253.904s23.507 71.392 35.986 85.612c12.479 14.22 37.727 13.64 50.497 13.64 12.769 0 110.86-1.451 128.563-10.448s26.99-30.179 30.472-39.177l22.346-57.754s-19.154-4.934-36.857-3.483-47.885 22.636-83.29 23.797c-35.406 1.161-95.769-20.895-110.57-21.185-14.801-.289-37.147 8.998-37.147 8.998z"></path>
  <path fill="#DDA783" d="M186.343 224.786h-10.061s-1.693-3.144-2.322-3.047c-.629.097-1.306 3.047-1.306 3.047l-7.352.339 3.241 6.917s-1.741 2.128.677 3.483 4.256-.726 4.256-.726l10.786 4.16 2.081-14.173z"></path>
  <path fill="#FFE9D7" d="M158.676 240.401s-8.609-7.15-8.416-10.487 4.885-4.45 6.239-4.45h1.79s.339-.822 1.064-.58c.726.242 1.306 1.306 2.177.871s1.693-1.596 2.757-1.645c1.064-.048 2.564 2.031 3.821 4.643 1.258 2.612.288 7.483.288 7.483l-5.221 4.166h-4.499v-.001z"></path>
  <path fill="#1E1D1D" d="M169.194 224.946s-2.326 3.492 1.504 5.995c3.831 2.503 9.78 1.316 11.013-.594 1.233-1.909-.435-5.561-.435-5.561h-1.632s.871 1.221-.472 1.911c-1.342.689-1.705-1.911-1.705-1.911h-1.185s.024 1.258-1.354 1.475c-1.378.218-2.273-1.475-2.273-1.475l-3.461.16z"></path>
  <circle cx="172.606" cy="228.257" r="1.415" fill="#FFC794"></circle>
  <path fill="#1E1D1D" d="M161.482 240.401s.58-.995-2.564-4.218c-3.144-3.222-5.099-10.129-5.099-10.129l3.575 6.544.895-7.134.57-.583.083 5.467s5.079 4.669 5.079 4.548-1.584-9.785-1.584-9.785l.399-.324 2.467 11.717s-.408.104-.546.211a5.552 5.552 0 0 0-.359.327l-5.891-5.749.073 2.95s1.258 1.354 2.346 2.636c1.088 1.281.556 3.522.556 3.522z"></path>
  <path fill="#FFE9D7" d="M212.51 222.672s8.706-1.925 11.681-3.013 5.514.145 8.053-.726 4.135-3.773 9.722-3.337c5.587.435 7.908 1.596 10.448 1.524 2.539-.073 3.99 1.451 8.126.073s4.643-1.451 8.924-.58 5.587 0 8.634 1.161 13.93 9.722 18.138 11.657 5.756-.677 9.819 1.161 7.814 4.45 10.437 7.932c2.623 3.482 3.393 10.161 3.393 10.161s-50.203 13.346-66.745 10.734c-16.542-2.613-40.63-36.747-40.63-36.747z"></path>
  <path fill="#DDA783" d="M310.075 243.624s33.611-43.264 37.093-45.005 4.788-4.353 14.22-1.451 49.912 35.613 49.912 35.613-54.265 21.252-69.936 24.163c-15.671 2.91-28.94 0-28.94 0l-2.349-13.32z"></path>
  <path fill="#D1E8F2" d="M162.552 240.197s1.3-2.98 2.316-3.561c1.016-.58 11.367-.629 12.092 0 .725.629 1.886 3.024 1.886 3.024l-16.294.537z"></path>
  <path fill="#FFE9D7" d="M350.215 231.34s-.653-4.788 1.161-5.949c1.814-1.161 1.959-1.306 1.959-2.83s.073-5.312 2.177-7.009 3.12-.826 4.135-1.987c1.016-1.161 1.451-2.539 3.845-2.539s4.934 2.249 4.934 2.249-8.779 13.93-11.971 16.179c-3.193 2.249-6.24 1.886-6.24 1.886z"></path>
  <path fill="#DDA783" d="M344.919 237.072s29.094-34.39 37.074-38.163c7.981-3.773 69.651-22.927 73.713-25.103s20.968-19.226 20.968-19.226v-8.271s1.088-4.281 5.514-3.628 4.281 3.773 4.281 3.773l.001 18.864s-15.575 30.932-18.671 32.77c-3.096 1.838-54.173 17.918-58.526 20.471-4.353 2.553-8.997 5.148-11.318 8.494-2.322 3.346-3.95 6.396-3.95 6.396s-17.236 11.654-29.763 12.524c-12.527.869-19.323-8.901-19.323-8.901z"></path>
  <path fill="#1E1D1D" d="m476.783 162.85-.109-8.271v-5.587s1.669-2.431 4.353-2.866 5.441 2.104 5.441 2.104v.653s-3.301-2.213-5.405-1.56-3.301 2.757-3.301 2.757l-.181 5.26s2.104-2.431 4.752-2.431 4.135 2.068 4.135 2.068l.001 1.088s-2.794-2.118-4.499-1.603-4.498 3.78-4.498 3.78l-.689 4.608z"></path>
  <path fill="#FFE9D7" d="M318.354 247.391s1.148-.791 3.083-1.033 1.112-.484 2.709-2.322c1.596-1.838 2.564-3.241 5.611-3.192 3.047.048 4.015-.484 5.369-1.451 1.354-.967 1.209-.629 2.902-.726s1.79-1.693 4.015-2.08c2.225-.387 3.483.919 5.079 0s2.66-4.668 6.965-3.833c4.305.834 3.579 4.317 5.611 6.107 2.031 1.79 3.918 1.161 5.03 1.741s1.478 1.213 1.478 1.213-18.069 15.272-29.29 16.896c-11.221 1.625-14.22-1.568-15.865-4.083-1.646-2.514-2.697-7.237-2.697-7.237z"></path>
  <path fill="#A1BDCE" d="M162.304 253.904s-4.837.871-6.191 0-3.773-12.479-1.064-13.156 35.793-1.548 48.852-1.354c13.059.193 49.819 16.977 49.819 16.977l57.462 2.322s21.621-.871 28.005-3.337c6.385-2.467 34.825-19.299 47.74-21.185 12.914-1.886 47.014-1.886 48.9 0s.725 11.826 0 11.971c-.726.145-5.659-.363-5.659-.363s-30.037-.435-36.494.943c-6.457 1.379-40.92 20.097-52.601 22.129-11.681 2.031-54.269 1.209-54.269 1.209l-89.095-17.703-35.405 1.547z"></path>
  <path fill="#1E1D1D" d="M458.446 186.575s1.36.653 2.938.29 1.233-3.374 1.233-3.374-.453 2.122-1.524 2.63c-1.069.509-2.647.454-2.647.454z"></path>
  <circle cx="216.573" cy="160.166" r="4.547" fill="#FFE9D7"></circle>
  <path fill="#F8F2ED" d="M217.589 158.116s.907.218 1.161.979c.254.762-.091 1.505-.091 1.505s-.052-1.143-.443-1.651a35.288 35.288 0 0 1-.627-.833z"></path>
  <circle cx="221.517" cy="177.831" r="3.928" fill="#FFE9D7"></circle>
  <path fill="#F8F2ED" d="M222.394 176.06s.783.188 1.003.846c.219.658-.078 1.301-.078 1.301s-.045-.987-.383-1.426-.542-.721-.542-.721z"></path>
  <circle cx="203.749" cy="182.218" r="2.313" fill="#FFE9D7"></circle>
  <path fill="#F8F2ED" d="M204.265 181.175s.461.111.59.498c.129.387-.046.766-.046.766s-.026-.581-.225-.84-.319-.424-.319-.424z"></path>
  <circle cx="215.94" cy="191.857" r="3.43" fill="#FFE9D7"></circle>
  <path fill="#F8F2ED" d="M216.706 190.311s.684.164.876.739-.068 1.136-.068 1.136-.039-.862-.334-1.245c-.296-.383-.474-.63-.474-.63z"></path>
  <circle cx="205.431" cy="203.542" r="1.683" fill="#FFE9D7"></circle>
  <circle cx="219.669" cy="205.197" r="2.08" fill="#FFE9D7"></circle>
  <circle cx="227.519" cy="213.995" r="2.075" fill="#FFE9D7"></circle>
  <path fill="#F8F2ED" d="M235.534 230.385s-1.318-1.137-.725-2.394c.592-1.258 2.467-.75 2.467-.75s-1.62.048-1.923.967c-.303.919.181 2.177.181 2.177z"></path>
  <path fill="#1E1D1D" d="M270.495 285.138s30.674-13.604 34.375-17.232c3.7-3.628 11.622-9.498 11.622-9.498l-3.855.217s-12.289 4.952-21.479 10.466c-9.191 5.515-20.663 16.047-20.663 16.047z"></path>
  <path fill="#EAC6AD" d="M222.341 225.427s-.653-.98.326-1.451c.98-.472 1.596.254 1.596.254s-1.173-.218-1.548.085c-.374.302-.374 1.112-.374 1.112zM242.694 235.525s-1.658-2.488.829-3.686c2.488-1.198 4.054.645 4.054.645s-2.979-.553-3.931.215-.952 2.826-.952 2.826zM259.089 245.959s-2.553-1.555-.804-3.691c1.75-2.136 3.948-1.126 3.948-1.126s-2.934.756-3.473 1.854c-.539 1.098.329 2.963.329 2.963zM287.659 239.948s-.772-1.919.54-2.924 3.014.554 3.014.554-1.737-.833-2.558-.027c-.821.805-.996 2.397-.996 2.397zM247.637 226.007s-1.318-1.137-.726-2.394c.592-1.258 2.467-.75 2.467-.75s-1.62.048-1.923.967c-.302.92.182 2.177.182 2.177zM259.001 236.541s-1.661-1.433-.914-3.018 3.109-.945 3.109-.945-2.042.061-2.423 1.219c-.381 1.159.228 2.744.228 2.744zM258.584 224.385s-1.035-.893-.57-1.88c.465-.988 1.937-.589 1.937-.589s-1.273.038-1.51.76c-.237.721.143 1.709.143 1.709zM271.371 230.464s-1.035-.893-.57-1.88c.465-.988 1.937-.589 1.937-.589s-1.273.038-1.51.76c-.237.721.143 1.709.143 1.709zM247.095 244.321s-.389-1.31.536-1.89 1.949.55 1.949.55-1.092-.655-1.681-.176c-.59.48-.804 1.516-.804 1.516zM283.665 232.054s-.389-1.31.536-1.89c.925-.58 1.949.55 1.949.55s-1.092-.655-1.681-.176c-.591.48-.804 1.516-.804 1.516zM272.02 240.066s-.389-1.31.536-1.89c.925-.58 1.949.55 1.949.55s-1.092-.655-1.681-.176c-.59.48-.804 1.516-.804 1.516zM276.68 245.262s-.723-1.16.015-1.965 2.025.014 2.025.014-1.226-.342-1.668.276c-.441.619-.372 1.675-.372 1.675zM268.575 236.509s-1.354-.187-1.5-1.269 1.307-1.547 1.307-1.547-1.048.723-.855 1.458c.193.735 1.048 1.358 1.048 1.358zM297.445 239.442s-.701-1.04-.218-1.886c.484-.846 1.572-.387 1.572-.387s-1.185.094-1.312.738c-.126.643-.042 1.535-.042 1.535zM303.691 238.976s-.163-1.106.78-1.669c.943-.562 1.905-.264 1.905-.264s-1.197-.009-1.85.699-.835 1.234-.835 1.234zM293.479 231.395s-.871.218-.834.907c.036.689.544 1.143.544 1.143s-.399-.834-.272-1.27c.127-.436.562-.78.562-.78zM277.953 235.421s.199-.653.961-.689 1.252.526 1.252.526-.796-.427-1.36-.345c-.565.083-.853.508-.853.508z"></path>
  <circle cx="368.825" cy="232.465" r="1.729" fill="#F8F2ED"></circle>
  <circle cx="365.306" cy="232.09" r="1.354" fill="#F8F2ED"></circle>
  <circle cx="366.963" cy="236.697" r="1.463" fill="#F8F2ED"></circle>
  <circle cx="361.134" cy="227.628" r=".81" fill="#F8F2ED"></circle>
  <circle cx="343.305" cy="246.885" r="1.651" fill="#EAC6AD"></circle>
  <circle cx="344.511" cy="244.046" r="1.206" fill="#EAC6AD"></circle>
  <circle cx="354.061" cy="240.554" r="1.705" fill="#EAC6AD"></circle>
  <path fill="#EAC6AD" d="M331.841 244.744s-.707.454-.49 1.07c.218.617 1.034.762 1.034.762s-1.814.163-1.814-.916c.001-1.079 1.27-.916 1.27-.916zM327.119 252.719s-1.04-1.016-.363-2.128 2.273 0 2.273 0-2.007-.314-2.08.508.17 1.62.17 1.62zM335.342 248.777s-1.572.701-.967 1.645c.605.943 1.258.653 1.258.653s-1.028-.635-1.004-1.128c.024-.493.713-1.17.713-1.17zM340.155 241.183s-.629.095-.919.845c-.29.751.46 1.597.46 1.597s-.381-1.121-.154-1.597c.226-.476.613-.845.613-.845zM356.545 216.793s-1.116.145-1.007 1.043 1.505 1.134 1.505 1.134-1.246-.58-1.106-1.306c.141-.725.608-.871.608-.871zM356.213 220.227s-1.536.641-1.681 1.814c-.145 1.173.84 1.862.84 1.862s-.768-1.415-.381-2.189c.388-.773 1.222-1.487 1.222-1.487zM360.228 214.744s-.472.326-.435.961c.036.635.435.834.435.834s-.297-.588-.219-1.018c.079-.43.219-.777.219-.777z"></path>
  <path fill="#DDA783" d="M326.052 257.648s.656-2.22-1.376-3.816c-2.031-1.596-6.893-10.81-19.154-10.593-12.261.218-43.024 11.463-46.216 11.173-3.192-.29-40.992-28.711-48.393-32.675-7.4-3.964-13.35-3.674-19.009-2.078s-8.269 8.522-8.851 14.22c-.583 5.699 5.369 14.22 20.75 25.248s37.859 33.084 50.78 32.213c12.921-.871 58.053-32.716 58.053-32.716s3.593-.187 5.583-.329c1.991-.141 7.833-.647 7.833-.647z"></path>
  <path fill="#1E1D1D" d="m225.908 352.057 6.795 3.474 1.961-2.63zM348.887 348.444l11.153 1.598-1.306-2.84zM172.679 227.519s.544.181.496.822-.774.846-.774.846.472-.472.472-.931c-.001-.459-.194-.737-.194-.737zM400.552 224.267s-1.871 3.905-2.355 5.307c-.484 1.403-1.649 3.704-1.649 3.704l-2.543.169s3.037-5.104 3.667-5.985.96-1.177 1.734-1.999c.774-.822 1.146-1.196 1.146-1.196zM320.723 255.174s-3.192.399-5.042 1.197-3.257 2.341-3.257 2.341l2.024-.189s1.305-1.21 2.539-1.79c1.233-.58 3.736-1.559 3.736-1.559z"></path>
</svg>
