<svg xmlns="http://www.w3.org/2000/svg" xml:space="preserve" viewBox="0 0 600 400" id="workout-time">
  <path fill="#CE8A41" d="m114.183 257.763-7.591 36.104-6.442-2.386 3.738-36.349z"></path>
  <path fill="#1E1D1D" d="m103.265 283.529 6.376-26.912-3.344-.419zM63.443 198.263s-3.738-2.187-2.903-4.892c.835-2.704 2.824-2.426 3.937-1.471 1.114.954 1.949 4.931 1.949 4.931l4.388.06 1.418 2.247-2.585 6.005-2.903.411s-2.983-.172-3.42-2.718c-.438-2.545.119-4.573.119-4.573z"></path>
  <circle cx="84.719" cy="306.787" r="29.747" fill="#38305E"></circle>
  <path fill="#CE8A41" d="M91.454 196.062s-4.189 2.916-8.166 3.394c-3.977.477-6.151 0-6.151 0s-.371-4.719-3.977-4.507c-3.606.212-2.121 4.719-2.121 4.719l-5.037-.954s1.962 1.962 1.803 3.765-1.061 3.075-1.061 3.075 5.143 1.22 5.674 2.386.689 3.553 1.803 2.81c1.114-.742 1.485-1.75 2.439-1.697s8.802 3.977 8.802 3.977l5.992-16.968zM229.478 292.833l9.718 4.788-6.87-49.221-5.314 1.96-5.488 22.429 5.25 17.26z"></path>
  <path fill="#1E1D1D" d="M72.888 196.91s-.278.994.139 1.73c.418.736 1.77.915 1.77.915l-1.909-2.645zM71.118 204.586s-.464-.508-.623-1.414c-.159-.906.311-1.396.311-1.396s-.132.968-.016 1.405.328 1.405.328 1.405z"></path>
  <path fill="#F8F2ED" d="M78.728 207.051s1.591-.252 1.405-1.657c-.186-1.405-1.684-1.995-2.625-1.409-.941.587-.411 2.642.252 2.96.663.319.968.106.968.106z"></path>
  <path fill="#D36101" d="m138.911 256.723 12.302-48.571s-36.587-15.377-47.299-15.802c-10.711-.424-12.461 3.712-12.461 3.712l14.666 61.783s5.882.945 9.699-.566c3.818-1.511 6.443-5.17 6.443-5.17l16.65 4.614z"></path>
  <path fill="#CE8A41" d="m82.704 308.263-14.211 3.924s.371 2.916 4.242 3.235c3.871.318 7.477-1.167 7.477-1.167l-9.385 12.514 15.43 2.439s11.825-14.105 13.521-19.725c1.697-5.621 9.438-80.969 9.438-80.969s9.757 4.242 13.787-3.924.212-15.755-8.166-20.604c-8.378-4.848-13.256-10.059-20.468-9.044-7.211 1.014-10.075 14.165-10.393 25.512-.317 11.347-1.272 87.809-1.272 87.809z"></path>
  <path fill="#027333" d="M88.696 221.832h15.616v28.4H88.696z"></path>
  <path fill="#1E1D1D" d="M89.757 222.84h11.294v26.141H89.757z"></path>
  <path fill="#F8F2ED" d="M90.685 223.794h9.465v24.14h-9.465z"></path>
  <path fill="#1E1D1D" d="m83.809 228.765 4.887.517v6.75l-4.994-.783zM104.312 230.396l4.636.717-.758 7.269-3.878-.669zM75.769 327.55l9.852-12.075-8.586 12.275zM81.125 328.397l10.488-11.862-9.489 12.02z"></path>
  <path fill="#CE8A41" d="m151.213 208.152 20.256 7.529-11.03 49.632-21.528-8.59z"></path>
  <path fill="#1E1D1D" d="m229.478 292.833-69.039-27.52 11.029-49.632 9.81 3.659s10.764-9.704 25.717-8.961c14.953.742 22.046 7.854 22.046 7.854l2.64 30.489s-7.135 13.728-6.339 25.817c.796 12.09 4.136 18.294 4.136 18.294z"></path>
  <path fill="#CE8A41" d="m304.774 316.997 47.033 19.423 8.245-19.654-7.717-13.522-35.856-17.429-10.268-1.725z"></path>
  <path fill="#FFE9D7" d="m381.272 349.161-29.465-12.741 8.245-19.654z"></path>
  <path fill="#5C7F3F" d="m388.564 361.463-5.26 5.101 7.966-1.458z"></path>
  <path fill="#FFE9D7" d="m381.634 371.204 13.784-1.466-4.148-5.021-7.966 1.847s-1.67.875-1.949 1.988.279 2.652.279 2.652z"></path>
  <path fill="#1E1D1D" d="M109.217 228.513s2.545-16.226 1.909-19.301-2.178-5.226-2.178-5.226 2.496 1.196 4.299 5.226c1.803 4.03 0 20.313 0 20.313s-1.196-.044-1.749-.164c-1.434-.309-2.281-.848-2.281-.848zM84.609 212.607s.601-4.07 1.16-6.03c.559-1.96 1.196-3.789 1.196-3.789s-1.848 3.587-2.166 4.741c-.318 1.153-1.342 4.514-1.342 4.514l1.152.564z"></path>
  <path fill="#689BEC" d="m100.15 225.783-9.465 5.965v3.738l9.465-5.961zM100.136 236.388l-9.465 5.965v3.738l9.465-5.961z"></path>
  <path fill="#1E1D1D" d="M60.182 336.5h132.55v.715H60.182z"></path>
  <path fill="#FFE9D7" d="m207.738 365.106-1.326 4.879 54.643-2.439-1.671-5.091z"></path>
  <path fill="#D36101" d="m107.306 108.853-6.785 8.52s.085 9.545 3.86 17.604c3.775 8.06 11.835 15.165 11.835 15.165l8.944-1.978-17.854-39.311z"></path>
  <path fill="#1E1D1D" d="m116.216 150.142 4.209-12.404 4.736 10.427z"></path>
  <path fill="#38305E" d="m110.864 74.017.022.055a5.895 5.895 0 0 0-.778.255c-8.565 3.506-7.388 26.188 2.629 50.662s25.081 41.473 33.646 37.967c.254-.104.497-.227.734-.364l.022.055 20.758-8.496-36.275-88.63-20.758 8.496z"></path>
  <ellipse cx="149.764" cy="109.835" fill="#D36101" rx="16.758" ry="47.884" transform="rotate(-22.256 149.768 109.826)"></ellipse>
  <path fill="#38305E" d="m423.768 63.272-.022.055c.265.068.525.151.779.255 8.565 3.506 7.388 26.188-2.629 50.662s-25.081 41.473-33.646 37.967a6.035 6.035 0 0 1-.734-.364l-.022.055-20.758-8.496 36.275-88.63 20.757 8.496z"></path>
  <ellipse cx="384.879" cy="99.085" fill="#D36101" rx="47.884" ry="16.758" transform="rotate(-67.741 384.876 99.078)"></ellipse>
  <path fill="#6881C4" d="m157.853 102.845-7.859 5.726s-.955 2.651.265 4.348 3.977 1.273 3.977 1.273l6.397-4.42-.511-.988-2.269-5.939z"></path>
  <path fill="#5C7F3F" d="m250.582 169.231 57.161-5.62-1.59-17.287-17.817-65.698-10.022-.795-33.724 2.465-10.021 2.307-4.024 58.821z"></path>
  <path fill="#DDA783" d="M234.569 84.603s-14.476 5.409-20.203 12.885c-5.727 7.477-12.726 28.156-12.726 28.156l-5.409-6.681-23.225 12.726s21.396 39.769 25.134 42.791 6.045 2.704 6.045 2.704l32.292-41.36s.636-11.772 0-26.884c-.636-15.111-1.908-24.337-1.908-24.337zM288.336 80.626s12.885 2.704 20.044 12.408 24.498 37.065 24.498 37.065l11.294-23.225 22.907 12.249-17.816 38.974H320.31l-14.317-14.317.159 2.545s-8.272-.468-12.885-15.425c-4.613-14.959-4.931-50.274-4.931-50.274z"></path>
  <path fill="#38305E" d="m378.688 94.307 5.293 2.784s1.312 1.71 0 4.056-4.216 2.346-4.216 2.346l-5.428-2.941.378-.996 3.973-5.249z"></path>
  <path fill="#1E1D1D" d="M261.413 52.35s-2.307-2.943-.795-5.289c1.511-2.346 5.21-1.869 5.607 0 .398 1.869-1.869 5.289-1.869 5.289s1.551.398 2.187 1.034 1.113 1.79 1.113 1.79l-1.392 3.022-6.761-.199-1.392-2.824s.438-1.63 1.312-2.108c.876-.476 1.99-.715 1.99-.715z"></path>
  <path fill="#DDA783" d="m254.453 80.626 3.659-25.452s2.068 2.307 4.852 2.227c2.784-.08 4.693-2.227 4.693-2.227l5.25 24.418-18.454 1.034z"></path>
  <path fill="#DDA783" d="M269.282 62.738s2.881-2.314 5.585.39.159 6.628-.954 7.477c-1.114.848-2.589 1.63-2.589 1.63l-2.042-9.497zM257.017 62.79s-1.132-1.73-4.155-.563c-3.022 1.167-2.068 5.992-.848 7.37 1.22 1.379 3.721 2.115 3.721 2.115l1.282-8.922z"></path>
  <path fill="#1E1D1D" d="m270.336 67.64 2.941-3.24-2.672 4.491zM256.476 66.553l-3.097-2.013 2.928 3.188zM258.947 62.73s.437-.139.994.199c.557.338.855 1.332.855 1.332l-1.849-1.531zM263.958 64.102s.398-.815.895-1.193 1.213-.207 1.213-.207l-2.108 1.4z"></path>
  <path fill="#DDA783" d="m254.453 80.626-9.863 1.67s-.159 24.498 4.931 28.077 17.684 3.659 23.755.477 5.912-13.521 5.753-17.419c-.159-3.897-.716-13.601-.716-13.601l-5.409-.239-18.451 1.035z"></path>
  <path fill="#1E1D1D" d="m163.78 115.861 9.226 15.828 23.225-12.726-7.158-10.976z"></path>
  <path fill="#DDA783" d="m160.121 108.783 3.659 7.079 25.293-7.874-5.09-8.192 9.783-17.737s-3.659-2.148-7.636 0-5.329 5.647-5.329 5.647l-19.964.239s-1.591.08-2.386 1.988c-.795 1.909-.716 17.498-.318 18.055.397.556 1.988.795 1.988.795z"></path>
  <path fill="#1E1D1D" d="M180.801 92.398s.159 15.271-.795 15.987c-.954.716-19.884.398-19.884.398l3.659-.795.636-15.589 1.034 15.589h5.886l.875-15.589.636 15.589s5.568.239 6.005-.398c.437-.637 1.948-15.192 1.948-15.192z"></path>
  <path fill="#DDA783" d="m374.714 99.556-2.863 7.556-15.01-7.556s-2.647.398-3.164.199c-.517-.199-.825-2.207-.825-2.207l-4.384-2.207s.53-2.678 0-4.322-9.226-20.203-9.226-20.203 4.719-1.75 7.848.424c3.128 2.174 7.052 9.757 7.052 9.757l21.104-.371s2.916.689 3.182 3.553c.265 2.863.424 11.825 0 13.256-.426 1.432-3.714 2.121-3.714 2.121z"></path>
  <path fill="#1E1D1D" d="m351.012 80.626 3.078 17.545h6.784l.689-15.531.901 15.531h7.264l.477-15.637 1.06 15.637 6.872-.229s-3.372.818-5.387 1.295c-2.015.477-19.649-.545-19.649-.545l-2.089-18.066zM305.993 143.779l-9.544-10.737 9.704 13.282zM201.64 125.645l10.181 13.998-9.356-16.351zM229.041 227.683l42.009-1.503v-2.068l37.807-1.511-1.114-58.99-57.161 5.62-27.149 5.091 4.773 42.95z"></path>
  <path fill="#F8F2ED" d="m271.262 177.195-1.589 49.035 1.377-.05v-2.068z"></path>
  <path fill="#DDA783" d="M236.902 325.019h20.361l27.149 9.121 24.445-1.273V222.601l-37.807 1.511v2.068l-42.009 1.503z"></path>
  <path fill="#1E1D1D" d="m272.747 260.859-3.074-34.629 1.377-.05v-2.068l3.287 34.838z"></path>
  <path fill="#FFE9D7" d="m237.75 334.14-.848-9.121h20.361l.955 13.363-9.651 3.393zM308.857 332.867v7.954l-8.749 11.665-18.983-4.03 3.287-14.316z"></path>
  <path fill="#5C7F3F" d="m207.738 365.106 51.647-2.651-3.725-23.174s-7.092 1.009-9.001-.688c-1.909-1.697-1.167-4.772-3.076-5.196s-5.833.742-5.833.742 1.591 6.999-5.833 14.211c-7.423 7.211-17.604 10.393-20.256 12.09-2.651 1.697-3.923 4.666-3.923 4.666zM308.857 340.821s-1.988 7.927 1.829 12.461c3.818 4.534 9.226 7.238 10.897 8.59 1.67 1.352 2.545 3.235 2.545 3.235l-38.735-.848-.636-16.305s11.931 1.273 14.874-.318 1.829-3.738 3.579-5.329c1.75-1.592 5.647-1.486 5.647-1.486z"></path>
  <path fill="#FFE9D7" d="m324.128 365.106 1.644 5.409-41.996.689 1.617-6.946z"></path>
  <path fill="#38305E" d="M180.811 94.678s23.957-9.969 39.441-14.052c15.483-4.083 35.059-5.968 35.059-5.968l-.858 5.968s-20.839 1.644-33.777 5.462-39.944 15.272-39.944 15.272l.079-6.682zM271.807 74.479s21.62.367 41.027 2.806 38.798 8.698 38.798 8.698l.75 6.481s-33.291-8.285-47.184-9.982c-13.893-1.697-26.884-2.651-26.884-2.651l-5.409-.239-1.098-5.113z"></path>
  <path fill="#1E1D1D" d="m255.311 74.659-6.891 6.551 6.033-.584zM271.807 74.479l4.997 5.285-3.898-.172zM367.079 119.122l4.772-12.01-23.384-11.771-4.295 11.533zM257.75 31.811a1.322 1.322 0 0 1-1.843-.318l-3.352-4.748a1.322 1.322 0 1 1 2.161-1.525l3.352 4.748a1.322 1.322 0 0 1-.318 1.843zM276.945 38.692a1.322 1.322 0 0 1 .318-1.843l4.748-3.352a1.322 1.322 0 1 1 1.525 2.161l-4.748 3.352a1.322 1.322 0 0 1-1.843-.318zM267.168 32.321a1.323 1.323 0 0 1-.484-1.807l2.906-5.033a1.323 1.323 0 1 1 2.291 1.323l-2.906 5.033a1.322 1.322 0 0 1-1.807.484zM246.305 39.415a1.323 1.323 0 0 1-1.807.484l-5.033-2.906a1.323 1.323 0 1 1 1.323-2.291l5.033 2.906c.633.366.85 1.175.484 1.807z"></path>
  <path fill="#FFE9D7" d="M228.712 359.107a1.485 1.485 0 0 1-2.092-.179l-3.825-4.543a1.485 1.485 0 0 1 2.271-1.913l3.825 4.543a1.483 1.483 0 0 1-.179 2.092zM233.824 354.802a1.485 1.485 0 0 1-2.092-.179l-3.825-4.543a1.485 1.485 0 0 1 2.271-1.913l3.825 4.543a1.485 1.485 0 0 1-.179 2.092zM239.771 349.794a1.485 1.485 0 0 1-2.092-.179l-3.825-4.543a1.485 1.485 0 0 1 2.271-1.913l3.825 4.543a1.485 1.485 0 0 1-.179 2.092zM303.38 352.815a1.485 1.485 0 0 1 .442-2.053l4.988-3.222a1.485 1.485 0 1 1 1.611 2.495l-4.988 3.222a1.486 1.486 0 0 1-2.053-.442zM305.812 356.971a1.485 1.485 0 0 1 .442-2.053l4.988-3.222a1.485 1.485 0 1 1 1.611 2.494l-4.988 3.222a1.484 1.484 0 0 1-2.053-.441zM308.576 360.859a1.485 1.485 0 0 1 .441-2.053l4.989-3.222a1.485 1.485 0 0 1 1.612 2.494l-4.989 3.222a1.485 1.485 0 0 1-2.053-.441zM297.084 364.514s-.317-4.298-4.082-8.004-7.969-4.555-7.969-4.555l-.033-2.676s6.889.45 10.707 4.586 4.825 10.725 4.825 10.725l-3.448-.076zM236.902 363.609s4.048-13.84 10.658-16.107l6.61-2.267-1.356 2.749s-4.352 1.048-6.792 3.412c-2.439 2.364-5.762 12.042-5.762 12.042l-3.358.171z"></path>
  <path fill="#F8F2ED" d="m258.629 70.048 9.027-.318s.597 5.647-3.977 6.061c-4.409.398-5.05-5.743-5.05-5.743z"></path>
  <path fill="#1E1D1D" d="m539.873 89.068-5.777-5.739-1.424 1.434c-5.992-1.826-12.767-.366-17.489 4.387s-6.137 11.538-4.271 17.517l-1.424 1.434 5.777 5.739c6.841 6.795 17.895 6.759 24.69-.082 6.795-6.841 6.759-17.895-.082-24.69z"></path>
  <circle cx="521.809" cy="95.743" r="17.459" fill="#38305E" transform="rotate(-45.001 521.81 95.75)"></circle>
  <path fill="#5C7F3F" d="M403.931 126.069s-1.485-41.042 2.757-48.359 10.33-9.462 16.166-9.438c5.836.023 9.074 2.916 10.452 3.977 1.379 1.061 2.795 4.056 2.795 4.056l2.775 50.57-34.945-.806z"></path>
  <path fill="#1E1D1D" d="M419.774 55.5s-.011-.544.138-1.022c.149-.477.587-.994.587-.994s-3.735.258-4.61-2.393 2.545-4.984 4.401-3.208 1.75 3.314 1.75 3.314 1.829-.848 3.261-.212c1.432.636 1.75 2.877 1.75 2.877l-2.167 5.515-5.071-2.532-.039-1.345z"></path>
  <path fill="#CE8A41" d="m417.943 70.048 1.829-9.028s-3.301-1.352-3.261-3.579c.04-2.227 2.585-2.108 3.42-1.909.835.199 1.909 1.392 1.909 1.392l.756-1.67s1.312.477 2.744 0c1.432-.477 1.71-1.392 1.71-1.392l.239 4.772s1.869.08 1.909.756-1.75 1.829-1.75 1.829l1.153 9.505-10.658-.676z"></path>
  <path fill="#CE8A41" d="M501.338 130.894s-14.476 19.37-23.384 21.775-18.453-1.095-23.702-6.822-24.001-30.065-24.001-30.065-9.883-.265-14.973-8.67c-5.09-8.404-7.928-26.751 1.232-33.644s16.054-.424 19.023 2.227 31.073 44.223 33.406 46.238 4.878 1.909 6.787.318c1.909-1.591 7.211-7.424 7.211-7.424l18.401 16.067z"></path>
  <path fill="#1E1D1D" d="m417.93 99.98 12.321 15.802-1.512-.157zM482.939 114.827l12.832-14.157 17.869 15.377-12.302 14.847zM447.489 91.946l-3.804 3.49 4.113 5.059 3.792-2.706zM431.384 105.059l-5.51 5.109 4.377 5.614 5.851-4.919z"></path>
  <path fill="#CE8A41" d="m495.771 100.67 7.079-7.317 16.942 2.307s.199 1.114.199 2.028c0 .915-.239 2.545-.239 2.545s3.261-3.102 5.488-3.579c2.227-.477 4.454.597 4.454.597l-16.053 18.797-17.87-15.378zM404.461 140.279l-.53-14.21 34.945.805 9.654 12.159v3.155zM448.578 276.872l21.634-32.027-26.937-27.785-6.151 69.145-24.392 2.121-10.165-112.915 29.72-11.8 27.955 8.06 7.052 5.674s41.095 52.866 38.549 66.653c-2.545 13.787-31.179 49.207-31.179 49.207l-26.086-16.333z"></path>
  <path fill="#1E1D1D" d="M406.211 179.73s12.885-9.704 31.02-9.385c18.135.318 30.065 6.999 30.065 6.999l-17.816-26.407-.95-8.749-44.069-1.909s-7.636 7.477-7.158 19.725c.477 12.25 8.908 19.726 8.908 19.726zM406.211 179.73l37.065 37.33-.493 5.541z"></path>
  <path fill="#FFE9D7" d="m412.733 288.326 2.545 21.952 12.408-1.06 9.121-14.423.318-8.59z"></path>
  <path fill="#FFE9D7" d="m448.578 276.872-11.771 17.923 25.558 16.332 12.302-17.923z"></path>
  <path fill="#5C7F3F" d="m416.657 326.716-1.379-16.438 12.408-1.06 19.567 15.191-6.602 3.739z"></path>
  <path fill="#FFE9D7" d="m417.028 333.079-.371-6.363 23.994 1.432-3.526 4.215z"></path>
  <path fill="#5C7F3F" d="M437.329 294s14.322 9.651 16.935 9.651 4.84-5.647 7.624-6.045 7.156 3.791 7.156 3.791-2.781 6.31-2.622 9.333c.159 3.022.875 6.284.875 6.284l-14.11 7.795-22.702-20.014L437.329 294z"></path>
  <path fill="#FFE9D7" d="m427.686 309.218 2.798-4.424 22.702 20.013-1.877 1.909-4.056-2.307z"></path>
  <path fill="#1E1D1D" d="M419.176 57.666s.663.027 1.352.61.875 1.1.875 1.1l-2.227-1.71z"></path>
  <ellipse cx="424.525" cy="57.868" fill="#1E1D1D" rx=".358" ry=".746"></ellipse>
  <path fill="#1E1D1D" d="m521.328 69.646-5.777-5.739-1.424 1.434c-5.992-1.826-12.767-.366-17.489 4.387-4.722 4.753-6.137 11.538-4.271 17.517l-1.424 1.434 5.777 5.739c6.841 6.795 17.895 6.759 24.69-.082 6.795-6.841 6.759-17.895-.082-24.69z"></path>
  <circle cx="503.264" cy="76.319" r="17.459" fill="#38305E" transform="rotate(-45.001 503.265 76.325)"></circle>
  <circle cx="503.936" cy="75.67" r="6.582" fill="#D36101"></circle>
  <path fill="#1E1D1D" d="M499.569 78.215a6.582 6.582 0 0 1 10.264-5.456 6.576 6.576 0 0 0-5.897-3.671 6.582 6.582 0 0 0-3.683 12.038 6.555 6.555 0 0 1-.684-2.911z"></path>
  <path fill="#D36101" d="m425.381 97.62 12.119-9.85 17.915 22.039-12.118 9.851z"></path>
  <path fill="#1E1D1D" d="m426.84 97.733 8.764-7.124 16.49 20.286-8.764 7.124z"></path>
  <path fill="#F8F2ED" d="m428.162 97.888 7.345-5.97 15.228 18.733-7.345 5.97z"></path>
  <path fill="#689BEC" d="m436.755 93.51-3.19 11.08 1.595 1.962 3.799-10.332zM443.192 101.427l-2.948 11.379 1.809 2.226 3.782-10.354z"></path>
  <path fill="#FFE9D7" d="M459.746 310.117a1.484 1.484 0 0 1 1.228-1.703l5.862-.951a1.484 1.484 0 1 1 .475 2.931l-5.862.951a1.486 1.486 0 0 1-1.703-1.228zM450.203 322.177s.973-7.18-.936-12.774-13.073-13.614-13.073-13.614l-1.555 2.452s8.796 6.098 11.129 12.037 1.485 9.298 1.485 9.298l2.95 2.601zM415.452 312.345s7.384-1.271 15.032 2.918 10.788 12.161 10.788 12.161l-1.429.675-1.345-.08s-3.972-9.257-9.593-11.06-13.222-1.845-13.222-1.845l-.231-2.769z"></path>
  <path fill="#A35824" d="m350.946 154.412 51.622 55.065-13.696 16.753-13.158-7.832z"></path>
  <path fill="#1E1D1D" d="m205.99 170.986 4.704-6.647 1.65 1.167c5.588-2.83 12.514-2.557 17.983 1.313 5.469 3.87 8.03 10.31 7.221 16.521l1.65 1.167-4.704 6.647c-5.57 7.871-16.465 9.736-24.336 4.167-7.873-5.569-9.738-16.464-4.168-24.335z"></path>
  <path fill="#DE9641" d="m308.857 243.573 71.637-7.636s-14.362-54.649-21.53-69.017-12.946-16.713-12.946-16.713l-38.212 16.713 1.051 76.653z"></path>
  <circle cx="224.938" cy="174.417" r="17.459" fill="#38305E"></circle>
  <path fill="#A35824" d="m251.961 174.958-8.762-6.12-16.292 5.187s-.004 1.131.153 2.032.673 2.466.673 2.466-3.746-2.495-6.022-2.582-4.285 1.354-4.285 1.354l20.325 16.328 14.21-18.665z"></path>
  <path fill="#1E1D1D" d="m220.917 148.663 4.704-6.647 1.65 1.167c5.588-2.829 12.514-2.557 17.983 1.313s8.03 10.31 7.221 16.521l1.65 1.167-4.704 6.647c-5.57 7.871-16.465 9.736-24.336 4.167-7.872-5.568-9.737-16.464-4.168-24.335z"></path>
  <circle cx="239.865" cy="152.095" r="17.459" fill="#38305E"></circle>
  <circle cx="239.084" cy="151.613" r="6.582" fill="#D36101"></circle>
  <path fill="#1E1D1D" d="M243.827 153.362a6.58 6.58 0 0 0-11.05-3.608 6.576 6.576 0 0 1 5.177-4.631 6.582 6.582 0 0 1 5.698 11.224c.277-.94.355-1.954.175-2.985zM319.939 140.279s-.795-2.121-.424-4.136 1.432-3.102 1.432-3.102-2.015-2.572-2.068-5.965c-.053-3.394 1.697-4.454 2.386-3.659.689.795 2.863 6.098 2.863 6.098s2.916-10.181 5.992-9.916c3.075.265.371 9.014.371 9.014s9.863-5.143 11.931-.583c2.068 4.56-4.666 5.462-5.674 5.886-1.007.424-1.856.901-1.114 2.863s2.492 4.56.53 6.363c-1.962 1.803-3.606 1.75-3.606 1.75l-12.619-4.613z"></path>
  <path fill="#A35824" d="m326.673 151.786-2.704-4.772s-2.28 1.114-2.704 0c-.424-1.113 1.432-2.121 1.432-2.121l-2.757-4.613s2.439.106 3.367-.795.504-3.712.504-3.712.901 2.227 2.386 1.856.955-2.81 3.182-1.856c2.227.955 1.697 3.553 1.22 4.348-.477.795-1.22 1.326-1.22 1.326l6.416 6.363-9.122 3.976z"></path>
  <path fill="#1E1D1D" d="M327.522 139.922s-.08-1.379.557-1.975c.636-.597 1.352-.438 1.352-.438l-1.909 2.413z"></path>
  <path fill="#A35824" d="M253.658 206.296s25.77 19.725 31.338 19.248 39.928-27.52 39.928-27.52 5.249 7.477 16.226 1.909 14.953-24.975 11.931-37.065-9.704-15.748-16.067-15.908c-6.363-.159-24.418 16.226-34.201 24.418s-21.838 19.011-26.725 19.248-8.192-3.738-8.192-3.738l-14.238 19.408z"></path>
  <path fill="#1E1D1D" d="m346.319 178.537-21.396 19.487 1.023 1.109z"></path>
  <path fill="#DE9641" d="m253.658 206.296-15.908-12.673 14.211-18.665 15.934 11.931z"></path>
  <path fill="#1E1D1D" d="m296.398 187.398 23.404-21.706 13.27 14.307-23.405 21.706z"></path>
  <path fill="#F8F2ED" d="m298.549 187.42 20.938-19.418 11.106 11.974-20.938 19.42z"></path>
  <path fill="#1E1D1D" d="m328.945 194.361-5.165-5.754-4.619 4.284 5.221 5.557.541-.424zM306.345 178.163l-5.126-5.445 4.902-4.142 4.868 5.28zM351.807 305.559l43.11-18.294-14.423-51.328-71.637 7.636-10.817 1.378 22.27 41.254 19.089 2.81z"></path>
  <path fill="#F8F2ED" d="m327.151 269.449 12.248 19.566-2.949-.434z"></path>
  <path fill="#A35824" d="M351.807 305.559s34.201 55.783 41.201 62.172 10.658 5.276 17.021 4.163c6.363-1.114 25.77-10.658 25.77-10.658l-10.87-26.088s-8.378 4.772-13.15 2.386-16.862-50.268-16.862-50.268l-43.11 18.293zM254.294 329.898l30.463.111s-3.261-37.971 0-42.743 35.553-1.06 35.553-1.06l-22.271-41.254s-28.156 2.651-34.519 4.03-13.521 8.219-13.203 16.491c.318 8.271 3.977 64.425 3.977 64.425z"></path>
  <path fill="#DE9641" d="m401.598 235.937-12.726-9.707 13.696-16.753 10.483 12.09zM435.799 361.235l18.465-7.264-9.025-28.421-20.31 9.597z"></path>
  <path fill="#1E1D1D" d="m466.819 368.606 11.984-2.333-19.725-47.59-13.838 6.867-4.803 2.27s9.733 16.395 8.566 18.728-5.409 1.909-6.363 4.03 3.174 6.718 3.174 6.718 9.446-2.635 15.809.281c6.363 2.916 7.742 6.257 7.636 7.423-.107 1.167-2.44 3.606-2.44 3.606z"></path>
  <path fill="#FFE9D7" d="m468.41 314.308-9.332 4.375 19.725 47.59-11.984 2.333s-1.167.795-1.273 2.863c-.106 2.068.212 3.129.212 3.129l20.468-2.81-17.816-57.48z"></path>
  <path fill="#DE9641" d="m254.294 329.898 1.379 23.543 29.418 3.069-.334-26.502z"></path>
  <path fill="#1E1D1D" d="m228.245 371.204 57.652-4.401-.806-14.317s-22.896 1.803-24.036-.53-.61-5.621-1.67-7.211c-1.06-1.591-4.311-1.541-4.311-1.541s-4.703 11.509-11.278 17.342c-6.576 5.833-15.551 10.658-15.551 10.658z"></path>
  <path fill="#FFE9D7" d="M285.897 374.545v-7.742l-57.652 4.401s-2.426.954-3.539 1.856c-1.114.901-1.803 2.28-1.803 2.28l62.994-.795z"></path>
  <path fill="#38305E" d="M391.894 237.713s26.247 13.203 26.884 16.544c.636 3.341-2.386 7.238-3.897 8.033-1.511.795-28.315-13.999-28.156-15.908.158-1.908 3.918-9.305 5.169-8.669zM409.287 217.226s18.797 18.817 20.626 19.533 7.556-5.329 7.079-6.92-20.839-20.123-21.793-20.362c-.955-.238-7.052 6.271-5.912 7.749z"></path>
  <path fill="#1E1D1D" d="m400.962 242.46 15.557-18.076 6.869 6.647-13.712 16.335zM393.415 251.408s-1.839 3.565-1.441 4.281c.398.716 10.658 6.124 11.613 6.124.954 0 2.226-3.418 2.226-3.418l-12.398-6.987zM419.936 213.414s3.057-2.425 4.091-1.948 9.624 8.829 9.783 9.863c.159 1.034-1.971 3.055-1.971 3.055l-11.903-10.97z"></path>
  <path fill="#A35824" d="M410.93 228.991c-.702.248-9.491 9.385-9.969 10.658-.477 1.273-.371 3.606 2.121 5.196 2.492 1.591 6.681 4.825 8.749 4.242s9.279-10.234 9.279-11.931c.001-1.696-8.377-8.802-10.18-8.165z"></path>
  <path fill="#A35824" d="m413.051 221.567 2.802 3.591-11.96 13.896-2.295-3.117z"></path>
  <path fill="#1E1D1D" d="m418.865 241.315-10.765-9.693s2.844 4.58 5.382 6.648c2.539 2.068 5.383 3.045 5.383 3.045zM403.01 237.039l12.491 8.672s-3.768-1.367-6.927-3.582c-3.158-2.215-5.564-5.09-5.564-5.09z"></path>
  <path fill="#689BEC" d="m329.431 181.045-15.975-7.46-3.101 2.876 16.206 7.244zM304.823 181.591l18.049 5.535-2.647 2.455-19.321-4.356z"></path>
  <path fill="#FFE9D7" d="M247.031 366.923a1.485 1.485 0 0 1-2.092-.179l-3.825-4.543a1.485 1.485 0 0 1 2.271-1.913l3.825 4.543a1.483 1.483 0 0 1-.179 2.092zM251.592 362.106a1.485 1.485 0 0 1-2.092-.179l-3.825-4.543a1.485 1.485 0 0 1 2.271-1.913l3.825 4.543a1.485 1.485 0 0 1-.179 2.092zM256.103 356.855a1.485 1.485 0 0 1-2.092-.179l-3.825-4.543a1.485 1.485 0 0 1 2.271-1.913l3.825 4.543a1.485 1.485 0 0 1-.179 2.092zM451.545 358.468a1.485 1.485 0 0 1-.857-1.917l2.12-5.548a1.485 1.485 0 1 1 2.774 1.06l-2.12 5.548a1.486 1.486 0 0 1-1.917.857zM458.942 359.581a1.485 1.485 0 0 1-.857-1.917l2.12-5.548a1.485 1.485 0 1 1 2.774 1.06l-2.12 5.548a1.485 1.485 0 0 1-1.917.857zM465.623 362.727a1.485 1.485 0 0 1-.857-1.917l2.12-5.548a1.485 1.485 0 1 1 2.774 1.06l-2.12 5.548a1.486 1.486 0 0 1-1.917.857zM285.207 354.555s-12.142 1.856-16.862 5.885c-4.719 4.03-6.897 8.229-6.897 8.229l3.99-.305s3.437-5.486 8.633-7.713c5.197-2.227 11.32-2.812 11.32-2.812l-.184-3.284zM441.701 327.221s3.006 6.759 11.119 10.63c8.113 3.871 15.84 3.952 15.84 3.952l-1.335-3.221s-7.588-.996-13.061-3.7-9.821-9.014-9.821-9.014l-2.742 1.353z"></path>
  <path fill="#1E1D1D" d="M323.717 141.3s-.04-.835.384-1.1.954.08.954.08-.553-.089-.941.331c-.388.421-.397.689-.397.689z"></path>
</svg>
