<svg xmlns="http://www.w3.org/2000/svg" xml:space="preserve" viewBox="0 0 600 400" id="cleaning-room">
  <path fill="#C60000" d="M276.697 204.712h16.311v4.382h-16.311z"></path>
  <path fill="#D36101" d="M274.027 200.489h21.554v4.223h-21.554z"></path>
  <path fill="#435A2C" d="M280.265 200.489s-3.641-14.32 1.092-19.927c4.733-5.607 8.884-3.155 10.631 1.153 1.748 4.308-2.039 18.774-2.039 18.774h-9.684z"></path>
  <path fill="#282727" d="M281.758 200.489s-.765-7.803 0-13.41c.764-5.607 2.361-8.965 2.361-8.965s-1.451 5.692-1.888 11.188c-.437 5.495-.473 11.187-.473 11.187zM284.379 200.489s.546-10.68.619-14.175.278-8.744.278-8.744-.014 7.899 0 11.325c.013 3.427-.897 11.594-.897 11.594zM286.563 200.489s.947-10.279.765-14.903c-.182-4.624-.765-8.285-.765-8.285s1.092 4.207 1.274 8.649c.183 4.442-1.274 14.539-1.274 14.539zM288.202 200.489s2.002-8.204 1.857-13.483c-.146-5.279-1.857-9.462-1.857-9.462s2.039 4.11 2.403 8.88c.364 4.769-2.403 14.065-2.403 14.065z"></path>
  <path fill="#1E1D1D" d="M291.369 183.005a.187.187 0 0 1-.151-.296l1.966-2.703c.06-.082.177-.101.26-.041s.101.177.041.26l-1.966 2.703a.181.181 0 0 1-.15.077zM290.638 180.53a.187.187 0 0 1-.149-.298l.986-1.311a.187.187 0 0 1 .298.224l-.986 1.311a.189.189 0 0 1-.149.074zM287.619 178.709a.187.187 0 0 1-.186-.186v-3.167a.186.186 0 0 1 .372 0v3.167a.186.186 0 0 1-.186.186zM284.827 178.709a.185.185 0 0 1-.177-.128l-.709-2.148a.187.187 0 0 1 .118-.235.187.187 0 0 1 .235.118l.709 2.148a.187.187 0 0 1-.176.245zM281.685 181.403a.187.187 0 0 1-.139-.062l-1.566-1.747a.187.187 0 0 1 .278-.248l1.566 1.747a.187.187 0 0 1-.139.31zM280.338 185.335a.185.185 0 0 1-.102-.031l-2.221-1.456a.184.184 0 0 1-.054-.257.187.187 0 0 1 .257-.054l2.221 1.456a.186.186 0 0 1-.101.342zM280.119 189.777a.182.182 0 0 1-.079-.018l-2.694-1.274a.186.186 0 1 1 .158-.336l2.694 1.274a.186.186 0 0 1-.079.354zM277.935 193.819a.185.185 0 0 1-.034-.368l1.893-.364c.098-.023.198.047.217.148.02.1-.047.198-.148.217l-1.893.364a.216.216 0 0 1-.035.003zM277.935 197.314a.187.187 0 0 1-.023-.371l2.403-.291c.11-.01.194.06.207.162a.186.186 0 0 1-.162.207l-2.403.291-.022.002zM291.806 198.879a.182.182 0 0 1-.079-.018l-2.003-.947a.186.186 0 1 1 .158-.336l2.003.947a.186.186 0 0 1-.079.354zM293.335 195.712a.184.184 0 0 1-.057-.009l-2.913-.946a.185.185 0 1 1 .115-.353l2.913.946a.185.185 0 0 1 .119.234.187.187 0 0 1-.177.128zM294.61 190.615h-3.24a.186.186 0 0 1 0-.372h3.24a.186.186 0 0 1 0 .372zM291.624 186.391a.186.186 0 0 1-.07-.359l1.966-.801a.187.187 0 0 1 .141.345l-1.966.801a.176.176 0 0 1-.071.014zM247.522 211.695l-.017-.001a.186.186 0 0 1-.168-.203l1.311-14.053c.009-.102.094-.185.203-.168.102.009.177.1.168.203l-1.311 14.053a.188.188 0 0 1-.186.169zM264.221 211.452a.187.187 0 0 1-.185-.165l-1.553-13.81a.186.186 0 0 1 .164-.206.183.183 0 0 1 .206.164l1.553 13.81a.186.186 0 0 1-.164.206l-.021.001z"></path>
  <path fill="#282727" d="M244.998 196.411h20.583v2.087h-20.583z"></path>
  <path fill="#38305E" d="M246.988 187.237h18.204s1.359.583.728 1.505c-.631.922-2.524 1.019-2.476 1.505.049.485-.146 2.573-.583 3.786-.437 1.214-1.942 2.379-1.942 2.379h-11.602s-1.699-1.262-2.087-3.058c-.388-1.797-.242-6.117-.242-6.117z"></path>
  <path fill="#6A8C53" d="m247.91 163.304 3.155-1.845s4.558 5.534 5.459 11.602c.901 6.068.415 14.175.415 14.175h-1.505s-.146-7.233-1.262-12.039c-1.116-4.805-6.262-11.893-6.262-11.893z"></path>
  <path fill="#6A8C53" d="m247.667 178.329 2.039-2.136s2.767 1.553 3.738 3.665c.971 2.112 1.99 7.379 1.99 7.379h-1.505s-1.068-3.519-2.767-5.522c-1.698-2.003-3.495-3.386-3.495-3.386zM255.786 170.032s-.642-4.835-1.006-7.128-.91-3.422-.91-3.422l3.714-.728s1.165 4.842 1.493 10.595c.328 5.752-.91 17.888-.91 17.888h-1.226l-1.155-17.205z"></path>
  <path fill="#6A8C53" d="m268.129 175.028-3.01-2.033s-3.083 2.47-4.102 4.144c-1.019 1.675-2.438 5.462-2.438 5.462l-.414 4.635h.74s.971-3.908 2.985-6.335c2.015-2.427 6.239-5.873 6.239-5.873z"></path>
  <path fill="#1E1D1D" d="M254.779 187.423c-.1 0-.183-.08-.186-.181-.001-.028-.097-2.763-1.928-5.135-1.86-2.408-3.334-3.698-3.348-3.711a.185.185 0 0 1-.018-.262.185.185 0 0 1 .262-.018c.015.013 1.516 1.327 3.399 3.764 1.908 2.472 2.002 5.236 2.005 5.352a.186.186 0 0 1-.181.191h-.005zM256.524 187.423l-.016-.001a.185.185 0 0 1-.17-.18c-.003-.102-.274-10.177-1.085-13.849-.807-3.651-4.832-9.292-4.872-9.349a.185.185 0 0 1 .043-.259.184.184 0 0 1 .259.043c.167.233 4.111 5.76 4.933 9.486.613 2.775.92 9.14 1.037 12.206.467-2.647 1.3-7.872 1.327-11.633.036-5.203-2.119-12.688-2.141-12.762a.187.187 0 0 1 .127-.231.188.188 0 0 1 .23.127c.022.076 2.192 7.611 2.155 12.869-.036 5.248-1.629 13.304-1.645 13.384a.185.185 0 0 1-.182.149zM258.165 187.423a.186.186 0 0 1-.178-.24c.061-.204 1.516-5.002 2.877-6.946 1.349-1.927 4.351-5.417 4.381-5.452a.186.186 0 1 1 .282.242c-.03.035-3.02 3.511-4.358 5.423-1.327 1.894-2.811 6.791-2.826 6.84a.186.186 0 0 1-.178.133z"></path>
  <path fill="#D36101" d="M415.678 100.197h71.263v78.326h-71.263z"></path>
  <path fill="#F8F2ED" d="M419.562 104.663h63.107v67.854h-63.107z"></path>
  <path fill="#689BEC" d="m465.046 104.663-45.484 22.78v5.375l52.864-28.155zM482.669 104.663l-63.107 34.697v13.41l63.107-35.387zM419.562 162.77l63.107-35.439v15.682l-54.661 29.504h-8.446z"></path>
  <path fill="#282727" d="M450.072 170.55h5.024v4.66h-5.024zM451.115 167.928h2.621v2.621h-2.621z"></path>
  <path fill="#38305E" d="M412.96 96.12h76.505v4.078H412.96z"></path>
  <g fill="#DE9641">
    <path d="M515.207 97.396s-.631 7.476-2.621 8.981-4.757 1.893-4.757 1.893 3.981.485 5.631 3.01 1.893 8.228 1.893 8.228 1.127-7.884 2.621-9.43c1.056-1.092 4.442-1.626 4.442-1.626s-3.665-1.274-5.655-3.58c-1.146-1.328-1.554-7.476-1.554-7.476zM495.794 88.248s-.3 3.55-1.245 4.265-2.259.899-2.259.899 1.891.231 2.674 1.429c.784 1.199.899 3.908.899 3.908s.535-3.744 1.245-4.478c.501-.519 2.11-.772 2.11-.772s-1.741-.605-2.686-1.7c-.545-.631-.738-3.551-.738-3.551zM499.652 112.132s-.3 3.55-1.245 4.265-2.259.899-2.259.899 1.89.231 2.674 1.429c.784 1.199.899 3.908.899 3.908s.535-3.744 1.245-4.478c.501-.519 2.11-.772 2.11-.772s-1.741-.605-2.686-1.7c-.544-.631-.738-3.551-.738-3.551zM492.32 128.801s-.229 2.716-.952 3.263-1.728.688-1.728.688 1.446.176 2.046 1.094c.6.917.688 2.989.688 2.989s.409-2.864.952-3.426c.384-.397 1.614-.591 1.614-.591s-1.332-.463-2.055-1.301c-.417-.482-.565-2.716-.565-2.716z"></path>
  </g>
  <path fill="#DE9641" d="M154.722 209.094h180.21c5.345 0 9.678 4.333 9.678 9.678v79.648l-174.661-1.863-10.777-18.495-4.45-68.968z"></path>
  <path fill="#D36101" d="M344.61 298.421h-28.156v-44.29c0-7.775 6.303-14.078 14.078-14.078 7.775 0 14.078 6.303 14.078 14.078v44.29z"></path>
  <path fill="#E8A256" d="M158.22 263.316h158.234v35.104H158.22z"></path>
  <g fill="#282727">
    <path d="M193.941 230.186c-1.211 1.734-2.588 3.315-4.005 4.859-1.434 1.528-2.909 3.018-4.551 4.352 1.21-1.736 2.587-3.316 4.006-4.859 1.435-1.527 2.91-3.016 4.55-4.352z"></path>
    <path d="M184.803 229.967c1.609 1.274 3.06 2.709 4.472 4.182 1.395 1.489 2.751 3.018 3.939 4.701-1.616-1.278-3.064-2.71-4.472-4.182-1.392-1.487-2.744-3.013-3.939-4.701zM249.666 230.307c-1.212 1.734-2.588 3.315-4.005 4.859-1.434 1.528-2.909 3.018-4.551 4.352 1.21-1.736 2.587-3.316 4.005-4.859 1.435-1.526 2.91-3.016 4.551-4.352z"></path>
    <path d="M240.528 230.089c1.609 1.274 3.06 2.709 4.472 4.182 1.395 1.489 2.751 3.018 3.938 4.701-1.616-1.278-3.064-2.71-4.472-4.182-1.392-1.488-2.744-3.014-3.938-4.701zM297.557 230.034c-1.211 1.734-2.588 3.315-4.005 4.859-1.434 1.528-2.909 3.018-4.551 4.352 1.21-1.736 2.587-3.316 4.005-4.859 1.435-1.526 2.91-3.016 4.551-4.352z"></path>
    <path d="M288.418 229.816c1.609 1.274 3.06 2.709 4.472 4.182 1.395 1.489 2.751 3.018 3.939 4.701-1.616-1.278-3.064-2.71-4.472-4.182-1.392-1.488-2.744-3.014-3.939-4.701z"></path>
  </g>
  <path fill="#282727" d="m336.843 298.421-.583 12.991h-3.883l-5.049-12.991zM312.053 298.421l-.583 12.991h-3.883l-5.049-12.991z"></path>
  <circle cx="189.238" cy="234.804" r="2.776" fill="#D36101"></circle>
  <circle cx="244.962" cy="234.925" r="2.776" fill="#D36101"></circle>
  <circle cx="292.853" cy="234.652" r="2.776" fill="#D36101"></circle>
  <path fill="#D36101" d="M446.455 311.752h17.573l2.816-30.194-22.137.582z"></path>
  <path fill="#6A8C53" d="M454.029 281.895s-8.157-12.57-11.943-24.9c-3.786-12.33-3.786-21.359-3.786-21.359h7.185s1.553 17.087 3.01 26.02c1.455 8.931 5.534 20.239 5.534 20.239zM450.63 232.188c.291-.34 5.728-9.718 5.728-9.718s-1.553 33.844-1.748 41.805c-.194 7.961 1.165 17.573 1.165 17.573l-1.262.046s-3.883-17.048-4.757-29.712c-.874-12.663.874-19.994.874-19.994zM463.154 242.528l7.087 3.786s-11.068 18.253-11.845 24.757c-.777 6.505-1.068 10.823-1.068 10.823l-.971-.061s-.874-14.257.485-22.218c1.361-7.961 6.312-17.087 6.312-17.087z"></path>
  <path fill="#6A8C53" d="M458.397 281.895s.68-5.434 1.699-8.25 4.903-6.602 4.903-6.602l2.136 3.301s-4.757 3.689-6.262 6.699-2.476 4.852-2.476 4.852z"></path>
  <path fill="#C60000" d="m446.121 306.093 18.141 3.147-.234 2.512h-17.573zM446.005 304.13l18.87-1.461.344-3.69-19.3 3.691zM445.618 297.574l19.772-.431.164-1.753-20.147-1.398zM445.004 287.163l.318 5.386 20.809-3.349.149-1.595z"></path>
  <path fill="#1E1D1D" d="M458.397 282.081a.186.186 0 0 1-.178-.24c.012-.039 1.179-3.87 2.189-6.468 1.023-2.63 4.045-5.482 4.173-5.602a.186.186 0 0 1 .254.272c-.031.028-3.088 2.914-4.08 5.466-1.005 2.585-2.168 6.402-2.18 6.44a.186.186 0 0 1-.178.132zM456.941 281.744a.186.186 0 0 1-.186-.18c-.004-.108-.373-10.878.974-17.81 1.35-6.941 6.764-16.275 6.818-16.369a.183.183 0 0 1 .254-.067.186.186 0 0 1 .067.254c-.054.093-5.437 9.373-6.775 16.253-1.339 6.889-.97 17.618-.967 17.725a.187.187 0 0 1-.18.193l-.005.001zM455.096 281.744a.186.186 0 0 1-.184-.159c-.017-.119-1.758-12.094-2.527-24.579-.768-12.489-.007-25.696 0-25.827.006-.102.088-.173.197-.175a.187.187 0 0 1 .175.197c-.008.132-.767 13.317 0 25.782.768 12.469 2.505 24.429 2.522 24.548a.185.185 0 0 1-.183.213zM454.029 282.081a.188.188 0 0 1-.168-.105c-.047-.097-4.704-9.774-8.117-19.093-3.42-9.338-3.744-24.76-3.747-24.914a.186.186 0 0 1 .182-.19.189.189 0 0 1 .19.182c.003.154.326 15.514 3.724 24.794 3.407 9.301 8.056 18.962 8.103 19.059a.187.187 0 0 1-.167.267z"></path>
  <path fill="#282727" d="M389.935 150.029s5.088.46 5.088-3.29-1.93-4.915-1.93-4.915 4.187-3.75 2.221-7.755-8.01-3.313-9.684-4.151c-1.675-.837-.182-4.478-1.456-6.517s-4.223-1.82-6.044-1.456c-1.82.364-2.46.692-2.46.692s-1.059-4.794-4.093-3.823-.874 5.413-.121 6.092c.752.68 1.763 1.236 1.763 1.236l7.169 12.332 9.547 11.555z"></path>
  <path fill="#A35824" d="m371.649 137.027.85-6.587s-2.015-1.044-1.602-1.505c.413-.461 1.942-.631 1.942-.631l.558-3.18s.898 1.723 2.039 2.063c1.141.34 1.626.097 1.626.097s.898-1.408 2.087-.461.874 3.01-.243 3.374-2.112.218-2.112.218 2.087 3.325 2.379 4.418.171 2.08.171 2.08l-7.55 1.003-.145-.889z"></path>
  <path fill="#DE9641" d="m350.095 195.78 44.927-10.922s-4.515-37.791-6.99-41.869c-2.476-4.078-5.097-5.37-8.01-5.962-2.913-.592-6.844.06-6.844.06l-23.568 54.13.485 4.563z"></path>
  <path fill="#435A2C" d="M350.095 195.78s5.388 52.185 5.777 54.709c.388 2.524 3.471 7.039 7.33 7.913 3.859.874 7.791 0 7.791 0l4.806 30.291 17.622-.655.413-37.743 6.99-2.816-6.602-17.087s1.019-39.321.801-41.068c-.218-1.748-.87-4.255-.87-4.255l-44.058 10.711z"></path>
  <path fill="#282727" d="m361.455 198.693 9.538 59.709-1.261.207zM394.222 230.392l-.389 19.903 2.417-.973-1.385-17.265z"></path>
  <path fill="#A35824" d="M375.799 288.694s1.019 8.301.801 10.995c-.218 2.694-1.78 3.454-1.78 3.454s-2.758-.323-4.093.697c-1.335 1.019-1.117 3.495-.316 4.587s1.966 1.493 1.966 1.493l18.641-.182s1.638.328 2.112-3.35c.473-3.677.291-18.35.291-18.35l-17.622.656z"></path>
  <path fill="#282727" d="m384.719 303.184-9.899-.041 1.635.296s-1.559 1.493-1.635 2.712c-.076 1.22 1.89 3.726 1.89 3.726s-1.329-2.706-1.165-3.799c.164-1.092 1.565-2.549 1.565-2.549h4.405s-.892 2.385-.073 4.096 2.494 2.181 2.494 2.181-2.339-1.89-2.325-3.583c.013-1.693.45-2.712.45-2.712l2.658-.327zM391.054 296.169s.364.934.121 1.626c-.243.692-1.736 1.183-1.736 1.183s1.132-.608 1.432-1.511c.301-.902.183-1.298.183-1.298z"></path>
  <path fill="#A35824" d="M394.222 230.392s17.622-7.816 18.592-7.864c.971-.049 2.33-.34 3.301 1.068.971 1.408 7.67 17.621 7.67 17.621s.922 2.913-1.262 4.32c-2.184 1.408-4.223-.388-4.952-1.505-.728-1.117-.922-1.505-.922-1.505s-1.408-.583-3.252-.291c-1.845.291-12.573 5.243-12.573 5.243l-6.602-17.087z"></path>
  <path fill="#282727" d="m411.515 232.043 5.134 10.486v-1.092s1.99.607 3.568-.073 2.348-3.08 2.348-3.08-.94 2.182-2.785 2.546-3.422-.097-3.422-.097l-1.918-4.126s1.82.413 3.35-.485c1.529-.898 2.538-3.154 2.538-3.154s-2.071 2.281-3.287 2.645c-1.216.364-3.28.049-3.28.049l-2.246-3.619zM401.916 231.509s1.141-1.699 2.694-1.238 1.432 1.917 1.432 1.917-.372-1.29-1.796-1.432c-1.424-.142-2.33.753-2.33.753zM377.083 129.136s.118-.674.528-1.001c.41-.328 1.065-.182 1.065-.182l-1.593 1.183z"></path>
  <path fill="#598CB2" d="m326.171 164.653-.651-13.873-.23-2.136s-1.214-5.68-1.845-6.214c-.631-.534-15.194.68-15.631 1.262-.437.583-.534 2.961-.534 2.961s-19.56-.146-20.071.194c-.512.34.411 20.388.411 20.388s0 3.398.583 3.689 36.893-.291 37.525-.583c.629-.289.443-5.688.443-5.688zm-3.928 1.419s-1.129.546-2.949.728c-1.82.182-5.753 0-5.971-.437-.218-.437-1.129-17.658-.91-17.931.218-.273 7.063-1.729 7.464-1.256s.473 2.512.473 2.512l.146 1.019 1.748 13.858-.001 1.507z"></path>
  <path fill="#A1BDCE" d="m257.07 153.159 30.549 14.078s1.893.049 2.427-3.689-2.801-5.682-2.801-5.682l-29.08-8.056-1.095 3.349z"></path>
  <path fill="#598CB2" d="M254.197 154.008s3.204.874 4.126-1.626-1.553-5.073-1.553-5.073l-2.573 6.699z"></path>
  <path fill="#395B6D" d="M255.022 147.188c-1.065.399-1.942 2.937-2.087 4.223-.146 1.286 1.262 2.597 1.262 2.597s1.541-1.117 2.166-3.41.407-3.289.407-3.289-.389-.631-1.748-.121zM293.445 146.64v-1.831l11.213.243v1.587z"></path>
  <path fill="#A35824" d="M368.008 175.343s2.621 3.535 8.738 2.447 7.864-4.68 8.155-8.467c.291-3.786.485-23.981-1.165-26.311-1.651-2.33-3.884-3.301-3.884-3.301s-5.825-4.272-10.971-2.039-18.35 29.903-19.223 30c-.874.097-16.602-17.185-17.573-17.67s-6.796-1.359-6.796-1.359l.23 2.136-5.024-.073-.146-1.019s-1.784.473-2.148 1.019c-.364.546 1.129 12.197 2.512 13.362s6.08-.073 7.5 1.165 17.27 24.381 21.396 25.983 7.282-1.311 10.049-4.175c2.767-2.863 8.35-11.698 8.35-11.698z"></path>
  <path fill="#282727" d="M368.008 175.343s14.078-21.456 14.466-24.855c.388-3.398 0-5.146 0-5.146s1.371 4.053.643 7.257c-.728 3.204-13.635 24.022-13.635 24.022s-.46-.284-.8-.597c-.34-.311-.674-.681-.674-.681z"></path>
  <ellipse cx="374.145" cy="128.011" fill="#282727" rx=".303" ry=".68"></ellipse>
  <ellipse cx="414" cy="309.043" fill="#282727" rx="8.565" ry=".834"></ellipse>
  <path fill="#282727" d="M507.062 152.77s-1.772-1.505-1.189-3.422c.583-1.917 5.121-4.636 5.121-4.636l-.194-9.66s1.93-1.565 4.041-.765c2.112.801 1.565 4.151 1.565 4.151s1.966.473 2.694.255c.728-.218 1.311-1.129 2.767-1.274 1.456-.146 2.621 2.184 2.621 2.184l-17.426 13.167z"></path>
  <path fill="#DDA783" d="m510.181 149.105-.218-7.791s-2.439-.51-2.439-1.274c0-.765 2.658-.947 2.658-.947l.619-4.041s.765 1.019 2.148 1.238l1.383.218-.401 1.566s2.257-1.93 3.24-.437.109 2.803-.364 2.949c-.473.146-1.274.073-1.274.073l.728 2.658-6.08 5.788z"></path>
  <path fill="#38305E" d="m504.247 155.149 12.087 12.597-3.763 3.641s.632 1.893 2.088 2.694 3.568.801 3.568.801l7.864 16.165 31.529-13.908s-20.753-32.185-24.757-35.061c-4.005-2.876-8.811-3.168-13.18-1.274-4.368 1.894-15.436 14.345-15.436 14.345z"></path>
  <path fill="#282727" d="m529.222 156.533-12.888 11.214-3.763 3.641s.364.848.548 1.13c.184.282.538.736.538.736l15.565-16.721z"></path>
  <path fill="#DDA783" d="M504.247 155.149s-7.743 8.01-9.151 8.107-8.155-7.379-8.155-7.379l-9.757 9.66s10.583 14.466 15.485 16.553c4.903 2.087 8.301-.534 10.583-2.039s9.32-8.665 9.32-8.665l3.763-3.641-12.088-12.596z"></path>
  <path fill="#38305E" d="m533.863 143.013 7.156 2.888-1.563 4.294z"></path>
  <path fill="#DDA783" d="M550.451 166.215s1.89-12.777.507-14.598c-1.383-1.82-9.939-5.716-9.939-5.716l-1.562 4.294 10.994 16.02z"></path>
  <path fill="#282727" d="m504.247 155.149 10.875 13.77 1.212-1.173z"></path>
  <path fill="#38305E" d="m477.183 165.538-2.864-3.504 7.173-13.074 5.449 6.917z"></path>
  <path fill="#DDA783" d="M467.693 143.571v2.694h-6.808s-1.602.218-2.039 2.039c-.437 1.82 3.714 10.704 4.915 11.323 1.201.619 7.791.036 8.519.437.728.401 2.039 1.97 2.039 1.97l7.172-13.074s-3.823-4.587-5.133-5.024c-1.311-.437-8.665-.365-8.665-.365z"></path>
  <path fill="#DDA783" d="M461.14 143.735s.036.801.401 1.438c.364.637.765 1.092.765 1.092h2.057v-2.421l-3.223-.109z"></path>
  <path fill="#282727" d="m523.64 209.324 3.577-18.773 30.404-13.412s6.893 8.107 9.515 15.291 1.456 14.466 1.456 14.466l-28.35 9.32-.786-4.272-15.816-2.62z"></path>
  <path fill="#598CB2" d="M465.046 159.872v2.898h2.38v-2.837zM464.362 146.266v-13.872h3.513l-.182 13.872z"></path>
  <path fill="#38305E" d="m453.676 129.882 1.347 2.221 9.339.291h3.513l8.665-.218 1.238-2.294z"></path>
  <path fill="#282727" d="M450.472 127.443h30v2.439h-30zM464.362 132.394l3.485 2.149.028-2.149z"></path>
  <path fill="#F8F2ED" d="m539.456 211.946-1.496-14.054v13.806z"></path>
  <path fill="#DDA783" d="m568.592 206.897-3.398 97.233s0 2.84-.692 3.824c-.692.983-1.966 1.529-1.966 1.529l-23.192-.473s-1.966-1.748-1.711-3.859c.255-2.112 2.585-2.294 2.585-2.294l4.187.036s2.828-1.578 4.041-4.151c1.214-2.573.777-4.854.437-7.282-.34-2.427-8.756-75.871-8.756-75.871l28.465-8.692z"></path>
  <path fill="#282727" d="M562.063 297.213s.947 1.044.728 2.427c-.218 1.384-2.16 1.748-2.16 1.748s1.82-1.031 1.82-1.99c0-.959-.388-2.185-.388-2.185zM544.405 302.893h8.434l-3.374.704s-1.917.437-1.651 2.379c.267 1.942 1.868 3.245 1.868 3.245l-1.382-.028s-1.287-1.154-1.505-2.707c-.219-1.553 1.092-2.985 1.092-2.985l-3.859-.073s-1.481.631-1.432 2.282c.049 1.65 1.407 3.396 1.407 3.396l-.727-.015s-1.699-.954-1.724-2.532c-.024-1.578 1.286-3.131 1.286-3.131l-2.621-.57 4.188.035z"></path>
  <path fill="#DDA783" d="M523.64 209.324S509.999 286.8 508.3 289.13c-1.699 2.33-4.175 2.621-5.049 2.621-.874 0-2.087-.583-2.087-.583s-.825-.922-2.427-1.262-3.495.971-3.689 2.67 1.651 3.204 1.651 3.204l18.592 10.257s2.913 1.102 4.757-1.034c1.845-2.136 22.146-71.398 22.146-71.398l-2.737-21.661-15.817-2.62z"></path>
  <path fill="#282727" d="M519.562 293.669s.291 1.723-1.311 2.112c-1.602.388-2.403-1.893-2.403-1.893s1.044 1.568 2.306 1.262c1.263-.306 1.408-1.481 1.408-1.481zM509.944 295.447l-8.78-4.278s-.813-.291-2.051.601-1.675 2.712-1.657 3.386c.018.673.126 1.113.126 1.113s.311-2.515 1.439-3.516c1.129-1.001 2.184-1.111 2.184-1.111l2.403 1.329s-2.239.546-2.876 1.948-.376 2.88-.376 2.88l.373.206s-.106-2.212 1.205-3.232c1.311-1.019 2.694-1.202 2.694-1.202l5.316 1.876zM540.315 239.987l-.859-28.041 2.737 21.66z"></path>
  <ellipse cx="511.468" cy="138.213" fill="#282727" rx=".303" ry=".68"></ellipse>
  <ellipse cx="505.509" cy="309.919" fill="#282727" rx="12.694" ry=".834"></ellipse>
  <path fill="#282727" d="m539.456 150.195.46-1.262-6.053-5.92zM515.325 139.605s.202-.85.729-1.174c.526-.324.876-.189.876-.189l-1.605 1.363z"></path>
  <path fill="#DDA783" d="M192.882 206.461s3.79 3.555 3.79 4.355c0 .801-1.895 8.629-1.895 8.629s3.388.036 4.553-1.347c1.165-1.384 1.962-3.562 1.962-3.562l1.388-7.333-1.575-2.018-8.223 1.276z"></path>
  <path fill="#282727" d="M201.104 205.186s-2.466 2.827-3.886 2.973c-1.42.146-4.336-1.698-4.336-1.698l8.222-1.275z"></path>
  <path fill="#DDA783" d="M163.735 151.738s33.982 38.46 39.855 46.033c5.873 7.573 11.541 15.813 11.541 17.27 0 1.456-3.35 4.806-4.114 4.733s-12.015-5.971-11.796-7.1 3.459-5.47 3.459-5.47l.655.628s.983-.51 1.274-1.347.109-2.112.109-2.112l-1.498-1.751-41.572-22.902-5.388-22.241 7.475-5.741z"></path>
  <path fill="#282727" d="M156.259 157.479s14.078 18.155 16.893 19.903c2.816 1.748 14.855 10.316 14.855 10.316h-1.82s-11.092-2.063-18.956-8.568c-7.865-6.505-10.972-21.651-10.972-21.651z"></path>
  <circle cx="64.916" cy="302.941" r="7.646" fill="#282727"></circle>
  <path fill="#282727" d="M140.031 125.109s.5-1.493.864-2.11.704-1.005.704-1.005-3.034.485-3.35-1.723c-.316-2.209 1.699-2.791 2.913-1.99 1.214.801 1.594 2.5 1.594 2.5s2.654-.437 3.746 1.068.765 3.629.765 3.629l-5.813 2.973-1.423-3.342z"></path>
  <path fill="#DDA783" d="m137.291 133.923 2.549-4.842s-2.075-1.129-1.602-2.913c.473-1.784 2.039-1.129 2.549-.583s.874 1.347.874 1.347 1.493-4.041 2.039-3.932.51 1.638 1.456 2.148c.947.51 2.112.328 2.112.328l-.619 2.476s1.42-.039 1.566.509c.146.547-1.893 1.166-1.893 1.166l-.765 7.536-8.266-3.24z"></path>
  <path fill="#282727" d="M139.596 126.642s.437.049.68.388c.243.34.182.983.182.983l-.862-1.371z"></path>
  <path fill="#D36101" d="M112.375 169.227s7.058-30.067 16.311-33.301 14.049-1.214 18.626 1.238c4.578 2.451 16.422 14.575 16.422 14.575l-7.476 5.741-3.786-5.243-16.796 10.971 13.01 18.932-36.311-12.913z"></path>
  <path fill="#282727" d="m125.385 146.605 10.291 16.602s-2.573-1.942-4.854-5.825-5.437-10.777-5.437-10.777zM152.473 152.236l-9.717-15.534s5.785 6.505 7.436 9.272c1.65 2.767 2.281 6.262 2.281 6.262z"></path>
  <path fill="#DDA783" d="M156.259 157.479s11.214 18.196 13.689 20.311c2.476 2.116 16.238 9.907 16.238 9.907h1.82l2.087 2.84s5.049-.874 5.437-.534 8.01 10.583 8.058 11.505c.049.922-2.087 4.515-6.117 5.631-4.029 1.117-37.136-12.67-41.214-15.971s-7.573-9.029-7.573-9.029l-13.01-18.932 16.796-10.971 3.789 5.243z"></path>
  <path fill="#38305E" d="M105.191 286.412h23.301l5.243-59.806 12.039 60.971 21.942-1.553-17.058-100.993-1.971-2.891-36.311-12.913s-2.524 10.777-2.913 20.097c-.389 9.32-4.272 97.088-4.272 97.088z"></path>
  <path fill="#282727" d="m203.22 202.622 1.498 1.751s.312 1.439-.109 2.112-1.274 1.347-1.274 1.347l-.655-.628-1.575-2.018 2.115-2.564z"></path>
  <path fill="#FFC794" d="m191.247 187.261 7.791-1.505s.801 1.796 0 3.398-2.385 2.272-2.385 2.272-.77-1.347-1.122-1.422c-.352-.075-2.29.066-2.29.066l-1.994-2.809z"></path>
  <path fill="#282727" d="m205.895 213.499-4.08 1.377.542.338zM210.313 216.363l-3.202 1.546.502.265zM197.415 192.439l-2.094 2.904 2.476-2.391zM200.482 196.647l-2.329 4.109 2.834-3.394zM170.677 167.722l17.33 19.976 2.087 2.84 3.147-.468-1.994-2.809-18.095-21.529s-.752-.316-1.553.291c-.801.607-.922 1.699-.922 1.699z"></path>
  <path fill="#FFE9D7" d="M162.13 166.77s1.994-1.354 4.591-.748c2.597.607 3.956 1.699 3.956 1.699l2.476-1.99s-2.087-2.354-6.019-3.034c-3.932-.68-6.683 1.455-6.683 1.455l1.679 2.618zM132.667 186.46s.049 1.068.874 1.796 2.476.825 2.476.825 5.175-5.819 6.456-7.257c1.282-1.438 3.792-3.208 3.792-3.208l-2.292-3.335s-3.685 2.32-5.311 4.043-5.995 7.136-5.995 7.136z"></path>
  <path fill="#282727" d="m133.735 226.606 3.556-36.068-2.403 41.906zM58.904 235.756s-.51 1.274 1.019 2.257 2.112.51 2.112.51 6.942-7.16 18.884-8.811 26.02-6.408 35.437-15.34c9.418-8.932 19.66-25.291 19.66-25.291l-3.35-2.621s-15.243 23.738-25.437 30.049-36.105 11.444-40.571 13.677-7.754 5.57-7.754 5.57z"></path>
  <path fill="#FFE9D7" d="M53.079 251.703s.146-7.573 2.184-11.541c1.292-2.515 3.641-4.405 3.641-4.405l3.131 2.767s-3.131 3.386-3.495 5.68c-.364 2.294-.801 7.5-.801 7.5l-4.66-.001z"></path>
  <path fill="#DDA783" d="M145.774 287.577s2.961 19.466 5.34 20.922 31.699.243 31.699.243 2.961-1.359 2.476-4.369c-.485-3.01-3.398-3.155-3.398-3.155l-5.461.364s-4.223-.364-6.481-5.024c-2.257-4.66-2.233-10.534-2.233-10.534l-21.942 1.553z"></path>
  <path fill="#282727" d="M150.24 291.169s1.359.85 1.456 2.33c.097 1.481-2.039 2.087-2.039 2.087s1.729-1.254 1.596-2.415c-.133-1.16-1.013-2.002-1.013-2.002zM163.25 302.164l13.18-.583s3.374 1.019 3.398 3.811c.024 2.791-1.551 3.514-1.551 3.514s1.09-1.772.75-3.662c-.34-1.89-2.791-3.031-2.791-3.031l-4.903.194s1.893 1.383 1.772 3.277c-.121 1.893-1.795 3.416-1.795 3.416s1.358-2.057 1.116-3.562c-.243-1.505-2.112-3.058-2.112-3.058l-7.064-.316z"></path>
  <path fill="#DDA783" d="M105.191 286.412s.279 10.546-.303 12.476c-.583 1.93-1.93 3.313-1.93 3.313s-3.058.51-3.568 3.168 1.42 4.405 2.075 4.697a5.07 5.07 0 0 0 1.347.364l20.461-.218s2.694-.765 3.35-3.459c.655-2.694 1.869-20.34 1.869-20.34h-23.301v-.001z"></path>
  <path fill="#282727" d="m121.708 301.837-18.75.364 4.151.473s-1.493 1.62-1.256 3.841c.237 2.221 1.984 3.914 1.984 3.914s-1.347-3.022-1.292-4.387 1.311-3.295 1.311-3.295l7.045-.091s-1.384 1.93-1.292 4.005c.091 2.075 2.166 3.63 2.166 3.63s-1.419-2.246-1.365-3.867c.055-1.62 1.365-3.859 1.365-3.859l5.933-.728z"></path>
  <path fill="#38305E" d="M70.046 302.237H42.957a4.174 4.174 0 0 1-4.174-4.174v-23.399H74.22v23.399a4.174 4.174 0 0 1-4.174 4.174z"></path>
  <path fill="#FFE9D7" d="M38.783 267.48H74.22v7.185H38.783z"></path>
  <path fill="#38305E" d="M74.22 267.48H38.783c0-9.062 7.346-16.408 16.408-16.408h2.621c9.062 0 16.408 7.346 16.408 16.408z"></path>
  <path fill="#FFE9D7" d="M62.861 267.666H49.365v-6.748a6.748 6.748 0 1 1 13.496 0v6.748z"></path>
  <circle cx="45.773" cy="271.072" r="1.845" fill="#38305E"></circle>
  <circle cx="56.501" cy="271.072" r="1.845" fill="#38305E"></circle>
  <circle cx="67.561" cy="271.072" r="1.845" fill="#38305E"></circle>
  <path fill="#282727" d="M35.166 294.592h3.617v3.968h-3.617z"></path>
  <path fill="#FFE9D7" d="M39.026 237.188s.922 3.544 5.243 2.621c4.32-.922 2.816-6.699 2.816-6.699s8.155-.194 9.418-7.961c1.262-7.767-5.437-9.806-5.437-9.806s1.748-17.233-10.583-15.291-5.728 15.68-5.728 15.68-3.835 1.748-3.592 6.359c.243 4.612 5.777 7.282 5.777 7.282s-3.398 1.553-2.039 4.757c1.358 3.204 4.125 3.058 4.125 3.058zM70.967 205.902s-2.379 3.204 0 4.879 5.388-.583 5.388-.583 2.694 2.379 5.874-.146c3.18-2.524-.655-6.578-.655-6.578s2.864-4.879-1.068-7.209-7.233.922-7.452 2.816c-.218 1.893.146 3.155.146 3.155s-1.602-.531-2.451 1.191.218 2.475.218 2.475zM61.708 188.444s-1.183 2.239.546 2.803 2.33-1.311 2.33-1.311 3.75.437 4.606-1.93c.856-2.367-.073-4.223-1.183-4.424-1.11-.2-1.857 1.074-1.857 1.074s-2.712-2.276-4.678-.783c-1.967 1.495-1.639 3.879.236 4.571z"></path>
  <path fill="#282727" d="m214.387 216.716 7.261 9.574-2.403 1.893-6.957-9.163z"></path>
  <path fill="#38305E" d="m216.968 230.186 2.277-2.003 2.403-1.893 1.747-1.238 9.976 12.962-6.189 4.806z"></path>
  <path fill="#282727" d="m266.308 290.004-36.987-48.845 2.539-1.972 38.769 50.817z"></path>
  <path fill="#FFE9D7" d="m242.692 309.009 7.573-10.588h35.534l7.354 11.608z"></path>
  <path fill="#38305E" d="M282.085 298.421h-28.447a8.416 8.416 0 0 1 8.416-8.416h11.614a8.415 8.415 0 0 1 8.417 8.416z"></path>
  <path fill="#282727" d="m251.102 303.475-2.257 3.641h2.257zM252.267 301.691v5.607h1.893v-7.172zM255.507 299.798h1.857v7.828h-1.857zM258.675 299.798h1.857v7.828h-1.857zM261.842 299.798h1.857v7.828h-1.857zM265.01 299.798h1.857v7.828h-1.857zM268.177 299.798h1.857v7.828h-1.857zM196.653 191.426s-.467-1.446-1.049-1.568c-.583-.121-2.363.212-2.363.212s2.096-.818 2.678-.649c.583.17.734 2.005.734 2.005zM201.292 214.537s-1.925-.844-2.071-1.863c-.146-1.019 3.263-5.205 3.263-5.205s-4.355 4.015-4.234 4.986c.121.971 3.042 2.082 3.042 2.082z"></path>
  <ellipse cx="220.654" cy="230.508" fill="#F8F2ED" rx=".461" ry="1.141" transform="rotate(-37.263 220.644 230.498)"></ellipse>
  <ellipse cx="223.388" cy="228.666" fill="#F8F2ED" rx=".461" ry="1.141" transform="rotate(-37.26 223.385 228.674)"></ellipse>
  <ellipse cx="222.927" cy="233.305" fill="#F8F2ED" rx=".461" ry="1.141" transform="rotate(-37.26 222.923 233.313)"></ellipse>
  <ellipse cx="225.702" cy="231.459" fill="#F8F2ED" rx=".461" ry="1.141" transform="rotate(-37.263 225.693 231.449)"></ellipse>
  <ellipse cx="225.205" cy="236.098" fill="#F8F2ED" rx=".461" ry="1.141" transform="rotate(-37.263 225.195 236.088)"></ellipse>
  <ellipse cx="227.94" cy="234.255" fill="#F8F2ED" rx=".461" ry="1.141" transform="rotate(-37.26 227.936 234.263)"></ellipse>
  <ellipse cx="227.333" cy="238.895" fill="#F8F2ED" rx=".461" ry="1.141" transform="rotate(-37.26 227.329 238.903)"></ellipse>
  <ellipse cx="230.108" cy="237.048" fill="#F8F2ED" rx=".461" ry="1.141" transform="rotate(-37.263 230.098 237.038)"></ellipse>
  <ellipse cx="145.495" cy="127.042" fill="#282727" rx=".303" ry=".68"></ellipse>
  <circle cx="56.68" cy="302.941" r="7.646" fill="#282727"></circle>
  <circle cx="58.217" cy="302.941" r="7.646" fill="#FFE9D7"></circle>
  <circle cx="58.217" cy="302.346" r="2.621" fill="#38305E"></circle>
  <path fill="#282727" d="M58.217 299.725c-.319 0-.62.065-.903.169 1.001.369 1.719 1.323 1.719 2.452s-.718 2.083-1.719 2.452c.283.104.584.169.903.169a2.621 2.621 0 0 0 0-5.242z"></path>
</svg>
