<svg xmlns="http://www.w3.org/2000/svg" xml:space="preserve" viewBox="0 0 600 400" id="healthy-life">
  <path fill="#FFE9D7" d="m48.393 322.048 121.791-.706s-19.465-14.643-21.935-14.82c-2.47-.176 1.235 8.468 1.235 8.468s-52.927-29.317-56.808-22.068 14.643 16.776 14.643 16.776-37.402-15.525-40.225-9.527 17.995 17.113 17.995 17.113-21.7-11.115-24.17-6.88c-2.47 4.234 6.175 9.703 6.175 9.703l-18.701 1.941z"></path>
  <path fill="#1E1D1D" d="M158.681 97.94c-.354-1.68 1.389-3.042 5.025-3.24 3.637-.198 13.158 4.805 14.216 3.725s-.297-4.452 4.513-4.518c4.81-.066 4.898 4.518 4.898 4.518l2.226 7.78-1.567 7.045s-9.872 2.014-11.988 3.204c-2.116 1.19-6.612 4.562-10.05 3.438-3.438-1.124.661-5.951-.331-7.207-.992-1.256-20.63 5.157-23.208-.397-2.579-5.554 17.588-7.67 19.241-9.521 1.653-1.851-2.711-3.57-2.975-4.827z"></path>
  <path fill="#A35824" d="M187.333 98.425s2.336 3.328 3.064 3.637c.727.309 2.138-.529 2.292 0s-.749 1.102-.617 1.675 6.083 5.775 6.116 7.725c.033 1.951-1.554 2.711-4.166 3.008s-5.819-.694-6.513-1.653-1.785-4.364-1.785-4.364-2.618 1.379-3.207-1.157c-.54-2.325 1.752-2.281 1.752-2.281s1.554-.76 2.281-2.678c.728-1.917.783-3.912.783-3.912z"></path>
  <path fill="#DE9641" d="M144.597 156.788s21.555-40.334 34.118-42.846c12.563-2.513 16.662.926 26.052 5.554 9.389 4.628 38.218 21.688 39.937 21.688s33.193-15.208 33.193-15.208l7.934 19.043s-40.598 21.159-43.375 21.159c-2.777 0-33.986-5.025-33.986-5.025l-18.91 28.432-44.963-32.797z"></path>
  <path fill="#6A8C53" d="M226.454 109.26s1.984-4.642 6.788-5.137c4.805-.496 4.496 3.453 4.32 5.137S227.4 131.353 227.4 131.353l-7.558-3.655 3.434-12.885 3.178-5.553z"></path>
  <path fill="#435A2C" d="M235.05 111.076c1.807-1.499 6.259-5.113 9.521-2.733s1.146 8.331 0 10.667-9.997 12.185-9.997 12.185l-7.007-3.127s-.258-3.578 2.031-8.695c2.289-5.115 5.452-8.297 5.452-8.297z"></path>
  <path fill="#6A8C53" d="m236.24 138.186 4.232-2.513s-1.102-2.028 0-2.292 1.675.43 1.675.43 4.408-2.325 5.73-7.483c1.322-5.157-.529-8.265-4.232-8.254-3.703.011-8.552 4.243-9.874 7.196-1.322 2.953-3.174 7.394-3.174 7.394l2.799 5.521h2.844v.001z"></path>
  <path fill="#1E1D1D" d="M237.927 116.581a.226.226 0 0 1-.178-.365l4.705-6.028a.226.226 0 0 1 .356.278l-4.705 6.028a.226.226 0 0 1-.178.087z"></path>
  <path fill="#1E1D1D" d="M240.472 113.32a.226.226 0 0 1-.221-.181l-.617-3.076a.225.225 0 0 1 .177-.265.227.227 0 0 1 .266.177l.617 3.076a.225.225 0 0 1-.177.265c-.016.002-.03.004-.045.004zM239.832 117.942a.226.226 0 0 1-.086-.435l4.034-1.657a.228.228 0 0 1 .295.123.227.227 0 0 1-.123.295l-4.034 1.657a.223.223 0 0 1-.086.017zM235.603 118.766a.226.226 0 0 1-.215-.158l-1.346-4.29a.226.226 0 0 1 .431-.135l1.346 4.29a.227.227 0 0 1-.216.293zM232.618 125.242a.225.225 0 0 1-.219-.173l-1.224-5.146a.225.225 0 1 1 .439-.105l1.224 5.146a.225.225 0 0 1-.22.278zM233.779 135.762a.226.226 0 0 1-.172-.37l11.85-14.038a.225.225 0 0 1 .344.29l-11.85 14.038a.223.223 0 0 1-.172.08z"></path>
  <path fill="#1E1D1D" d="M242.345 125.615a.225.225 0 0 1-.065-.441l3.637-1.101a.225.225 0 1 1 .13.432l-3.637 1.101a.237.237 0 0 1-.065.009zM240.864 127.369a.226.226 0 0 1-.225-.208l-.393-5.169a.227.227 0 0 1 .208-.242.232.232 0 0 1 .242.208l.393 5.169a.227.227 0 0 1-.208.242h-.017zM243.425 130.014h-4.794a.225.225 0 1 1 0-.45h4.794a.225.225 0 1 1 0 .45zM236.45 132.598a.226.226 0 0 1-.224-.2l-.653-5.844a.225.225 0 1 1 .448-.05l.653 5.844a.225.225 0 0 1-.199.249l-.025.001zM224.193 128.118c-.01 0-.02 0-.03-.002a.225.225 0 0 1-.193-.253c.007-.054.745-5.437 2.633-9.419 1.878-3.961 6.931-12.504 6.982-12.59a.225.225 0 1 1 .388.23c-.051.085-5.093 8.612-6.962 12.553-1.858 3.918-2.587 9.233-2.595 9.286a.225.225 0 0 1-.223.195z"></path>
  <path fill="#1E1D1D" d="M231.018 110.956a.225.225 0 0 1-.224-.202l-.42-4.019a.224.224 0 0 1 .201-.247.227.227 0 0 1 .247.201l.394 3.763 2.724-.653a.226.226 0 0 1 .105.439l-2.974.712a.24.24 0 0 1-.053.006zM226.049 120.588a.225.225 0 0 1-.223-.195l-.537-4.008a.225.225 0 0 1 .193-.253c.118-.022.236.07.253.193l.537 4.008a.225.225 0 0 1-.193.253c-.01.002-.02.002-.03.002zM224.761 125.065a.223.223 0 0 1-.176-.085l-1.485-1.862a.225.225 0 0 1 .036-.317.227.227 0 0 1 .317.036l1.485 1.862a.225.225 0 0 1-.177.366z"></path>
  <path fill="#6A8C53" d="M206.177 93.268c.555.106.132-2.468.485-3.57s2.329-.705 2.244 1.234c-.084 1.94-.437 3.879.444 3.615.882-.264 1.102-.838 1.366-.397.264.441.485.798 1.499.421 1.014-.377 2.006-.465 1.774.593-.231 1.058-1.245 1.984-.804 3.262s.691 1.807-.272 2.777c-.962.97-1.66 1.427-1.466 2.102.195.675 2.443-.251 3.501-1.397 1.058-1.146 2.028-.072 1.984 1.397-.044 1.468.001 11.553.001 11.553l-5.027 5.828-2.724-.268-3.271-11.104.737-3.44s1.555-.119 1.599-.984-2.072-1.273-2.645-2.458.353-1.053-.573-1.714c-.926-.661-1.807-.264-1.94-1.851-.132-1.587-.088-2.072-.573-3.262s-.661-2.16.308-1.94c.97.22 1.94 3.35 2.645 2.469.708-.883-1.143-3.219.708-2.866z"></path>
  <path fill="#435A2C" d="M215.214 113.809s1.295-1.675.537-2.292-2.741-.151-3.006-1.464c-.264-1.313 2.053-.337 1.622-1.486-.432-1.149-2.145-1.576-2.371-3.309s.397-3.923 1.543-3.042c1.146.882 1.874 3.791 3.031 2.821 1.157-.97 1.642-1.94 1.907-.573.264 1.366.849 1.951 1.019.425.171-1.527-1.703-2.062-1.802-2.874-.099-.812.782-.151.782-1.033 0-.882-1.499-1.058-1.058-3.086s1.818-2.997 2.077-1.543c.259 1.455.656 2.953 1.229 2.072.573-.882-.22-1.763.507-2.292s1.388.441 1.697-1.19c.309-1.631 1.278-2.821 2.072-1.719.793 1.102-1.19 5.069 0 5.201 1.19.132 3.615-1.278 3.791-.176s-1.196 1.851-.796 3.57 1.237 2.017.444 2.463c-.794.446-2.028-.127-1.984.799s.617 1.664.353 1.912-2.645.113-2.336 1.15c.308 1.037 5.098-.897 5.128.423.03 1.319-1.207 3.083-2.198 3.435-.99.353-.99.919-.946 2.135s-2.046 1.923-2.046 1.923h-7.839l-1.357-2.25z"></path>
  <path fill="#1E1D1D" d="M213.117 115.038a.224.224 0 0 1-.204-.13 541.432 541.432 0 0 1-2.798-6.086c-1.493-3.304-3.375-13.282-3.455-13.706a.226.226 0 0 1 .443-.083c.019.103 1.952 10.349 3.423 13.603 1.481 3.277 2.782 6.053 2.795 6.081a.225.225 0 0 1-.204.321z"></path>
  <path fill="#1E1D1D" d="M208.449 102.657a.224.224 0 0 1-.165-.072l-3.726-4.006a.226.226 0 0 1 .33-.308l3.726 4.006a.226.226 0 0 1-.165.38zM208.907 104.501a.226.226 0 0 1-.217-.288l2.02-7.04a.226.226 0 1 1 .434.124l-2.02 7.04a.227.227 0 0 1-.217.164zM210.561 109.485a.217.217 0 0 1-.096-.022l-2.356-1.116a.224.224 0 0 1-.107-.3.226.226 0 0 1 .3-.107l2.356 1.116a.225.225 0 0 1-.097.429zM211.231 110.956a.224.224 0 0 1-.195-.338l1.25-2.164a.226.226 0 0 1 .308-.082c.108.062.145.2.082.308l-1.25 2.164a.225.225 0 0 1-.195.112zM212.481 113.672a.23.23 0 0 1-.077-.013l-3.394-1.224a.226.226 0 0 1-.136-.289.228.228 0 0 1 .289-.136l3.394 1.224a.226.226 0 0 1 .136.289.227.227 0 0 1-.212.149zM219.997 113.738h-.002a.224.224 0 0 1-.223-.228c0-.023.028-2.357.509-5.64.482-3.284 2.281-9.446 2.3-9.508a.225.225 0 1 1 .433.127c-.018.062-1.808 6.194-2.286 9.446-.477 3.251-.505 5.556-.505 5.579a.227.227 0 0 1-.226.224z"></path>
  <path fill="#1E1D1D" d="M220.804 106.46a.226.226 0 0 1-.152-.393l4.945-4.504a.226.226 0 0 1 .304.334l-4.945 4.504a.222.222 0 0 1-.152.059zM221.479 103.53a.225.225 0 0 1-.193-.109l-1.984-3.293a.227.227 0 0 1 .077-.31.227.227 0 0 1 .31.077l1.984 3.293a.227.227 0 0 1-.077.31.24.24 0 0 1-.117.032zM220.074 112.092a.226.226 0 0 1-.16-.066l-4.639-4.67a.226.226 0 0 1 .32-.318l4.541 4.571 5.306-1.77a.226.226 0 0 1 .142.428l-5.438 1.814a.262.262 0 0 1-.072.011z"></path>
  <path fill="#E0A368" d="M192.468 138.186h46.351v28.476h-46.351z"></path>
  <path fill="#1E1D1D" d="M187.596 180.334s-6.941-3.643-13.641-13.495c-6.7-9.853-12.387-27.065-11.836-32.091.551-5.025 3.333-7.447 3.333-7.447l22.144 53.033z"></path>
  <path fill="#DE9641" d="m226.454 183.5-2.645-19.043s-17.324.397-22.481-3.306-21.665-43.199-23.495-43.948c-1.829-.749-13.048 7.317-13.841 14.017-.793 6.7 1.234 11.583 5.113 20.118 3.879 8.534 12.96 27.665 21.952 31.015 8.993 3.351 35.397 1.147 35.397 1.147z"></path>
  <path fill="#1E1D1D" d="m119.471 200.56 34.118 28.431 6.745-7.67 13.224 7.67 31.209-27.77-15.208-11.638-28.207-20.574 8.197-16.699-2.203-4.913-9.953 18.724-12.796-9.333z"></path>
  <path fill="#A35824" d="M64.988 231.372s41.788 33.325 47.078 34.383c5.29 1.058 8.992-.176 12.871-4.408 3.879-4.232 28.652-32.355 28.652-32.355l-34.118-28.432s-8.992 20.938-13.929 22.349c-4.937 1.411-25.919-13.4-25.919-13.4l-14.635 21.863zM277.896 125.975l5.466-14.414s2.336 1.19 2.865 3.747-.397 6.127-.397 6.127 9.83-2.997 11.814-3.791 8.287-4.364 9.61-1.895c1.322 2.468-.573 4.496-.573 4.496s2.557-.397 3.35 1.411c.793 1.807-1.94 4.937-1.94 4.937s2.733.617 2.38 3.218c-.353 2.601-8.287 6.921-11.373 8.64s-13.268 6.568-13.268 6.568l-7.934-19.044z"></path>
  <path fill="#1E1D1D" d="M291.154 127.926s1.521 1.322.628 3.438-2.347 2.876-2.347 2.876 1.785-2.546 1.851-3.967c.066-1.421-.132-2.347-.132-2.347zM306.681 120.245l-9.114 4.871-1.752-1.256 1.554 1.983zM308.091 126.592l-6.843 3.714-1.334-.496 1.488 1.273z"></path>
  <path fill="#A35824" d="m223.81 164.458 11.064-9.169s1.631 1.146 1.322 3.174-2.557 4.805-2.557 4.805l5.246.044v-1.719s2.513-.22 3.35 1.719c.838 1.939.441 3.747.441 3.747s.264 8.64-1.411 11.461-14.811 4.981-14.811 4.981l-2.644-19.043z"></path>
  <path fill="#1E1D1D" d="m239.943 168.844 2.733-1.785s-.838 1.168-1.278 1.411c-.441.241-1.455.374-1.455.374zM242.556 172.395l-3.737 2.334s1.411-.286 2.27-.837c.86-.552 1.467-1.497 1.467-1.497zM183.3 106.811s.342-.496.937-.573c.595-.077.804 1.08.804 1.08s-.298-.683-.871-.683-.87.176-.87.176z"></path>
  <path fill="#F8F2ED" d="m186.628 106.475 6.7-.24s.926 2.682-1.785 3.673c-2.711.992-4.915-3.433-4.915-3.433z"></path>
  <path fill="#1E1D1D" d="M190.972 103.304s-.091.074-.198.281.099.537.099.537l.099-.818z"></path>
  <path fill="#F8F2ED" d="M160.334 221.321s-16.662-7.406-21.688-14.15c-5.025-6.744-6.017-10.91-6.017-10.91s.727 9.059 6.678 14.943c5.951 5.885 18.238 13.288 18.238 13.288l2.789-3.171z"></path>
  <path fill="#1E1D1D" d="m223.81 164.458 4.329 18.737-1.685.305z"></path>
  <path fill="#A35824" d="M173.558 228.991s30.019 14.194 30.195 17.191-12.342 26.096-12.342 26.096l27.682 1.94s22.04-32.62 22.217-38.967c.176-6.348-3.35-10.756-10.579-15.869-7.229-5.113-25.963-18.161-25.963-18.161l-31.21 27.77z"></path>
  <path fill="#1E1D1D" d="m171.486 309.306 19.924-37.028 27.682 1.94s-12.938 18.315-9.301 22.481c3.637 4.166 10.513 4.827 12.695 7.339 2.182 2.513 2.711 4.761 2.711 4.761l-53.711.507zM79.623 209.508l-26.536-18.47-27.903 37.755s2.314 1.587 8.133-.926 10.315-6.149 17.258-4.298 14.414 7.802 14.414 7.802l14.634-21.863z"></path>
  <circle cx="209.439" cy="277.7" r=".992" fill="#D36101"></circle>
  <circle cx="206.445" cy="282.888" r=".992" fill="#D36101"></circle>
  <circle cx="203.19" cy="289.025" r=".992" fill="#D36101"></circle>
  <circle cx="202.405" cy="295.687" r=".992" fill="#D36101"></circle>
  <circle cx="206.445" cy="300.787" r=".992" fill="#D36101"></circle>
  <path fill="#A1BDCE" d="M183.674 125.975s-2.79-3.588-3.783-5.436c-.993-1.847-1.617-3.821-1.617-3.821l1.697-.154-.529-1.587s2.953-.904 5.246-.838c2.292.066 4.871 1.058 4.871 1.058l1.719 1.851-2.182 6.722-4.32 2.446-1.102-.241z"></path>
  <path fill="#FFF" d="M210.023 290.825a.337.337 0 0 1-.306-.195l-3.577-7.599a.338.338 0 0 1 .418-.462l5.32 1.877-2.75-6.616a.34.34 0 0 1 .043-.334.34.34 0 0 1 .31-.131l6.796.842a.338.338 0 0 1 .294.377.345.345 0 0 1-.377.294l-6.22-.771 2.818 6.781a.338.338 0 0 1-.425.448l-5.273-1.861 3.233 6.869a.337.337 0 0 1-.304.481z"></path>
  <path fill="#FFF" d="M209.15 295.034a.338.338 0 0 1-.233-.093l-5.961-5.67a.338.338 0 0 1 .14-.57l8.491-2.424a.337.337 0 1 1 .186.649l-7.923 2.262 5.532 5.262a.339.339 0 0 1-.232.584zM206.445 283.226a.338.338 0 0 1-.099-.662l8.769-2.692a.339.339 0 0 1 .198.647l-8.769 2.692a.34.34 0 0 1-.099.015z"></path>
  <path fill="#FFF" d="M211.77 298.801a.319.319 0 0 1-.096-.014l-9.365-2.776a.34.34 0 0 1-.061-.624l7.166-3.773a.338.338 0 0 1 .316.599l-6.431 3.386 8.569 2.54a.338.338 0 0 1-.098.662z"></path>
  <path fill="#FFF" d="M206.445 301.125a.34.34 0 0 1-.296-.174.34.34 0 0 1 .012-.347l2.994-4.649a.338.338 0 1 1 .568.367l-2.653 4.119 8.844-.11h.004a.339.339 0 0 1 .004.677l-9.473.118-.004-.001z"></path>
  <circle cx="63.12" cy="222.396" r="1.24" fill="#D36101"></circle>
  <circle cx="57.103" cy="219.354" r="1.141" fill="#D36101"></circle>
  <circle cx="49.74" cy="217.427" r="1.141" fill="#D36101"></circle>
  <circle cx="42.86" cy="218.707" r="1.141" fill="#D36101"></circle>
  <circle cx="37.811" cy="221.255" r="1.141" fill="#D36101"></circle>
  <path fill="#FFF" d="M36.447 226.73a.338.338 0 0 1-.325-.432l1.497-5.136a.34.34 0 0 1 .255-.237.345.345 0 0 1 .328.114l2.302 2.753 2.041-4.98a.337.337 0 0 1 .554-.107l4.011 4.123a.338.338 0 0 1-.485.472l-3.652-3.754-2.058 5.021a.338.338 0 0 1-.572.088l-2.256-2.696-1.32 4.528a.33.33 0 0 1-.32.243z"></path>
  <path fill="#FFF" d="M52.767 224.614a.338.338 0 0 1-.309-.202l-2.811-6.36-4.638 5.394a.34.34 0 0 1-.476.036.337.337 0 0 1-.036-.476l4.987-5.8a.352.352 0 0 1 .306-.114.341.341 0 0 1 .26.198l3.027 6.849a.339.339 0 0 1-.31.475z"></path>
  <path fill="#FFF" d="m60.212 228.395-.019-.001a.336.336 0 0 1-.297-.218l-1.532-4.053-3.9 1.129a.338.338 0 0 1-.187-.65l3.847-1.113-1.384-3.659-7.214 3.767a.338.338 0 1 1-.313-.599l7.551-3.944a.347.347 0 0 1 .277-.017c.09.034.162.107.196.196l1.538 4.067 4.251-1.23a.338.338 0 0 1 .394.479l-2.908 5.661a.335.335 0 0 1-.3.185zm-1.197-4.46 1.244 3.291 2.202-4.288-3.446.997z"></path>
  <ellipse cx="183.231" cy="316" fill="#1E1D1D" rx="7.637" ry="4.298" transform="rotate(-40.412 183.235 315.995)"></ellipse>
  <ellipse cx="208.293" cy="315.999" fill="#1E1D1D" rx="7.637" ry="4.298" transform="rotate(-40.412 208.297 315.994)"></ellipse>
  <ellipse cx="208.426" cy="316.012" fill="#D36101" rx="2.802" ry="1.577" transform="rotate(-40.409 208.437 316.03)"></ellipse>
  <ellipse cx="183.231" cy="316" fill="#D36101" rx="2.802" ry="1.577" transform="rotate(-40.412 183.235 315.996)"></ellipse>
  <ellipse cx="42.855" cy="192.935" fill="#1E1D1D" rx="7.637" ry="4.298" transform="rotate(-87.484 42.856 192.942)"></ellipse>
  <ellipse cx="27.799" cy="211.214" fill="#1E1D1D" rx="7.637" ry="4.298" transform="rotate(-87.484 27.8 211.222)"></ellipse>
  <ellipse cx="27.799" cy="211.211" fill="#D36101" rx="2.2" ry="1.238" transform="rotate(-87.484 27.8 211.218)"></ellipse>
  <ellipse cx="42.851" cy="192.921" fill="#D36101" rx="2.2" ry="1.238" transform="rotate(-87.49 42.853 192.929)"></ellipse>
  <path fill="#1E1D1D" d="M219.81 147.994h-10.581a2.347 2.347 0 0 1-2.347-2.347v-.464a2.346 2.346 0 0 1 2.346-2.346h10.581a2.346 2.346 0 0 1 2.346 2.346v.465a2.344 2.344 0 0 1-2.345 2.346z"></path>
  <path fill="#598CB2" d="M194.386 138.186s-4.852-4.474-6.79-6.788c-1.938-2.314-3.921-5.422-3.921-5.422s3.372-.727 5.356-4.364.529-6.414.529-6.414l7.604 3.372 3.372 19.616h-6.15z"></path>
  <path fill="#395B6D" d="M186.628 151.564s-2.072-5.62-1.587-10.116 3.043-9.49 3.043-9.49l6.302 6.228h-1.918v1.609s-3.24 5.617-4.496 7.602c-1.256 1.985-1.344 4.167-1.344 4.167zM191.906 121.975l-2.909 5.325s1.884 3.535 4.132 5.221 3.67 2.281 3.67 2.281-3.405-5.378-4.199-8.111c-.793-2.732-.694-4.716-.694-4.716z"></path>
  <circle cx="185.482" cy="117.622" r="1.014" fill="#1E1D1D"></circle>
  <path fill="#F47D3B" d="M199.698 138.186s-4.408-21.247-4.188-25.39 4.1-4.364 5.951-4.188c1.851.176 2.953 1.807 2.953 1.807l-1.234 27.771h-3.482z"></path>
  <path fill="#435A2C" d="M196.612 96.133s1.984.264 1.939.485c-.044.22.429 12.112.429 12.112l-2.368-12.597zM201.329 99.13l-2.348 9.599 3.846-8.805z"></path>
  <path fill="#C46600" d="m223.416 128.827 3.171-3.81h1.487l1.72 3.471-2.116 9.698h-6.447l.165-7.758z"></path>
  <path fill="#435A2C" d="m202.254 104.123-3.273 4.606 4.111-3.736zM194.099 99.836l4.882 8.893-5.763-8.188zM194.673 105.258l4.308 3.471-3.843-1.736z"></path>
  <path fill="#1E1D1D" d="M203.515 130.876a.222.222 0 0 1-.067-.01l-5.651-1.77a.225.225 0 0 1-.012-.426l5.022-1.887-5.564-.858a.226.226 0 0 1 .009-.447l5.826-.664-6.796-4.031a.224.224 0 0 1-.109-.22.227.227 0 0 1 .156-.189l6.687-2.104-7.164-.893a.226.226 0 0 1 0-.447l5.619-.682-5.779-.272a.225.225 0 0 1-.021-.448l6.028-.868-6.203-.216a.225.225 0 0 1-.058-.441l7.035-2.146-6.863.42c-.128.016-.231-.087-.239-.211a.226.226 0 0 1 .211-.239l8.771-.537c.111-.013.215.073.236.185a.226.226 0 0 1-.156.256l-7.572 2.309 7.381.258a.225.225 0 0 1 .024.449l-6.188.891 6.095.287a.226.226 0 0 1 .017.449l-6.462.784 6.372.794a.225.225 0 0 1 .04.438l-7.193 2.263 6.939 4.115a.226.226 0 0 1-.089.418l-4.821.549 4.753.733a.225.225 0 0 1 .045.433l-5.214 1.959 5.026 1.574a.226.226 0 0 1 .148.283.233.233 0 0 1-.219.159z"></path>
  <path fill="#FFE9D7" d="M199.279 138.186s.132-19.128 3.042-25.092c2.909-5.963 2.513-8.927 3.57-9.164 1.058-.237.595 3.309.992 4.214s1.984 7.784 2.645 12.94-.595 17.102-.595 17.102h-9.654z"></path>
  <path fill="#E5A320" d="M209.248 119.134s1.315 1.32 2.285.328.242-3.108.242-3.108l2.215-2.546-1.076 10.588-4.008 1.534.342-6.796z"></path>
  <path fill="#DE9641" d="M222.983 113.379s.033.727.595 1.355c.562.628.893.661.893.661l-.562 6.017s-2.38.298-2.215 2.149c.165 1.851 1.818 2.656 1.818 2.656l-.198 5.378s-1.554.165-1.355 1.388a2.052 2.052 0 0 0 1.256 1.587l.099 3.615h-9.323l-1.076-13.789 1.076-10.588h2.38s.264 1.455 1.157 1.091c.893-.364.992-1.322.992-1.322l4.463-.198z"></path>
  <circle cx="220.302" cy="118.54" r="1.385" fill="#E5A320"></circle>
  <circle cx="216.288" cy="122.488" r="1.802" fill="#E5A320"></circle>
  <circle cx="219.495" cy="124.108" r=".578" fill="#E5A320"></circle>
  <circle cx="216.569" cy="117.413" r=".661" fill="#E5A320"></circle>
  <circle cx="218.845" cy="129.276" r="1.152" fill="#E5A320"></circle>
  <circle cx="215.751" cy="128.662" r=".537" fill="#E5A320"></circle>
  <circle cx="217.334" cy="135.393" r="1.583" fill="#E5A320"></circle>
  <circle cx="220.421" cy="132.373" r=".579" fill="#E5A320"></circle>
  <path fill="#AD5505" d="m231.513 127.144 1.62.749s1.587 2.182 1.686 5.058-1.422 5.235-1.422 5.235h-9.687s.661-5.235 3.504-8.078c2.844-2.843 4.299-2.964 4.299-2.964z"></path>
  <path fill="#FFE9D7" d="M230.091 113.094c-.617-.13-.959-1.93-1.719-1.169-.76.76-.132 1.851-.298 4.331-.165 2.48-1.488 8.761-1.488 8.761h1.488s1.752-8.86 2.546-9.753c.793-.893 2.248-1.298 1.951-2.17-.298-.872-1.951.112-2.48 0zM231.513 127.144s4.066-7.648 4.199-9.07c.132-1.422-.298-2.711.595-2.942s1.058 1.124 1.62 1.223 1.818-.86 2.116.397c.298 1.256-1.124 1.355-2.215 2.612-1.091 1.256-4.695 8.53-4.695 8.53l-1.62-.75z"></path>
  <path fill="#1E1D1D" d="M230.19 136.637s1.289-.314 1.108-1.025c-.182-.711-.676-1.719.018-2.281.693-.562.941-.645.991-1.372.049-.727-.248-1.372-.248-1.372s.794 1.146.463 2.077-.727.617-.893 1.278c-.165.661.694 1.951.264 2.579-.43.629-1.785.678-1.703.116zM227.86 129.487s-.039-.8-.292-1.417-.76-1.146-.76-1.146.75.342 1.052.86c.303.517 0 1.703 0 1.703z"></path>
  <ellipse cx="190.131" cy="100.242" fill="#282727" rx=".904" ry="1.918" transform="rotate(-22.079 190.124 100.238)"></ellipse>
  <ellipse cx="187.377" cy="101.809" fill="#282727" rx=".904" ry="1.918" transform="rotate(-22.089 187.374 101.818)"></ellipse>
  <path fill="#282727" d="M188.162 101.351s.118-.431.582-.71.992-.143.992-.143l-1.574.853z"></path>
  <path fill="#1E1D1D" d="M186.548 151.339s-1.133-5.924-.428-9.979c.705-4.055 2.755-8.485 2.876-8.408s.301.206.301.206-2.251 5.513-2.604 8.29c-.352 2.777-.145 9.891-.145 9.891z"></path>
  <path fill="#1E1D1D" d="m189.959 133.811.514.508s-1.443 4.45-2.368 7.442c-.926 2.993-1.014 5.329-1.014 5.329s.436-6.039 1.298-8.904c.862-2.866 1.57-4.375 1.57-4.375zM191.278 135.232s-1.352 2.512-1.602 4.364c-.25 1.851-1.484 5.598-1.484 5.598s1.651-4.54 2.28-6.083c.629-1.543 1.485-3.325 1.485-3.325l-.679-.554zM191.197 123.273s.577 3.165 1.271 5.116c.694 1.951 3.174 5.105 3.174 5.105s-3.103-3.57-3.684-4.983c-.581-1.412-1.08-4.654-1.08-4.654l.319-.584z"></path>
  <path fill="#1E1D1D" d="m189.419 126.529.382-.698s.42 1.732 1.39 3.187c.97 1.455 4.849 5.201 4.849 5.201s-3.725-2.812-4.761-4.194c-1.037-1.383-1.86-3.496-1.86-3.496z"></path>
  <path fill="#1E1D1D" d="m190.473 124.599-.28.512s.622 2.302.92 2.93.777 1.289.777 1.289-.843-1.934-1.107-3.025c-.265-1.09-.31-1.706-.31-1.706z"></path>
  <path fill="#A1BDCE" d="M185.89 125.83s3.141 5.265 5.554 7.664 4.86 4.317 4.86 4.317-2.321-.893-5.425-3.835c-3.105-2.942-4.989-8.146-4.989-8.146z"></path>
  <path fill="#1E1D1D" d="M200.139 132.251a.22.22 0 0 1-.139-.048l-.86-.672a.225.225 0 1 1 .277-.355l.86.672a.225.225 0 0 1-.138.403zM201.857 135.028a.226.226 0 0 1-.18-.361l.749-.992a.226.226 0 0 1 .36.272l-.749.992a.225.225 0 0 1-.18.089zM200.904 136.251a.218.218 0 0 1-.105-.026l-1.195-.632a.226.226 0 0 1-.094-.305.227.227 0 0 1 .305-.094l1.195.632a.226.226 0 0 1-.106.425zM200.306 128.118a.224.224 0 0 1-.151-.058l-.829-.749a.225.225 0 1 1 .302-.334l.829.749a.225.225 0 0 1-.151.392zM202.232 123.203a.226.226 0 0 1-.179-.088l-.771-1.003a.226.226 0 0 1 .357-.275l.771 1.003a.226.226 0 0 1-.178.363zM203.092 128.743a.226.226 0 0 1-.216-.16l-.485-1.595a.225.225 0 0 1 .431-.131l.485 1.595a.225.225 0 0 1-.215.291zM202.607 131.827a.226.226 0 0 1-.188-.1l-.97-1.449a.226.226 0 1 1 .375-.251l.97 1.449a.227.227 0 0 1-.187.351zM204.811 127.744a.225.225 0 0 1-.181-.36l.617-.826a.225.225 0 0 1 .361.269l-.617.826a.224.224 0 0 1-.18.091zM205.692 124.134a.226.226 0 0 1-.164-.381l.882-.931a.227.227 0 0 1 .319-.009c.09.086.094.229.009.319l-.882.931a.224.224 0 0 1-.164.071zM205.12 119.412a.226.226 0 0 1-.165-.379l.749-.81a.226.226 0 0 1 .331.307l-.749.81a.228.228 0 0 1-.166.072zM204.06 118.603a.225.225 0 0 1-.148-.055c-.443-.386-1.201-1.07-1.295-1.31a.226.226 0 0 1 .419-.168c.072.135.663.695 1.173 1.139a.225.225 0 0 1 .022.318.23.23 0 0 1-.171.076zM202.122 114.362a.224.224 0 0 1-.163-.07l-.661-.69a.226.226 0 0 1 .326-.312l.661.69a.226.226 0 0 1-.163.382zM201.036 119.007a.23.23 0 0 1-.113-.03l-.73-.423a.226.226 0 0 1 .226-.39l.73.423c.107.063.144.2.082.308a.224.224 0 0 1-.195.112zM207.654 114.75a.225.225 0 0 1-.209-.309l.672-1.69a.225.225 0 1 1 .419.167l-.672 1.69a.228.228 0 0 1-.21.142zM208.326 117.638a.226.226 0 0 1-.137-.405l1.394-1.058a.228.228 0 0 1 .316.043c.075.1.056.241-.043.316l-1.394 1.058a.221.221 0 0 1-.136.046zM205.12 112.092a.223.223 0 0 1-.167-.074l-.754-.835a.226.226 0 0 1 .334-.302l.754.835a.226.226 0 0 1-.167.376zM207.103 110.773a.226.226 0 0 1-.198-.333l.551-1.015a.226.226 0 0 1 .397.215l-.551 1.015a.228.228 0 0 1-.199.118zM204.811 109.485a.226.226 0 0 1-.167-.074l-1.014-1.116a.225.225 0 1 1 .333-.303l1.014 1.116a.225.225 0 0 1-.166.377zM205.12 115.331a.226.226 0 0 1-.173-.08l-.815-.969a.226.226 0 0 1 .345-.291l.815.969a.226.226 0 0 1-.172.371zM205.494 107.779a.223.223 0 0 1-.166-.073l-.995-1.079a.225.225 0 1 1 .331-.305l.995 1.079a.224.224 0 0 1-.013.318.22.22 0 0 1-.152.06z"></path>
  <path fill="#C60000" d="M206.311 131.958v6.228h7.68l-.365-11.657z"></path>
  <ellipse cx="209.954" cy="128.832" fill="#D14A4A" rx="5.323" ry="2.645" transform="rotate(-56.329 209.963 128.838)"></ellipse>
  <circle cx="210.927" cy="126.537" r=".606" fill="#C60000"></circle>
  <circle cx="208.674" cy="129.441" r=".711" fill="#C60000"></circle>
  <circle cx="210.883" cy="130.108" r=".32" fill="#C60000"></circle>
  <circle cx="208.326" cy="132.025" r=".672" fill="#C60000"></circle>
  <g fill="#1E1D1D">
    <path d="m98.522 140.831-44.257.528 46.461.706zM113.861 167.209l-44.257.529 46.461.705zM123.915 119.501l-44.256.529 46.46.705zM309.359 206.334l-44.257.529 46.461.705zM365.942 136.919l-42.442.507 44.556.677zM364.507 265.823l-42.443.507 44.556.677zM408.146 107.633l-42.442.508 44.555.676zM404.045 163.361l-42.442.507 44.556.677z"></path>
  </g>
  <path fill="#FFE9D7" d="m255.667 325.215 121.791-.706s-19.465-14.643-21.935-14.82c-2.47-.176 1.235 8.468 1.235 8.468s-52.927-29.317-56.808-22.068c-3.881 7.249 14.643 16.776 14.643 16.776s-37.402-15.525-40.225-9.527 17.995 17.113 17.995 17.113-21.7-11.115-24.17-6.88c-2.47 4.234 6.175 9.703 6.175 9.703l-18.701 1.941z"></path>
  <path fill="#DDA783" d="m553.599 130.148 4.107-6.637s1.113.803 1.515 2.114c.402 1.31-.803 4.967-.803 4.967l-4.819-.444z"></path>
  <path fill="#1E1D1D" d="m548.783 310.115 15.723-156.762 3.534.355-15.724 156.762z"></path>
  <path fill="#FC691F" d="M520.756 113.051s-.757-8.369-1.349-9.13c-.592-.761-5.749-.761-5.834 1.268-.084 2.029 2.572 10.33 2.572 10.33l4.611-2.468z"></path>
  <path fill="#02421C" d="m531.666 129.146 9.681.381.126-9.208h-9.807z"></path>
  <path fill="#D14A4A" d="M539.942 105.177s-.719-.876-.714-3.159 7.361-10.315 7.868-12.09c.507-1.776-1.184-1.268-2.156-.676-.972.592-5.453 8.159-5.453 8.159s3.723-10.315 3.51-11.118c-.213-.803-1.016-.676-1.312 0s-2.283 9.469-2.283 9.469.581-7.313-.174-8.624-1.337-1.099-1.363-.507c-.026.592-.28 13.358-1.506 14.753-1.226 1.395-4.091 2.447-4.091 2.447l-.602 7.276h6.806l1.47-5.93z"></path>
  <path fill="#435A2C" d="M533.553 129.146s11.75-12.946 13.196-17.765 1.604-8.116-1.233-8.814c-2.838-.697-7.532 4.502-7.532 4.502s.551 2.029-.632 2.071c-1.184.042-1.923-.402-1.923-.402l-3.953 5.517-.785 14.75 2.862.141z"></path>
  <path fill="#1E1D1D" d="M530.789 127.394a.226.226 0 0 1-.188-.351l14.151-21.261a.226.226 0 0 1 .313-.063.226.226 0 0 1 .063.313l-14.151 21.261a.225.225 0 0 1-.188.101z"></path>
  <path fill="#1E1D1D" d="M540.586 112.675a.226.226 0 0 1-.225-.208l-.338-4.471a.226.226 0 0 1 .208-.242.23.23 0 0 1 .241.208l.338 4.471a.226.226 0 0 1-.208.242h-.016zM543.233 108.697a.225.225 0 0 1-.047-.446l2.282-.493c.119-.024.241.051.268.173s-.051.242-.173.268l-2.282.493a.26.26 0 0 1-.048.005zM538.637 115.602a.226.226 0 0 1-.217-.162.227.227 0 0 1 .153-.28l4.357-1.268a.226.226 0 0 1 .127.434l-4.357 1.268a.272.272 0 0 1-.063.008zM535.155 120.833a.225.225 0 0 1-.052-.445l4.585-1.078a.225.225 0 0 1 .104.439l-4.585 1.078a.185.185 0 0 1-.052.006z"></path>
  <path fill="#E0A368" d="m554.092 158.685 2.515-22.087-1.258-1.353 2.357-.719-2.198-1.953.761-2.316-44.979-2.199-.422 2.199-2.621 1.183 3.297 1.699-1.141 1.387.419 21.081 3.85 7.2 33.459-2.093 5.58.381z"></path>
  <path fill="#282727" d="M529.802 138.204h10.28a2.532 2.532 0 1 0 0-5.064h-10.28a2.532 2.532 0 1 0 0 5.064z"></path>
  <path fill="#435A2C" d="M554.655 130.178s.99-1.168.198-2.119c-.793-.951-2.663-1.807-1.332-2.631 1.332-.824 2.948 2.69 4.439 2.375 1.49-.315 1.49-2.501 1.49-2.501s2.441.633 2.568-.572-1.046-1.902-1.046-1.902 1.997-1.3 1.458-2.219-1.807.507-2.568-.381 6.373-3.519 5.548-4.565c-.824-1.046-1.775-.919-1.68-1.49.095-.571 3.836-3.044 2.314-4.153-1.522-1.11-2.98 1.554-3.995 1.141s-.666-1.554-1.712-1.237-2.41 5.961-3.551 5.802c-1.141-.159.602-3.392-1.205-3.519s-1.585 1.11-2.283-.19c-.697-1.3-2.631-2.949-2.441-1.205.19 1.744 1.141 3.551.697 3.646-.444.095-1.237-.697-1.363.349-.127 1.046 1.3 4.597.666 5.326-.634.729-2.219-1.585-2.758-2.093s-2.917.063-2.917.063l-2.186 11.505 11.659.57z"></path>
  <path fill="#1E1D1D" d="M547.654 130.061a.212.212 0 0 1-.092-.02c-.114-.051-.165-.184-.114-.298.016-.036 1.633-3.619 4.288-6.56 2.639-2.922 10.901-10.59 10.984-10.667a.227.227 0 0 1 .319.012.225.225 0 0 1-.012.318c-.083.077-8.33 7.732-10.956 10.639-2.607 2.887-4.195 6.407-4.211 6.442a.224.224 0 0 1-.206.134z"></path>
  <path fill="#1E1D1D" d="M549.613 126.565a.226.226 0 0 1-.217-.163l-1.291-4.464a.226.226 0 0 1 .433-.125l1.291 4.464a.226.226 0 0 1-.216.288zM558.404 123.464h-.011l-6.136-.299a.225.225 0 0 1-.215-.236c.006-.124.127-.224.236-.214l6.136.299a.225.225 0 0 1-.01.45zM554.851 120.544a.227.227 0 0 1-.215-.157l-1.456-4.562a.226.226 0 0 1 .146-.284.23.23 0 0 1 .284.146l1.456 4.562a.226.226 0 0 1-.215.295zM559.032 116.516a.226.226 0 0 1-.034-.448l3.589-.534a.219.219 0 0 1 .256.19.225.225 0 0 1-.189.256l-3.589.534a.389.389 0 0 1-.033.002z"></path>
  <path fill="#C60000" d="m545.372 129.724 1.377-10.502-7.725 2.519-1.04 7.622z"></path>
  <ellipse cx="542.968" cy="119.218" fill="#D14A4A" rx="5.92" ry="3.583" transform="rotate(-67.945 542.971 119.227)"></ellipse>
  <circle cx="542.71" cy="115.9" r=".523" fill="#C60000"></circle>
  <circle cx="544.676" cy="117.643" r=".84" fill="#C60000"></circle>
  <circle cx="541.029" cy="119.53" r=".444" fill="#C60000"></circle>
  <circle cx="543.693" cy="121.591" r=".983" fill="#C60000"></circle>
  <circle cx="541.442" cy="122.906" r=".333" fill="#C60000"></circle>
  <path fill="#6A8C53" d="M523.296 108.275s.127-7.736 4.861-7.778c4.735-.042 6.069 9.921 6.069 9.921l-2.751 3.839-2.135 2.547-6.975-2.695.254-3.17s1.184.127 1.395-1.015-.718-1.649-.718-1.649z"></path>
  <path fill="#1E1D1D" d="M529.341 117.028a.225.225 0 0 1-.225-.211l-.845-13.39a.225.225 0 0 1 .21-.239c.125-.017.232.087.239.211l.845 13.39a.225.225 0 0 1-.21.239h-.014z"></path>
  <path fill="#1E1D1D" d="M528.739 107.483a.224.224 0 0 1-.144-.052l-2.23-1.858a.226.226 0 0 1-.029-.317.228.228 0 0 1 .318-.029l2.23 1.858c.095.08.108.222.029.317a.231.231 0 0 1-.174.081zM528.918 110.334a.226.226 0 0 1-.154-.39l3.044-2.85a.226.226 0 0 1 .308.33l-3.044 2.85a.23.23 0 0 1-.154.06zM529.101 113.231a.218.218 0 0 1-.151-.059l-2.592-2.364a.225.225 0 1 1 .303-.333l2.592 2.364a.225.225 0 0 1-.152.392z"></path>
  <path fill="#D14A4A" d="M531.962 129.069s1.48-1.856 1.818-2.913.254-2.536.254-2.536.888-.021.909-1.046c.021-1.025-2.386-6.089-3.55-6.749s-3.096-.913-3.096-.913-1.491-1.825-2.675-1.906c-1.184-.081-2.283.469-2.283.469s-2.071-.761-3.678-.254c-1.606.507-7.271 4.888-8.074 7.812-.803 2.925.514 7.065.514 7.065l19.861.971z"></path>
  <path fill="#435A2C" d="M522.74 128.618s.894-4.808.556-6.045c-.338-1.236-2.367-2.801-2.367-2.801s.55-1.353-.846-2.621c-1.395-1.268-2.79-.861-2.79-.861s-1.48-2.14-2.875-2.859-1.576.402-3.092-.75c-1.516-1.152-3.291-1.765-3.08-.232.211 1.532 2.947 2.63 3.08 4.089s1.486 3.087 2.754 2.992 1.86-.032 2.832 1.078 1.099 2.188 2.367 1.966 2.579.247 2.917 1.534c.339 1.287.544 4.51.544 4.51z"></path>
  <path fill="#6A8C53" d="M535.428 113.263c.888-.803 2.452-1.48 2.198.296-.254 1.775-1.283 1.67-1.085 2.864s1.272 1.464-.69 2.336-3.255-.932-3.424.464c-.169 1.396-.36 2.127-1.638 2.036-1.278-.091-1.194-.429-1.87.163s-1.268 1.726-2.24 1.519c-.972-.208-3.357 1.533-3.357 1.533l-.744-2.883s1.31-1.945 2.41-2.875c1.099-.93 1.122-.414 2.029-1.437.907-1.023-.085-1.969 1.48-2.337 1.564-.368 2.283.604 2.98-.685.696-1.29 3.951-.994 3.951-.994z"></path>
  <path fill="#1E1D1D" d="M522.74 128.843h-.015a.225.225 0 0 1-.21-.24c.003-.04.272-4.073-.149-5.155-.326-.84-.909-1.391-2.467-2.865-.456-.431-.994-.94-1.632-1.557-2.791-2.697-6.549-4.25-6.587-4.265a.226.226 0 0 1 .171-.417c.038.016 3.877 1.602 6.729 4.358a187.6 187.6 0 0 0 1.628 1.553c1.611 1.525 2.215 2.095 2.578 3.029.456 1.175.189 5.179.177 5.349a.222.222 0 0 1-.223.21z"></path>
  <path fill="#1E1D1D" d="M523.135 124.162a.225.225 0 0 1-.162-.382c.015-.015 1.501-1.548 3.388-3.184 1.348-1.168 2.71-1.865 4.15-2.603a47.96 47.96 0 0 0 1.919-1.021c2.128-1.212 3.18-2.545 3.19-2.559a.225.225 0 1 1 .356.276c-.044.057-1.112 1.414-3.322 2.674-.669.381-1.314.711-1.936 1.03-1.417.725-2.754 1.41-4.06 2.543-1.873 1.623-3.345 3.142-3.36 3.157a.229.229 0 0 1-.163.069z"></path>
  <path fill="#435A2C" d="M516.49 128.312s.317-1.047-.444-2.22c-.761-1.173-1.712-1.585-2.79-2.853s-.983-2.061-.983-2.061.032 2.219 1.427 3.773c1.395 1.553 1.871 1.582 1.902 2.218.032.636.063 1.144.063 1.144h.825v-.001zM527.523 128.852s.239-.54 1.578-1.966c1.339-1.427 2.29-.893 2.987-2.412.697-1.519.888-2.502.888-2.502s.063 2.125-.571 3.44-2.505 1.854-3.488 2.488c-.982.634-1.394.952-1.394.952zM525.705 118.208s.106-1.542-.633-2.726c-.74-1.184-1.733-2.008-1.733-2.008s1.268 1.858 1.628 3.064c.358 1.206.738 1.67.738 1.67z"></path>
  <path fill="#38305E" d="M452.063 154.437s23.753-42.299 38.602-50.237c14.848-7.938 24.263-3.47 24.263-3.47l-8.035 71.217-11.345 14.221-43.485-31.731z"></path>
  <path fill="#DDA783" d="m536.109 152.8-5.744 2.258s2.92-33.411.287-41.491-9.583-12.095-15.724-12.836-12.829 1.975-20.664 13.189-17.571 30.486-14.746 37.103c2.825 6.617 9.356 11.274 13.843 11.392 4.488.118 10.413-5.204 10.413-5.204s1.863 19.104 9.08 24.962c7.216 5.858 13.784 1.049 17.313-1.398 3.528-2.447 13.829-10.223 13.829-10.223s.745-7.268-1.535-11.137c-2.282-3.87-6.352-6.615-6.352-6.615z"></path>
  <path fill="#1E1D1D" d="m503.773 157.21-5.086-29.378 2.557 31.353zM427.967 196.414l32.719 27.266 6.468-7.355 12.682 7.355 29.929-26.632-14.584-11.16-30.847-22.5-12.271-8.951z"></path>
  <path fill="#DDA783" d="M375.717 225.963s40.075 31.958 45.148 32.973 8.624-.169 12.344-4.227 27.478-31.028 27.478-31.028l-32.719-27.266s-8.624 20.08-13.358 21.432c-4.735 1.353-24.857-12.851-24.857-12.851l-14.036 20.967z"></path>
  <path fill="#F8F2ED" d="M467.154 216.325s-15.979-7.102-20.798-13.57c-4.819-6.468-5.77-10.463-5.77-10.463s.698 8.687 6.404 14.331c5.707 5.643 17.49 12.743 17.49 12.743l2.674-3.041z"></path>
  <path fill="#DDA783" d="M479.836 223.68s28.788 13.612 28.957 16.486c.169 2.875-11.836 25.026-11.836 25.026l26.547 1.86s21.137-31.282 21.306-37.369-3.213-10.315-10.146-15.218c-6.933-4.904-24.899-17.417-24.899-17.417l-29.929 26.632z"></path>
  <path fill="#38305E" d="m376.55 226.574-14.376-12.117 12.081-20.25 16.7 11.622z"></path>
  <path fill="#1E1D1D" d="m337.741 223.493 30.327-34.714 8.974 7.366s-12.295 13.742-11.35 15.584c.946 1.842 3.298 3.072 3.808 4.508.51 1.436-1.074 3.488-1.074 3.488s-9.594-2.49-16.457-1.075c-6.864 1.416-14.228 4.843-14.228 4.843z"></path>
  <path fill="#FFE9D7" d="m363.124 185.084 4.944 3.695-30.327 34.714s-1.767 1.094-2.874 1.374c-1.107.281-2.316.063-2.316.063l30.573-39.846zM349.441 213.541a1.183 1.183 0 0 0-.884 1.421l1.075 4.611a1.183 1.183 0 1 0 2.306-.537l-1.075-4.611a1.184 1.184 0 0 0-1.422-.884zM354.693 212.928a1.184 1.184 0 0 0-.884 1.422l1.075 4.611a1.183 1.183 0 1 0 2.305-.537l-1.075-4.611a1.182 1.182 0 0 0-1.421-.885zM360.199 212.553a1.184 1.184 0 0 0-.884 1.422l1.075 4.611a1.183 1.183 0 1 0 2.305-.537l-1.075-4.611a1.183 1.183 0 0 0-1.421-.885z"></path>
  <path fill="#FFE9D7" d="M375.633 194.99s-7.054 6.944-11.879 8.034c-4.826 1.09-8.547.476-8.547.476l2.099-2.402s5.143.424 9.046-1.832c3.902-2.255 7.285-5.915 7.285-5.915l1.996 1.639z"></path>
  <path fill="#38305E" d="m523.504 267.052-11.178 17.937-25.476-2.257 10.106-17.539z"></path>
  <path fill="#DDA783" d="M555.932 131.284s-5.804 1.21-6.964 1.379c-1.16.169-.23 13.107 2.476 13.233s10.061-1.432 10.399-2.387c.338-.954-3.254-12.664-3.424-12.917-.169-.254-2.149-.335-2.149-.335l-.338 1.027z"></path>
  <path fill="#1E1D1D" d="m488.205 280.38-11.585 16.133 54.279 3.889s-.972-2.452-4.227-4.861c-3.255-2.41-8.525-2.818-10.991-7.398s.113-8.717.113-8.717-.958-.795-3.664-.499c-2.705.296-1.86 3.91-4.713 4.481-2.855.571-19.212-3.028-19.212-3.028z"></path>
  <path fill="#FFE9D7" d="m476.619 296.513-5.411 6.838h62.236s-.095-.602-1.205-1.712c-1.11-1.11-1.342-1.237-1.342-1.237l-54.278-3.889z"></path>
  <path fill="#FFE9D7" d="M484.818 285.186s9.68 1.479 13.443 4.692c3.762 3.213 6.006 8.616 6.006 8.616l-3.302-.237s-3.127-6.435-7.27-8.21c-4.143-1.775-10.423-2.799-10.423-2.799l1.546-2.062zM515.887 295.447a1.185 1.185 0 0 0 1.62.423l4.085-2.394a1.185 1.185 0 0 0-1.197-2.043l-4.085 2.394a1.183 1.183 0 0 0-.423 1.62zM512.027 292.303a1.185 1.185 0 0 0 1.62.423l4.085-2.394a1.184 1.184 0 0 0-1.197-2.043l-4.085 2.394a1.183 1.183 0 0 0-.423 1.62zM510.02 287.29a1.185 1.185 0 0 0 1.62.423l4.085-2.394a1.185 1.185 0 0 0-1.197-2.043l-4.085 2.394a1.183 1.183 0 0 0-.423 1.62z"></path>
  <path fill="#38305E" d="m536.109 152.8 7.886 17.751 13.577-11.108-8.512-12.9z"></path>
  <path fill="#DDA783" d="M549.124 146.466s3.566-5.39 5.849-6.595 16.169.38 17.945 1.902c1.775 1.522 3.297 13.443 3.297 14.521s-9.448 7.736-9.448 7.736-1.395-.666-1.871-1.744c-.476-1.078.602-3.297.602-3.297l-8.518.938-7.856-13.461z"></path>
  <path fill="#1E1D1D" d="m565.499 158.989 4.121-3.931-1.648-5.453-3.646-.476h3.994l1.903-3.234-1.649 3.678 1.649 5.295 3.17.888-3.424-.317z"></path>
  <circle cx="566.479" cy="153.172" r="3.937" fill="#1E1D1D"></circle>
  <path fill="#1E1D1D" d="M395.624 303.351h156.699v7.117H395.624z"></path>
  <ellipse cx="550.351" cy="312.194" fill="#1E1D1D" rx="14.634" ry="9.976" transform="rotate(-65.216 550.351 312.191)"></ellipse>
  <ellipse cx="550.347" cy="312.189" fill="#D36101" rx="5.116" ry="3.488" transform="rotate(-65.216 550.347 312.186)"></ellipse>
  <ellipse cx="387.974" cy="312.199" fill="#1E1D1D" rx="14.634" ry="9.976" transform="rotate(-65.216 387.975 312.196)"></ellipse>
  <ellipse cx="387.972" cy="312.194" fill="#D36101" rx="5.116" ry="3.488" transform="rotate(-65.216 387.973 312.192)"></ellipse>
  <path fill="#1E1D1D" d="M554.326 290.001s4.135-.483 8.362 2.381c4.227 2.863 5.834 7.513 5.834 7.513l-3.213 2.029s-1.775-4.481-4.735-5.918c-2.959-1.437-6.691-1.591-6.691-1.591l.443-4.414zM390.347 291.427s3.834.021 8.362 2.381c4.419 2.303 6.976 9.543 6.976 9.543h-4.355s-1.775-4.481-4.735-5.918c-2.959-1.437-6.691-1.591-6.691-1.591l.443-4.415zM550.239 144.879s2.88-4.331 4.932-5.093c2.053-.761 5.904-.25 5.904-.25s-2.806-.574-5.12-.638c-2.314-.063-6.277 4.692-6.277 4.692s.189.539.348.84c.159.302.213.449.213.449zM548.494 136.173l8.36-1.84-8.318 2.704zM548.82 139.768l7.146-1.842-7.015 2.67zM555.932 131.284l1.774-.233h-1.698z"></path>
  <path fill="#282727" d="M522.406 86.679s1.517-2.439 2.422-3.379c.906-.941 1.672-1.487 1.672-1.487s-5.587-.417-5.216-4.469 4.19-4.236 6.006-2.304 1.774 5.107 1.774 5.107 4.893.343 6.196 3.473c1.304 3.13-.172 6.76-.172 6.76l-11.566 2.826-1.116-6.527z"></path>
  <path fill="#DDA783" d="m513.831 101.163 6.562-7.517s-3.206-2.877-1.615-5.842c1.591-2.966 4.093-1.143 4.767.04.674 1.184.983 2.758.983 2.758s4.351-6.541 5.274-6.117.214 3.121 1.679 4.425c1.465 1.303 3.608 1.471 3.608 1.471l-2.141 4.132s2.535.53 2.563 1.562-3.85 1.271-3.85 1.271l-4.532 13.048-13.298-9.231z"></path>
  <path fill="#282727" d="M520.99 89.216s.755.27 1.042.975-.091 1.821-.091 1.821l-.951-2.796z"></path>
  <ellipse cx="531.307" cy="92.438" fill="#282727" rx="1.239" ry=".553" transform="rotate(-76.638 531.323 92.44)"></ellipse>
</svg>
