<svg xmlns="http://www.w3.org/2000/svg" xml:space="preserve" viewBox="0 0 600 400" id="people-playing-with-dogs">
  <path fill="#6A8C53" d="M445.039 346.938s-9.971-26.073-7.392-36.904c2.579-10.83 7.048-14.355 9.627-11.303 2.579 3.051 4.298 9.24 7.736 5.974s.458-27.162 3.839-35.242c3.381-8.08 7.335-17.191 11.461-13.581 4.126 3.61 2.542 13.78 6.6 15.657 4.058 1.878 32.508-33.252 32.508-33.252s2.151 2.294 11.09-2.061 20.171-16.847 25.557-10.773c5.387 6.074-22.348 26.36-21.546 31.173.802 4.813 15.357 8.481 16.045 15.587.688 7.106-32.488 18.803-32.488 18.803l-.402 15.809s7.218.688 6.874 6.303-37.133 33.809-37.133 33.809l-32.376.001z"></path>
  <path fill="#1E1D1D" d="M455.182 347.159a.331.331 0 0 1-.313-.435c.162-.477 16.334-47.878 29.794-65.087 13.446-17.19 48.176-46.684 48.525-46.98a.329.329 0 1 1 .425.503c-.348.295-35.027 29.746-48.432 46.884-13.39 17.12-29.526 64.416-29.687 64.891a.33.33 0 0 1-.312.224z"></path>
  <path fill="#1E1D1D" d="M490.146 276.007a.33.33 0 0 1-.048-.655l36.379-5.354a.325.325 0 0 1 .374.278.329.329 0 0 1-.278.374l-36.379 5.354a.387.387 0 0 1-.048.003zM518.759 248.098a.33.33 0 0 1-.06-.653l10.001-1.858a.33.33 0 0 1 .12.648l-10.001 1.858a.304.304 0 0 1-.06.005zM471.591 305.837a.33.33 0 0 1-.32-.25l-7.125-28.481a.33.33 0 0 1 .24-.4.336.336 0 0 1 .4.24l7.125 28.481a.33.33 0 0 1-.32.41zM466.648 317.091a.33.33 0 0 1-.015-.659l31.856-1.455a.337.337 0 0 1 .345.314.331.331 0 0 1-.314.345l-31.856 1.455h-.016zM458.849 336.915a.328.328 0 0 1-.305-.207l-10.715-26.724a.329.329 0 1 1 .611-.245l10.715 26.724a.329.329 0 0 1-.306.452zM457.328 341.075a.33.33 0 0 1-.074-.651l20.031-4.581a.33.33 0 1 1 .148.642l-20.031 4.581a.272.272 0 0 1-.074.009z"></path>
  <path fill="#6A8C53" d="M519.305 339.99s4.985-4.06 13.409-6.005 13.652-2.977 14.046-8.822c.394-5.845-6.826-7.22-6.826-10.659 0-3.438 26.818-10.487 29.397-15.3s-4.298-4.119-3.782-8.334 9.111-7.481 9.283-13.154-19.77 4.813-22.52 4.642c-2.751-.172-3.094-4.814-7.392-3.954-4.298.859-14.269 23.896-18.394 23.896-4.126 0-2.811-9.627-7.766-9.627s-14.066 27.889-14.066 27.889-1.653 14.512 3.643 17.895c5.295 3.381 10.968 1.533 10.968 1.533z"></path>
  <path fill="#1E1D1D" d="M509.792 332.598a.328.328 0 0 1-.258-.533c.118-.149 11.886-14.971 22.275-24.05 10.373-9.066 31.263-25.409 31.473-25.574a.33.33 0 1 1 .406.52c-.21.164-21.086 16.495-31.445 25.55-10.344 9.039-22.075 23.815-22.193 23.962a.329.329 0 0 1-.258.125z"></path>
  <path fill="#1E1D1D" d="m541.106 300.945-.034-.002a.33.33 0 0 1-.293-.362l1.579-15.237a.324.324 0 0 1 .362-.293.33.33 0 0 1 .293.362l-1.579 15.237a.332.332 0 0 1-.328.295zM536.639 304.652a.33.33 0 0 1-.024-.658l18.595-1.337c.203-.02.34.124.353.305a.33.33 0 0 1-.305.353l-18.595 1.337h-.024zM560.736 291.199h-7.044a.33.33 0 0 1-.322-.399l1.543-7.137a.328.328 0 1 1 .643.139l-1.456 6.738h6.635a.33.33 0 0 1 .001.659zM522.39 318.042a.329.329 0 0 1-.321-.257l-3.054-13.39a.328.328 0 0 1 .248-.394.328.328 0 0 1 .394.248l3.054 13.39a.328.328 0 0 1-.321.403zM534.261 326.352a.432.432 0 0 1-.05-.003l-17.026-2.614a.33.33 0 0 1 .1-.652l17.027 2.614a.33.33 0 0 1 .276.376.333.333 0 0 1-.327.279z"></path>
  <path fill="#AD5505" d="M153.822 326.839s-1.332-1.16-2.708-.903c-1.375.258-1.59 2.965-1.59 2.965s-.688.072-1.075.96 0 1.92 0 1.92-1.289-.86-2.708-.387c-1.418.473-1.934 1.074-1.934 1.074s-.215-.473-.902-.215c-.688.258-1.547.988-1.547.988l2.836 2.235 21.532.774 6.06-3.008s-1.633-1.375-2.235-1.332-1.031.473-1.031.473-.215-1.59-1.117-2.149c-.903-.559-2.45-.372-2.45-.372s.43-1.003-.817-1.604c-1.246-.602-2.149-.387-2.149-.387s.086-1.203-.688-1.762-2.106-.209-2.106-.209-.043-1.897-1.59-1.639-1.375 1.633-1.375 1.633-.731-.43-1.504-.043c-.773.386-.902.988-.902.988z"></path>
  <path fill="#598CB2" d="m134.998 346.565 6.361-13.323s6.361 1.375 15.042 1.461c8.682.086 15.386-1.461 15.386-1.461l5.673 13.323h-42.462z"></path>
  <path fill="#1E1D1D" d="M151.673 329.317s-.315-1.06 1.347-1.318 2.034.86 2.034.86-1.547-.888-2.263-.544c-.717.343-1.118 1.002-1.118 1.002zM160.469 330.721s.831-.373 1.748 0c.917.372.573 2.063.573 2.063s.115-1.261-.688-1.662c-.802-.401-1.633-.401-1.633-.401zM154.452 331.323s.315-1.127 1.347-1.079c1.031.048 1.146.707 1.146.707s-.888-.704-1.433-.395c-.544.308-1.06.767-1.06.767zM157.604 328.171s.516-.364 1.49-.211 1.089.87 1.089.87.516-.115.917 0 .344.745.344.745-.172-.487-.802-.43-.888.172-.888.172-.287-.946-.86-1.06c-.574-.115-1.29-.086-1.29-.086zM149.696 332.956s.143-.974 1.289-1.003 1.347.831 1.347.831-1.089-.659-1.49-.544c-.401.114-1.146.716-1.146.716zM164.509 331.952s.888-.451 1.719-.283c.831.169.716 1.286.716 1.286s-.081-.917-1.215-.859-1.22-.144-1.22-.144zM156.229 332.956s.458-1.205 1.805-1.004 2.063 1.519 2.063 1.519-1.547-1.181-2.264-1.178c-.716.004-1.604.663-1.604.663z"></path>
  <path fill="#FFE9D7" d="m151.458 339.001 8.639-.215s1.053-2.278 3.481-1.698c2.428.58-.408 3.223-.344 3.503.064.279 2.335 1.354 1.275 2.858s-4.198-1.246-4.198-1.246l-8.359.086s-2.514 3.223-4.556 1.913c-2.041-1.311.451-3.447.451-3.447s-2.364-4.096.215-4.203c2.58-.108 3.396 2.449 3.396 2.449z"></path>
  <path fill="#1E1D1D" d="M386.767 159.268s3.347-7.821 4.206-8.251c.86-.43 8.338-6.361 8.338-6.361s2.493 1.977.688 4.899c-1.805 2.923-4.126 4.985-4.47 6.79s-.172 12.636-1.031 14.698-11.97 16.025-11.97 16.025-3.846-3.303-4.963-6.827c-1.118-3.524 9.202-20.973 9.202-20.973zM389.362 289.724s1.125 9.079.895 10.397c-.229 1.318-10.257 16.87-10.028 20.44s1.49 6.55 2.521 9.186c1.032 2.636 2.12 6.762 2.12 6.762l-6.282-3.417s-8.101-14.519-4.835-21.911c3.267-7.393 15.609-21.457 15.609-21.457zM334.816 165.004s-1.576-.865-2.608 2.516c-1.031 3.381 1.628 8.309 2.447 12.091s1.209 8.84 1.209 8.84l5.625 4.812s1.55.472 2.409 0 1.305-2.228 1.305-2.228l-10.387-26.031z"></path>
  <path fill="#AD5505" d="M358.654 148.352s-.688-3.954-1.977-5.157-3.094-1.375-3.094-1.375-5.415 8.682-6.619 11.088c-1.203 2.407-2.235 3.782-2.235 3.782s-6.16 2.063-8.194 4.47-2.493 6.418-1.003 10.2c1.49 3.782 2.407 7.736 2.865 9.627.458 1.891 2.177 2.292 2.177 2.292s.688 4.24 2.693 5.902 3.387 3.61 3.387 3.61 2.859 6.074 3.891 9.627 1.331 9.991 1.331 9.991l12.709 90.233s.946 5.157.258 6.318c-.688 1.16-1.16 1.375-.903 2.149.258.774.172 1.332-.129 1.375s-1.375-.43-1.719 0 1.461 4.814 1.891 6.49.693 3.776.693 3.776.166 3.199 4.636 7.275c4.47 4.077 11.066 3.959 11.066 3.959s-5.823-12.346-4.276-17.589c1.547-5.243 13.638-20.457 13.753-30.314.115-9.856-7.908-32.319-7.908-32.319s11.174-29.339 9.455-40.342c-1.719-11.002-11.69-32.802-11.69-32.802s7.736-13.041 7.507-16.479-1.834-16.847-1.375-18.165c.458-1.318 3.897-3.209 4.069-4.584s-1.662-3.782-1.662-3.782-8.596 6.189-9.627 8.538c-1.031 2.35-.63 13.466-.974 14.67-.344 1.203-15.93 10.658-15.93 10.658s-2.464-4.942-1.519-8.896 3.137-7.994 2.493-10.401c-.645-2.407-4.04-3.825-4.04-3.825z"></path>
  <path fill="#1E1D1D" d="M490.51 57.927s-1.031-5.716 3.18-5.028c4.212.688 3.61 4.685 2.063 5.544-1.547.86-3.352.817-3.352.817s.903.988 1.031 1.891c.129.903.04 2.271.04 2.271l-3.074 4.82-4.616-2.106-1.16-5.286s.645-1.762 2.536-2.45c1.89-.688 3.352-.473 3.352-.473z"></path>
  <path fill="#CE8A41" d="m480.496 74.946 1.246-5.587s-2.02-1.289-2.149-2.45c-.129-1.16 3.137-1.074 3.137-1.074l1.891-4.985s2.836-1.848 3.567 0-.473 6.318 1.16 5.673c1.633-.645 4.47-5.243 7.005-2.536 2.536 2.708.387 4.985-.645 5.501-1.031.516-1.676.645-1.676.645l.645 6.662-14.181-1.849z"></path>
  <path fill="#38305E" d="m430.083 99.787 13.237 21.145 6.017-4.384-8.424 50.198 71.429.516 1.289-48.995 10.744-4.04s-1.891-17.191-4.47-23.638-12.292-12.12-14.698-12.893c-2.407-.774-32.262-3.983-37.763-3.753-5.501.229-12.836 4.47-17.42 8.596-4.584 4.126-19.941 17.248-19.941 17.248z"></path>
  <path fill="#1E1D1D" d="m450.97 108.555-1.633 7.994-.635.462zM513.632 118.268l.172-11.132 1.014 10.685z"></path>
  <path fill="#CE8A41" d="M512.449 163.221s19.176 17.421 24.104 23.61 9.627 13.409 9.627 13.409l15.014-6.59s-2.292-5.96-4.24-9.512c-1.948-3.553-3.438-5.272-3.438-5.272s8.481 3.323 9.111 2.865 1.948-4.068 1.604-4.698-11.575-4.527-16.905-10.372c-5.329-5.845-21.088-28.996-21.088-28.996l-1.862-23.437-10.744 4.04-1.183 44.953z"></path>
  <path fill="#1E1D1D" d="M545.836 188.78s2.521 3.324 3.266 4.47 2.053 4.807 2.053 4.807l-1.076.472-4.243-9.749zM551.156 186.029s2.531 3.553 3.333 5.1 1.738 4.701 1.738 4.701l-.724.318-4.347-10.119zM553.515 178.866s-1.662.401-3.152.974-4.756.287-4.756.287 4.04.774 5.071.401c1.032-.372 2.837-1.662 2.837-1.662zM514.818 165.392l-1.416-38.377-.953 36.206z"></path>
  <path fill="#D36101" d="m511.225 167.262-3.667 144.147-29.339 3.897-3.439-115.066s-12.378 49.281-14.67 53.865c-2.292 4.584-25.901 53.178-25.901 53.178l-27.735-11.461s22.005-44.238 23.609-49.969 12.607-79.095 12.607-79.095l68.535.504z"></path>
  <path fill="#CE8A41" d="M430.083 99.787s-10.057 9.283-11.69 9.799-41.946 1.117-42.978 1.547c-1.031.43-.859 4.212-.859 4.212s-5.587.152-6.447 1.666 2.751 15.353 4.298 16.299 54.066.946 57.246-.43c3.18-1.375 13.667-11.948 13.667-11.948l-13.237-21.145z"></path>
  <path fill="#1E1D1D" d="M382.521 132.049s2.12-1.776 2.12-4.126c0-2.35-.745-11.518-1.662-12.206s-8.424-.372-8.424-.372 7.564 1.06 7.851 1.862c.287.802.458 3.037.458 3.037l-7.621.946 7.736.129.387 5.372-7.908.473 7.951.258s.258 1.117-.086 2.235c-.344 1.117-.802 2.392-.802 2.392z"></path>
  <path fill="#C60000" d="m479.937 181.703-5.157 18.537.055 1.835z"></path>
  <path fill="#CE8A41" d="M507.558 311.983s.573 17.993 2.235 20.285 5.845 3.954 5.845 3.954h4.47s4.24 1.146 4.985 4.011-2.636 5.558-2.636 5.558l-36.617.344s-4.298-1.719-5.616-7.22-2.006-23.609-2.006-23.609l29.339-3.897v.574h.001z"></path>
  <path fill="#1E1D1D" d="m501.942 335.649 13.696.573h1.776s1.547.845 1.891 3.768-2.278 5.853-2.278 5.853 1.719-3.876 1.548-5.466c-.172-1.59-1.203-3.18-1.203-3.18l-5.673-.043s.859 3.051 0 5.415c-.86 2.364-3.524 3.274-3.524 3.274s2.622-2.544 2.923-4.263-.457-4.427-.457-4.427l-8.699-1.504z"></path>
  <path fill="#CE8A41" d="M434.209 307.284s-12.148 25.214-12.378 26.474c-.229 1.261 0 2.521 0 2.521h3.094s4.083.788 3.739 4.699-3.825 5.673-3.825 5.673l-24.695-.516-4.484-6.224s-2.788-10.967-2.191-13.717c.597-2.751 13.003-30.371 13.003-30.371l27.737 11.461z"></path>
  <path fill="#1E1D1D" d="M404.697 317.713s.63 3.295-1.318 4.957-4.04 0-4.04 0 2.168.559 3.639-.516c1.472-1.075 1.719-4.441 1.719-4.441zM487.934 323.174s.63 3.295-1.318 4.957-4.04 0-4.04 0 2.168.559 3.639-.516c1.471-1.074 1.719-4.441 1.719-4.441zM407.391 336.165l14.441.115-1.719.358s2.149 1.547 1.719 4.427-3.351 5.454-3.351 5.454h-1.075s2.45-2.446 2.922-4.724c.473-2.278-1.59-4.728-1.59-4.728h-6.318s1.289 1.633.688 4.513c-.602 2.879-3.74 4.748-3.74 4.748l-1.374-.029s3.997-2.829 4.126-4.677-1.289-4.556-1.289-4.556l-3.44-.901zM343.211 165.228s8.71 9.799 8.882 18.968-1.662 10.143-2.693 10.257-3.031-2.042-3.031-2.042 2.458 1.641 3.375.896c.917-.745 2.063-5.157 1.433-8.71-.63-3.553-3.553-11.518-4.756-13.638a894.337 894.337 0 0 1-3.21-5.731z"></path>
  <circle cx="346.993" cy="161.904" r="2.12" fill="#1E1D1D"></circle>
  <path fill="#1E1D1D" d="M351.627 144.984s1.067.99 2.672.846c1.605-.143 2.865-2.017 2.865-2.017s-.552-1.068-1.816-1.489c-1.264-.42-1.765-.506-1.765-.506l-1.956 3.166z"></path>
  <path fill="#D36101" d="M357.88 152.105s1.805 4.441 3.295 6.733 3.839 2.751 3.18 5.644-2.607 4.011-5.473 2.321-3.18-7.937-3.008-9.34c.173-1.404 2.006-5.358 2.006-5.358z"></path>
  <path fill="#C60000" d="M361.061 163.566s-2.264-2.693-2.837-4.756-1.284-4.548-1.284-4.548l-.401 1.008s.252 2.05 1.198 4.514c.946 2.464 3.324 3.782 3.324 3.782z"></path>
  <path fill="#1E1D1D" d="m358.654 148.352-.774 3.753s.487-.43.774-1.261c.286-.83 0-2.492 0-2.492zM375.816 215.77s0 2.063 1.433 1.834 1.318-1.49 1.318-1.49.172 1.411.974 1.508 1.375-1.565 1.375-1.565-.229 1.662 1.375 1.031c1.605-.63 1.49-2.235 1.49-2.235s-1.49 2.242-2.006 1.834c-.516-.408-.86-1.289-.86-1.289s-.559 1.569-1.225 1.461c-.666-.107-1.139-1.547-1.139-1.547s-.215 1.805-1.268 1.741c-1.051-.066-1.467-1.283-1.467-1.283zM363.119 200.284s0 2.063 1.433 1.834 1.318-1.49 1.318-1.49.172 1.411.974 1.508 1.375-1.565 1.375-1.565-.229 1.662 1.375 1.031c1.604-.63 1.49-2.235 1.49-2.235s-1.49 2.242-2.006 1.834c-.516-.408-.859-1.289-.859-1.289s-.559 1.569-1.225 1.461c-.666-.107-1.139-1.547-1.139-1.547s-.215 1.805-1.268 1.741c-1.052-.065-1.468-1.283-1.468-1.283zM370.738 235.327s0 2.063 1.433 1.834 1.318-1.49 1.318-1.49.172 1.411.974 1.508 1.375-1.565 1.375-1.565-.229 1.662 1.375 1.031c1.604-.63 1.49-2.235 1.49-2.235s-1.49 2.242-2.006 1.834c-.516-.408-.86-1.289-.86-1.289s-.559 1.569-1.225 1.461c-.666-.107-1.139-1.547-1.139-1.547s-.215 1.805-1.268 1.741c-1.052-.066-1.467-1.283-1.467-1.283zM377.649 287.868s0 2.063 1.433 1.834c1.433-.229 1.318-1.49 1.318-1.49s.172 1.411.974 1.508 1.375-1.565 1.375-1.565-.229 1.662 1.375 1.031c1.605-.63 1.49-2.235 1.49-2.235s-1.49 2.242-2.006 1.834c-.516-.408-.859-1.289-.859-1.289s-.559 1.569-1.225 1.461c-.666-.107-1.139-1.547-1.139-1.547s-.215 1.805-1.268 1.741-1.468-1.283-1.468-1.283zM492.723 67.124s.301-1.418 1.203-1.784c.903-.365 1.504-.15 1.504-.15l-2.707 1.934z"></path>
  <ellipse cx="485.209" cy="64.385" fill="#1E1D1D" rx=".351" ry=".742"></ellipse>
  <path fill="#E0A368" d="M171.028 205.627s1.046-3.61 0-4.642c-1.046-1.031-9.413-3.725-10.387-5.902-.974-2.178.287-4.412.287-4.412s-2.235-3.152-2.006-6.017.63-3.324.63-3.324 12.492 4.985 16.332 4.642c3.839-.344 8.366-5.501 12.951-4.412 4.584 1.089 5.387 2.636 5.387 2.636s16.561-6.475 17.821-5.043c1.261 1.433-6.017 14.154-8.653 16.962s-4.47 5.157-4.871 6.819-.72 3.064-.72 3.064-1.114 3.125-11.085 5.131c-9.97 2.005-15.686-5.502-15.686-5.502z"></path>
  <path fill="#AD5505" d="M191.758 182.494s9.34-10.547 10.543-10.203.176 8.907.176 8.907l-8.256 2.997-2.463-1.701z"></path>
  <path fill="#DE9641" d="m55.833 245.911-25.443-5.673 18.968-57.762s3.438-11.69 11.919-15.014 15.816-.974 15.816-.974l15.851 62.385-37.111 17.038z"></path>
  <path fill="#1E1D1D" d="M72.121 165.801s-.903-1.218-.602-2.564c.301-1.347 1.16-1.003.903-1.69-.258-.688-8.295 2.02-9.283-2.149-.988-4.169 1.891-5.716 3.997-5.63 2.106.086 5.028 1.461 5.544.215s-.817-4.599.516-5.974c1.332-1.375 4.899.344 5.544-.602s-1.762-7.564 1.418-8.639 6.189 3.094 7.564 6.619 1.461 4.642 2.235 3.481c.774-1.16 2.149-9.67 5.544-7.908s-3.352 12.292-3.18 13.022c.172.731 2.88.215 2.708 1.848-.172 1.633-1.848 2.794-3.223 2.536-1.375-.258-2.476-2.65-2.476-2.65l-12.236 10.773-4.973-.688z"></path>
  <path fill="#A35824" d="m87.407 171.073 1.375-8.71s2.579-.172 2.464-1.031c-.115-.86-2.407-1.719-2.407-1.719l.489-3.897s-.718.716-1.721.602c-1.003-.115-1.633-.917-1.633-.917s-1.576 3.467-2.349 3.324c-.774-.143-.688-2.55-2.579-2.435s-2.378 2.206-1.891 3.094 1.662 1.175 1.662 1.175l-3.725 5.931 10.315 4.583z"></path>
  <path fill="#1E1D1D" d="M80.803 157.657s.87.161 1.085.677 0 1.257 0 1.257l-1.085-1.934z"></path>
  <path fill="#A35824" d="M83.052 217.546s-12.148 6.189-20.744-2.751-5.73-29.569 0-36.674c5.73-7.106 13.355-13.753 21.863-10.2 8.508 3.553 22.261 20.285 29.596 31.288 7.335 11.002 11.69 16.733 13.409 17.535 1.719.802 39.883-8.596 39.883-8.596l19.483-12.378s1.719 2.98 0 6.418-5.215 6.418-5.215 6.418 3.137.43 8.725-.43c5.587-.86 10.959-3.782 11.776-3.309.817.473-2.794 18.781-3.567 19.555-.774.774-6.103 3.696-21.919 9.111s-59.739 16.074-63.177 15.644c-3.438-.429-30.113-31.631-30.113-31.631z"></path>
  <path fill="#1E1D1D" d="m190.783 215.397 10.566-4.864-.18 1.077zM192.158 220.125l8.049-3.376-.185.901zM69.371 201.816l13.681 15.73-1.317.566zM88.782 285.279l-6.991 3.897 4.47 7.908 1.146-4.814 30.944-2.636-4.126 18.223s39.883-23.838 43.322-30.371c3.438-6.533 4.47-15.701 1.948-20.515-2.521-4.814-25.669-11.907-25.669-11.907l-4.978 1.159s3.37-14.924-4.652-20.54c-8.023-5.616-11.461-4.24-14.555-3.897-3.094.344-16.698 7.087-16.698 7.087l-37.111 17.038-25.443-5.673s-9.455 23.724-2.922 34.554 15.128 13.409 24.068 12.378c8.939-1.031 39.998-16.331 39.998-16.331l-2.751 14.44z"></path>
  <path fill="#F8F2ED" d="m125.113 265.108 9.398-5.386-9.971 7.678-6.189 22.234 10.497-43.411zM96.318 249.19l-4.785 21.649-1.749.851zM87.407 292.27l1.375-6.991-3.074 10.827.553.978zM55.833 245.911l-15.128 7.65 12.889-8.149z"></path>
  <path fill="#A35824" d="M114.225 307.857s-4.154 16.962-3.768 19.541c.387 2.579 1.332 4.985 3.954 6.49 2.622 1.504 3.696 1.504 3.696 1.504l3.696.258s3.567.731 3.653 4.642-2.536 5.028-2.536 5.028H83.768s-4.04-1.633-4.599-6.662c-.559-5.028 7.091-41.574 7.091-41.574l1.146-4.814 30.944-2.636-4.125 18.223z"></path>
  <path fill="#1E1D1D" d="m99.068 335.219 19.039.172s2.88 2.321 2.923 5.544-1.848 4.384-1.848 4.384h-1.032s1.762-1.848 1.633-3.954-3.008-5.157-3.008-5.157l-5.286.043s2.536 1.891 2.149 4.899-1.805 4.169-1.805 4.169h-1.074s1.805-2.063 1.762-4.255c-.043-2.192-3.309-4.899-3.309-4.899l-10.144-.946zM88.611 322.956s1.433 2.206.688 4.155c-.745 1.948-3.753 1.604-3.753 1.604s2.894-.516 3.266-2.178c.372-1.661-.201-3.581-.201-3.581z"></path>
  <path fill="#A35824" d="M81.791 289.176S53.598 304.19 51.42 306.138s-2.292 5.043-2.292 5.043 17.191 33.437 18.452 34.139 16.188 0 16.188 0l-4.308-11.165-4.03.119s-.974-3.954.172-6.246c1.146-2.292 5.742-5.728 5.742-5.728l4.917-25.216-4.47-7.908z"></path>
  <path fill="#1E1D1D" d="M71.677 302.126s.544 2.865-1.605 3.811c-2.149.945-3.753-1.461-3.753-1.461s1.939 1.376 3.553.659 1.805-3.009 1.805-3.009zM69.013 334.417l6.418-.143-.176-.893zM181.328 208.607l-4.126 3.839 5.616-3.743zM197.23 192.361s13.022-11.131 12.636-11.948c-.387-.817-14.784 4.427-14.784 4.427s1.074 1.074 1.59 2.579c.515 1.504.558 4.942.558 4.942zM201.656 173.881c-.231.788-4.335 9.143-4.335 9.143l-3.101 1.172-2.463-1.702c.001 0 10.157-9.491 9.899-8.613z"></path>
  <circle cx="187.95" cy="189.951" r="2.403" fill="#1E1D1D"></circle>
  <path fill="#D36101" d="M166.372 192.354s1.146 3.302 1.662 6.167c.516 2.865 1.009 4.873 3.456 4.299 2.447-.574 3.306-4.414 1.873-7.164s-6.991-3.302-6.991-3.302z"></path>
  <path fill="#C60000" d="M171.242 199.954s-.287-3.066-1.404-4.556-3.467-3.044-3.467-3.044 2.693.609 3.725 2.299c1.032 1.691 1.146 5.301 1.146 5.301z"></path>
  <path fill="#1E1D1D" d="m160.928 190.671 5.444 1.683s-2.55-.251-3.667-.709c-1.118-.459-1.777-.974-1.777-.974z"></path>
  <path fill="#E0A368" d="M195.253 345.964h-8.538s-.63-1.49 1.318-2.178 1.891-.401 2.579-.859c.688-.458 4.126-9.57 3.667-10.601-.458-1.031-15.415-14.039-15.415-14.039l-2.407.287v-1.203h-1.146s8.939-24.984 8.596-26.589c-.344-1.604-11.174-29.053-15.1-37.219-3.925-8.166-6.35-15.84-6.35-15.84l32.795-11.552s5.616 24.727 7.679 39.626c2.063 14.899 5.387 31.059 6.991 33.121s2.521 2.407 2.521 2.407 6.418-3.897 13.18-9.169 9.054-10.888 9.054-10.888 3.209 2.865 2.521 6.876c-.688 4.011-1.719 4.928-1.719 4.928s6.074-2.177 5.96.688c-.115 2.865-9.283 7.564-9.283 7.564s3.897 0 2.636 3.897-10.773 1.719-10.773 1.719 3.209 6.074.802 6.991-12.034-2.521-12.034-2.521.115 1.948-.917 2.178c-1.031.229-3.897-4.584-3.897-4.584l-6.025 5.845s3.332 5.96 5.108 6.991 3.094.688 3.324 1.146c.229.458-.974 2.521-.974 2.521l1.662.401s-2.464 6.762-4.355 10.028c-1.891 3.266-3.61 8.653-3.61 8.653l-7.048.287-.802 1.088z"></path>
  <path fill="#1E1D1D" d="m209.435 302.9 3.009-1.576-.875-.611zM164.16 242.579l31.093-16.409-32.796 11.552zM201.949 314.848s-4.29 3.18-4.633 3.61c-.344.43 4.985 10.315 5.157 11.002.172.688-6.418 15.415-6.418 15.415s8.223-14.527 8.223-15.014-5.673-10.802-5.329-11.575c.344-.774 3-3.438 3-3.438z"></path>
  <path fill="#E0A368" d="M139.329 214.645c.053-.307 5.382-9.075 9.393-10.049s14.463 4.497 14.463 4.497l-23.856 5.552z"></path>
  <path fill="#AD5505" d="M167.059 208.148s-3.725-2.604-5.558-2.763c-1.834-.159-3.895 1.154-3.895 1.154l5.579 2.554 3.874-.945z"></path>
  <path fill="#1E1D1D" d="m85.708 296.106-5.711 27.264 1.347-1.071 4.917-25.215z"></path>
  <ellipse cx="87.199" cy="157.958" fill="#1E1D1D" rx=".279" ry=".666"></ellipse>
  <path fill="#DDA783" d="M324.816 187.691s7.736-2.206 13.294 2.135c5.558 4.341 10.143 14.77 10.143 14.77l-2.808 2.693s-9.226.63-14.039-5.215c-4.813-5.845-6.59-14.383-6.59-14.383z"></path>
  <path fill="#FFE9D7" d="M295.789 253.059s1.192 2.781 4.286 4.5c3.094 1.719 10.143 1.805 10.143 1.805l5.974 14.312L370 251.499l-21.747-46.903s-5.902 1.375-10.716-2.063c-4.813-3.438-12.721-14.842-12.721-14.842l-7.163 2.607-21.864 62.761z"></path>
  <path fill="#FC9365" d="M242.998 222.945s.504-2.018 3.14-1.617 7.335 7.65 7.679 9.713-.067 2.732-.067 2.732-6.379-.554-7.812-2.503c-1.433-1.948-2.94-8.325-2.94-8.325z"></path>
  <path fill="#DDA783" d="m311.078 195.585-3.61-6.447s-2.665.344-3.137-.344c-.473-.688 1.719-2.45 1.719-2.45l-2.751-4.599h7.779l12.12 6.404-12.12 7.436z"></path>
  <path fill="#1E1D1D" d="m325.432 181.058-8.467 8.767-7.693-5.716s-.871.291-2.879-.129c-2.009-.42-3.094-2.235-3.094-2.235s-.258-5.759 5.157-8.338c5.415-2.578 16.976 7.651 16.976 7.651z"></path>
  <circle cx="314.206" cy="180.618" r="6.451" fill="#38305E"></circle>
  <circle cx="314.205" cy="180.618" r="3.195" fill="#D36101"></circle>
  <path fill="#D36101" d="m310.67 175.223-1.833-1.969s-1.026-.766-2.23-.263c-1.203.503-1.226 2.79-1.226 2.79l2.919 2.238 2.37-2.796z"></path>
  <path fill="#DDA783" d="M314.364 234.375s8.532 5.397 14.807 0c6.275-5.396 6.533-10.124 5.157-15.453-1.375-5.329-16.675-28.623-16.675-28.623s-12.893 10.171-20.114 17.764c-7.22 7.593-29.225 29.77-30.944 30.457-1.719.688-28.967 5.157-28.967 5.157l-2.751-.43-13.753-7.564s-1.203 1.203-1.203 2.837c0 1.633 1.633 4.06 1.633 4.06s-4.77-.364-5.415-.665c-.645-.301-.344-1.891-.344-1.891s-2.321 1.243-2.965 2.556c-.645 1.312 5.673 18.289 8.724 20.222 3.051 1.934 55.183 4.713 59.08 3.567 3.898-1.146 33.73-31.994 33.73-31.994z"></path>
  <path fill="#FFE9D7" d="M271.065 244.536s.258 2.665-3.61 4.04-6.447.614-6.447.614-.774 2.136-3.954 3.082c-3.18.945-19.426-8.596-19.426-8.596l-2.751-.43-13.753-7.564s-1.246 1.16-1.203 2.837c.043 1.676 1.633 4.06 1.633 4.06l-5.102-.574-.313-.091-.344-1.891.559-2.235-.945.215s8.295-21.575 11.131-22.606c2.837-1.032 5.673-.344 7.134.774 1.461 1.117 3.094 5.071 3.094 5.071s5.028.731 8.123 2.665c3.094 1.934 4.255 7.005 4.255 7.005l21.919 13.624z"></path>
  <path fill="#1E1D1D" d="m234.749 222.918-3.008 1.375s-5.329 8.252-7.521 9.756-7.865 3.739-7.865 3.739 5.716-2.923 8.51-5.888c2.794-2.965 7.994-10.873 7.994-10.873l-.731 2.407 2.621-.516zM231.139 218.019s-4.642 5.372-5.587 6.662-3.653 6.361-3.653 6.361l9.24-13.023z"></path>
  <circle cx="240.107" cy="231.457" r="2.049" fill="#1E1D1D"></circle>
  <path fill="#1E1D1D" d="M267.769 248.458s-1.13-.612-1.173-2.245 1.173-3.725 1.173-3.725l3.297 2.049s.158 1.033-.572 1.882c-.73.848-1.213 1.308-1.785 1.596-.571.287-.94.443-.94.443z"></path>
  <path fill="#D36101" d="M258.974 247.487s-5.473-1.089-9.312.43c-3.839 1.519-8.825 5.473-11.26 5.157-2.435-.315-3.037-3.61-2.006-5.043s7.831-4.956 9.856-5.545c2.025-.588 4.011-.042 5.014.215 1.004.259 7.708 4.786 7.708 4.786z"></path>
  <path fill="#C60000" d="M240.236 249.55s6.819-3.725 9.226-4.527c2.407-.802 4.697-.685 4.697-.685l-.894-.555s-1.712-.651-5.15.839c-3.438 1.49-7.879 4.928-7.879 4.928z"></path>
  <path fill="#1E1D1D" d="m261.009 249.19-2.035-1.703-1.061-.165zM329.859 220.039l-15.495 14.336 1.387.737z"></path>
  <path fill="#38305E" d="m316.192 273.675-65.503 27.038s-9.708 6.398-12.631 15.854c-2.923 9.455.057 19.254 2.178 22.52 2.12 3.266 6.962 6.876 6.962 6.876h87.809l4.307-29.569s18.394-1.891 28.881-17.535 6.705-28.193 5.845-33.179-4.04-14.181-4.04-14.181l-53.808 22.176z"></path>
  <path fill="#1E1D1D" d="m278.343 327.798 60.971-11.403-.469 3.217z"></path>
  <path fill="#DDA783" d="M350.718 313.113s3.151-.099 5.787 1.734c2.636 1.834 10.773 12.034 20.973 17.65 10.2 5.616 21.661 7.449 23.265 10.429s-2.178 4.011-2.178 4.011l-63.559-.974 4.307-29.569 11.405-3.281z"></path>
  <path fill="#1E1D1D" d="M364.585 334.503s11.805 2.235 16.045 2.636c4.241.401 10.015.965 10.015.965s2.707 2.244 2.821 4.708c.115 2.464-1.95 4.018-1.95 4.018h-1.144s1.604-1.554 1.375-3.674c-.229-2.12-2.407-4.011-2.407-4.011l-5.96-.63s3.037 1.776 2.521 4.47c-.516 2.693-2.408 3.723-2.408 3.723l-1.373-.021s2.578-2.499 2.349-4.16c-.229-1.662-4.47-4.527-4.47-4.527s-11.747-1.95-15.414-3.497z"></path>
  <path fill="#FFE9D7" d="M223.808 263.395s5.139 14.32 17.058 23.374 17.588 10.739 17.588 10.739l27.717-11.441-1.181-3.109s7.306-3.266 9.627-7.134 1.914-9.799 1.172-10.057-2.031 1.633-3.235 3.009c-1.203 1.375-8.682 6.79-8.682 6.79s-7.232-4.384-9.977-5.587c-2.744-1.203-4.378-1.375-4.378-1.375l-1.377-2.091-44.332-3.118z"></path>
  <path fill="#1E1D1D" d="M249.347 289.749s-1.719-7.851 3.782-8.08c5.501-.229 20.044 5.673 20.767 6.017.722.344 1.582-.057 1.983.344s.573 1.203.573 1.203.745-1.719 0-2.12-7.106-2.349-7.106-2.349l-.859-4.756-.63 4.126s-10.601-3.553-14.67-3.438c-4.069.115-4.126 2.063-4.412 2.865-.287.801.572 6.188.572 6.188z"></path>
  <path fill="#1E1D1D" d="M259.032 289.491s1.376.086 3.718 1.16c2.342 1.074 8.314 1.652 8.314 1.652s-3.395.793-6.016 0c-2.621-.792-6.016-2.812-6.016-2.812zM257.714 276.97s.287-7.163 4.011-8.252c3.725-1.089 7.793-.115 7.793-.115s-4.699-2.234-8.825-.401c-4.125 1.834-2.979 8.768-2.979 8.768z"></path>
  <path fill="#FFE9D7" d="M244.565 289.491s-1.292 3.238-6.049 4.613c-4.756 1.375-11.633 2.35-11.633 2.35s-.458 1.633 1.375 2.278c1.834.645 5.1-1.223 5.1-1.223s.115 4.676 2.808 3.701c2.693-.974 3.495-2.478 3.495-2.478s.688 1.561 3.037.243c2.35-1.318 3.748-8.171 3.748-8.171l-1.881-1.313z"></path>
  <path fill="#1E1D1D" d="M284.99 282.958s-.344.917-1.289 1.92c-.946 1.003-2.665 1.189-2.665 1.189s2.321-.057 3.223-.702c.903-.645.731-2.407.731-2.407z"></path>
  <ellipse cx="307.82" cy="185.441" fill="#1E1D1D" rx=".344" ry=".731" transform="rotate(-32.608 307.812 185.436)"></ellipse>
</svg>
