<svg xmlns="http://www.w3.org/2000/svg" xml:space="preserve" viewBox="0 0 600 400" id="watching-movie-with-friends">
  <path fill="#38305E" d="M64.177 157.879s-14.383-52.544-14.383-56.881c0-4.336 3.469-9.324 9.974-9.974s399.612 0 399.612 0l13.877 76.54 17.924-.867s5.927 2.457 7.372 7.228c1.445 4.77-13.01 40.908-13.01 40.908l-336.949 2.891-84.417-59.845z"></path>
  <path fill="#0F2F56" d="m472.967 248.658-335.262 4.196 10.89-35.13 336.948-2.891z"></path>
  <path fill="#2163A5" d="M177.938 312.838s-86.514.65-90.85 0c-4.337-.651-13.66-5.638-16.262-10.625-2.602-4.987-43.799-132.481-43.799-132.481s1.951-8.673 8.89-9.974c6.938-1.301 28.26-1.879 28.26-1.879s56.953-3.325 60.278-2.891c3.325.434 5.927 4.336 8.818 11.13 2.891 6.794 19.948 73.577 28.621 79.503 8.673 5.927 311.074 3.036 311.074 3.036l-23.128 54.64-137.468 9.83-134.434-.289z"></path>
  <path fill="#38305E" d="m89.618 312.97 13.298.157-16.767 46.257h-4.337zM148.132 312.97l13.299.157-16.768 46.257h-4.337z"></path>
  <path fill="#1E1D1D" d="m89.618 312.97 10.348 8.296 2.95-8.139zM148.132 312.97l10.474 7.95 2.825-7.793z"></path>
  <path fill="#DDA783" d="m260.614 216.762 54.574-.468s4.699-.233 4.121-7.858-1.012-12.395 1.445-18.466 21.249-28.477 23.417-28.188 20.526 17.202 20.526 17.202l31.657-35.993-20.2-11.147-55.351 3.143-20.413 31.978-47.864 38.183 8.088 11.614z"></path>
  <path fill="#1E1D1D" d="M572.418 358.991a.555.555 0 0 1-.55-.495L556.834 218.94a.554.554 0 0 1 1.101-.119l15.034 139.556a.554.554 0 0 1-.551.614zM513.443 348.844a.554.554 0 0 1-.552-.61l13.299-129.409a.566.566 0 0 1 .607-.495.554.554 0 0 1 .495.607l-13.299 129.409a.555.555 0 0 1-.55.498z"></path>
  <path fill="#1E1D1D" d="M520.38 214.11h41.631v4.77H520.38z"></path>
  <path fill="#DE9641" d="m525.078 168.649 5.204 45.461h22.767l4.336-45.461z"></path>
  <path fill="#D36101" d="M522.043 163.083h38.74v5.565h-38.74z"></path>
  <path fill="#6A8C53" d="m522.043 93.843-10.335 11.797s18.358 22.896 22.405 38.652 3.18 18.792 3.18 18.792h1.735s-1.445-25.441-5.927-41.92c-4.481-16.479-11.058-27.321-11.058-27.321z"></path>
  <path fill="#6A8C53" d="M542.207 80.111s-3.614 15.322-4.915 27.031c-1.301 11.709-1.731 25.415-1.731 25.415l3.466 30.526h2.204s-3.072-28.91-.614-41.486c2.457-12.576 13.877-38.162 13.877-38.162l-12.287-3.324z"></path>
  <path fill="#6A8C53" d="M557.385 97.746s-9.54 13.732-13.01 27.609c-3.469 13.877-3.144 37.728-3.144 37.728h1.698s-.434-24.574 7.372-37.15 16.045-19.442 16.045-19.442l-8.961-8.745z"></path>
  <path fill="#D36101" d="m525.078 168.649 31.687 6.507-.268 2.804h-30.353zM527.125 186.526l28.855-3.143-.3 3.143-27.477 9.42zM528.703 200.312l25.475 1.959-.785 8.227-24.107-5.093z"></path>
  <path fill="#1E1D1D" d="M542.352 163.361h-.004a.277.277 0 0 1-.273-.281c.003-.208.317-20.977 2.682-32.72 2.374-11.791 14.899-25.722 15.025-25.861a.278.278 0 0 1 .412.373c-.126.139-12.549 13.958-14.893 25.6-2.355 11.692-2.668 32.409-2.671 32.618a.278.278 0 0 1-.278.271zM539.895 163.361a.278.278 0 0 1-.271-.218c-.039-.176-3.943-17.785-7.37-31.069-3.42-13.251-12.17-28.399-12.258-28.551a.277.277 0 0 1 .479-.279c.089.153 8.877 15.366 12.316 28.692 2.413 9.355 5.063 20.851 6.434 26.904-.66-7.442-1.92-22.936-1.92-32.906 0-13.476 9.172-41.436 9.265-41.716a.277.277 0 0 1 .526.174c-.092.28-9.237 28.156-9.237 41.543 0 13.42 2.288 36.887 2.312 37.123a.278.278 0 0 1-.233.301.619.619 0 0 1-.043.002zM146.065 59.151s4.987-4.228 2.168-12.251-5.421-8.239-7.047-7.264c-1.626.976-1.084 9.757-4.12 10.083-3.036.325-4.336-7.589-11.6-8.348s-9.54 4.553-8.348 7.372c1.193 2.819 10.733 1.843 10.408 5.854-.325 4.011-2.277 7.372-7.697 4.553-5.421-2.819-16.804-2.819-18.539 2.385s.867 8.456 6.505 7.047c5.637-1.409 17.021-4.553 15.72-.976-1.301 3.578-7.372 3.782-6.83 7.149.542 3.367 5.095 3.475 9.432 2.391 4.336-1.084 8.456-5.132 8.456-5.132s9.304-6.065 10.95-8.637c1.646-2.57.542-4.226.542-4.226z"></path>
  <path fill="#FFE9D7" d="m212.631 157.482 90.634 9.793s15.178 4.336 11.564 19.948c-3.614 15.611-12.287 16.479-15.322 16.479-3.036 0-46.979 1.446-46.979 1.446s6.505 5.348 7.806 10.263 12.152 81.382 12.152 81.382l-29.498 13.877h-9.54l-17.274-93.526-67.577.58-28.344-62.717 65.493-2.403 26.885 4.878z"></path>
  <path fill="#DE9641" d="m114.842 79.424 17.292-1.138 25.314-.199 16.298.578 29.764 53.2-1.576 6.789 10.697 18.828-25.089-1.393-60.269-27.264-15.25-27.754z"></path>
  <path fill="#A35824" d="M134.573 78.087v-6.071s-6.432-.217-5.493-4.481c.94-4.264 4.77-1.735 5.059-1.229.289.506 1.59-.723 1.59-2.096s1.373-4.698 2.891-4.337 1.735 2.241 4.047 2.024c2.313-.217 3.397-2.747 3.397-2.747s2.819 3.686 3.686 7.806 1.084 11.13 1.084 11.13h6.613s.94 8.095-6.902 11.347-13.75-2.855-15.864-5.945-2.548-5.204-2.548-5.204l2.44-.197zM114.842 79.424s-13.552.217-19.84 9.432-6.722 19.298-5.854 24.827c.867 5.529 9.432 41.739 14.961 44.449s75.42.687 79.467 0 15.756-11.528 18.358-19.478 1.428-8.601.452-9.36-2.385-.976-2.385-.976l-.217 1.843-23.797-.054-.054-6.722s-8.836 5.294-10.86 5.583-37.8-.145-37.8-.145l-6.505-18.575s1.735-9.54-.145-17.418c-1.878-7.877-5.781-13.406-5.781-13.406z"></path>
  <path fill="#A35824" d="M173.746 78.665s13.877.145 27.898 5.493c14.021 5.348 46.979 20.671 46.979 20.671s45.028-20.598 57.821-21.827c12.793-1.229 16.551 3.469 18.141 5.132 1.59 1.662 1.951 2.71 1.951 2.71l-6.143-.007s-49.365 32.784-57.749 38.421c-8.384 5.638-21.538 11.564-25.585 11.42-4.047-.145-33.55-8.813-33.55-8.813s-17.622-19.23-22.97-31.662c-5.347-12.431-6.793-21.538-6.793-21.538z"></path>
  <path fill="#1E1D1D" d="m187.542 156.089 21.186 15.161 60.386-1.626-54.423 2.602.216 34.15 37.62-1.228-39.246 3.288-.65-35.451-4.879-.217zM216.172 217.144l-.668-5.022-1.952 5.044z"></path>
  <path fill="#A35824" d="M207.752 172.768s-13.19.578-16.081 2.168c-2.891 1.59-31.368 30.356-32.09 31.657-.723 1.301-1.445 6.706-.578 8.051s21.538 22.16 21.538 22.16 3.884 1.59 7.001-1.59 1.527-7.011 1.527-7.011l-1.527-1.879s3.334-7.661 7.96-11.058 17.716-10.281 17.716-10.281l-.587-32-4.879-.217z"></path>
  <path fill="#1E1D1D" d="M196.586 185.344s-1.03-4.12 1.897-5.475c2.927-1.355 5.041 1.572 5.041 1.572s-3.144-1.757-4.689-.594c-1.545 1.164-2.222 3.63-2.249 4.497zM187.542 226.324l-15.349-14.798 4.553 6.198s.379 3.126-2.765 4.915c-3.144 1.789-5.538 1.905-5.538 1.905l.832.849s4.327-.043 6.603-2.483c2.277-2.439 2.114-4.553 2.114-4.553l5.8 6.071s.542 3.361-2.06 4.987c-2.602 1.626-6.784 1.741-6.784 1.741l.862.873s6.084-.066 7.657-2.072c1.572-2.006 1.518-4.77 1.518-4.77l2.557 1.137z"></path>
  <path fill="#C60000" d="M175.933 123.386v-6.884h24.772l-.921 13.66-23.797-.054z"></path>
  <path fill="#FFE9D7" d="M175.933 112.707h24.772v3.794h-24.772zM202.584 91.892l-12.359 4.553s-1.229-.488-1.906.217c-.678.705 0 2.06 0 2.06l-1.436 13.985h3.09l1.626-13.335 11.492-3.849s.678-.732.569-1.816c-.109-1.083-1.076-1.815-1.076-1.815z"></path>
  <path fill="#A35824" d="M233.446 310.67s6.216 42.643 7.517 44.811 4.192 2.457 11.564 2.891 47.268 0 47.268 0l-6.613-11.383s-8.131-.976-12.793-7.372-4.446-26.567-4.446-26.567l-3.459-16.256-29.498 13.877h-9.54v-.001z"></path>
  <path fill="#1E1D1D" d="M138.006 65.24s.506.94 1.771.903 2.186-.903 2.186-.903-.813 1.735-2.132 1.608c-1.319-.126-1.825-1.608-1.825-1.608zM144.863 65.24s.506.94 1.771.903 2.186-.903 2.186-.903-.813 1.735-2.132 1.608c-1.319-.126-1.825-1.608-1.825-1.608zM130.634 67.806s.596-.488 1.735-.09c1.138.398.488 2.222.488 2.222l-2.223-2.132zM202.791 135.813l-12.06.89 11.57.796zM199.682 143.246h-12.799l11.901 1.355zM193.724 150.68h-8.919l8.2.728zM426.163 318.607l19.774 18.371s6.071 7.806 2.891 15.033c-3.18 7.228-11.998 6.938-16.334 7.661-4.337.723-108.558 0-108.558 0l4.571-17.685 97.656-23.38z"></path>
  <path fill="#F8F2ED" d="M328.506 341.988s1.428 8.506 4.175 12.409c2.746 3.903 7.625 5.378 7.625 5.378h9.166l-20.966-17.787z"></path>
  <path fill="#1E1D1D" d="M296.254 261.45s-5.999-9.396 0-13.515c5.999-4.12 8.023-3.252 8.962-5.059.94-1.807-1.59-4.336 2.819-7.589 4.409-3.252 8.601-1.373 9.974-3.036 1.373-1.662.48-7.426 4.77-9.468 5.999-2.855 9.034 1.915 9.034 1.915l-6.866 16.515-28.693 20.237z"></path>
  <path fill="#CE8A41" d="m324.947 241.213-.506-5.782s-3.325.836-3.794-1.588c-.47-2.423 1.915-2.749 2.638-2.64.723.108 1.156.434 1.156.434l1.12-4.626s2.71.578 4.192-.506 2.06-1.807 2.06-1.807l7.986 11.564-14.852 4.951z"></path>
  <path fill="#1E1D1D" d="M344.642 236.407s-.578-3.686-2.313-4.915c-1.735-1.229-5.642.264-5.642.264l3.112 4.506 4.843.145zM321.762 233.249s.718-.357 1.247-.294c.529.063 1.125 1.012 1.125 1.012l-2.372-.718z"></path>
  <path fill="#D36101" d="M266.621 286.675s28.405-27.398 41.993-35.96c13.587-8.562 15.9-10.369 24.573-13.405s28.296-3.289 34.15-2.747 26.561 2.927 26.561 2.927l-3.361 29.163s-12.142-1.193-13.335-.651-1.409 2.602-1.409 2.602l12.576 22.225-69.059 34.584-15.503-26.236s-.976-.542-2.277-.434-9.866 7.697-9.866 7.697l-25.043-19.765z"></path>
  <path fill="#1E1D1D" d="m475.425 337.557 28.477-16.768-40.145-50.37s-3.943-4.993-12.327-5.427-63.06 25.839-63.06 25.839l-69.059 34.584 13.154 23.706s4.337 8.384 15.612 10.408 16.045 2.168 26.308-4.192 65.265-46.546 65.265-46.546 4.192-3.325 8.456-1.084c4.263 2.24 27.319 29.85 27.319 29.85z"></path>
  <path fill="#CE8A41" d="M393.898 237.491s44.558 6.288 52.038 7.264 27.031 3.903 27.031 3.903l1.587-4.269s3.472 2.426 2.605 6.655c-.867 4.228-10.375 23.175-10.375 23.175l-34.183-3.227-42.064-4.336 3.361-29.165zM266.621 286.675s-59.916 56.664-64.253 59.555c-4.336 2.891-25.007 7.444-25.007 7.444s-.506 3.036 1.951 4.192 50.954.434 53.845-1.084 58.507-50.34 58.507-50.34l-25.043-19.767z"></path>
  <path fill="#1E1D1D" d="m219.931 343.555-27.537 8.818s.126 3.017 1.319 4.373c1.193 1.355 3.469 1.691 3.469 1.691l2.006-.021s-4.12-1.616-4.716-3.188c-.596-1.572-.596-2.602-.596-2.602l26.055-9.071z"></path>
  <path fill="#F8F2ED" d="m426.163 318.607-52.43 41.327-8.891-.035s2.914-.866 5.15-2.071c2.235-1.206 56.171-39.221 56.171-39.221z"></path>
  <path fill="#CE8A41" d="M320.566 327.679s-3.931-.458-5.449.915c-1.518 1.373-37.8 26.67-37.8 26.67s-1.735 3.311.867 4.511c2.602 1.199 45.75-.102 45.75-.102l4.571-17.685-7.939-14.309z"></path>
  <path fill="#1E1D1D" d="m308.034 347.603-19.659 12.676-2.097-.016 2.892-2.252s-3.108-.108-4.445-2.096c-1.337-1.987-.182-5.696-.182-5.696l1.019-.712s-1.018 4.204.428 5.83c1.446 1.626 5.385 1.265 5.385 1.265l5.549-3.171s-3.381-.334-4.429-2.105c-1.048-1.771-.653-6.213-.653-6.213l1.142-.8s-.634 4.701.848 6.218c1.482 1.518 5.493 1.554 5.493 1.554l8.709-4.482zM316.572 343.221s1.111-3.252 3.849-3.09c2.737.163 2.792 3.307 2.792 3.307s-.651-2.466-2.792-2.331c-2.141.136-3.849 2.114-3.849 2.114z"></path>
  <path fill="#F8F2ED" d="m406.078 334.438 6.395 1.528-8.027-.241z"></path>
  <path fill="#CE8A41" d="M475.425 337.557s11.383 15.828 14.853 18.755c3.469 2.927 6.939 3.036 6.939 3.036l40.547-.651s4.12-1.843 2.602-6.288-4.987-3.957-4.987-3.957h-5.746s-10.408-7.968-15.395-13.714-10.335-13.949-10.335-13.949l-28.478 16.768z"></path>
  <path fill="#1E1D1D" d="M488.543 343.772s-.506 2.06 1.59 2.602 4.915-3.216 4.915-3.216-2.746 2.746-4.517 2.168-1.988-1.554-1.988-1.554zM507.786 348.289l21.845.163s2.656 3.74 2.222 6.613c-.434 2.873-2.224 3.762-2.224 3.762l-1.14.018s2.279-2.263 1.9-5.027c-.379-2.764-2.385-4.445-2.385-4.445l-6.505-.108s2.277 2.277 1.464 5.475-2.764 4.239-2.764 4.239l-1.195.019s2.983-2.849 2.549-5.884c-.434-3.036-1.711-3.849-1.711-3.849l-12.056-.976z"></path>
  <ellipse cx="331.747" cy="228.704" fill="#1E1D1D" rx=".474" ry=".962" transform="rotate(-25.507 331.76 228.713)"></ellipse>
  <ellipse cx="327.643" cy="229.987" fill="#1E1D1D" rx=".474" ry=".962" transform="rotate(-25.511 327.644 229.983)"></ellipse>
  <path fill="#DDA783" d="M472.967 108.34s21.972 45.13 22.297 51.31c.325 6.18-2.494 8.89-4.553 10.082-2.06 1.193-14.606.658-14.606.658l-3.138-62.05z"></path>
  <path fill="#5C7F3F" d="m400.019 120.253 1.396 25.34 72.276 33.391s9.107-25.152 4.047-53.628c-5.059-28.477-19.804-40.33-26.597-45.1-6.794-4.77-11.063-4.877-11.063-4.877l-40.059 44.874z"></path>
  <path fill="#1E1D1D" d="M429.313 55.031s-3.614-2.24-2.168-4.987c1.446-2.746 5.638-2.385 6.722 0s.651 4.409.651 4.409 3.903.145 4.987 2.747.298 6.155.298 6.155l-3.334 2.374-10.552-.795s-1.373-3.325 0-6.143c1.372-2.82 3.396-3.76 3.396-3.76z"></path>
  <path fill="#DDA783" d="m424.615 75.196.289-4.553s-4.77-.289-4.192-4.481 5.204-1.229 5.204-1.229l2.313-4.915h9.974l.65 3.469s6.071-1.229 6.649 2.457c.578 3.686-3.903 4.626-3.903 4.626l1.229 6.36-18.213-1.734z"></path>
  <path fill="#1E1D1D" d="M429.417 64.043s.637-.556 1.382-.596c.745-.041 1.314.894 1.314.894s-.732-.637-1.348-.583c-.616.055-1.348.285-1.348.285zM434.703 63.947s.637-.556 1.382-.596c.745-.041 1.314.894 1.314.894s-.732-.637-1.348-.583-1.348.285-1.348.285z"></path>
  <path fill="#F8F2ED" d="m428.536 68.176 10.001.298s.108 5.312-4.635 5.394c-4.743.081-5.366-5.692-5.366-5.692z"></path>
  <path fill="#DDA783" d="M414.28 113.249s3.036 10.733 17.021 13.552 21.683-2.71 24.176-9.215c2.493-6.505-.736-25.318-5.963-34.259-5.529-9.458-13.958-8.942-20.097-9.458-6.139-.516-28.906 6.639-43.65 15.638-14.744 8.998-27.754 17.78-27.754 17.78l-23.309-.578-1.879 29.488s28.766 1.879 31.693 1.012 49.762-23.96 49.762-23.96z"></path>
  <path fill="#1E1D1D" d="m414.28 113.249 12.648-6.758-11.531 9.308s-.318-.513-.629-1.274c-.312-.76-.488-1.276-.488-1.276z"></path>
  <path fill="#5C7F3F" d="m311.287 134.029 21.538 2.168 1.879-29.489-18.791-.506z"></path>
  <path fill="#FFE9D7" d="m311.907 130.301 21.195 1.543.191-2.987-20.85-1.782zM312.951 124.016l20.549 1.585.225-3.52-20.198-1.529zM314.085 117.194l19.857 1.476.207-3.25-19.559-1.259zM315.189 110.557l19.184 1.355.202-3.179-18.998-.509z"></path>
  <path fill="#1E1D1D" d="m401.415 145.593-5.059-2.602-31.657 35.993s3.289 3.108 4.915 6.469 11.709 22.55 29.163 26.887c17.455 4.336 28.296 3.469 34.692 2.494 6.396-.976 19.84-6.938 27.537-14.961s12.684-20.888 12.684-20.888l-72.275-33.392z"></path>
  <path fill="#FFC794" d="M274.224 114.684s-19.457-3.137-28.347-6.46-8.745-7.127-8.745-7.127h84.02s.145 1.275-.614 2.648-3.541 2.487-3.541 2.487l-25.694 10.089-17.079-1.637z"></path>
  <ellipse cx="279.142" cy="101.097" fill="#E5A320" rx="42.01" ry="4.543"></ellipse>
  <path fill="#FFE9D7" d="M240.102 102.777s-1.248-1.989-1.106-3.022c.142-1.033 1.106-1.575 1.106-1.575s1.963.271 2.234-.596c.271-.867.542-1.897 2.223-1.735 1.68.163 2.491.705 2.491.705s.22-.522 1.25-.722 1.518 0 1.518 0-1.409-.905 0-1.88c1.409-.976 2.71-1.138 2.71-1.138s-.705-3.144.705-4.011c1.409-.867 2.331-.542 2.331-.542s-.596-.65.596-1.464c1.192-.813 2.006-.705 2.006-.705s-.65-1.735 1.355-3.09 3.74.217 3.74.217l2.168-.163s-.488-2.168 1.409-2.602 2.873.488 2.873.488-.542-1.572 1.301-1.464 2.981 1.355 2.981 1.355.813-.651 1.843.271c1.03.921.921 2.006.921 2.006s1.355-.759 1.951.054c.596.813.434 1.68.434 1.68s-.163-2.439 1.464-1.951c1.626.488 1.897 2.385 1.897 2.385s.867-.867 1.464-.813c.596.054 1.409.542 1.409.542s1.193-3.307 3.252-2.277c2.06 1.03 1.951 3.09 1.951 3.09s2.981.596 3.252 1.518c.271.921 0 1.735 0 1.735s1.897-.65 2.548.434.705 2.439.705 2.439 2.439-.596 3.523.325l1.084.921s2.114-.813 2.927-.054.434 1.843.434 1.843 3.036-1.301 3.252.163c.217 1.464-1.349 2.548-1.349 2.548s3.858-1.177 4.926-.235c1.068.943.596 1.861.596 1.861s2.168-.488 2.656.307-.452 2.692-.452 2.692 1.771-.325 2.223.054.444.616.444.616l-31.703 8.039-37.403-4.174-8.14-4.075z"></path>
  <path fill="#DE9641" d="M321.147 101.097c0 2.509-18.809 4.543-42.01 4.543s-42.01-2.034-42.01-4.543c0 0-.145 3.805 8.745 7.127 8.89 3.323 28.347 6.46 28.347 6.46l17.079 1.637 25.694-10.089s2.782-1.113 3.541-2.487c.759-1.373.614-2.648.614-2.648z"></path>
  <path fill="#DDA783" d="m247.576 115.345 22.184 1.71 4.464-2.371-24.478-5.2s-2.532 1.091-2.676 2.572c-.145 1.482.506 3.289.506 3.289z"></path>
  <path fill="#FFC794" d="M271.31 92.922s-1.572-1.924 0-3.198 3.442-.136 3.442-.136.976-.935 1.951.136.19 2.331.19 2.331 2.304.108 2.954.488c.65.379.163 1.707.163 1.707s-.027-1.193-.678-1.328c-.651-.136-2.385-.163-2.792.163-.407.325-1.545 1.708-1.545 1.708s-.008.054.403.732c.41.678.14 1.789.14 1.789s.84-1.436 2.439-1.518c1.599-.081 2.602 1.68 2.602 1.68s-1.571-1.03-2.411-.786c-.841.244-3.063 1.789-3.063 1.789s.434-1.924-.136-2.738c-.569-.813-1.464-.894-1.464-.894s2.06-1.735 2.466-2.548c.406-.813.786-1.382.271-1.951-.515-.569-1.464.388-1.464.388s-1.228-1.256-2.294-.768-1.392 1.382-1.256 1.924.082 1.03.082 1.03zM264.633 93.626s.036-1.879 1.301-2.06c1.265-.181 1.915.542 1.915.542s-1.409-.47-2.096.072c-.686.543-1.12 1.446-1.12 1.446zM298.452 103.186s.036-1.879 1.301-2.06c1.265-.181 1.915.542 1.915.542s-1.409-.47-2.096.072c-.686.542-1.12 1.446-1.12 1.446zM257.55 99.481s-1.482-1.843 0-2.927 2.421-.759 2.421-.759-.434-.651 0-1.337c.434-.687 1.373-.434 1.373-.434s-.723.289-.831.651c-.108.361.325 2.055.325 2.055s-2.082-.532-2.848.441c-.765.973-.44 2.31-.44 2.31zM253.611 94.819s.036-1.265 1.843-1.771 2.638.885 2.638.885-.65-.524-2.06-.307c-1.409.217-1.698 1.624-1.698 1.624l-.723-.431zM290.941 95.25c.036-.178.361-1.624 1.879-1.624s2.06.812 2.06.812.65-.992 2.024-.414c1.373.578 0 2.349 0 2.349s1.59-.795 2.674.181 0 2.457 0 2.457.795-1.846-.904-1.937c-1.699-.091-3.493.636-3.173.528.319-.108 1.15-2.385.681-2.674-.47-.289-1.626.759-1.626.759s-.976-1.301-1.915-1.265c-.941.036-1.7.828-1.7.828zM273.053 103.492s-1.229-1.466-.325-2.395c.904-.929 2.867.191 2.867.191s2.915-2.06 4.541-.976c1.626 1.084 0 2.602 0 2.602s-.061-2.277-.988-2.349-3.24 1.843-3.24 1.843-.44-1.327-1.684-.663c-1.243.663-1.171 1.747-1.171 1.747zM266.078 105.416s-2.132-1.165-1.987-2.574 1.987-1.745 1.987-1.745-1.734 1.526-1.445 2.16c.289.633 1.445 2.159 1.445 2.159z"></path>
  <path fill="#DDA783" d="M311.287 134.029s-9.649-1.477-19.84-4.569c-10.191-3.092-21.574-7.537-21.574-7.537s-2.637-5.095 2.611-6.83c5.249-1.735 19.505 0 19.505 0s3.523-7.752 9.54-8.89 14.383 0 14.383 0l-4.625 27.826z"></path>
  <path fill="#FFC794" d="M285.882 100.384s2.855-2.303 5.059-.795 1.771 2.746 1.771 2.746 1.156-.614 2.132 0c.976.614.253 1.988.253 1.988s.181-1.373-.976-1.445c-1.156-.072-2.168.614-2.168.614s.077-2.313-1.335-3.072c-1.411-.759-3.616-.748-4.736-.036zM264.29 99.481s-.027-1.87 1.274-2.412 2.06.949 2.06.949.681-.949 1.587-.488.283 1.548.283 1.548-.325-1.016-.949-.862c-.623.154-1.165.862-1.165.862s-.336-1.996-1.599-1.412c-1.264.583-1.491 1.815-1.491 1.815zM285.954 92.271s-.217-2.222 1.951-2.584c2.168-.361 2.584 1.988 2.584 1.988s.217-1.265.958-1.355c.741-.09 1.084 1.12 1.084 1.12s-.65-.797-1.066-.48c-.416.317-.922 1.311-.922 1.311s-1.156-2.078-2.313-1.897c-1.155.181-2.185.958-2.276 1.897zM284.527 98.885s-1.156-.578-2.006-.181c-.849.398-.452 1.518-.452 1.518s.162-1.337 1.012-1.445c.85-.109 1.446.108 1.446.108zM261.345 88.775s.641-1.816 2.24-1.626 2.223 1.816 2.223 1.816.569-.962 1.301-.915c.732.048 1.165.698 1.165.698s-.631-.678-1.278-.244-1.216 1.274-1.216 1.274-1.053-2.298-2.439-2.141c-1.386.156-1.996 1.138-1.996 1.138zM269.277 85.712s-.108-1.599 1.518-1.924c1.626-.325 2.195.732 2.195.732s-1.111-.759-2.168-.054c-1.057.704-1.545 1.246-1.545 1.246zM245.808 100.386s-.108-1.599 1.518-1.924 2.195.732 2.195.732-1.111-.759-2.168-.054c-1.057.704-1.545 1.246-1.545 1.246zM285.261 95.613s-.108-1.599 1.518-1.924c1.626-.325 2.195.732 2.195.732s-1.111-.759-2.168-.054c-1.058.704-1.545 1.246-1.545 1.246zM274.772 88.128s-.108-1.599 1.518-1.924c1.626-.325 2.195.732 2.195.732s-1.111-.759-2.168-.054c-1.057.704-1.545 1.246-1.545 1.246zM255.405 91.729s-.108-1.599 1.518-1.924c1.626-.325 2.195.732 2.195.732s-1.111-.759-2.168-.054c-1.057.704-1.545 1.246-1.545 1.246zM281.977 87.853s1.755-.434 2.55 0 .334 1.924.334 1.924-.325-1.111-1.138-1.518c-.813-.406-1.746-.406-1.746-.406zM260.817 84.253s1.755-.434 2.55 0 .334 1.924.334 1.924-.325-1.111-1.138-1.518c-.813-.406-1.746-.406-1.746-.406zM251.396 101.275s1.755-.434 2.55 0 .334 1.924.334 1.924-.325-1.111-1.138-1.518c-.813-.406-1.746-.406-1.746-.406zM302.484 98.211s1.755-.434 2.55 0 .334 1.924.334 1.924-.325-1.111-1.138-1.518c-.812-.406-1.746-.406-1.746-.406zM309.778 100.579s1.755-.434 2.55 0c.795.434.334 1.924.334 1.924s-.325-1.111-1.138-1.518c-.813-.406-1.746-.406-1.746-.406zM284.373 102.093s1.755-.434 2.55 0 .334 1.924.334 1.924-.325-1.111-1.138-1.518c-.812-.406-1.746-.406-1.746-.406z"></path>
  <path fill="#1E1D1D" d="M440.814 66.469s.922-1.111 1.816-1.138 1.328.19 1.328.19l-3.144.948zM424.778 67.192s-.379-.669-1.084-.958c-.705-.289-1.807 0-1.807 0l2.891.958z"></path>
</svg>
