<svg xmlns="http://www.w3.org/2000/svg" xml:space="preserve" viewBox="0 0 600 400" id="yoga-class">
  <path fill="#435A2C" d="M517.773 187.285s-4.839-5.671-3.229-7.119c1.61-1.449 3.622 2.012 4.507 0s-5.071-7.405-6.439-13.361c-1.368-5.956 1.538-6.52 3.264-5.071 1.726 1.449 2.227 5.715 3.264 2.817s-5.104-13.683-3.442-16.178 1.757.724 3.561-.966-.691-13.039 2.85-13.119c3.541-.081.966 15.454 2.817 16.661s5.876-6.6 7.163-2.978c1.288 3.622-7.758 11.59-6.696 13.361 1.062 1.771 8.065-3.747 9.594-.545 1.529 3.201-9.417 13.379-8.773 14.568s6.52.465 6.52.465l-5.634 32.517-5.519 1.449s-5.427-6.194-5.025-11.79c.402-5.596 1.217-10.711 1.217-10.711z"></path>
  <path fill="#1E1D1D" d="M522.935 196.71a.207.207 0 0 1-.206-.194c-.01-.17-1.017-17.002-1.355-21.145-.338-4.156-.004-33.2-.001-33.493a.206.206 0 0 1 .206-.203h.002a.206.206 0 0 1 .203.208c-.003.292-.337 29.318-.001 33.455.338 4.148 1.346 20.985 1.356 21.155a.207.207 0 0 1-.194.218l-.01-.001z"></path>
  <path fill="#1E1D1D" d="M522.15 185.039a.2.2 0 0 1-.092-.022l-4.508-2.254c-.102-.051-.143-.174-.092-.276s.177-.142.276-.092l4.508 2.254a.206.206 0 0 1-.092.39zM522.519 189.873a.205.205 0 0 1-.126-.368l1.844-1.426a.203.203 0 0 1 .288.036c.07.09.053.219-.036.289l-1.844 1.426a.198.198 0 0 1-.126.043zM521.479 172.724a.206.206 0 0 1-.139-.054l-5.114-4.668a.207.207 0 0 1-.013-.291.207.207 0 0 1 .291-.013l5.114 4.668a.207.207 0 0 1-.139.358zM521.58 176.508a.206.206 0 0 1-.14-.356l7.612-7.11a.206.206 0 1 1 .281.301l-7.612 7.11a.207.207 0 0 1-.141.055zM521.428 154.695a.205.205 0 0 1-.154-.069l-3.987-4.507a.206.206 0 1 1 .309-.273l3.987 4.507a.206.206 0 0 1-.155.342zM521.428 161.296a.206.206 0 0 1-.148-.348l6.685-7.002a.206.206 0 1 1 .297.285l-6.685 7.002a.212.212 0 0 1-.149.063zM504.483 351.775l-.04-.002a.412.412 0 0 1-.37-.449l8.693-90.529a.42.42 0 0 1 .449-.37.412.412 0 0 1 .37.449l-8.693 90.529a.411.411 0 0 1-.409.372zM545.728 349.509a.412.412 0 0 1-.407-.359l-11.305-88.263a.411.411 0 1 1 .816-.104l11.305 88.263a.411.411 0 0 1-.409.463z"></path>
  <path fill="#38305E" d="M508.426 256.468h30.907v1.851h-30.907z"></path>
  <path fill="#2163A5" d="M511.284 258.319h25.193v1.972h-25.193z"></path>
  <path fill="#1E1D1D" d="M507.219 260.291h33.242v1.087h-33.242z"></path>
  <path fill="#DE9641" d="M510.653 216.787h24.468s.215 31.981 0 35.2c-.215 3.22-1.932 4.481-1.932 4.481h-17.493s-1.449-1.905-1.556-3.783c-.106-1.878-3.487-35.898-3.487-35.898z"></path>
  <path fill="#6A8C53" d="M507.943 193.607c.922-.521 1.127-1.288.402-4.185-.724-2.898-4.032-12.798.036-14.005 4.069-1.207 4.39 15.534 6.644 15.051s3.059-6.117 4.91-3.863-3.059 12.959 0 14.488 4.99-2.495 5.393.885c.402 3.38-1.207 9.417-1.127 11.107.081 1.69 1.192 3.702 1.192 3.702h-8.999s-8.29-6.198-7.485-8.21c.805-2.012 4.024.402 4.185-1.61s-8.612-9.9-8.451-12.476c.161-2.574 2.656-.52 3.3-.884z"></path>
  <path fill="#5C7F3F" d="M531.526 216.787s4.507-3.863 3.917-5.259c-.59-1.395-4.4 1.61-4.829 0-.429-1.61 7.941-13.531 6.707-15.458-1.234-1.927-4.829 1.882-5.688.487s7.029-9.605 6.761-12.127-3.166.859-5.205-.805c-2.039-1.663 4.454-9.927 1.878-11.483s-5.473 9.927-6.815 9.82c-1.341-.107-1.534-1.878-2.86-1.663s2.055 12.127.66 13.307c-1.395 1.18-3.649-1.218-4.346.786-.698 2.004 1.713 6.538 1.713 6.538l.326 15.856 7.781.001z"></path>
  <path fill="#1E1D1D" d="M519.578 216.846s-4.735-15.99-7.519-25.327c-2.757-9.246-2.997-10.911-3.006-10.978a.207.207 0 0 1 .177-.231c.11-.02.216.063.231.176.002.016.258 1.744 2.991 10.915 2.784 9.336 7.519 25.327 7.519 25.327l-.393.118z"></path>
  <path fill="#1E1D1D" d="M510.671 186.221a.205.205 0 0 1-.095-.023l-2.285-1.181a.206.206 0 0 1 .189-.365l2.285 1.181a.206.206 0 0 1-.094.388zM514.813 200.26a.204.204 0 0 1-.096-.024c-1.495-.795-5.405-2.874-5.544-2.94a.207.207 0 0 1-.1-.272.201.201 0 0 1 .267-.104c.094.04 4.287 2.271 5.571 2.953.1.053.138.178.085.278a.21.21 0 0 1-.183.109zM515.087 201.183a.204.204 0 0 1-.178-.307l2.555-4.473a.202.202 0 0 1 .28-.076.204.204 0 0 1 .076.28l-2.555 4.473a.203.203 0 0 1-.178.103zM518.484 212.636a.208.208 0 0 1-.055-.007l-5.751-1.599c-.109-.031-.174-.144-.143-.254s.146-.171.254-.143l5.591 1.555 3.588-6.884a.206.206 0 0 1 .365.189l-3.665 7.032a.208.208 0 0 1-.184.111zM527.824 216.993h-.003a.206.206 0 0 1-.202-.209c.004-.223.39-22.414 1.614-28.85 1.224-6.441 3.026-10.606 3.044-10.648a.207.207 0 0 1 .378.166c-.018.04-1.802 4.167-3.018 10.559-1.216 6.401-1.602 28.557-1.606 28.779a.209.209 0 0 1-.207.203z"></path>
  <path fill="#1E1D1D" d="M529.546 187.6a.206.206 0 0 1-.159-.076l-2.474-3.017a.205.205 0 1 1 .318-.26l2.474 3.017a.205.205 0 0 1-.159.336zM528.896 192.466a.206.206 0 0 1-.144-.352l4.079-4.019a.206.206 0 1 1 .289.293l-4.079 4.019a.21.21 0 0 1-.145.059zM528.31 201.183a.204.204 0 0 1-.157-.073l-3.598-4.258a.206.206 0 0 1 .315-.265l3.598 4.258a.206.206 0 0 1-.158.338zM528.113 206.425a.205.205 0 0 1-.162-.332l4.352-5.53a.205.205 0 0 1 .323.253l-4.352 5.53a.202.202 0 0 1-.161.079zM527.894 213.719a.206.206 0 0 1-.155-.071c-.354-.404-2.124-2.432-2.233-2.595a.206.206 0 0 1 .342-.228c.084.121 1.319 1.544 2.128 2.47l2.285-.306c.118-.009.216.064.231.177s-.064.216-.177.231l-2.394.321-.027.001z"></path>
  <path fill="#2163A5" d="M48.783 268.139s-10.675-30.317-9.964-35.683c.712-5.366 9.297-7.137 12.355-7.137h28.815s-6.117-30.907-5.795-33.966 2.173-4.99 3.139-5.795 3.081-2.029 3.081-2.029h162.804s5.259-.117 7.941 4.39c2.683 4.507-12.851 37.761-12.851 37.761h27.205s5.393.686 7.646 4.871c2.254 4.185 1.585 7.084 1.585 7.084l-17.092 71.124-188.61.376s-7.19-8.961-10.41-13.898c-3.218-4.937-9.849-27.098-9.849-27.098z"></path>
  <path fill="#38305E" d="M255.637 268.139H69.073a7.435 7.435 0 0 1-7.435-7.435v-8.365a7.435 7.435 0 0 1 7.435-7.435h186.564a7.435 7.435 0 0 1 7.435 7.435v8.365a7.436 7.436 0 0 1-7.435 7.435zM89.648 309.093l-6.439 41.734h3.22l11.268-41.75zM71.734 309.093l-6.44 41.734h3.22l11.268-41.75zM235.367 308.885l6.439 41.734h-3.22l-11.268-41.75zM253.281 308.885l6.44 41.734h-3.22l-11.268-41.75z"></path>
  <path fill="#1E1D1D" d="m79.989 225.319 1.127 4.749-2.575-4.749zM238.309 225.68l-1.851 4.428 3.944-4.428z"></path>
  <path fill="#D36101" d="M326.443 94.929h60.527v91.434h-60.527z"></path>
  <path fill="#F8F2ED" d="M330.468 99.436h52.478v81.588h-52.478z"></path>
  <path fill="#2163A5" d="M353.595 176.275h5.741v4.749h-5.741zM322.955 186.363h67.824v7.244h-67.824z"></path>
  <path fill="#689BEC" d="m371.677 99.436-41.209 26.722v14.488l52.478-34.207v-7.003zM330.468 154.812l52.478-35.415v6.761l-52.478 35.737zM330.468 173.807l52.478-35.093v17.547l-39.117 24.763h-13.361z"></path>
  <path fill="#DDA783" d="M339.712 319.383s23.932 7.941 26.722 9.015c2.79 1.073 6.171 1.61 6.171 1.61l1.288-2.093s2.146-1.985 5.527-.858c3.38 1.127 3.219 4.937 3.219 4.937s-7.512 15.239-8.156 16.312-2.522 3.273-2.522 3.273-38.581.215-38.795 0c-.215-.215-10.517-7.083-10.517-7.083l17.063-25.113zM289.338 277.395l.375 13.441 59.75-1.18v-13.951z"></path>
  <path fill="#5C7F3F" d="m335.073 322.384-17.063 25.112s-48.91-23.61-57.348-33.805c-8.438-10.195-5.326-14.059-.818-19.854 4.507-5.795 16.205-3.649 21.678-2.039 5.472 1.611 53.551 30.586 53.551 30.586z"></path>
  <path fill="#5C7F3F" d="m310.185 319.383 17.063 25.112s48.91-23.61 57.348-33.805 5.326-14.059.818-19.854c-4.507-5.795-16.205-3.649-21.678-2.039-5.473 1.61-53.551 30.586-53.551 30.586z"></path>
  <path fill="#435A2C" d="m289.713 290.836-8.192.963 38.582 21.647 41.701-23.522-12.341-.268z"></path>
  <path fill="#DDA783" d="M310.185 319.383s-23.932 7.941-26.722 9.015c-2.79 1.073-6.171 1.61-6.171 1.61l-1.288-2.093s-2.146-1.985-5.527-.858c-3.381 1.127-3.219 4.937-3.219 4.937s7.512 15.239 8.156 16.312 2.522 3.273 2.522 3.273 38.581.215 38.795 0c.215-.215 10.517-7.083 10.517-7.083l-17.063-25.113z"></path>
  <path fill="#1E1D1D" d="m284.871 344.964-7.579-14.957-1.288-2.093 1.221 4.293s-2.334-.644-4.306.523-3.464 3.709-3.464 3.709l.333.673s1.963-3.135 4.096-3.577c2.133-.443 4.145.121 4.145.121l2.455 5.232s-2.254-.282-4.105.966c-1.851 1.248-3.105 4.269-3.105 4.269l.492.981s1.808-3.6 3.578-4.324c1.771-.724 3.984-.161 3.984-.161l3.543 4.345zM315.792 342.295s-3.649-.161-4.4 1.744 1.234 3.568 1.234 3.568-.912-2.576.241-3.541c1.154-.966 2.925-1.771 2.925-1.771zM365.026 344.964l7.579-14.957 1.288-2.093-1.221 4.293s2.334-.644 4.306.523 3.464 3.709 3.464 3.709l-.333.673s-1.963-3.135-4.096-3.577c-2.133-.443-4.145.121-4.145.121l-2.455 5.232s2.254-.282 4.105.966 3.105 4.269 3.105 4.269l-.492.981s-1.808-3.6-3.578-4.324c-1.771-.724-3.984-.161-3.984-.161l-3.543 4.345zM334.105 342.295s3.649-.161 4.4 1.744-1.234 3.568-1.234 3.568.912-2.576-.241-3.541c-1.154-.966-2.925-1.771-2.925-1.771zM320.487 285.162s.322.523 0 1.127-1.087.523-1.087.523.564-.333.885-.823c.323-.49.202-.827.202-.827zM310.185 319.383l6.825-7.672 3.093 1.735z"></path>
  <path fill="#DDA783" d="M346.565 219.202s12.663 3.917 18.244 15.185c5.581 11.268 4.293 15.454 7.512 20.605 3.22 5.151 16.205 21.571 16.956 31.229.751 9.659-4.722 22.376-5.956 22.805s-9.551-4.561-10.142-5.473c-.59-.912 1.395-7.78 1.341-10.785s-1.02-3.81-1.02-3.81-3.488 0-6.01 1.073-4.668 1.073-5.688-.107c-1.02-1.181-1.181-2.844-1.181-2.844s3.488-2.307 4.346-4.346c.859-2.039-1.985-5.902-4.802-9.846-2.817-3.944-5.151-5.259-5.876-6.815-.724-1.556-1.932-3.488-1.932-3.488s-9.015-15.963-9.015-27.124c.004-11.161 3.223-16.259 3.223-16.259zM290.975 221.509s-9.337 3.112-14.81 13.2-4.937 21.034-8.263 25.22c-3.327 4.185-14.917 19.532-14.81 27.795s3.005 19.746 4.561 21.034 2.2 1.395 2.898 1.127 10.463-3.756 11.161-4.507c.698-.751-2.2-7.888-1.502-11.268s1.502-4.99 1.502-4.99 4.829 2.468 7.834 2.844 5.151-2.2 5.151-2.2-5.044-3.434-5.312-6.868c-.268-3.434 8.742-15.933 8.742-15.933s7.248-18.382 7.087-27.96c-.161-9.579-4.239-17.494-4.239-17.494z"></path>
  <path fill="#1E1D1D" d="M311.553 214.936h-2.522s1.556-12.234 5.071-13.79 7.351.268 8.317 2.12c.966 1.851 2.898 10.812 2.898 10.812l-2.207.296-11.557.562z"></path>
  <path fill="#5C7F3F" d="M346.565 219.202v19.8s7.968 3.944 8.773 10.946c.805 7.002-1.368 10.866-2.978 12.637s-2.898 2.576-2.898 2.576v10.544l-60.124 1.69v-9.256s-5.983-4.937-5.285-11.483c.698-6.546 6.385-10.678 6.385-10.678l.537-24.468 6.385-1.878 41.129-2.388 8.076 1.958z"></path>
  <path fill="#DDA783" d="M311.553 216.519v-5.017s-2.683-.402-2.629-2.817c.054-2.415 3.112-1.985 3.112-1.985s1.985-.349 2.844-1.476.885-1.959.885-1.959.724 2.522 2.495 3.139c1.771.617 3.756.483 3.756.483s2.79-.966 3.729.644-.295 2.871-1.261 3.22c-.966.349-1.798.241-1.798.241l.617 4.937s7.539 0 10.141.322 5.044.993 5.044.993 1.851 17.251-.778 22.188c-2.629 4.937-8.478 9.015-18.888 8.639s-17.117-5.259-19.102-10.195c-1.985-4.937-2.361-18.244-2.361-18.244s3.702-1.502 7.298-2.2 6.896-.913 6.896-.913z"></path>
  <path fill="#1E1D1D" d="M344.211 266.931s1.851-.282 2.998-.684c1.147-.402 2.254-1.087 2.254-1.087s-.463.926-2.294 1.469c-1.831.544-2.958.302-2.958.302zM289.338 268.139s1.328 1.046 2.797 1.509 3.702.402 3.702.402-2.435.664-4.045.201-2.454-2.112-2.454-2.112zM313.78 209.128s.496.55 1.167.523c.671-.027 1.113-.523 1.113-.523s-.349.644-1.073.711-1.207-.711-1.207-.711zM318.69 209.195s.402.353.966.29c.563-.062.926-.358.926-.358s-.322.523-.859.577c-.537.054-1.033-.509-1.033-.509zM380.249 294.056s-.241 4.346-.885 7.244c-.644 2.898-2.067 5.083-2.067 5.083l-.707-.421s1.526-3.213 2.29-6.111a127.986 127.986 0 0 0 1.369-5.795zM384.596 296.148s-1.127 5.111-1.69 7.204-2.22 4.847-2.22 4.847l.653.298s1.728-2.489 2.452-5.467c.724-2.978.805-6.882.805-6.882zM262.598 309.134s-1.873-3.327-2.678-5.741c-.805-2.415-1.61-5.433-1.61-5.433s2.052 5.292 2.817 7.023c.765 1.731 1.944 3.977 1.944 3.977l-.473.174zM267.385 307.328s-2.073-4.378-2.697-6.552c-.624-2.173-.946-4.769-.946-4.769s1.409 5.191 1.992 6.701c.584 1.509 2.033 4.469 2.033 4.469l-.382.151z"></path>
  <path fill="#FC9365" d="M442.47 110.49s-3.344 10.517-3.72 15.024-1.234 9.82-1.234 9.82l4.952.652s1.863-4.355 3.15-10.794c1.288-6.439 2.19-12.72 2.19-12.72l-5.338-1.982z"></path>
  <path fill="#1E1D1D" d="M442.469 135.986s-.66-5.911.575-10.686c1.234-4.776 4.766-12.827 4.766-12.827s-.151 9.715-.688 12.72c-.537 3.004-4.653 10.793-4.653 10.793z"></path>
  <path fill="#FC9365" d="M436.068 151.861s-.412 10.678-.367 14.622.182 12.43.182 12.43l2.743-1.483 1.825-24.98-4.383-.589z"></path>
  <path fill="#1E1D1D" d="M438.626 177.429s-.734-4.427-.787-10.812c-.054-6.385 2.613-14.168 2.613-14.168l-1.826 24.98z"></path>
  <path fill="#FC9365" d="M431.99 200.475s-2.683 2.629-4.239 6.117-1.985 7.405-1.985 7.405 6.546.161 7.727-5.151c1.18-5.312-1.503-8.371-1.503-8.371z"></path>
  <path fill="#DE9641" d="m430.273 246.085 36.488-19.639-4.454-11-25.555-18.62-4.762 3.649s.644 7.405-1.717 10.41-4.507 3.112-4.507 3.112-6.868 5.312-7.673 12.932c-.805 7.62 1.824 10.893 4.668 12.073 2.844 1.181 5.849 1.932 5.849 1.932l1.663 5.151z"></path>
  <path fill="#FC9365" d="M440.79 150.036s-1.18 7.619-1.932 18.459c-.751 10.839.537 26.829.537 26.829l-2.643 1.502s-2.133 13.468 4.038 19.8 15.078 4.078 17.385 2.951 4.132-4.132 4.132-4.132-4.346-24.093-4.561-32.463c-.215-8.371.859-31.122.859-31.122l-17.815-1.824zM437.356 256.87l-7.083-10.785 36.487-19.639 14.22 22.859z"></path>
  <path fill="#1E1D1D" d="M443.982 208.551s1.368-.429 2.146.698c.778 1.127.51 2.093.51 2.093l-2.656-2.791z"></path>
  <path fill="#DE9641" d="m440.79 150.036 2.039-17.063 17.063 2.361-1.288 16.527z"></path>
  <path fill="#FC9365" d="M449.351 106.439s-3.142 12.234-4.349 17.224c-1.207 4.99-2.215 9.663-2.215 9.663l17.106 2.008s1.449-7.566 3.38-10.624c1.932-3.059 4.829-6.037 4.829-6.037s-.805-2.093-2.093-2.254c-1.288-.161-5.795 3.219-6.117 2.898s-.201-5.916 0-7.365.483-2.737.483-2.737-3.542-1.65-5.835-2.093c-2.294-.442-5.189-.683-5.189-.683z"></path>
  <path fill="#1E1D1D" d="m450.341 116.54 2.058-9.761.687.098zM454.701 118.311l1.864-10.625.673.236zM438.626 177.429s-1.098 0-2.23.906c-1.133.905-1.052 2.69-1.052 2.69l.966 3.065h2.461l-.145-6.661z"></path>
  <path fill="#FC9365" d="M435.227 197.995s-.125-7.93-.5-8.386c-.376-.456-2.898-1.315-2.71-1.905.188-.59 2.898-1.516 3.327-2.234.429-.717 0-4.447 0-4.447s.617 1.476 1.637 2.173c1.02.698 1.788.803 1.788.803l.627 11.324s-1.234 1.744-2.173 2.2c-.941.457-1.996.472-1.996.472z"></path>
  <path fill="#DE9641" d="m437.517 135.334-1.449 16.527 4.383.588s1.519-3.056 1.787-7.349.23-9.114.23-9.114l-4.951-.652z"></path>
  <path fill="#1E1D1D" d="m442.158 122.456 2.455-11.17.403.149zM437.356 256.87l-3.461.644 13.119 30.264h10.383l9.739 10.946 27.849-20.927-14.005-28.492z"></path>
  <path fill="#F8F2ED" d="M468.424 285.685s-1.529 1.02-3.984 1.556c-2.455.537-7.043.537-7.043.537l1.481 1.665s3.778-.055 5.562-.967c1.784-.913 3.984-2.791 3.984-2.791z"></path>
  <path fill="#FC9365" d="M494.985 277.797s9.98 20.122 11.59 20.927 24.307 10.302 30.263 12.073c5.956 1.771 20.39 7.137 24.576 7.888 4.185.751 6.439 1.234 7.083 4.078s-11.858 28.6-11.858 28.6h-20.793s-1.771-1.422-1.073-3.622 3.461-2.871 3.783-2.898 3.219.027 3.219.027 2.978-2.549 3.246-4.105-2.28-4.963-10.007-6.573-42.927-12.02-46.254-13.844-21.624-21.624-21.624-21.624l27.849-20.927z"></path>
  <path fill="#1E1D1D" d="M555.753 324.427s2.173.698 2.388 2.468c.215 1.771-2.227 2.361-2.227 2.361s1.476-1.02 1.207-2.522c-.268-1.502-1.368-2.307-1.368-2.307zM551.045 344.663l-9.27.208-3.219-.027.295.543s-.966 1.147-.724 2.978c.241 1.831 1.63 2.998 1.63 2.998h.664s-1.469-2.052-1.509-3.099c-.04-1.046 1.046-2.817 1.046-2.817l4.609-.08s-.462 2.012 0 3.582 1.951 2.415 1.951 2.415h.604s-1.61-1.73-1.63-3.461.543-2.515.543-2.515l5.01-.725z"></path>
  <path fill="#FC9365" d="M433.895 257.514s-17.573 3.192-22.617 6.613c-5.044 3.421-7.512 12.006-7.083 19.841.429 7.834 8.907 44.966 7.405 50.439s-7.453 9.283-7.453 9.283h-4.942s-3.863.537-4.722 3.595c-.859 3.059.966 4.388.966 4.388h39.117s1.824-.961 1.61-4.177c-.215-3.216-8.156-54.728-8.156-54.728s.04-4.91 7.204-5.03c7.163-.121 11.791.04 11.791.04l-13.12-30.264z"></path>
  <path fill="#1E1D1D" d="m412.143 343.757-7.996-.067h-4.942l.624.61s-1.187 1.59-1.147 3.602 1.308 3.771 1.308 3.771h.624s-1.087-2.403-.845-3.851c.241-1.449 1.59-3.327 1.59-3.327h6.137s-2.113 1.737-1.992 3.83 1.348 3.348 1.348 3.348h.664s-1.147-2.584-.845-3.731c.302-1.147 2.274-3.448 2.274-3.448l3.198-.737zM428.851 339.183s0 2.361-1.315 3.434-3.38.805-3.38.805 1.905-.496 3.246-1.851c1.342-1.356 1.449-2.388 1.449-2.388zM439.395 195.324l-.624.799v-12.034z"></path>
  <ellipse cx="437.104" cy="184.954" fill="#1E1D1D" rx=".272" ry=".624"></ellipse>
  <path fill="#1E1D1D" d="M125.376 174.363h-2.809s2.656-11.945 4.668-13.273c2.012-1.328 8.089-1.57 9.256 0 1.167 1.57 2.817 12.918 2.817 12.918l-1.93.085-12.002.27z"></path>
  <path fill="#DDA783" d="M75.965 103.943s6.493 36.971 11.644 44.483 15.843 17.815 17.815 19.424c1.972 1.61 8.773 4.91 8.773 4.91s2.898 15.776-1.368 21.651c-4.266 5.876-15.373 10.383-15.373 10.383s-28.251-33.402-31.954-44.349c-3.702-10.946-9.82-51.673-9.82-51.673l20.283-4.829zM146.955 173.914s14.917-11.644 22.859-26.883c7.941-15.239 10.732-33.912 10.732-33.912l24.254 4.615s-4.4 30.478-17.6 52.371c-13.2 21.893-26.257 37.836-26.257 37.836s-11.304-2.099-13.987-15.407c-2.684-13.308-.001-18.62-.001-18.62z"></path>
  <path fill="#D36101" d="M97.455 228.941v-6.278s-5.473-1.69-5.071-8.451 3.461-8.773 5.071-9.417c1.61-.644 11.751-10.061 13.683-16.339s3.059-15.695 3.059-15.695l6.52 2.12s3.541 5.044 10.195 5.366c6.654.322 11.537-5.044 11.537-5.044l4.507-1.288s1.341 21.142 5.795 26.185c4.454 5.044 6.922 6.976 9.444 8.746 2.522 1.771 5.098 6.546 3.649 11.322s-6.063 6.224-6.063 6.224l.134 3.676-62.46-1.127z"></path>
  <path fill="#DDA783" d="m125.17 175.739.805-5.366s-2.301-.027-2.401-1.777c-.101-1.751 1.469-1.891 2.012-1.891s1.026.241 1.026.241 1.409-.543 2.334-1.509c.926-.966 1.066-2.173 1.066-2.173s.483 1.952 2.314 2.555c1.831.604 4.286.342 4.286.342l.221.905s1.751-.563 2.596.825c.845 1.388.02 2.354-.563 2.676-.584.322-1.831.362-1.831.362l.523 4.809 4.89-.537s.644 20.39-.322 24.629-4.883 6.385-9.659 6.761-9.498-3.059-11.054-6.171-.698-25.542-.698-25.542l4.455.861z"></path>
  <path fill="#D36101" d="m54.314 94.124 1.368 14.649 20.283-4.83-1.207-12.234zM180.546 113.119l1.502-16.419 25.032 3.058-2.281 17.976z"></path>
  <path fill="#DDA783" d="M54.314 94.124s-.885-10.222-.644-13.844l1.529-23.02h1.811v-5.835s3.179-.282 4.789 2.213c1.61 2.495 1.248 4.668 1.248 4.668s1.61.362 1.932 2.133c.322 1.771.201 4.145.201 4.145s2.696-.765 3.34 1.127.322 6.56.322 6.56 2.83 1.462 3.796 5.379c.966 3.917 2.12 14.059 2.12 14.059l-20.444 2.415z"></path>
  <path fill="#1E1D1D" d="M67.353 84.304s.08-5.473-1.529-8.29c-1.61-2.817-4.427-4.749-4.427-4.749s-.362-10.544-1.328-12.113-3.059-1.892-3.059-1.892 3.059-.362 3.984 2.495c.926 2.857.926 11.019.926 11.019s3.582 1.818 4.789 5.481.644 8.049.644 8.049z"></path>
  <path fill="#1E1D1D" d="m63.047 58.307.281 11.59.301-11.351zM65.18 64.585v5.312l.57-5.421z"></path>
  <path fill="#DDA783" d="M207.08 99.758s.623-12.445.332-16.803-1.84-27.697-1.84-27.697h-2.179v-7.021s-3.825-.339-5.762 2.663-1.501 5.617-1.501 5.617-1.937.436-2.324 2.566-.242 4.987-.242 4.987-3.244-.92-4.019 1.356-.387 7.893-.387 7.893-3.406 1.759-4.568 6.472c-1.162 4.713-2.542 16.908-2.542 16.908l25.032 3.059z"></path>
  <path fill="#1E1D1D" d="M190.949 87.797s-.097-6.585 1.84-9.975c1.937-3.389 5.326-5.714 5.326-5.714s.436-12.686 1.598-14.575c1.162-1.888 3.68-2.276 3.68-2.276s-3.68-.436-4.794 3.002-1.114 13.258-1.114 13.258-4.309 2.188-5.762 6.594c-1.452 4.408-.774 9.686-.774 9.686z"></path>
  <path fill="#1E1D1D" d="m196.13 56.517-.339 13.945-.361-13.657zM193.564 64.071v6.391l-.687-6.523z"></path>
  <path fill="#DDA783" d="m97.858 242.222-.403-13.281 62.459 1.127v13.602z"></path>
  <path fill="#D36101" d="m66.789 318.31-26.185 6.01s-7.083-37.346-7.083-41.21c0-3.863 1.932-7.941 6.01-10.088 4.078-2.146 58.327-30.8 58.327-30.8l62.056 1.449s59.266 30.854 62.271 34.288c3.005 3.434 4.293 7.298 3.649 12.02s-9.873 37.561-9.873 37.561l-30.693-4.507s6.01-19.102 4.293-22.966c-1.717-3.863-57.951-23.18-62.459-22.966-4.507.215-61.6 20.39-63.317 22.751-1.718 2.36 3.004 18.458 3.004 18.458z"></path>
  <path fill="#DDA783" d="M39.638 341.49s2.576-2.683 3.005-5.795-2.039-11.376-2.039-11.376l26.185-6.01s6.439 20.605 5.688 25.649c-.751 5.044-3.327 6.868-3.327 6.868H32.77s-1.61-3.488-1.234-5.527c.376-2.039 3.541-3.863 3.541-3.863l4.561.054z"></path>
  <path fill="#1E1D1D" d="m52.463 341.544-12.824-.054 1.395.496s-2.173 2.213-2.213 4.226c-.04 2.012 2.294 4.615 2.294 4.615h.644s-2.012-3.85-1.771-5.138 2.415-3.622 2.415-3.622l6.238-.04s-2.294 3.099-1.65 5.111c.644 2.012 2.334 3.689 2.334 3.689h1.127s-1.891-2.603-2.012-4.494c-.121-1.891 1.368-4.346 1.368-4.346l2.655-.443zM65.662 333.2s.268 2.522-1.368 3.649c-1.637 1.127-3.702.268-3.702.268s2.576.027 3.541-.993c.966-1.019 1.529-2.924 1.529-2.924z"></path>
  <path fill="#DDA783" d="M185.268 323.031s-6.117 20.283-5.715 23.422c.402 3.139 2.848 4.99 2.848 4.99h45.445s2.093-2.388 1.637-4.615c-.456-2.227-3.38-3.273-3.38-3.273l-7.566-.59s-3.448-1.583-3.77-5.567c-.322-3.984 1.194-9.86 1.194-9.86l-30.693-4.507z"></path>
  <path fill="#1E1D1D" d="M187.944 333.877s-.543 2.213 1.268 3.119c1.811.905 4.165.382 4.165.382s-2.475 1.307-4.407.15c-1.932-1.156-1.026-3.651-1.026-3.651zM209.635 342.65l8.901.315 4.114.321s2.077 2 1.936 4.334c-.141 2.334-1.73 3.823-1.73 3.823h-.644s1.73-2.636 1.227-4.397c-.503-1.761-1.791-3.33-1.791-3.33l-4.95-.201s1.388 1.891.825 4.226c-.563 2.334-2.314 3.702-2.314 3.702h-.905s2.294-2.535 2.133-4.397c-.161-1.861-1.248-3.612-1.248-3.612l-5.554-.784zM128 168.213s.906.443 1.65.463c.745.02 1.107-.231 1.107-.231s-.423.493-1.167.694c-.745.201-1.59-.926-1.59-.926zM132.581 168.306s.905.443 1.65.463 1.107-.231 1.107-.231-.423.493-1.167.694c-.745.201-1.59-.926-1.59-.926zM137.042 169.163s.523-.804.993-.857a2.53 2.53 0 0 1 .859.054l-1.852.803zM126.179 168.636s-.292-.433-.734-.634c-.443-.201-1.157-.06-1.157-.06l1.891.694z"></path>
</svg>
